<svg width="12" height="12" viewBox="0 0 12 12" fill="none" xmlns="http://www.w3.org/2000/svg">
<path d="M0.666687 2.66667V9.33333C0.666687 10.8067 3.05469 12 6.00002 12C8.94535 12 11.3334 10.8067 11.3334 9.33333V2.66667H0.666687ZM0.666687 2.66667C0.666687 4.14 3.05469 5.33333 6.00002 5.33333C8.94535 5.33333 11.3334 4.14 11.3334 2.66667H0.666687ZM0.666687 2.66667C0.666687 1.19333 3.05469 0 6.00002 0C8.94535 0 11.3334 1.19333 11.3334 2.66667H0.666687ZM11.3334 6C11.3334 7.47333 8.94535 8.66667 6.00002 8.66667C3.05469 8.66667 0.666687 7.47333 0.666687 6" fill="#C4C4C4"/>
</svg>
