<svg width="710" height="800" fill="none" xmlns="http://www.w3.org/2000/svg"><path d="M504.62 228.366c-10.603-1.389-15 4.131-16.39 6.606-1.389 2.436-3.94 9.08 2.686 17.532l34.511 44.374c8.073 8.091 21.019 8.891 30.099 1.866l42.204-32.571c5.709-4.36 7.175-9.024 7.386-12.126.456-7.33-5.274-13.477-14.64-14.696l-20.712-2.645c-2.475-.363-5.083-3.351-5.236-6.11-3.121-60.061-28.344-116.677-71.046-159.394-32.058-32.06-72.359-54.426-116.542-64.764-31.468-7.406-63.696-8.433-95.773-3.028-60.595 10.26-114.62 42.433-152.084 90.596-3.142 4.055-5.559 9.765 2.094 17.419 1.409 1.409 3.275 3.066 5.369 4.702 4.664 3.617 15.458 11.937 22.31 3.16 32.496-41.767 77.899-68.78 128.765-77.365 26.879-4.551 53.95-3.713 80.486 2.474 37.084 8.7 70.931 27.506 97.83 54.425 34.99 34.97 56.12 81.307 59.51 130.439l-2.034 1.523-18.793-2.417Z" fill="#C32CE2"/><path d="M670.391 413.29H367.022v53.094h266.97c5.978 0 10.814 4.853 10.814 10.832v215.458c0 5.976-4.836 10.83-10.814 10.83h-266.97v53.131h303.387c21.761 0 39.367-17.646 39.367-39.349V452.62c.002-21.741-17.626-39.33-39.385-39.33Z" fill="#7C07D3"/><path d="M304.22 800c21.721 0 39.349-17.628 39.349-39.367V255.779c0-21.759-17.648-39.367-39.349-39.367H39.554c-21.759 0-39.33 17.628-39.33 39.367v504.854C.225 782.392 17.816 800 39.555 800H304.22Zm-132.989-24.043c-13.706 0-24.785-11.078-24.785-24.767 0-13.686 11.079-24.785 24.785-24.785 13.669 0 24.767 11.099 24.767 24.785-.02 13.689-11.118 24.767-24.767 24.767ZM53.298 292.178c0-5.976 4.854-10.814 10.832-10.814h215.456c5.979 0 10.832 4.836 10.832 10.814v388.691c0 5.978-4.853 10.814-10.832 10.814H64.15c-5.976 0-10.832-4.836-10.832-10.814V292.178h-.02Z" fill="#C32CE2"/></svg>