<svg width="130" height="139" viewBox="0 0 130 139" fill="none" xmlns="http://www.w3.org/2000/svg">
<path d="M19.1408 3.38815C49.7616 21.3664 80.3975 39.3596 111.018 57.3528C121.466 63.4807 129.929 78.1096 129.929 90.0501C129.929 97.6048 129.929 105.16 129.929 112.714C129.929 118.407 128.005 122.447 124.863 124.444C124.758 124.505 124.668 124.565 124.563 124.625C121.135 126.652 116.325 126.322 111.018 123.213C108.643 121.816 106.283 120.419 103.908 119.022V138.142L87.1771 109.2C67.2292 97.4997 47.2663 85.7845 27.3334 74.0544C24.5975 72.4623 21.8766 70.8553 19.1408 69.2482C10.7978 64.3519 3.70255 53.9885 1.20719 43.9405C0.59086 41.4323 0.245117 38.9391 0.245117 36.551C0.245117 35.9953 0.245117 35.4395 0.245117 34.8838C0.245117 27.8848 0.245117 20.8857 0.245117 13.8867C0.245117 8.02915 2.28951 3.91383 5.59662 1.97633C9.024 -0.0512926 13.8343 0.264118 19.1408 3.38815Z" fill="url(#paint0_linear_595_1248)"/>
<defs>
<linearGradient id="paint0_linear_595_1248" x1="93.9773" y1="11.6816" x2="30.6669" y2="125.017" gradientUnits="userSpaceOnUse">
<stop stop-color="#29ABE2"/>
<stop offset="0.1796" stop-color="#1F81AA"/>
<stop offset="0.3938" stop-color="#14536E"/>
<stop offset="0.5908" stop-color="#0B2F3F"/>
<stop offset="0.7637" stop-color="#05161C"/>
<stop offset="0.906" stop-color="#010608"/>
<stop offset="1"/>
</linearGradient>
</defs>
</svg>
