<svg width="134" height="128" viewBox="0 0 134 128" fill="none" xmlns="http://www.w3.org/2000/svg">
<path d="M43.6986 83.2427L26.9676 92.5397V73.42C24.5925 72.0232 22.2174 70.6414 19.8423 69.2446C9.40985 63.1167 0.946655 48.4728 0.946655 36.5474C0.946655 28.9927 0.946655 21.4379 0.946655 13.8832C0.946655 8.02559 2.99105 3.9103 6.29816 1.95778C9.72553 -0.0698386 14.5359 0.245549 19.8423 3.36958C51.4403 21.9335 83.0382 40.4825 114.636 59.0465C125.069 65.1744 133.532 79.8183 133.532 91.7437C133.532 99.2984 133.532 106.853 133.532 114.408C133.532 120.13 131.578 124.186 128.406 126.183C128.331 126.228 128.255 126.273 128.18 126.318C124.753 128.346 119.943 128.031 114.636 124.906C90.9903 111.029 67.3445 97.1357 43.6986 83.2427Z" fill="url(#paint0_linear_595_1247)"/>
<defs>
<linearGradient id="paint0_linear_595_1247" x1="84.6572" y1="28.3052" x2="50.1738" y2="99.3921" gradientUnits="userSpaceOnUse">
<stop stop-color="#29ABE2"/>
<stop offset="0.1796" stop-color="#1F81AA"/>
<stop offset="0.3938" stop-color="#14536E"/>
<stop offset="0.5908" stop-color="#0B2F3F"/>
<stop offset="0.7637" stop-color="#05161C"/>
<stop offset="0.906" stop-color="#010608"/>
<stop offset="1"/>
</linearGradient>
</defs>
</svg>
