<svg width="253" height="198" viewBox="0 0 253 198" fill="none" xmlns="http://www.w3.org/2000/svg">
<path d="M43.9391 113.62L27.2081 122.917V103.798C24.833 102.401 22.4579 101.004 20.0828 99.6073C9.65035 93.4794 1.18713 78.8505 1.18713 66.9101C1.18713 59.3553 1.18713 51.8006 1.18713 44.2458C1.18713 38.3883 3.23153 34.273 6.53864 32.3355C9.96601 30.3078 14.7764 30.6232 20.0828 33.7473C73.9887 65.4082 127.88 97.054 181.786 128.715C192.218 134.843 200.681 149.487 200.681 161.412C200.681 168.967 200.681 176.522 200.681 184.076C200.681 189.844 198.712 193.914 195.495 195.897C192.94 197.459 189.617 197.729 185.874 196.467C184.552 196.032 183.184 195.401 181.786 194.575C135.832 167.6 89.8779 140.61 43.9391 113.62Z" fill="url(#paint0_linear_660_204)"/>
<path d="M233.347 98.4358C179.456 66.7749 125.55 35.1291 71.6438 3.46823C66.3373 0.344197 61.542 0.0287856 58.0996 2.0564C40.9176 12.1494 23.7357 22.2425 6.5387 32.3355C9.96607 30.3079 14.7764 30.6233 20.0828 33.7473C73.9888 65.4082 127.88 97.054 181.786 128.715C192.218 134.843 200.681 149.487 200.681 161.412C200.681 168.967 200.681 176.522 200.681 184.076C200.681 189.844 198.712 193.914 195.495 195.897C205.191 190.189 214.902 184.497 224.613 178.79H224.628C232.054 174.419 239.465 170.063 246.891 165.708C250.198 163.77 252.242 159.655 252.242 153.797C252.242 146.243 252.242 138.688 252.242 131.133C252.242 119.193 243.779 104.564 233.347 98.4358Z" fill="url(#paint1_linear_660_204)"/>
<path d="M190.414 197.819C188.926 197.819 187.348 197.549 185.694 196.993C184.341 196.543 182.928 195.897 181.5 195.056C135.636 168.141 89.7727 141.196 43.9391 114.266L27.4938 123.413C27.3134 123.503 27.1029 123.503 26.9376 123.413C26.7722 123.308 26.6519 123.128 26.6519 122.933V104.128L19.7972 100.103C9.22948 93.9001 0.630981 79.0009 0.630981 66.9253V44.246C0.630981 38.3734 2.63028 33.9728 6.26811 31.855C10.0412 29.6171 15.047 30.1278 20.3835 33.2668L182.086 128.234C192.654 134.437 201.268 149.337 201.268 161.412V184.077C201.268 189.844 199.328 194.215 195.811 196.377C194.202 197.339 192.383 197.819 190.414 197.819ZM43.9391 113.05C44.0444 113.05 44.1346 113.08 44.2247 113.125C90.1636 140.115 136.117 167.105 182.071 194.079C183.424 194.875 184.762 195.506 186.055 195.927C189.557 197.113 192.714 196.933 195.209 195.416C198.381 193.464 200.125 189.438 200.125 184.077V161.412C200.125 149.682 191.767 135.233 181.5 129.196L19.7972 34.2281C14.8365 31.2993 10.2216 30.8037 6.8243 32.8163C3.54725 34.7387 1.74338 38.794 1.74338 44.246V66.9103C1.74338 78.6404 10.1014 93.0891 20.3684 99.1269L27.4938 103.317C27.6591 103.422 27.7643 103.603 27.7643 103.798V121.956L43.6535 113.125C43.7587 113.08 43.8489 113.05 43.9391 113.05Z" fill="#10FFFF"/>
<path d="M195.495 196.452C195.3 196.452 195.119 196.362 195.014 196.182C194.849 195.912 194.939 195.566 195.194 195.416C198.366 193.464 200.11 189.438 200.11 184.077V161.412C200.11 149.682 191.752 135.233 181.5 129.196L19.7972 34.2281C14.8516 31.3143 10.2667 30.8036 6.86939 32.7862C6.85435 32.8012 6.83933 32.8012 6.80927 32.8162C6.53869 32.9814 6.19295 32.8763 6.04263 32.621C5.8923 32.3506 5.96745 32.0052 6.23803 31.855C6.25306 31.84 6.26809 31.84 6.28313 31.8249C22.8788 22.0774 39.4595 12.3448 56.0552 2.59721L57.7989 1.57589C61.5721 -0.646979 66.5929 -0.151336 71.9143 2.98772L134.795 39.9204C167.745 59.2654 200.681 78.6103 233.617 97.9553C244.185 104.158 252.798 119.058 252.798 131.133V153.797C252.798 159.67 250.799 164.071 247.161 166.188C239.735 170.544 232.324 174.9 224.898 179.27C224.868 179.285 224.838 179.3 224.808 179.315L213.955 185.684C207.882 189.243 201.824 192.803 195.766 196.377C195.691 196.422 195.6 196.452 195.495 196.452ZM11.4693 30.4732C14.2052 30.4732 17.2267 31.4044 20.3684 33.2518L182.071 128.219C192.639 134.422 201.237 149.322 201.237 161.397V184.061C201.237 187.741 200.456 190.85 198.968 193.178C203.778 190.355 208.588 187.531 213.399 184.692L224.327 178.279C224.357 178.264 224.387 178.249 224.417 178.234C231.813 173.878 239.209 169.538 246.605 165.197C249.882 163.275 251.686 159.219 251.686 153.767V131.103C251.686 119.373 243.328 104.924 233.061 98.8865C200.125 79.5416 167.189 60.1966 134.238 40.8516L71.3581 3.91892C66.3974 1.00516 61.7975 0.494498 58.3852 2.5071L56.6414 3.52842C41.3536 12.51 26.0807 21.4766 10.7778 30.4582C11.0033 30.4732 11.2438 30.4732 11.4693 30.4732Z" fill="#10FFFF"/>
<path d="M172.165 189.108C172.12 189.108 172.075 189.093 172.045 189.063C171.985 189.018 171.969 188.943 171.985 188.883L178.884 159.024L158.095 133.341C158.065 133.296 158.05 133.236 158.05 133.191L161.221 117.075L138.508 125.906L127.624 162.719C127.609 162.794 127.534 162.839 127.459 162.854C127.369 162.869 127.308 162.824 127.278 162.749L113.975 136.15C113.945 136.09 113.945 136.03 113.975 135.969L133.427 100.734L116.816 102.762L107.075 114.266C107.045 114.296 107 114.327 106.955 114.327L86.8564 116.67C86.7963 116.685 86.7362 116.655 86.6911 116.594L74.3195 101.14C74.3044 101.109 74.2894 101.079 74.2744 101.049L70.2156 63.7562L49.4259 98.3159L60.9106 123.383C60.9557 123.473 60.9106 123.594 60.8204 123.639C60.7302 123.684 60.61 123.639 60.5649 123.548L49.0351 98.391C49.005 98.3309 49.02 98.2708 49.0501 98.2107L70.1856 63.0804C70.2307 63.0053 70.3058 62.9752 70.381 62.9903C70.4561 63.0053 70.5163 63.0804 70.5313 63.1555L74.6502 100.944L86.9165 116.264L106.834 113.936L116.575 102.431C116.605 102.401 116.651 102.371 116.696 102.371L133.742 100.283C133.802 100.268 133.878 100.313 133.923 100.359C133.968 100.419 133.968 100.494 133.938 100.554L114.351 136.03L127.399 162.118L138.177 125.666C138.192 125.606 138.237 125.561 138.282 125.546L161.402 116.564C161.462 116.534 161.537 116.549 161.597 116.594C161.657 116.64 161.672 116.715 161.657 116.775L158.44 133.146L179.23 158.829C179.26 158.874 179.275 158.934 179.26 158.994L172.435 188.567L200.576 175.981L213.188 163.32L199.854 155.179C199.779 155.134 199.749 155.059 199.764 154.969L203.116 141.842L195.104 142.923C195.029 142.938 194.954 142.893 194.924 142.833C194.879 142.773 194.894 142.683 194.939 142.623L207.01 126.672L210.828 111.713L201.478 108.604L169.865 121.791C169.79 121.821 169.715 121.806 169.654 121.746C169.594 121.686 169.579 121.611 169.624 121.536L178.929 101.094L153.931 92.7887L155.735 113.23C155.75 113.32 155.689 113.41 155.599 113.425C155.509 113.44 155.419 113.395 155.374 113.32L145.618 90.8662L128.12 97.2795C128.015 97.3096 127.91 97.2645 127.88 97.1744C127.85 97.0843 127.895 96.9641 127.985 96.9341L145.452 90.5358L145.167 89.89L128.767 84.438L103.963 83.1763C103.888 83.1763 103.813 83.1162 103.798 83.0411C103.768 82.9661 103.798 82.8759 103.873 82.8309L110.157 78.2349L76.4691 67.0305C76.4089 67.0155 76.3638 66.9554 76.3488 66.8803C76.3338 66.8202 76.3639 66.7451 76.4089 66.7L119.687 30.8488C119.732 30.8037 119.792 30.8037 119.852 30.8037C119.913 30.8187 119.958 30.8638 119.988 30.9088L133.216 61.3531L149.812 49.2175C149.872 49.1724 149.932 49.1724 150.007 49.2025C150.067 49.2325 150.112 49.2926 150.112 49.3527L153.284 85.279L158.967 85.5644L191.512 73.639C191.587 73.609 191.662 73.639 191.707 73.6841C191.752 73.7441 191.767 73.8192 191.737 73.8943L185.799 86.9312L216.916 88.5082C216.976 88.5082 217.021 88.5382 217.051 88.5833C217.081 88.6284 217.097 88.6884 217.082 88.7335L213.384 103.182L230.009 96.2432C230.085 96.2131 230.175 96.2282 230.235 96.3033C230.28 96.3633 230.295 96.4685 230.235 96.5286L217.427 113.455L251.641 124.84C251.701 124.855 251.746 124.915 251.761 124.975C251.776 125.035 251.761 125.11 251.716 125.156L240.562 136.33L252.212 134.753C252.287 134.753 252.347 134.768 252.392 134.828C252.438 134.888 252.438 134.963 252.408 135.023L232.024 174.524C231.994 174.569 231.964 174.599 231.903 174.614C231.858 174.629 231.798 174.614 231.753 174.599L213.519 163.47L200.817 176.221C200.801 176.236 200.786 176.251 200.756 176.266L172.24 189.018C172.225 189.108 172.195 189.108 172.165 189.108ZM213.789 163.29L231.783 174.269L251.911 135.279L240.141 136.871L213.789 163.29ZM200.17 154.969L213.474 163.079L239.525 136.946L203.537 141.827L200.17 154.969ZM206.769 127.664L195.51 142.548L203.222 141.497L206.769 127.664ZM207.356 126.883L203.628 141.437L239.961 136.51L251.235 125.201L217.187 113.876L207.356 126.883ZM211.189 111.878L207.596 125.937L216.811 113.741L211.189 111.878ZM179.29 101.275L170.166 121.311L200.937 108.469L179.29 101.275ZM211.279 111.518L217.051 113.44L229.513 96.9641L213.278 103.738L211.279 111.518ZM145.979 90.7912L155.269 112.164L153.555 92.7136L146.85 90.4757L145.979 90.7912ZM202.004 108.424L210.918 111.398L212.827 103.903L202.004 108.424ZM179.441 100.929L201.448 108.259L212.948 103.468L216.661 88.9588L185.619 87.3818L179.441 100.929ZM153.901 92.4283L179.08 100.809L185.213 87.3517L159.012 86.015L153.51 88.0276L153.901 92.4283ZM147.407 90.2655L153.51 92.2931L153.149 88.1628L147.407 90.2655ZM145.678 90.0852L145.828 90.4457L146.264 90.2805L145.678 90.0852ZM145.467 89.6197L146.82 90.0702L153.104 87.7722L152.924 85.6996L143.558 85.219L145.467 89.6197ZM130.195 84.5431L144.986 89.4544L143.137 85.1889L130.195 84.5431ZM153.314 85.7296L153.48 87.6521L158.05 85.9699L153.314 85.7296ZM159.914 85.6846L185.393 86.9762L191.211 74.2097L159.914 85.6846ZM143.393 84.8435L152.893 85.3241L149.752 49.7732L133.351 61.7737L143.393 84.8435ZM128.872 84.1075L142.972 84.8284L133.051 62.014L110.968 78.1749L128.872 84.1075ZM104.534 82.8609L127.459 84.0324L110.608 78.4302L104.534 82.8609ZM76.92 66.8202L110.547 78.0096L132.915 61.6535L119.747 31.3594L76.92 66.8202Z" fill="#10FFFF"/>
<path d="M193.451 197.218C193.346 197.218 193.27 197.143 193.27 197.038L192.323 180.006L174.781 177.738L138.823 169.568C138.763 169.553 138.703 169.508 138.688 169.448C138.673 169.387 138.688 169.312 138.718 169.267L160.725 144.14L158.08 133.401L138.387 125.996L103.031 148.45C102.956 148.496 102.851 148.48 102.791 148.405C102.731 148.33 102.731 148.225 102.791 148.165L113.93 136.044L106.744 114.236L101.919 82.23L74.56 101.214C74.53 101.244 74.4698 101.244 74.4398 101.244L49.1855 98.526C49.0802 98.511 49.0051 98.4209 49.0201 98.3157C49.0351 98.2106 49.1253 98.1355 49.2306 98.1505L74.4097 100.869L101.949 81.7493C102.009 81.7043 102.069 81.7043 102.129 81.7343C102.189 81.7644 102.235 81.8094 102.235 81.8845L107.105 114.146L114.306 136.029C114.321 136.089 114.306 136.165 114.26 136.21L104.023 147.369L138.252 125.621C138.297 125.591 138.357 125.576 138.417 125.606L158.29 133.071C158.35 133.086 158.395 133.146 158.41 133.206L161.011 143.794L176.795 125.771C176.84 125.711 176.915 125.696 176.99 125.711C177.065 125.726 177.111 125.786 177.126 125.861L178.914 137.426L196.547 145.236C196.608 145.266 196.653 145.326 196.653 145.386C196.668 145.447 196.638 145.522 196.577 145.552L179.17 159.144C179.14 159.159 179.125 159.174 179.095 159.174L165.25 161.878C165.16 161.893 165.055 161.833 165.025 161.743L160.816 144.575L139.184 169.267L174.811 177.378L192.489 179.661C192.579 179.676 192.654 179.751 192.654 179.841L193.601 197.038C193.646 197.113 193.571 197.203 193.451 197.218C193.466 197.218 193.451 197.218 193.451 197.218ZM161.131 144.215L165.37 161.457L179.005 158.799L196.127 145.432L178.689 137.712C178.629 137.682 178.584 137.636 178.584 137.561L176.84 126.282L161.131 144.215Z" fill="#10FFFF"/>
<path d="M78.754 134.257C78.6939 134.257 78.6488 134.227 78.6187 134.197C78.5736 134.137 78.5586 134.062 78.5886 134.002L86.661 116.429C86.7061 116.339 86.8113 116.294 86.9165 116.339C87.0067 116.384 87.0519 116.489 87.0068 116.594L79.1148 133.776L122.799 120.124C122.844 120.109 122.874 120.109 122.919 120.124L138.432 125.591C138.538 125.621 138.583 125.726 138.553 125.831C138.523 125.936 138.417 125.981 138.312 125.951L122.859 120.499L78.8292 134.257C78.7991 134.257 78.7841 134.257 78.754 134.257Z" fill="#10FFFF"/>
<defs>
<linearGradient id="paint0_linear_660_204" x1="116.858" y1="72.4593" x2="82.8932" y2="161.565" gradientUnits="userSpaceOnUse">
<stop stop-color="#29ABE2"/>
<stop offset="0.1796" stop-color="#1F81AA"/>
<stop offset="0.3938" stop-color="#14536E"/>
<stop offset="0.5908" stop-color="#0B2F3F"/>
<stop offset="0.7637" stop-color="#05161C"/>
<stop offset="0.906" stop-color="#010608"/>
<stop offset="1"/>
</linearGradient>
<linearGradient id="paint1_linear_660_204" x1="6.5396" y1="98.3305" x2="252.243" y2="98.3305" gradientUnits="userSpaceOnUse">
<stop stop-color="#29ABE2"/>
<stop offset="0.1796" stop-color="#1F81AA"/>
<stop offset="0.3938" stop-color="#14536E"/>
<stop offset="0.5908" stop-color="#0B2F3F"/>
<stop offset="0.7637" stop-color="#05161C"/>
<stop offset="0.906" stop-color="#010608"/>
<stop offset="1"/>
</linearGradient>
</defs>
</svg>
