<svg width="184" height="169" viewBox="0 0 184 169" fill="none" xmlns="http://www.w3.org/2000/svg">
<path d="M125.863 154.032C125.773 154.107 125.668 154.167 125.563 154.212C125.668 154.152 125.758 154.092 125.863 154.032Z" fill="white"/>
<path d="M125.863 154.032C136.07 148.04 146.262 142.062 156.469 136.069V137.451L104.908 167.73V148.61C107.283 150.007 109.643 151.404 112.018 152.801C117.325 155.91 122.135 156.24 125.562 154.212C125.668 154.167 125.773 154.107 125.863 154.032Z" fill="url(#paint0_linear_660_201)"/>
<path d="M20.1406 32.976C50.7615 50.9543 81.3974 68.9475 112.018 86.9407C122.466 93.0686 130.929 107.698 130.929 119.638C130.929 127.193 130.929 134.747 130.929 142.302C130.929 147.995 129.005 152.035 125.863 154.032C125.758 154.092 125.668 154.152 125.562 154.213C122.135 156.24 117.325 155.91 112.018 152.801C109.643 151.404 107.283 150.007 104.908 148.61V167.73L88.177 138.788C68.2291 127.088 48.2661 115.372 28.3333 103.642C25.5974 102.05 22.8765 100.443 20.1406 98.8361C11.7977 93.9398 4.70243 83.5764 2.20706 73.5284C1.59074 71.0202 1.245 68.5269 1.245 66.1389C1.245 65.5831 1.245 65.0274 1.245 64.4717C1.245 57.4727 1.245 50.4736 1.245 43.4746C1.245 37.617 3.28939 33.5017 6.5965 31.5642C10.0239 29.5366 14.8342 29.852 20.1406 32.976Z" fill="url(#paint1_linear_660_201)"/>
<path d="M163.594 56.6467C132.958 38.6685 102.337 20.6752 71.7014 2.68199C70.3034 1.87094 68.9505 1.24013 67.6277 0.789551H67.6126C57.9018 6.49692 48.1909 12.1893 38.495 17.8966C35.9395 19.4587 32.6174 19.729 28.8743 18.4674C21.4484 22.838 14.0224 27.1936 6.59644 31.5493V31.5643C10.0238 29.5366 14.8341 29.8521 20.1406 32.9761C50.7614 50.9543 81.3973 68.9475 112.018 86.9408C122.466 93.0687 130.929 107.698 130.929 119.638C130.929 127.193 130.929 134.747 130.929 142.302C130.929 147.995 129.005 152.035 125.863 154.032C136.07 148.04 146.262 142.062 156.469 136.069C163.339 132.029 170.208 128.004 177.078 123.964C177.093 123.964 177.123 123.949 177.138 123.934C180.445 121.981 182.49 117.881 182.49 112.008C182.49 104.453 182.49 96.8986 182.49 89.3439C182.49 77.4185 174.027 62.7746 163.594 56.6467Z" fill="url(#paint2_linear_660_201)"/>
<path d="M125.562 154.769C125.352 154.769 125.157 154.648 125.066 154.453C124.931 154.183 125.036 153.867 125.292 153.717L125.592 153.537C125.848 153.387 126.164 153.462 126.329 153.702C126.494 153.942 126.449 154.273 126.224 154.453C126.104 154.558 125.953 154.648 125.788 154.723C125.713 154.754 125.638 154.769 125.562 154.769Z" fill="#10FFFF"/>
<path d="M104.908 168.286C104.818 168.286 104.713 168.256 104.623 168.211C104.442 168.106 104.337 167.926 104.337 167.715V148.596C104.337 148.4 104.442 148.205 104.623 148.1C104.803 147.995 105.013 147.995 105.194 148.1L112.304 152.29C117.28 155.204 121.88 155.7 125.277 153.702C125.412 153.642 125.457 153.612 125.503 153.567C125.533 153.552 125.548 153.537 125.578 153.522L156.184 135.559C156.364 135.454 156.574 135.454 156.755 135.559C156.935 135.664 157.04 135.844 157.04 136.054V137.436C157.04 137.632 156.935 137.827 156.77 137.917L105.209 168.196C105.104 168.256 105.013 168.286 104.908 168.286ZM105.479 149.587V166.739L155.913 137.121V137.046L126.194 154.483C126.074 154.573 125.938 154.648 125.803 154.709C122.105 156.901 117.099 156.391 111.748 153.267L105.479 149.587Z" fill="#10FFFF"/>
<path d="M104.908 168.286C104.713 168.286 104.517 168.181 104.427 168.001L87.7711 139.193C67.8683 127.523 47.9505 115.823 28.0477 104.123C26.0785 102.982 24.1243 101.825 22.155 100.669L19.8551 99.3169C11.5723 94.4656 4.26655 84.1473 1.66596 73.6638C1.01957 71.0203 0.688843 68.4821 0.688843 66.139V43.4748C0.688843 37.6022 2.68814 33.2015 6.32597 31.0838C10.0991 28.8459 15.1049 29.3566 20.4414 32.4956C51.0622 50.4738 81.6981 68.467 112.319 86.4603C122.902 92.6633 131.5 107.548 131.5 119.638V142.302C131.5 147.995 129.606 152.32 126.179 154.513L125.863 154.708C122.12 156.931 117.099 156.421 111.748 153.297L105.479 149.602V167.73C105.479 167.986 105.314 168.211 105.058 168.271C105.013 168.286 104.953 168.286 104.908 168.286ZM11.5272 30.8285C9.81348 30.8285 8.25012 31.234 6.88218 32.045C3.60513 33.9675 1.80124 38.0227 1.80124 43.4748V66.139C1.80124 68.3919 2.11693 70.8401 2.74829 73.3934C5.28875 83.6066 12.384 93.6395 20.4263 98.3556L22.7262 99.7074C24.6955 100.864 26.6497 102.02 28.6189 103.162C48.5518 114.892 68.5148 126.607 88.4627 138.307C88.5529 138.352 88.613 138.427 88.6581 138.517L104.337 165.643V148.626C104.337 148.43 104.442 148.235 104.622 148.13C104.803 148.025 105.013 148.025 105.194 148.13L112.304 152.32C117.28 155.234 121.88 155.73 125.277 153.732L125.593 153.552C128.659 151.599 130.373 147.604 130.373 142.317V119.653C130.373 107.923 122.015 93.4743 111.748 87.4365C81.1269 69.4433 50.491 51.4501 19.8701 33.4719C16.8937 31.7146 14.0526 30.8285 11.5272 30.8285Z" fill="#10FFFF"/>
<path d="M125.863 154.588C125.668 154.588 125.487 154.498 125.382 154.318C125.217 154.062 125.307 153.717 125.562 153.552C128.659 151.584 130.373 147.589 130.373 142.302V119.638C130.373 107.908 122.015 93.4592 111.748 87.4214C81.1268 69.4282 50.4909 51.435 19.87 33.4568C14.9094 30.528 10.2944 30.0323 6.89714 32.0449C6.71675 32.1501 6.50629 32.1501 6.3259 32.0449C6.14551 31.9398 6.04028 31.7596 6.04028 31.5493C6.04028 31.354 6.14551 31.1438 6.3259 31.0536C13.7519 26.698 21.1779 22.3424 28.6038 17.9718C28.7391 17.8817 28.9195 17.8666 29.0698 17.9267C32.5724 19.1132 35.7291 18.933 38.2095 17.416C44.2825 13.8414 50.3406 10.2818 56.4137 6.72224L67.3421 0.30895C67.4774 0.233853 67.6729 0.203816 67.8232 0.263894C69.1611 0.714475 70.5591 1.37534 72.0022 2.20141L96.2794 16.4548C118.813 29.6869 141.361 42.934 163.895 56.1661C174.463 62.3691 183.076 77.2683 183.076 89.3439V112.008C183.076 117.866 181.077 122.281 177.454 124.414C177.439 124.429 177.409 124.444 177.379 124.444L126.164 154.513C126.058 154.558 125.968 154.588 125.863 154.588ZM11.5271 29.7019C14.263 29.7019 17.2845 30.6331 20.4262 32.4805C51.0471 50.4587 81.683 68.4519 112.304 86.4452C122.887 92.6482 131.5 107.532 131.5 119.623V142.287C131.5 145.952 130.718 149.061 129.23 151.389L176.793 123.453C176.838 123.423 176.868 123.408 176.913 123.393C180.175 121.35 181.919 117.325 181.919 111.978V89.3439C181.919 77.6137 173.561 63.1651 163.294 57.1273C140.745 43.8952 118.212 30.6631 95.6781 17.416L71.4009 3.16265C70.1231 2.41168 68.8604 1.82592 67.6579 1.40538L56.9548 7.68348C50.8817 11.2431 44.8237 14.8027 38.7657 18.3773C36.0599 20.0294 32.6475 20.2697 28.9195 19.0832C22.8765 22.6428 16.8335 26.1874 10.7905 29.732C11.0461 29.7019 11.2866 29.7019 11.5271 29.7019Z" fill="#10FFFF"/>
<path d="M160.588 133.831C160.573 133.831 160.558 133.831 160.558 133.831C160.452 133.816 160.392 133.711 160.407 133.606L162.828 120.945L148.712 118.091C148.667 118.076 148.607 118.046 148.592 118.001C148.562 117.956 148.562 117.896 148.577 117.851L151.644 108.284L142.82 93.7147L130.839 86.4003C130.779 86.3702 130.749 86.3102 130.749 86.2501L130.508 64.7123L112.454 49.2723L101.556 66.6648C101.511 66.7399 101.42 66.7699 101.36 66.7549L60.8482 57.1125C60.758 57.0974 60.6979 57.0073 60.6979 56.9172C60.6979 56.8271 60.773 56.752 60.8632 56.737L112.379 48.8067L136.356 40.531C136.416 40.516 136.491 40.516 136.536 40.5761C136.581 40.6212 136.611 40.6963 136.596 40.7564L130.914 64.517L146.698 71.4109C146.773 71.441 146.818 71.5311 146.803 71.6212L143.195 93.2191L172.027 74.9104C172.087 74.8654 172.163 74.8654 172.223 74.9104C172.283 74.9555 172.313 75.0156 172.313 75.0907L169.216 97.3043C169.201 97.3644 169.171 97.4095 169.126 97.4395L152.109 108.329L163.053 120.584L182.37 104.514C182.445 104.454 182.565 104.454 182.64 104.544C182.7 104.619 182.7 104.739 182.61 104.814L163.218 120.9L160.783 133.681C160.768 133.771 160.678 133.831 160.588 133.831ZM148.983 117.746L162.527 120.494L151.914 108.614L148.983 117.746ZM143.195 93.6246L151.884 107.983L168.855 97.1241L171.877 75.4061L143.195 93.6246ZM131.109 86.1149L142.804 93.2491L146.412 71.6512L130.884 64.8775L131.109 86.1149ZM61.8553 56.9322L101.315 66.3194L112.048 49.2123L61.8553 56.9322ZM112.785 49.032L130.583 64.2617L136.145 40.9816L112.785 49.032Z" fill="#10FFFF"/>
<path d="M154.139 137.616H154.124C154.049 137.601 153.988 137.556 153.958 137.481L148.622 118.151L130.764 125.225C130.673 125.255 130.583 125.225 130.538 125.15C130.493 125.075 130.508 124.97 130.583 124.91L151.433 108.343L125.532 101.615C125.487 101.6 125.442 101.57 125.412 101.525C125.382 101.48 125.382 101.42 125.397 101.374L130.718 86.31L122.736 79.4311C122.676 79.3711 122.646 79.2809 122.691 79.2058L130.373 64.8323L101.556 66.7247L99.1506 79.311C99.1355 79.4161 99.0303 79.4912 98.9251 79.4612C98.8199 79.4462 98.7597 79.341 98.7747 79.2359L101.195 66.4994C101.21 66.4093 101.285 66.3492 101.36 66.3492L130.658 64.4117C130.718 64.3967 130.794 64.4418 130.824 64.5019C130.854 64.5619 130.869 64.637 130.839 64.6971L123.067 79.2359L131.034 86.0998C131.094 86.1448 131.109 86.2349 131.094 86.31L125.803 101.299L151.884 108.073C151.959 108.088 152.004 108.148 152.019 108.223C152.034 108.298 152.004 108.358 151.959 108.404L131.801 124.414L148.682 117.731C148.727 117.716 148.787 117.716 148.832 117.731C148.878 117.761 148.923 117.791 148.938 117.851L154.214 136.94L162.903 120.719L168.886 97.1991C168.901 97.139 168.946 97.0939 168.991 97.0639L182.084 91.8071L146.548 71.7262C146.457 71.6811 146.427 71.576 146.472 71.4859L155.311 52.1109L112.409 49.152C112.304 49.152 112.229 49.0619 112.229 48.9568L112.755 26.8933C112.755 26.7882 112.86 26.698 112.95 26.7131C113.055 26.7131 113.131 26.8032 113.131 26.9083L112.605 48.7916L155.597 51.7504C155.657 51.7504 155.717 51.7954 155.747 51.8405C155.777 51.9006 155.777 51.9607 155.762 52.0208L146.863 71.4709L182.58 91.6569C182.64 91.687 182.685 91.762 182.67 91.8371C182.67 91.9122 182.625 91.9723 182.55 92.0024L169.186 97.3793L163.218 120.84L154.304 137.526C154.274 137.586 154.214 137.616 154.139 137.616Z" fill="#10FFFF"/>
<path d="M130.929 127.538H121.684C121.624 127.538 121.579 127.523 121.549 127.478C121.519 127.433 121.489 127.388 121.504 127.328L123.909 99.1667L102.743 98.3707C102.683 98.3707 102.623 98.3406 102.593 98.2956C102.563 98.2505 102.548 98.1904 102.563 98.1304L106.952 84.4177L89.8456 89.8697C89.7554 89.8997 89.6351 89.8547 89.605 89.7495L83.3967 70.78L72.9492 101.345C72.9192 101.42 72.8591 101.48 72.7689 101.465C72.6787 101.465 72.6185 101.405 72.5885 101.329L61.5698 57.1425C61.5397 57.0373 61.5998 56.9472 61.705 56.9172C61.8103 56.8871 61.9004 56.9472 61.9305 57.0523L72.7989 100.624L83.2163 70.1342C83.2464 70.0591 83.3366 69.999 83.3967 70.0141C83.4718 70.0141 83.547 70.0741 83.5771 70.1492L89.8907 89.4792L107.163 83.9671C107.223 83.9521 107.298 83.9671 107.358 84.0121C107.403 84.0572 107.418 84.1323 107.403 84.2074L102.969 98.0402L124.074 98.8363C124.119 98.8363 124.179 98.8663 124.209 98.8963C124.24 98.9414 124.255 98.9865 124.255 99.0315L121.849 127.178H130.899C131.004 127.178 131.079 127.268 131.079 127.358C131.124 127.463 131.034 127.538 130.929 127.538Z" fill="#10FFFF"/>
<path d="M127.336 153.357C127.276 153.357 127.216 153.327 127.171 153.267L121.594 143.804L104.968 148.791C104.923 148.806 104.863 148.806 104.818 148.776L88.0868 138.953C88.0266 138.908 87.9816 138.833 87.9966 138.758C88.0116 138.683 88.0717 138.623 88.1469 138.608L106.216 134.943L103.735 109.56L72.844 101.51L53.3921 118.452C53.332 118.497 53.2569 118.512 53.1817 118.482C53.1065 118.452 53.0765 118.377 53.0765 118.301L55.7823 87.2263L47.1086 71.471C47.0635 71.3959 47.0785 71.3058 47.1387 71.2457L61.6299 56.9923C61.69 56.9322 61.7802 56.9172 61.8553 56.9622C61.9305 57.0073 61.9606 57.0824 61.9455 57.1575L56.1731 87.1062L72.7989 101.074L89.6952 89.5693C89.7553 89.5243 89.8455 89.5243 89.9057 89.5693L102.848 98.0703C102.894 98.1004 102.924 98.1454 102.939 98.2055L104.081 109.26L110.62 110.191L123.984 98.8814C124.044 98.8213 124.149 98.8213 124.224 98.8814C124.3 98.9414 124.315 99.0315 124.285 99.1066L106.847 134.688L121.609 127.223C121.699 127.178 121.819 127.208 121.864 127.298L125.893 135.018C125.923 135.063 125.923 135.138 125.893 135.183L121.91 143.594L127.502 153.101C127.547 153.191 127.532 153.312 127.441 153.357C127.396 153.342 127.366 153.357 127.336 153.357ZM88.7031 138.863L104.938 148.4L121.203 143.519L106.381 135.273L88.7031 138.863ZM106.817 135.093L121.594 143.324L125.502 135.093L121.594 127.613L106.817 135.093ZM104.111 109.62L106.531 134.402L123.533 99.7224L110.786 110.506C110.74 110.536 110.695 110.566 110.635 110.551L104.111 109.62ZM56.128 87.5417L53.4974 117.851L72.4982 101.299L56.128 87.5417ZM73.2348 101.209L103.69 109.155L102.563 98.3106L89.8004 89.9298L73.2348 101.209ZM47.5145 71.3959L55.8875 86.6255L61.4645 57.6681L47.5145 71.3959Z" fill="#10FFFF"/>
<defs>
<linearGradient id="paint0_linear_660_201" x1="104.909" y1="151.894" x2="156.47" y2="151.894" gradientUnits="userSpaceOnUse">
<stop stop-color="#29ABE2"/>
<stop offset="0.1796" stop-color="#1F81AA"/>
<stop offset="0.3938" stop-color="#14536E"/>
<stop offset="0.5908" stop-color="#0B2F3F"/>
<stop offset="0.7637" stop-color="#05161C"/>
<stop offset="0.906" stop-color="#010608"/>
<stop offset="1"/>
</linearGradient>
<linearGradient id="paint1_linear_660_201" x1="94.9772" y1="41.2565" x2="31.6667" y2="154.592" gradientUnits="userSpaceOnUse">
<stop stop-color="#29ABE2"/>
<stop offset="0.1796" stop-color="#1F81AA"/>
<stop offset="0.3938" stop-color="#14536E"/>
<stop offset="0.5908" stop-color="#0B2F3F"/>
<stop offset="0.7637" stop-color="#05161C"/>
<stop offset="0.906" stop-color="#010608"/>
<stop offset="1"/>
</linearGradient>
<linearGradient id="paint2_linear_660_201" x1="6.59719" y1="77.4053" x2="182.491" y2="77.4053" gradientUnits="userSpaceOnUse">
<stop stop-color="#29ABE2"/>
<stop offset="0.1796" stop-color="#1F81AA"/>
<stop offset="0.3938" stop-color="#14536E"/>
<stop offset="0.5908" stop-color="#0B2F3F"/>
<stop offset="0.7637" stop-color="#05161C"/>
<stop offset="0.906" stop-color="#010608"/>
<stop offset="1"/>
</linearGradient>
</defs>
</svg>
