<svg fill="#fff" height="800" width="800" xmlns="http://www.w3.org/2000/svg" viewBox="0 0 490.667 490.667" xml:space="preserve"><path d="M173.792 301.792 21.333 454.251v-80.917c0-5.891-4.776-10.667-10.667-10.667-5.89 0-10.666 4.775-10.666 10.666V480c0 5.891 4.776 10.667 10.667 10.667h106.667c5.891 0 10.667-4.776 10.667-10.667s-4.776-10.667-10.667-10.667H36.416l152.459-152.459a10.667 10.667 0 0 0-15.083-15.082zM480 0H373.333c-5.891 0-10.667 4.776-10.667 10.667s4.776 10.667 10.667 10.667h80.917L301.792 173.792c-4.237 4.093-4.354 10.845-.262 15.083 4.093 4.237 10.845 4.354 15.083.262.089-.086.176-.173.262-.262L469.333 36.416v80.917c0 5.891 4.776 10.667 10.667 10.667s10.667-4.776 10.667-10.667V10.667C490.667 4.776 485.891 0 480 0zM36.416 21.333h80.917c5.891 0 10.667-4.776 10.667-10.667C128 4.776 123.224 0 117.333 0H10.667C4.776 0 0 4.776 0 10.667v106.667C0 123.224 4.776 128 10.667 128s10.667-4.776 10.667-10.667V36.416l152.459 152.459c4.237 4.093 10.99 3.975 15.083-.262 3.992-4.134 3.992-10.687 0-14.82L36.416 21.333zM480 362.667c-5.891 0-10.667 4.776-10.667 10.667v80.917L316.875 301.792c-4.237-4.093-10.99-3.976-15.083.261-3.993 4.134-3.993 10.688 0 14.821l152.459 152.459h-80.917c-5.891 0-10.667 4.776-10.667 10.667s4.776 10.667 10.667 10.667H480c5.891 0 10.667-4.776 10.667-10.667V373.333c0-5.891-4.776-10.666-10.667-10.666z"/></svg>