<svg width="75" height="169" viewBox="0 0 75 169" fill="none" xmlns="http://www.w3.org/2000/svg">
<path opacity="0.4" d="M67.9309 58.238L67.9159 50.7584L74.4399 46.9885L74.455 54.4832L67.9309 58.238Z" fill="#10E9FF"/>
<path opacity="0.1882" d="M58.3102 63.7952L58.2802 56.3155L64.8042 52.5457L64.8342 60.0403L58.3102 63.7952Z" fill="#10E9FF"/>
<path opacity="0.4" d="M48.6745 69.3523L48.6595 61.8576L55.1836 58.1028L55.1986 65.5825L48.6745 69.3523Z" fill="#10E9FF"/>
<path d="M39.0538 74.9096L39.0388 67.4149L45.5628 63.645L45.5778 71.1397L39.0538 74.9096Z" fill="#10E9FF"/>
<path d="M29.4181 80.4667L29.4031 72.972L35.9271 69.2021L35.9422 76.6968L29.4181 80.4667Z" fill="#10E9FF"/>
<path opacity="0.4" d="M19.7973 86.0088L19.7823 78.5292L26.2913 74.7593L26.3214 82.254L19.7973 86.0088Z" fill="#10E9FF"/>
<path opacity="0.4" d="M10.1767 91.5659L10.1466 84.0713L16.6706 80.3164L16.7007 87.7961L10.1767 91.5659Z" fill="#10E9FF"/>
<path opacity="0.1882" d="M0.540926 97.1232L0.525879 89.6285L7.04995 85.8586L7.06495 93.3533L0.540926 97.1232Z" fill="#10E9FF"/>
<path opacity="0.1882" d="M67.9009 46.5829L67.8708 39.0882L74.3949 35.3184L74.4249 42.813L67.9009 46.5829Z" fill="#10E9FF"/>
<path d="M58.2802 52.14L58.2501 44.6454L64.7741 40.8755L64.7892 48.3702L58.2802 52.14Z" fill="#10E9FF"/>
<path opacity="0.4" d="M48.6444 57.6824L48.6294 50.1877L55.1535 46.4329L55.1685 53.9275L48.6444 57.6824Z" fill="#10E9FF"/>
<path opacity="0.1882" d="M39.0237 63.2394L38.9937 55.7447L45.5177 51.9749L45.5477 59.4695L39.0237 63.2394Z" fill="#10E9FF"/>
<path opacity="0.4" d="M29.388 68.7965L29.3729 61.3019L35.897 57.532L35.912 65.0267L29.388 68.7965Z" fill="#10E9FF"/>
<path d="M19.7674 74.3539L19.7373 66.8592L26.2614 63.0894L26.2914 70.584L19.7674 74.3539Z" fill="#10E9FF"/>
<path opacity="0.1882" d="M10.1316 79.896L10.1166 72.4013L16.6406 68.6465L16.6557 76.1411L10.1316 79.896Z" fill="#10E9FF"/>
<path opacity="0.4" d="M0.510897 85.453L0.49585 77.9583L7.01988 74.1885L7.03492 81.6831L0.510897 85.453Z" fill="#10E9FF"/>
<path opacity="0.4" d="M67.8708 34.9128L67.8407 27.4182L74.3648 23.6633L74.3948 31.143L67.8708 34.9128Z" fill="#10E9FF"/>
<path opacity="0.1882" d="M58.2351 40.4701L58.2201 32.9754L64.7441 29.2056L64.7592 36.7002L58.2351 40.4701Z" fill="#10E9FF"/>
<path d="M48.6144 46.0122L48.5994 38.5325L55.1084 34.7627L55.1384 42.2574L48.6144 46.0122Z" fill="#10E9FF"/>
<path opacity="0.4" d="M38.9937 51.5693L38.9636 44.0747L45.4876 40.3198L45.5177 47.7995L38.9937 51.5693Z" fill="#10E9FF"/>
<path opacity="0.4" d="M29.358 57.1265L29.3279 49.6318L35.8519 45.877L35.882 53.3566L29.358 57.1265Z" fill="#10E9FF"/>
<path opacity="0.4" d="M19.7372 62.6837L19.7072 55.189L26.2312 51.4192L26.2462 58.9139L19.7372 62.6837Z" fill="#10E9FF"/>
<path d="M10.1016 68.2259L10.0865 60.7462L16.6106 56.9763L16.6256 64.471L10.1016 68.2259Z" fill="#10E9FF"/>
<path opacity="0.1882" d="M0.480854 73.783L0.450806 66.2883L6.97483 62.5334L7.00493 70.0281L0.480854 73.783Z" fill="#10E9FF"/>
<path d="M67.8257 23.2429L67.8107 15.7632L74.3347 11.9934L74.3497 19.4881L67.8257 23.2429Z" fill="#10E9FF"/>
<path opacity="0.4" d="M58.205 28.8001L58.1899 21.3054L64.714 17.5505L64.729 25.0302L58.205 28.8001Z" fill="#10E9FF"/>
<path opacity="0.1882" d="M48.5842 34.3571L48.5542 26.8624L55.0782 23.0925L55.1083 30.5872L48.5842 34.3571Z" fill="#10E9FF"/>
<path d="M38.9486 39.8994L38.9336 32.4197L45.4576 28.6499L45.4727 36.1446L38.9486 39.8994Z" fill="#10E9FF"/>
<path d="M29.3279 45.4566L29.2979 37.9769L35.8219 34.207L35.8519 41.7017L29.3279 45.4566Z" fill="#10E9FF"/>
<path opacity="0.4" d="M19.6921 51.0137L19.6771 43.519L26.2012 39.7642L26.2162 47.2438L19.6921 51.0137Z" fill="#10E9FF"/>
<path opacity="0.1882" d="M10.0715 56.5708L10.0565 49.0761L16.5805 45.3213L16.5955 52.8009L10.0715 56.5708Z" fill="#10E9FF"/>
<path opacity="0.4" d="M0.450825 62.1131L0.420776 54.6334L6.9448 50.8635L6.97485 58.3582L0.450825 62.1131Z" fill="#10E9FF"/>
<path d="M67.7956 11.5728L67.7806 4.0931L74.3047 0.323242L74.3197 7.81793L67.7956 11.5728Z" fill="#10E9FF"/>
<path opacity="0.4" d="M58.1749 17.1299L58.1449 9.63522L64.6689 5.88037L64.699 13.36L58.1749 17.1299Z" fill="#10E9FF"/>
<path opacity="0.1882" d="M48.5542 22.6871L48.5242 15.1924L55.0482 11.4226L55.0782 18.9173L48.5542 22.6871Z" fill="#10E9FF"/>
<path opacity="0.4" d="M38.9185 28.2293L38.9034 20.7496L45.4275 16.9797L45.4425 24.4744L38.9185 28.2293Z" fill="#10E9FF"/>
<path opacity="0.1882" d="M29.2828 33.7864L29.2678 26.3067L35.7919 22.5369L35.8069 30.0315L29.2828 33.7864Z" fill="#10E9FF"/>
<path d="M19.6621 39.3435L19.6471 31.8488L26.1712 28.094L26.1862 35.5736L19.6621 39.3435Z" fill="#10E9FF"/>
<path d="M10.0414 44.9007L10.0114 37.406L16.5354 33.6511L16.5654 41.1308L10.0414 44.9007Z" fill="#10E9FF"/>
<path opacity="0.4" d="M0.405672 50.4429L0.390625 42.9632L6.91465 39.1934L6.9297 46.688L0.405672 50.4429Z" fill="#10E9FF"/>
<path opacity="0.4" d="M67.9309 129.175L67.9159 121.68L74.4399 117.925L74.455 125.405L67.9309 129.175Z" fill="#10E9FF"/>
<path opacity="0.1882" d="M58.3102 134.732L58.2802 127.237L64.8042 123.482L64.8342 130.962L58.3102 134.732Z" fill="#10E9FF"/>
<path opacity="0.4" d="M48.6745 140.274L48.6595 132.794L55.1836 129.024L55.1986 136.519L48.6745 140.274Z" fill="#10E9FF"/>
<path d="M39.0538 145.831L39.0388 138.351L45.5628 134.582L45.5778 142.076L39.0538 145.831Z" fill="#10E9FF"/>
<path d="M29.4181 151.388L29.4031 143.894L35.9271 140.139L35.9422 147.633L29.4181 151.388Z" fill="#10E9FF"/>
<path opacity="0.4" d="M19.7973 156.945L19.7823 149.451L26.2913 145.696L26.3214 153.175L19.7973 156.945Z" fill="#10E9FF"/>
<path opacity="0.4" d="M10.1767 162.503L10.1466 155.008L16.6706 151.238L16.7007 158.733L10.1767 162.503Z" fill="#10E9FF"/>
<path opacity="0.1882" d="M0.540926 168.045L0.525879 160.565L7.04995 156.795L7.06495 164.29L0.540926 168.045Z" fill="#10E9FF"/>
<path opacity="0.1882" d="M67.9009 117.504L67.8708 110.01L74.3949 106.255L74.4249 113.75L67.9009 117.504Z" fill="#10E9FF"/>
<path d="M58.2802 123.062L58.2501 115.567L64.7741 111.812L64.7892 119.307L58.2802 123.062Z" fill="#10E9FF"/>
<path opacity="0.4" d="M48.6444 128.619L48.6294 121.124L55.1535 117.354L55.1685 124.849L48.6444 128.619Z" fill="#10E9FF"/>
<path opacity="0.1882" d="M39.0237 134.176L38.9937 126.681L45.5177 122.911L45.5477 130.406L39.0237 134.176Z" fill="#10E9FF"/>
<path opacity="0.4" d="M29.388 139.718L29.3729 132.223L35.897 128.469L35.912 135.963L29.388 139.718Z" fill="#10E9FF"/>
<path d="M19.7674 145.275L19.7373 137.781L26.2614 134.026L26.2914 141.521L19.7674 145.275Z" fill="#10E9FF"/>
<path opacity="0.1882" d="M10.1316 150.832L10.1166 143.338L16.6406 139.568L16.6557 147.063L10.1316 150.832Z" fill="#10E9FF"/>
<path opacity="0.4" d="M0.510897 156.39L0.49585 148.895L7.01988 145.125L7.03492 152.62L0.510897 156.39Z" fill="#10E9FF"/>
<path opacity="0.4" d="M67.8708 105.834L67.8407 98.3548L74.3648 94.585L74.3948 102.08L67.8708 105.834Z" fill="#10E9FF"/>
<path opacity="0.1882" d="M58.2351 111.392L58.2201 103.897L64.7441 100.142L64.7592 107.637L58.2351 111.392Z" fill="#10E9FF"/>
<path d="M48.6144 116.949L48.5994 109.454L55.1084 105.699L55.1384 113.179L48.6144 116.949Z" fill="#10E9FF"/>
<path opacity="0.4" d="M38.9937 122.506L38.9636 115.011L45.4876 111.241L45.5177 118.736L38.9937 122.506Z" fill="#10E9FF"/>
<path opacity="0.4" d="M29.358 128.048L29.3279 120.568L35.8519 116.799L35.882 124.293L29.358 128.048Z" fill="#10E9FF"/>
<path opacity="0.4" d="M19.7371 133.606L19.707 126.126L26.2311 122.356L26.2461 129.851L19.7371 133.606Z" fill="#10E9FF"/>
<path d="M10.1016 139.162L10.0865 131.668L16.6106 127.913L16.6256 135.393L10.1016 139.162Z" fill="#10E9FF"/>
<path opacity="0.1882" d="M0.480854 144.72L0.450806 137.225L6.97483 133.455L7.00493 140.95L0.480854 144.72Z" fill="#10E9FF"/>
<path d="M67.8257 94.1795L67.8107 86.6848L74.3347 82.9299L74.3497 90.4096L67.8257 94.1795Z" fill="#10E9FF"/>
<path opacity="0.4" d="M58.205 99.7365L58.1899 92.2418L64.714 88.4719L64.729 95.9666L58.205 99.7365Z" fill="#10E9FF"/>
<path opacity="0.1882" d="M48.5842 105.279L48.5542 97.7989L55.0782 94.0291L55.1083 101.524L48.5842 105.279Z" fill="#10E9FF"/>
<path d="M38.9486 110.836L38.9336 103.341L45.4576 99.5864L45.4727 107.066L38.9486 110.836Z" fill="#10E9FF"/>
<path d="M29.3279 116.393L29.2979 108.898L35.8219 105.144L35.8519 112.623L29.3279 116.393Z" fill="#10E9FF"/>
<path opacity="0.4" d="M19.6921 121.95L19.6771 114.455L26.2012 110.686L26.2162 118.18L19.6921 121.95Z" fill="#10E9FF"/>
<path opacity="0.1882" d="M10.0715 127.492L10.0565 120.013L16.5805 116.243L16.5955 123.738L10.0715 127.492Z" fill="#10E9FF"/>
<path opacity="0.4" d="M0.450825 133.05L0.420776 125.555L6.9448 121.8L6.97485 129.28L0.450825 133.05Z" fill="#10E9FF"/>
<path d="M67.7956 82.5093L67.7806 75.0146L74.3047 71.2598L74.3197 78.7394L67.7956 82.5093Z" fill="#10E9FF"/>
<path opacity="0.4" d="M58.1749 88.0665L58.1449 80.5719L64.6689 76.802L64.699 84.2967L58.1749 88.0665Z" fill="#10E9FF"/>
<path opacity="0.1882" d="M48.5542 93.6087L48.5242 86.129L55.0482 82.3591L55.0782 89.8538L48.5542 93.6087Z" fill="#10E9FF"/>
<path opacity="0.4" d="M38.9185 99.1658L38.9034 91.6711L45.4275 87.9163L45.4425 95.3959L38.9185 99.1658Z" fill="#10E9FF"/>
<path opacity="0.1882" d="M29.2828 104.723L29.2678 97.2282L35.7919 93.4734L35.8069 100.953L29.2828 104.723Z" fill="#10E9FF"/>
<path d="M19.6621 110.28L19.6471 102.785L26.1712 99.0156L26.1862 106.51L19.6621 110.28Z" fill="#10E9FF"/>
<path d="M10.0414 115.822L10.0114 108.343L16.5354 104.573L16.5654 112.067L10.0414 115.822Z" fill="#10E9FF"/>
<path opacity="0.4" d="M0.405672 121.379L0.390625 113.885L6.91465 110.13L6.9297 117.625L0.405672 121.379Z" fill="#10E9FF"/>
</svg>
