<?xml version="1.0" encoding="UTF-8" standalone="no"?><svg viewBox="0 0 248 248" xmlns="http://www.w3.org/2000/svg" xmlns:xlink="http://www.w3.org/1999/xlink"><style>:root>svg{display:none}:root>svg:target{display:block}</style><svg version="1.0" viewBox="0 0 128 128" id="1" xmlns="http://www.w3.org/2000/svg"><path fill="#c22085" d="M111.708 49A50.116 50.116 0 0079 16.292V1.785A64.076 64.076 0 01126.215 49h-14.507zM49 16.292A50.114 50.114 0 0016.292 49H1.785A64.075 64.075 0 0149 1.785v14.507zM16.292 79A50.116 50.116 0 0049 111.708v14.507A64.076 64.076 0 011.785 79h14.507zM79 111.708A50.118 50.118 0 00111.708 79h14.507A64.078 64.078 0 0179 126.215v-14.507z"><animateTransform attributeName="transform" type="rotate" from="-90 64 64" to="0 64 64" dur="800ms" repeatCount="indefinite"/></path><path fill="#c22085" d="M96.971 53.633a34.634 34.634 0 00-22.6-22.6V21A44.283 44.283 0 01107 53.633H96.971zm-43.338-22.6a34.634 34.634 0 00-22.6 22.6H21A44.283 44.283 0 0153.633 21v10.029zm-22.6 43.338a34.634 34.634 0 0022.6 22.6V107A44.283 44.283 0 0121 74.367h10.029zm43.338 22.6a34.634 34.634 0 0022.6-22.6H107A44.283 44.283 0 0174.367 107V96.971z"><animateTransform attributeName="transform" type="rotate" from="-90 64 64" to="90 64 64" dur="800ms" repeatCount="indefinite"/></path><path fill="#c22085" d="M85.47 57.25a22.552 22.552 0 00-14.72-14.72V36A28.836 28.836 0 0192 57.25h-6.53zM57.25 42.53a22.552 22.552 0 00-14.72 14.72H36A28.836 28.836 0 0157.25 36v6.53zM42.53 70.75a22.552 22.552 0 0014.72 14.72V92A28.836 28.836 0 0136 70.75h6.53zm28.22 14.72a22.552 22.552 0 0014.72-14.72H92A28.836 28.836 0 0170.75 92v-6.53z"><animateTransform attributeName="transform" type="rotate" from="-90 64 64" to="0 64 64" dur="800ms" repeatCount="indefinite"/></path></svg><svg version="1.0" viewBox="0 0 128 128" id="2" xmlns="http://www.w3.org/2000/svg"><circle cx="64.13" cy="64.13" r="27.63" fill="#c22085"/><path d="M64.13 18.5A45.63 45.63 0 1118.5 64.13 45.63 45.63 0 0164.13 18.5zm0 7.85a37.78 37.78 0 11-37.78 37.78 37.78 37.78 0 0137.78-37.78z" fill-rule="evenodd" fill="#c22085"/><g><path d="M95.25 17.4a56.26 56.26 0 00-76.8 13.23L12.1 26.2a64 64 0 0187.6-15.17zM88.732 114.363a56.26 56.26 0 0026.942-73.125l7.012-3.285a64 64 0 01-30.663 83.45zM8.018 60.237a56.26 56.26 0 0049.858 59.895l-.662 7.715A64 64 0 01.277 59.567z" fill="#c22085"/><animateTransform attributeName="transform" type="rotate" from="120 64 64" to="0 64 64" dur="480ms" repeatCount="indefinite"/></g></svg><svg version="1.0" viewBox="0 0 128 128" id="3" xmlns="http://www.w3.org/2000/svg"><g><path d="M26.43 44.95a45.68 45.68 0 0018.6 36.82h-.3a36.83 36.83 0 110-73.65h.3a45.68 45.68 0 00-18.6 36.83zm44-22.55a45.68 45.68 0 00-29.28 29.07l-.1-.28a36.83 36.83 0 0170.05-22.8l.1.3a45.68 45.68 0 00-40.77-6.32zm35.27 34.9A45.68 45.68 0 0069 38.45c.1-.06.17-.13.25-.2a36.83 36.83 0 1143.3 59.6c-.08.07-.17.12-.25.18a45.68 45.68 0 00-6.6-40.73zm-22.57 44.3a45.68 45.68 0 006.6-40.72c.08.05.16.1.24.17a36.83 36.83 0 01-43.3 59.6l-.24-.2a45.68 45.68 0 0036.7-18.85zm-48.8-7.86a45.68 45.68 0 0040.77-6.3l-.1.28A36.83 36.83 0 114.96 64.95l.1-.28a45.68 45.68 0 0029.28 29.07z" fill="#c22085"/><animateTransform attributeName="transform" type="rotate" from="72 64 64" to="0 64 64" dur="360ms" repeatCount="indefinite"/></g></svg><svg fill="none" viewBox="0 0 34 38" id="css" xmlns="http://www.w3.org/2000/svg"><path d="M34 0H0l3 34 14 4 14-4 3-34z" fill="#0277BD"/><path d="M17 3v31.9l11.2-3.2L30.7 3H17z" fill="#039BE5"/><path d="M26.1 8H17v4h4.9l-.3 4H17v4h4.4l-.3 4.5-4.1 1.4v4.2l7.9-2.6.7-11.5.5-8z" fill="#fff"/><path d="M17 8v4H8.1l-.3-4H17zm-4.6 8l.2 4H17v-4h-4.6zm.4 6h-4l.3 5.5 7.9 2.6v-4.2l-4.1-1.4-.1-2.5z" fill="#EEE"/></svg><svg viewBox="0 0 94 94" fill="none" id="decoration1" xmlns="http://www.w3.org/2000/svg"><path d="M.5 80.44V54.169a.1.1 0 01.148-.088l22.8 12.392a.1.1 0 01.052.088v26.272a.1.1 0 01-.148.088L.552 80.528A.1.1 0 01.5 80.44z" stroke="#C22085"/><path d="M23.052 40.03l23.793 13.88a.1.1 0 01-.003.174l-23.294 12.39a.1.1 0 01-.095 0L.65 54.082a.1.1 0 01-.005-.173l22.303-13.877a.1.1 0 01.103-.002z" stroke="#C22085"/><path d="M47 79.941V54.166a.1.1 0 00-.147-.088l-23.3 12.394a.1.1 0 00-.053.088v26.27a.1.1 0 00.148.088l23.3-12.89a.1.1 0 00.052-.087z" stroke="#C22085"/><path d="M47.05 80.029l22.3 12.884a.1.1 0 00.15-.086V66.559a.1.1 0 00-.051-.088l-22.3-12.389a.1.1 0 00-.149.088v25.772a.1.1 0 00.05.087z" stroke="#C22085"/><path d="M69.453 66.474L47.15 54.084a.1.1 0 01-.003-.173l22.801-13.88a.1.1 0 01.104 0L92.85 53.91a.1.1 0 01-.005.173L69.548 66.475a.1.1 0 01-.096-.001zM46.95 27.972L24.149 15.084a.1.1 0 01-.002-.173l22.802-13.88a.1.1 0 01.104 0l22.802 13.88a.1.1 0 01-.002.173L47.049 27.972a.1.1 0 01-.098 0z" stroke="#C22085"/><path d="M69.5 92.827V66.56a.1.1 0 01.053-.088l23.3-12.394a.1.1 0 01.147.088v25.276a.1.1 0 01-.05.087l-23.3 13.385a.1.1 0 01-.15-.087zM47 53.822V28.058a.1.1 0 01.05-.087l22.8-12.887a.1.1 0 01.15.087v24.773a.1.1 0 01-.048.085l-22.8 13.878a.1.1 0 01-.152-.085z" stroke="#C22085"/><path d="M47 53.826V28.058a.1.1 0 00-.05-.087l-22.807-12.89a.1.1 0 00-.15.083l-.99 24.776a.1.1 0 00.049.09L46.85 53.912a.1.1 0 00.15-.086z" stroke="#C22085"/></svg><svg viewBox="0 0 194 191" fill="none" id="decoration2" xmlns="http://www.w3.org/2000/svg"><path d="M72.5 137h77.337a.1.1 0 00.09-.145L81.573 1.645a.1.1 0 01.09-.145h31.276a.1.1 0 01.089.054l79.898 156.3a.1.1 0 01-.089.146H62.5" stroke="#C22085" stroke-width="2"/><path d="M122.5 137L82.09 61.169a.1.1 0 00-.177.002L16.093 189.82a.1.1 0 01-.18-.003L1.02 158.545a.1.1 0 01.002-.089L81.41 1.676a.1.1 0 01.178 0L149.5 137" stroke="#C22085" stroke-width="2"/><path d="M97.5 89l-34.926 68.855a.1.1 0 00.089.145h130.195a.1.1 0 01.094.134l-11.428 31.8a.1.1 0 01-.094.066H16.163a.1.1 0 01-.089-.145L82 60.5" stroke="#C22085" stroke-width="2"/></svg><svg fill="none" viewBox="0 0 122 138" id="geometry" xmlns="http://www.w3.org/2000/svg"><g filter="url(#gfilter0_d_326_6)"><path d="M5.708 37.077L61 5.155l55.292 31.922v63.846L61 132.845 5.708 100.923V37.077z" stroke="#C22085" stroke-width="2"/></g><defs><filter id="gfilter0_d_326_6" x=".708" y="0" width="120.583" height="138" filterUnits="userSpaceOnUse" color-interpolation-filters="sRGB"><feFlood flood-opacity="0" result="BackgroundImageFix"/><feColorMatrix in="SourceAlpha" values="0 0 0 0 0 0 0 0 0 0 0 0 0 0 0 0 0 0 127 0" result="hardAlpha"/><feOffset/><feGaussianBlur stdDeviation="2"/><feColorMatrix values="0 0 0 0 0.760784 0 0 0 0 0.12549 0 0 0 0 0.521569 0 0 0 1 0"/><feBlend in2="BackgroundImageFix" result="effect1_dropShadow_326_6"/><feBlend in="SourceGraphic" in2="effect1_dropShadow_326_6" result="shape"/></filter></defs></svg><svg fill="none" viewBox="0 0 34 38" id="html" xmlns="http://www.w3.org/2000/svg"><path d="M34 0H0l3 34 14 4 14-4 3-34z" fill="#E65100"/><path d="M17 3v31.9l11.2-3.2L30.7 3H17z" fill="#FF6D00"/><path d="M17 20v-4h8.6l-.7 11.5-7.9 2.6v-4.2l4.1-1.4.3-4.5H17zm8.9-8l.3-4H17v4h8.9z" fill="#fff"/><path d="M17 25.9v4.2l-7.9-2.6-.4-5.5h4l.2 2.5 4.1 1.4zM12.1 12H17V8H7.9l.7 12H17v-4h-4.6l-.3-4z" fill="#EEE"/></svg><svg fill="none" viewBox="0 0 36 36" id="javascript" xmlns="http://www.w3.org/2000/svg"><path d="M0 36V0h36v36H0z" fill="#FFD600"/><path d="M23.538 26.947c.692 1.124 1.444 2.201 3.037 2.201 1.338 0 2.04-.665 2.04-1.585 0-1.101-.726-1.492-2.198-2.133l-.807-.344c-2.329-.988-3.878-2.226-3.878-4.841 0-2.41 1.845-4.244 4.728-4.244 2.053 0 3.528.711 4.592 2.573l-2.514 1.607c-.553-.988-1.151-1.377-2.078-1.377-.946 0-1.545.597-1.545 1.377 0 .964.6 1.354 1.985 1.951l.807.344C30.452 23.645 32 24.839 32 27.523 32 30.415 29.716 32 26.65 32c-2.999 0-4.702-1.505-5.65-3.368l2.538-1.685zm-11.586.082c.506.906 1.275 1.603 2.381 1.603 1.058 0 1.667-.418 1.667-2.043V16h3.333v11.101c0 3.367-1.953 4.899-4.805 4.899-2.577 0-4.437-1.746-5.195-3.368l2.619-1.603z" fill="#000001"/></svg><svg viewBox="0 0 102.25 122.88" id="svelte" xmlns="http://www.w3.org/2000/svg"><defs><style>.ja{fill:#ff3e00}.jb{fill:#fff}</style></defs><path class="ja" d="M95.73 16.26C84.32-.07 61.78-4.91 45.49 5.47L16.87 23.71A32.83 32.83 0 002 45.69a35.13 35.13 0 00-.55 6.14 34.69 34.69 0 004 16.06A33 33 0 00.54 80.16a35 35 0 006 26.46c11.41 16.33 34 21.17 50.24 10.79l28.59-18.24a32.76 32.76 0 0014.83-22 34.08 34.08 0 00.55-6.13A34.72 34.72 0 0096.8 55a33 33 0 004.91-12.26 36 36 0 00.54-6.13 34.93 34.93 0 00-6.52-20.33zm0 0z"/><path class="jb" d="M42.69 108.16a22.94 22.94 0 01-5.72.73 22.7 22.7 0 01-18.67-9.78 21 21 0 01-3.92-12.23 21.6 21.6 0 01.32-3.68 20.52 20.52 0 01.69-2.67l.54-1.64L17.39 80a37.13 37.13 0 0011.2 5.6l1.06.32-.1 1.06v.55a6.36 6.36 0 001.18 3.7 6.82 6.82 0 005.62 3 6.65 6.65 0 001.72-.22 6.28 6.28 0 001.76-.77l28.59-18.33a6 6 0 002.79-5.09A6.35 6.35 0 0070 66.13a6.85 6.85 0 00-5.63-2.94 6.65 6.65 0 00-1.72.22 6 6 0 00-1.75.77L50 71.14a21.06 21.06 0 01-5.81 2.55 23.06 23.06 0 01-5.72.73 22.73 22.73 0 01-18.67-9.77 21.05 21.05 0 01-3.92-12.23 21.6 21.6 0 01.32-3.68 19.82 19.82 0 018.92-13.23l28.62-18.23a21 21 0 015.81-2.56 23 23 0 015.72-.72A22.74 22.74 0 0184 23.76 21.05 21.05 0 0187.87 36a21.72 21.72 0 01-.32 3.69 20.52 20.52 0 01-.69 2.67L86.32 44l-1.46-1.07a36.9 36.9 0 00-11.2-5.6L72.6 37l.1-1.06v-.55a6.42 6.42 0 00-1.18-3.71 6.85 6.85 0 00-5.62-2.94 6.65 6.65 0 00-1.7.26 5.89 5.89 0 00-1.76.77L33.82 48a6 6 0 00-2.69 4 6.92 6.92 0 00-.13 1.06 6.35 6.35 0 001.18 3.69 6.84 6.84 0 005.62 2.94 6.65 6.65 0 001.72-.22 6 6 0 001.76-.77l10.92-7a20.93 20.93 0 015.81-2.55 23 23 0 015.72-.73 22.74 22.74 0 0118.68 9.77 21.05 21.05 0 013.92 12.23 20.64 20.64 0 01-.33 3.72 19.78 19.78 0 01-8.92 13.23L48.51 105.6a21 21 0 01-5.82 2.56zm0 0z"/></svg></svg>