<svg width="14" height="16" viewBox="0 0 14 16" xmlns="http://www.w3.org/2000/svg">
<path id="chess-sidePath" d="M12.4992 13.9845H1.49922C1.36661 13.9845 1.23944 14.0371 1.14567 14.1307C1.0519 14.2244 0.999221 14.3514 0.999221 14.4839V15.4828C0.999221 15.6153 1.0519 15.7423 1.14567 15.836C1.23944 15.9296 1.36661 15.9822 1.49922 15.9822H12.4992C12.6318 15.9822 12.759 15.9296 12.8527 15.836C12.9465 15.7423 12.9992 15.6153 12.9992 15.4828V14.4839C12.9992 14.3514 12.9465 14.2244 12.8527 14.1307C12.759 14.0371 12.6318 13.9845 12.4992 13.9845ZM12.9992 4.99445H7.9992V3.49611H9.2492C9.31551 3.49611 9.37909 3.4698 9.42598 3.42297C9.47286 3.37614 9.4992 3.31262 9.4992 3.24639V1.74806C9.4992 1.68183 9.47286 1.61831 9.42598 1.57148C9.37909 1.52464 9.31551 1.49833 9.2492 1.49833H7.9992V0.249722C7.9992 0.183492 7.97287 0.119974 7.92598 0.073142C7.8791 0.02631 7.81551 0 7.7492 0L6.24921 0C6.1829 0 6.11932 0.02631 6.07243 0.073142C6.02555 0.119974 5.99921 0.183492 5.99921 0.249722V1.49833H4.74921C4.68291 1.49833 4.61932 1.52464 4.57244 1.57148C4.52555 1.61831 4.49921 1.68183 4.49921 1.74806V3.24639C4.49921 3.31262 4.52555 3.37614 4.57244 3.42297C4.61932 3.4698 4.68291 3.49611 4.74921 3.49611H5.99921V4.99445H0.999221C0.842443 4.99457 0.687889 5.03151 0.548037 5.10229C0.408184 5.17307 0.286952 5.27571 0.194125 5.40191C0.101299 5.52811 0.0394794 5.67435 0.0136572 5.82882C-0.012165 5.98328 -0.00126641 6.14165 0.0454732 6.29113L2.32922 12.9856H11.6692L13.9529 6.29113C13.9997 6.14165 14.0106 5.98328 13.9848 5.82882C13.9589 5.67435 13.8971 5.52811 13.8043 5.40191C13.7115 5.27571 13.5902 5.17307 13.4504 5.10229C13.3105 5.03151 13.156 4.99457 12.9992 4.99445Z" fill="inherit" fill-opacity="1"/>
</svg>
