<svg width="30" height="23" viewBox="0 0 30 23" fill="none" xmlns="http://www.w3.org/2000/svg">
<path d="M4.64107 20.502C4.67225 20.6335 4.72969 20.7573 4.80995 20.866C4.89021 20.9746 4.99163 21.0659 5.1081 21.1344C5.22457 21.2029 5.35368 21.247 5.48767 21.2643C5.62166 21.2816 5.75775 21.2715 5.88777 21.2348C11.8489 19.5889 18.1446 19.5883 24.106 21.2331C24.236 21.2698 24.372 21.2798 24.506 21.2625C24.6399 21.2453 24.769 21.2011 24.8854 21.1327C25.0018 21.0643 25.1032 20.973 25.1835 20.8644C25.2638 20.7558 25.3212 20.6321 25.3524 20.5007L28.5385 6.96106C28.5812 6.77981 28.5724 6.59024 28.5131 6.41372C28.4538 6.23719 28.3465 6.08072 28.2031 5.96193C28.0597 5.84314 27.886 5.76674 27.7015 5.74134C27.517 5.71595 27.3291 5.74256 27.159 5.81819L20.836 8.6284C20.6077 8.72987 20.3496 8.7422 20.1127 8.66296C19.8757 8.58372 19.677 8.41864 19.5557 8.20023L15.8742 1.57344C15.7875 1.41755 15.6608 1.28765 15.5071 1.19721C15.3534 1.10677 15.1783 1.05908 15 1.05908C14.8217 1.05908 14.6466 1.10677 14.4929 1.19721C14.3392 1.28765 14.2124 1.41755 14.1258 1.57344L10.4443 8.20023C10.323 8.41864 10.1243 8.58371 9.8873 8.66296C9.65035 8.7422 9.39232 8.72987 9.164 8.6284L2.84007 5.81776C2.66994 5.74215 2.48209 5.71553 2.29765 5.74091C2.11321 5.76628 1.93952 5.84263 1.79613 5.96137C1.65274 6.08011 1.54535 6.23652 1.48603 6.41299C1.42672 6.58947 1.41785 6.77899 1.46042 6.96023L4.64107 20.502Z" stroke="white" stroke-width="2" stroke-linecap="round" stroke-linejoin="round"/>
</svg>
