<svg width="10" height="11" viewBox="0 0 10 11" fill="none" xmlns="http://www.w3.org/2000/svg">
<path d="M5 0.404297C2.24305 0.404297 0 2.64653 0 5.40248C0 8.15842 2.24305 10.4007 5 10.4007C7.75695 10.4007 10 8.15842 10 5.40248C10 2.64653 7.75695 0.404297 5 0.404297ZM5 9.98415C2.47273 9.98415 0.41666 7.92882 0.41666 5.40248C0.41666 2.87613 2.47273 0.820805 5 0.820805C7.52727 0.820805 9.58334 2.87613 9.58334 5.40248C9.58334 7.92882 7.52727 9.98415 5 9.98415Z" fill="white"/>
<path d="M7.68321 6.24417C7.5703 6.21713 7.4588 6.28667 7.43235 6.39853C7.1638 7.52868 6.16364 8.318 4.99989 8.318C3.83473 8.318 2.83417 7.52747 2.56682 6.39589C2.54016 6.28363 2.42725 6.21549 2.31618 6.24091C2.20407 6.26734 2.13469 6.37961 2.16114 6.49146C2.47323 7.81219 3.64063 8.73449 4.99989 8.73449C6.35751 8.73449 7.5245 7.8136 7.83762 6.49492C7.86428 6.38287 7.79513 6.2706 7.68321 6.24417Z" fill="white"/>
<path d="M3.33329 4.5691C3.5634 4.5691 3.74995 4.38262 3.74995 4.15259C3.74995 3.92256 3.5634 3.73608 3.33329 3.73608C3.10317 3.73608 2.91663 3.92256 2.91663 4.15259C2.91663 4.38262 3.10317 4.5691 3.33329 4.5691Z" fill="white"/>
<path d="M6.66666 4.5691C6.89678 4.5691 7.08332 4.38262 7.08332 4.15259C7.08332 3.92256 6.89678 3.73608 6.66666 3.73608C6.43655 3.73608 6.25 3.92256 6.25 4.15259C6.25 4.38262 6.43655 4.5691 6.66666 4.5691Z" fill="white"/>
</svg>
