<svg width="11" height="14" viewBox="0 0 11 14" fill="none" xmlns="http://www.w3.org/2000/svg">
<path d="M2.32026 12.1107C2.31616 10.7967 2.31657 10.9297 2.31657 10.9202C2.31657 10.6391 2.55148 10.4115 2.84154 10.4115H8.6162C8.90627 10.4115 9.14117 10.6391 9.14117 10.9202C9.14117 10.9297 9.14158 10.7967 9.13748 12.1107C9.88423 12.2303 10.4536 12.8587 10.4536 13.6162H1.00415C1.00415 12.8587 1.57352 12.2303 2.32026 12.1107Z" fill="white"/>
<path d="M10.3221 4.67689C9.79267 2.62458 7.7417 1.10291 6.03678 1.10291H5.49695L6.27989 2.79934C7.6038 3.0196 8.58985 4.00447 8.85675 5.04032C9.28144 6.68647 8.9155 7.63747 8.55007 8.75776L8.55223 8.75855H10.1394C10.4776 7.70662 10.7881 6.4835 10.3221 4.67689Z" fill="white"/>
<path d="M5.73135 6.30467C5.70059 6.29225 5.66993 6.27824 5.63866 6.26324C4.51654 5.71968 3.79317 6.74261 3.69894 6.79705C3.39257 7.09392 2.8959 7.09392 2.58994 6.79705L1.94706 6.17442C1.74209 5.97581 1.74209 5.65361 1.94706 5.45491L3.14423 4.29488C3.14423 3.45555 3.83879 2.77519 4.70499 2.77519V1.10291H5.49696C5.93006 1.10291 6.2799 1.44319 6.2799 1.86285V2.79934C7.60381 3.0196 8.58987 4.00447 8.85676 5.04031C9.28145 6.68647 8.91551 7.63747 8.55008 8.75776C8.43812 9.10152 8.23459 9.6716 8.46375 10.4118H3.06477V10.3024C3.17151 9.26445 3.72201 8.25951 4.59262 7.62704C5.07954 7.27325 5.4665 6.81821 5.73135 6.30467Z" fill="white"/>
<path d="M5.99116 12.0903C5.99116 12.2308 5.87365 12.3446 5.72867 12.3446C5.58369 12.3446 5.46619 12.2308 5.46619 12.0903C5.46619 11.9498 5.58369 11.8359 5.72867 11.8359C5.87365 11.8359 5.99116 11.9498 5.99116 12.0903Z" fill="black"/>
<path d="M4.43509 7.42329C3.5615 8.05795 2.96312 9.07323 2.81763 10.1578C2.39437 10.17 2.05376 10.5072 2.05376 10.9203V11.9098C1.28127 12.1305 0.741333 12.8161 0.741333 13.6163C0.741333 13.7568 0.858836 13.8706 1.00382 13.8706H10.4533C10.5982 13.8706 10.7157 13.7568 10.7157 13.6163C10.7157 12.8162 10.1759 12.1305 9.40332 11.9098V10.9203C9.40332 10.5167 9.07819 10.1855 8.66847 10.1591C8.58255 9.75736 8.62212 9.39254 8.74291 9.01272H10.1393C10.2542 9.01272 10.3558 8.94029 10.39 8.83399C10.7322 7.76933 11.057 6.47736 10.5767 4.61501C10.0163 2.44279 7.85569 0.848389 6.03665 0.848389C5.61565 0.848389 5.1238 0.848389 4.70485 0.848389C4.55987 0.848389 4.44237 0.962246 4.44237 1.10273V2.53906C3.59698 2.65808 2.93759 3.34371 2.88499 4.18611L1.76133 5.27491C1.45363 5.57306 1.45353 6.05591 1.76133 6.35417L2.40401 6.9767C2.81127 7.37163 3.46317 7.37004 3.86982 6.99061C4.03469 6.86215 4.5449 6.14046 5.36311 6.4252C5.12359 6.81148 4.80677 7.15325 4.43509 7.42329ZM8.87836 10.9203V11.8359H6.77848C6.6335 11.8359 6.51599 11.9498 6.51599 12.0902C6.51599 12.2307 6.6335 12.3446 6.77848 12.3446H8.87836C9.50247 12.3446 10.0412 12.7659 10.1648 13.3619H1.29224C1.41549 12.7677 1.95256 12.3446 2.57872 12.3446H4.6786C4.82358 12.3446 4.94109 12.2307 4.94109 12.0902C4.94109 11.9498 4.82358 11.8359 4.6786 11.8359H2.57872V10.9203C2.57872 10.78 2.69643 10.6659 2.84121 10.6659H8.61587C8.76065 10.6659 8.87836 10.78 8.87836 10.9203ZM10.0673 4.73841C10.4895 6.37483 10.255 7.50436 9.94521 8.50404H8.9085C9.23466 7.50506 9.51098 6.52793 9.11121 4.97854C8.83509 3.90673 7.86205 2.89404 6.54224 2.59152V1.86267C6.54224 1.6896 6.49723 1.52656 6.41807 1.3838C7.92869 1.58995 9.6088 2.96071 10.0673 4.73841ZM5.85691 6.61516C6.38639 6.75247 6.83713 6.59201 7.18133 6.42729C7.31134 6.36509 7.36466 6.21249 7.30047 6.08651C7.23629 5.96053 7.0789 5.90897 6.94889 5.97116C6.53414 6.16967 6.17866 6.23882 5.75581 6.03554C5.27411 5.80207 4.77601 5.79005 4.31563 6.00047C3.92898 6.17722 3.69551 6.4409 3.51311 6.61705C3.30917 6.81466 2.97922 6.81476 2.77528 6.61705L2.1325 5.99441C2.02997 5.89506 2.02997 5.73401 2.1325 5.63456L3.32968 4.47453C3.37889 4.42684 3.40658 4.36216 3.40658 4.2947C3.40658 3.59696 3.98896 3.02936 4.70485 3.02936C4.84983 3.02936 4.96733 2.9155 4.96733 2.77502V1.35707H5.49682C5.7838 1.35707 6.01727 1.58389 6.01727 1.86267V2.79916C6.01727 2.92305 6.10935 3.02886 6.23536 3.04983C7.45315 3.2524 8.35892 4.15839 8.60193 5.10184C8.99411 6.62192 8.69277 7.47624 8.29966 8.68098C8.14545 9.1541 8.03379 9.56899 8.13407 10.1573H3.34783C3.49004 9.23149 4.00547 8.37121 4.74996 7.83033C5.19875 7.50416 5.57802 7.08718 5.85691 6.61516Z" fill="black"/>
<path d="M4.94114 4.30725H4.41617C4.27119 4.30725 4.15369 4.42111 4.15369 4.56159C4.15369 4.70207 4.27119 4.81593 4.41617 4.81593H4.94114C5.08612 4.81593 5.20362 4.70207 5.20362 4.56159C5.20362 4.42111 5.08612 4.30725 4.94114 4.30725Z" fill="black"/>
</svg>
