<svg width="62" height="17" viewBox="0 0 62 17" fill="none" xmlns="http://www.w3.org/2000/svg">
<path fill-rule="evenodd" clip-rule="evenodd" d="M11.3407 13.3177H4.53392L3.31024 16.7798H0.611572L6.3476 1.20573H9.527L15.263 16.7798H12.5753L11.3407 13.3177ZM10.554 11.0788L7.94276 3.71768L5.3315 11.0788H10.554ZM23.1936 16.9873C21.7004 16.9873 20.3565 16.6615 19.162 16.0098C17.9674 15.3582 17.0296 14.428 16.3486 13.2194C15.6675 12.0107 15.327 10.5982 15.327 8.98184C15.327 7.37273 15.6675 5.96388 16.3486 4.75522C17.0296 3.54657 17.9674 2.61643 19.162 1.96478C20.3565 1.31313 21.7004 0.987305 23.1936 0.987305C24.2789 0.987305 25.2913 1.16387 26.2309 1.517C27.1706 1.87013 27.9918 2.37979 28.6947 3.04601C29.3976 3.71222 29.9421 4.50766 30.3281 5.43236L27.8917 6.36068C27.491 5.43599 26.8737 4.71518 26.0397 4.19823C25.2057 3.68127 24.257 3.4228 23.1936 3.4228C22.203 3.4228 21.3089 3.64487 20.5113 4.08901C19.7137 4.53315 19.0855 5.1757 18.6266 6.01666C18.1677 6.85762 17.9383 7.846 17.9383 8.98184C17.9383 10.125 18.1677 11.117 18.6266 11.958C19.0855 12.7989 19.7137 13.4415 20.5113 13.8856C21.3089 14.3297 22.203 14.5518 23.1936 14.5518C24.2643 14.5518 25.2148 14.2952 26.0452 13.7818C26.8756 13.2685 27.491 12.5495 27.8917 11.6248L30.3281 12.5532C29.9421 13.4706 29.3976 14.2624 28.6947 14.9286C27.9918 15.5948 27.1706 16.1045 26.2309 16.4576C25.2913 16.8107 24.2789 16.9873 23.1936 16.9873ZM47.1413 16.7798L46.1143 4.48219L41.6456 16.7798H40.0068L35.56 4.50403L34.522 16.7798H31.9217L33.1672 1.20573H36.8055L40.8153 12.2146L44.8578 1.20573H48.4961L49.7307 16.7798H47.1413ZM55.4105 3.53201V7.84601H60.7642V10.1504H55.4105V14.4426H61.4634V16.7798H52.7665V1.20573H61.4634V3.53201H55.4105Z" fill="#0065F2"/>
</svg>
