<svg width="22" height="25" viewBox="0 0 24 27" fill="none" xmlns="http://www.w3.org/2000/svg">
<path d="M3.02538 10C3.02372 8.81406 3.25682 7.63947 3.71123 6.54398C4.16564 5.4485 4.83238 4.45379 5.67302 3.61719C6.51366 2.78059 7.51157 2.11864 8.60923 1.66951C9.70688 1.22037 10.8826 0.992932 12.0685 1.0003C17.0173 1.03709 20.9756 5.15046 20.9756 10.113V11C20.9756 15.477 21.9123 18.0749 22.7372 19.4948C22.8261 19.6465 22.8734 19.819 22.8743 19.9948C22.8753 20.1707 22.8298 20.3436 22.7426 20.4963C22.6553 20.6489 22.5294 20.7759 22.3774 20.8643C22.2255 20.9528 22.0529 20.9996 21.877 21H2.12295C1.9471 20.9996 1.77448 20.9528 1.62251 20.8643C1.47053 20.7758 1.34457 20.6489 1.25734 20.4962C1.17011 20.3435 1.12468 20.1705 1.12566 19.9946C1.12663 19.8188 1.17396 19.6463 1.26287 19.4946C2.08828 18.0746 3.02537 15.4768 3.02537 11L3.02538 10Z" stroke="white" stroke-width="2" stroke-linecap="round" stroke-linejoin="round"/>
<path d="M8 21V22C8 23.0609 8.42143 24.0783 9.17157 24.8284C9.92172 25.5786 10.9391 26 12 26C13.0609 26 14.0783 25.5786 14.8284 24.8284C15.5786 24.0783 16 23.0609 16 22V21" stroke="white" stroke-width="2" stroke-linecap="round" stroke-linejoin="round"/>
</svg>
