<svg width="10" height="12" viewBox="0 0 10 12" fill="none" xmlns="http://www.w3.org/2000/svg">
<path d="M8.89016 12H1.12124V10.8H8.89016V12ZM7.78031 4.8C6.99232 4.8 6.25982 5.262 5.86583 6H5.56062V3H7.22539V1.8H5.56062V0H4.45078V1.8H2.78601V3H4.45078V6H4.14557C3.53516 4.854 2.1756 4.458 1.12124 5.124C0.610099 5.44012 0.235559 5.96226 0.0795655 6.5762C-0.0764279 7.19015 -0.00117492 7.8459 0.288861 8.4C0.699503 9.144 1.43755 9.6 2.23109 9.6H7.78031C8.36901 9.6 8.9336 9.34714 9.34987 8.89706C9.76614 8.44697 10 7.83652 10 7.2C10 6.56348 9.76614 5.95303 9.34987 5.50294C8.9336 5.05286 8.36901 4.8 7.78031 4.8Z" fill="white"/>
</svg>
