<svg width="11" height="11" viewBox="0 0 11 11" fill="none" xmlns="http://www.w3.org/2000/svg">
<path d="M10.9712 0.217479C10.9696 0.205959 10.9679 0.194874 10.9644 0.183571C10.9607 0.171181 10.9557 0.159879 10.9501 0.148358C10.947 0.142055 10.9459 0.135317 10.9423 0.129231C10.9399 0.125318 10.9359 0.12271 10.9331 0.119015C10.9259 0.109016 10.9175 0.100322 10.9086 0.09141C10.8996 0.0824983 10.8907 0.0742386 10.8805 0.0670657C10.8768 0.0644574 10.8744 0.0607622 10.8707 0.0585886C10.8647 0.0548935 10.8579 0.0540241 10.8516 0.050981C10.8397 0.0451123 10.8279 0.040113 10.8153 0.0364179C10.8047 0.0335922 10.7942 0.0320707 10.7834 0.0307665C10.7705 0.029245 10.7581 0.0283756 10.7453 0.0290276C10.7334 0.0296797 10.7218 0.0320707 10.7101 0.0348964C10.7027 0.0366353 10.6951 0.0359832 10.6877 0.0385915L1.12388 3.299C1.03737 3.32812 0.978463 3.40876 0.976724 3.50027C0.974985 3.59178 1.03063 3.67459 1.11627 3.70742L5.58454 5.42434L7.51535 9.89414C7.54991 9.97391 7.6286 10.0252 7.71489 10.0252C7.71858 10.0252 7.72206 10.0252 7.72576 10.025C7.8164 10.0204 7.89443 9.96022 7.92203 9.87393L10.9651 0.310074C10.9672 0.303336 10.9666 0.296381 10.9679 0.289425C10.9705 0.277253 10.9725 0.265516 10.9729 0.253126C10.9733 0.240954 10.9727 0.229434 10.9712 0.217479ZM1.83182 3.51657L9.94305 0.751316L5.69387 5.00049L1.83182 3.51657ZM7.68381 9.18816L6.00579 5.30349L10.2797 1.02932L7.68381 9.18816Z" fill="white"/>
<path d="M4.39094 6.61135C4.30595 6.52636 4.16858 6.52636 4.08359 6.61135L1.04055 9.65439C0.95556 9.73938 0.95556 9.87675 1.04055 9.96173C1.08293 10.0041 1.13858 10.0254 1.19422 10.0254C1.24987 10.0254 1.30551 10.0041 1.34789 9.96173L4.39094 6.9187C4.47592 6.83371 4.47592 6.69634 4.39094 6.61135Z" fill="white"/>
<path d="M4.95306 8.13283L3.43154 9.65435C3.34655 9.73934 3.34655 9.87671 3.43154 9.9617C3.47392 10.0041 3.52957 10.0254 3.58521 10.0254C3.64086 10.0254 3.6965 10.0041 3.73889 9.9617L5.26041 8.44018C5.34539 8.35519 5.34539 8.21782 5.26041 8.13283C5.17542 8.04784 5.03805 8.04784 4.95306 8.13283Z" fill="white"/>
<path d="M1.19422 7.63452C1.24987 7.63452 1.30551 7.61321 1.34789 7.57083L2.86942 6.04931C2.9544 5.96432 2.9544 5.82695 2.86942 5.74196C2.78443 5.65698 2.64706 5.65698 2.56207 5.74196L1.04055 7.26348C0.95556 7.34847 0.95556 7.48584 1.04055 7.57083C1.08293 7.61321 1.13858 7.63452 1.19422 7.63452Z" fill="white"/>
</svg>
