<svg width="30" height="28" viewBox="0 0 30 28" fill="none" xmlns="http://www.w3.org/2000/svg">
<path d="M5.53762 9.44985C5.76262 8.97485 6.02512 8.52485 6.32512 8.08735L6.27513 4.83735C6.27513 4.53735 6.40012 4.24985 6.63762 4.04985C7.80012 3.07485 9.12512 2.28735 10.5876 1.76235C10.8751 1.66235 11.1876 1.68735 11.4376 1.84985L14.2251 3.52485C14.7501 3.48735 15.2751 3.48735 15.8001 3.52485L18.5876 1.84985C18.8501 1.69985 19.1626 1.66235 19.4501 1.76235C20.8751 2.27485 22.2126 3.03735 23.4001 4.03735C23.6251 4.22485 23.7626 4.52485 23.7501 4.82485L23.7001 8.07485C24.0001 8.51235 24.2626 8.96235 24.4876 9.43735L27.3251 11.0123C27.5876 11.1623 27.7751 11.4123 27.8251 11.7123C28.0876 13.1998 28.1001 14.7498 27.8251 16.2623C27.7751 16.5623 27.5876 16.8123 27.3251 16.9623L24.4876 18.5373C24.2626 19.0123 24.0001 19.4623 23.7001 19.8998L23.7501 23.1498C23.7501 23.4498 23.6251 23.7373 23.3876 23.9373C22.2251 24.9123 20.9001 25.6998 19.4376 26.2248C19.1501 26.3248 18.8376 26.2998 18.5876 26.1373L15.8001 24.4623C15.2751 24.4998 14.7501 24.4998 14.2251 24.4623L11.4376 26.1373C11.1751 26.2873 10.8626 26.3248 10.5751 26.2248C9.15012 25.7123 7.81262 24.9498 6.62512 23.9498C6.40012 23.7623 6.26263 23.4623 6.27513 23.1623L6.32512 19.9123C6.02512 19.4748 5.76262 19.0248 5.53762 18.5498L2.70012 16.9748C2.43762 16.8248 2.25012 16.5748 2.20012 16.2748C1.93762 14.7873 1.92512 13.2373 2.20012 11.7248C2.25012 11.4248 2.43762 11.1748 2.70012 11.0248L5.53762 9.44985Z" stroke="white" stroke-width="2" stroke-miterlimit="10" stroke-linecap="round" stroke-linejoin="round"/>
<path d="M15 20C18.3137 20 21 17.3137 21 14C21 10.6863 18.3137 8 15 8C11.6863 8 9 10.6863 9 14C9 17.3137 11.6863 20 15 20Z" stroke="white" stroke-width="2" stroke-miterlimit="10" stroke-linecap="round" stroke-linejoin="round"/>
</svg>
