<svg width="24" height="24" viewBox="0 0 24 24" fill="none" xmlns="http://www.w3.org/2000/svg">
<g id="solar:star-line-duotone">
<path id="Vector" d="M9.2675 5.67169C10.4838 3.49057 11.0915 2.40001 12.0006 2.40001C12.9097 2.40001 13.5174 3.49057 14.7337 5.67169L15.0486 6.23617C15.3942 6.85633 15.567 7.16641 15.8358 7.37089C16.1046 7.57537 16.4406 7.65121 17.1126 7.80289L17.7232 7.94113C20.0848 8.47585 21.2646 8.74273 21.5459 9.64609C21.8262 10.5485 21.0217 11.4902 19.4118 13.3728L18.9952 13.8595C18.5382 14.3942 18.3088 14.6621 18.2061 14.9923C18.1033 15.3235 18.1379 15.6806 18.207 16.3939L18.2704 17.0438C18.5133 19.5562 18.6352 20.8119 17.8998 21.3696C17.1645 21.9283 16.0585 21.4186 13.8486 20.401L13.2755 20.1379C12.6477 19.848 12.3337 19.704 12.0006 19.704C11.6675 19.704 11.3536 19.848 10.7248 20.1379L10.1536 20.401C7.9427 21.4186 6.83678 21.9274 6.10238 21.3706C5.36606 20.8118 5.48798 19.5562 5.73086 17.0438L5.79422 16.3949C5.86334 15.6806 5.8979 15.3235 5.79422 14.9933C5.69246 14.6621 5.46302 14.3942 5.00606 13.8605L4.58942 13.3728C2.9795 11.4912 2.17502 10.5494 2.45534 9.64609C2.73662 8.74273 3.91742 8.47489 6.27902 7.94113L6.88958 7.80289C7.56062 7.65121 7.89566 7.57537 8.16542 7.37089C8.43422 7.16641 8.60702 6.85633 8.95262 6.23617L9.2675 5.67169Z" stroke="white" stroke-width="1.5"/>
</g>
</svg>
