<svg width="28" height="28" viewBox="0 0 28 28" fill="none" xmlns="http://www.w3.org/2000/svg">
<g id="uil:vk">
<path id="Vector" d="M17.5853 2.33334H10.4267C3.88866 2.33334 2.3335 3.88851 2.3335 10.4148V17.5735C2.3335 24.1103 3.877 25.6667 10.415 25.6667H17.5737C24.1105 25.6667 25.6668 24.1232 25.6668 17.5852V10.4265C25.6668 3.88851 24.1233 2.33334 17.5853 2.33334ZM21.1705 18.9817H19.4683C18.8243 18.9817 18.6307 18.4602 17.4757 17.3052C16.4677 16.3333 16.0418 16.212 15.7863 16.212C15.434 16.212 15.3372 16.3088 15.3372 16.7953V18.326C15.3372 18.7402 15.203 18.9828 14.1215 18.9828C13.0719 18.9123 12.0541 18.5934 11.1519 18.0525C10.2496 17.5115 9.48886 16.7639 8.93216 15.8713C7.61053 14.2263 6.69093 12.2957 6.2465 10.2328C6.2465 9.97734 6.34333 9.74634 6.82983 9.74634H8.53083C8.96833 9.74634 9.12583 9.94118 9.29733 10.3903C10.1233 12.8217 11.5327 14.9357 12.1043 14.9357C12.3237 14.9357 12.4193 14.8388 12.4193 14.2917V11.788C12.347 10.6458 11.7403 10.549 11.7403 10.136C11.7481 10.0271 11.798 9.92546 11.8795 9.85272C11.961 9.77997 12.0675 9.74182 12.1767 9.74634H14.8507C15.2158 9.74634 15.3372 9.92834 15.3372 10.3658V13.7445C15.3372 14.1097 15.4947 14.231 15.6043 14.231C15.8237 14.231 15.9928 14.1097 16.3942 13.7083C17.2562 12.6571 17.9605 11.4859 18.4848 10.2317C18.5384 10.081 18.6398 9.95203 18.7736 9.8644C18.9074 9.77677 19.0661 9.73531 19.2257 9.74634H20.9278C21.4377 9.74634 21.5462 10.0018 21.4377 10.3658C20.8187 11.7523 20.0529 13.0685 19.1533 14.2917C18.9702 14.5717 18.8967 14.7175 19.1533 15.0453C19.3225 15.3008 19.9187 15.799 20.32 16.2727C20.9032 16.8544 21.3875 17.5275 21.7538 18.2653C21.8997 18.739 21.6558 18.9817 21.1705 18.9817Z" fill="#0065F2"/>
</g>
</svg>
