<svg width="166" height="32" viewBox="0 0 166 32" fill="none" xmlns="http://www.w3.org/2000/svg">
<path d="M0.0240479 31V0.0880127H21.048V4.16801H5.25605V13.528H19.272V17.56H5.25605V31H0.0240479Z" fill="#fff"/>
<path d="M38.97 31.48C34.874 31.48 31.866 30.456 29.946 28.408C28.058 26.36 27.114 23.432 27.114 19.624C27.114 15.816 28.074 12.888 29.994 10.84C31.914 8.79202 34.906 7.76801 38.97 7.76801C43.066 7.76801 46.074 8.79202 47.994 10.84C49.9141 12.888 50.874 15.816 50.874 19.624C50.874 23.432 49.9141 26.36 47.994 28.408C46.106 30.456 43.098 31.48 38.97 31.48ZM38.97 27.064C41.37 27.064 43.066 26.488 44.058 25.336C45.082 24.152 45.594 22.248 45.594 19.624C45.594 17 45.082 15.112 44.058 13.96C43.066 12.808 41.37 12.232 38.97 12.232C36.602 12.232 34.906 12.808 33.882 13.96C32.89 15.112 32.3941 17 32.3941 19.624C32.3941 22.248 32.89 24.152 33.882 25.336C34.906 26.488 36.602 27.064 38.97 27.064Z" fill="#fff"/>
<path d="M60.7647 31V8.24801H65.5647L65.8527 10.888C66.9407 10.184 68.2367 9.54401 69.7407 8.96801C71.2447 8.39201 72.7327 7.99201 74.2047 7.76801V11.752C73.3087 11.912 72.3327 12.152 71.2767 12.472C70.2527 12.76 69.2767 13.096 68.3487 13.48C67.4207 13.832 66.6367 14.2 65.9967 14.584V31H60.7647Z" fill="#fff"/>
<path d="M89.802 31V19.528L78.7141 0.0880127H84.138L92.3941 15.112L100.65 0.0880127H106.074L94.986 19.528V31H89.802Z" fill="#fff"/>
<path d="M122.323 31.48C118.227 31.48 115.219 30.456 113.299 28.408C111.411 26.36 110.467 23.432 110.467 19.624C110.467 15.816 111.427 12.888 113.347 10.84C115.267 8.79202 118.259 7.76801 122.323 7.76801C126.419 7.76801 129.427 8.79202 131.347 10.84C133.267 12.888 134.227 15.816 134.227 19.624C134.227 23.432 133.267 26.36 131.347 28.408C129.459 30.456 126.451 31.48 122.323 31.48ZM122.323 27.064C124.723 27.064 126.419 26.488 127.411 25.336C128.435 24.152 128.947 22.248 128.947 19.624C128.947 17 128.435 15.112 127.411 13.96C126.419 12.808 124.723 12.232 122.323 12.232C119.955 12.232 118.259 12.808 117.235 13.96C116.243 15.112 115.747 17 115.747 19.624C115.747 22.248 116.243 24.152 117.235 25.336C118.259 26.488 119.955 27.064 122.323 27.064Z" fill="#fff"/>
<path d="M152.326 31.48C149.606 31.48 147.51 30.728 146.038 29.224C144.598 27.72 143.878 25.512 143.878 22.6V8.24801H149.11V22.6C149.11 24.296 149.526 25.544 150.358 26.344C151.19 27.144 152.47 27.544 154.198 27.544C155.478 27.544 156.662 27.304 157.75 26.824C158.838 26.344 159.782 25.704 160.582 24.904V8.24801H165.766V31H161.014L160.774 28.648C159.75 29.448 158.534 30.12 157.126 30.664C155.718 31.208 154.118 31.48 152.326 31.48Z" fill="#fff"/>
</svg>
