<svg width="46" height="59" viewBox="0 0 46 59" fill="none" xmlns="http://www.w3.org/2000/svg">
<path d="M18.0796 59H0V0H18.8806C24.5638 0 29.427 1.18115 33.4701 3.54346C37.5133 5.88655 40.6124 9.25716 42.7674 13.6553C44.9225 18.0342 46 23.2773 46 29.3848C46 35.5306 44.9129 40.8218 42.7388 45.2583C40.5647 49.6756 37.3988 53.075 33.2413 55.4565C29.0837 57.8188 24.0298 59 18.0796 59ZM7.09453 52.6621H17.6219C22.466 52.6621 26.4805 51.721 29.6654 49.8389C32.8503 47.9567 35.2247 45.2775 36.7886 41.8013C38.3524 38.325 39.1343 34.1862 39.1343 29.3848C39.1343 24.6217 38.3619 20.5213 36.8172 17.0835C35.2724 13.6265 32.9648 10.9761 29.8943 9.13232C26.8238 7.26937 23 6.33789 18.4229 6.33789H7.09453V52.6621Z" fill="#C22085"/>
</svg>
