<svg viewBox="0 0 94 94" fill="none" xmlns="http://www.w3.org/2000/svg">
      <path
        d="M0.5 80.4405V54.1682C0.5 54.0923 0.581117 54.0441 0.647751 54.0803L23.4478 66.4716C23.48 66.4891 23.5 66.5228 23.5 66.5595V92.8318C23.5 92.9077 23.4189 92.9559 23.3522 92.9197L0.552249 80.5284C0.520048 80.5109 0.5 80.4772 0.5 80.4405Z"
        stroke="#C22085"
      />
      <path
        d="M23.0521 40.0304L46.845 53.9096C46.9127 53.9491 46.9107 54.0475 46.8416 54.0843L23.5475 66.4748C23.5178 66.4905 23.4823 66.4904 23.4528 66.4743L0.650921 54.082C0.583566 54.0454 0.580754 53.9498 0.645842 53.9093L22.9488 40.0318C22.9803 40.0123 23.02 40.0117 23.0521 40.0304Z"
        stroke="#C22085"
      />
      <path
        d="M47 79.941V54.1665C47 54.091 46.9196 54.0427 46.853 54.0782L23.553 66.4718C23.5204 66.4892 23.5 66.5231 23.5 66.5601V92.8304C23.5 92.9066 23.5818 92.9548 23.6484 92.9179L46.9484 80.0285C46.9802 80.0109 47 79.9774 47 79.941Z"
        stroke="#C22085"
      />
      <path
        d="M47.05 80.0289L69.35 92.9133C69.4166 92.9518 69.5 92.9037 69.5 92.8267V66.5588C69.5 66.5225 69.4803 66.4891 69.4486 66.4714L47.1486 54.0825C47.0819 54.0455 47 54.0937 47 54.17V79.9423C47 79.978 47.019 80.011 47.05 80.0289Z"
        stroke="#C22085"
      />
      <path
        d="M69.4525 66.4736L47.1502 54.0835C47.0832 54.0462 47.0813 53.9505 47.1468 53.9106L69.948 40.0316C69.9799 40.0122 70.0201 40.0122 70.052 40.0316L92.8501 53.9087C92.9162 53.949 92.9134 54.046 92.845 54.0824L69.548 66.4745C69.5181 66.4904 69.4821 66.4901 69.4525 66.4736Z"
        stroke="#C22085"
      />
      <path
        d="M46.9508 27.9722L24.1484 15.0839C24.0819 15.0463 24.0804 14.9511 24.1456 14.9114L46.948 1.03165C46.9799 1.01221 47.0201 1.01221 47.052 1.03165L69.8544 14.9114C69.9196 14.9511 69.9181 15.0463 69.8516 15.0839L47.0492 27.9722C47.0187 27.9894 46.9813 27.9894 46.9508 27.9722Z"
        stroke="#C22085"
      />
      <path
        d="M69.5 92.8272V66.5601C69.5 66.5231 69.5204 66.4892 69.553 66.4718L92.853 54.0782C92.9196 54.0427 93 54.091 93 54.1665V79.4421C93 79.4779 92.9809 79.511 92.9498 79.5288L69.6498 92.9139C69.5831 92.9522 69.5 92.9041 69.5 92.8272Z"
        stroke="#C22085"
      />
      <path
        d="M47 53.8221V28.0583C47 28.0223 47.0194 27.989 47.0508 27.9713L69.8508 15.0843C69.9175 15.0467 70 15.0948 70 15.1714V39.9438C70 39.9787 69.9818 40.0111 69.952 40.0292L47.152 53.9075C47.0854 53.948 47 53.9001 47 53.8221Z"
        stroke="#C22085"
      />
      <path
        d="M47 53.8259V28.0583C47 28.0223 46.9806 27.989 46.9492 27.9713L24.1426 15.0806C24.0775 15.0438 23.9964 15.0889 23.9935 15.1636L23.0024 39.9399C23.0009 39.9769 23.02 40.0117 23.0519 40.0303L46.8496 53.9123C46.9163 53.9512 47 53.9031 47 53.8259Z"
        stroke="#C22085"
      />
    </svg>