<svg viewBox="0 0 194 191" fill="none" xmlns="http://www.w3.org/2000/svg">
      <path
        d="M72.5 137H149.837C149.912 137 149.96 136.921 149.927 136.855L81.5734 1.64512C81.5397 1.5786 81.5881 1.5 81.6626 1.5H112.939C112.976 1.5 113.011 1.52104 113.028 1.55448L192.926 157.854C192.96 157.921 192.911 158 192.837 158H62.5"
        stroke="#C22085"
        stroke-width="2"
      />
      <path
        d="M122.5 137L82.0901 61.169C82.0521 61.0977 81.9496 61.0986 81.9128 61.1705L16.0922 189.82C16.0545 189.893 15.9486 189.892 15.9129 189.817L1.02125 158.545C1.00786 158.517 1.00834 158.484 1.02255 158.456L81.4101 1.67541C81.4474 1.60256 81.5517 1.60301 81.5884 1.67619L149.5 137"
        stroke="#C22085"
        stroke-width="2"
      />
      <path
        d="M97.5 89L62.5737 157.855C62.5399 157.921 62.5883 158 62.6629 158H192.858C192.927 158 192.975 158.069 192.952 158.134L181.524 189.934C181.51 189.974 181.472 190 181.43 190H16.1632C16.0885 190 16.0402 189.921 16.0741 189.855L82 60.5"
        stroke="#C22085"
        stroke-width="2"
      />
    </svg>