<svg width="124" height="124" viewBox="0 0 124 124" fill="none" xmlns="http://www.w3.org/2000/svg">
<path d="M62 123.721C28 123.721 0.319 96.049 0.319 62.0167C0.319 27.9841 28 0.33252 62 0.33252C96 0.33252 123.681 28.0038 123.681 62.0364C123.681 96.069 96 123.721 62 123.721ZM62 2.30202C29.083 2.30202 2.28799 29.087 2.28799 62.0364C2.28799 94.986 29.083 121.751 62 121.751C94.918 121.751 121.712 94.966 121.712 62.0167C121.712 29.0673 94.918 2.30202 62 2.30202Z" fill="#E1B168"/>
<path d="M64.973 83.977C60.543 83.977 56.232 83.031 52.156 81.18C49.105 82.598 45.876 83.307 42.549 83.307C29.909 83.307 19.613 73.007 19.613 60.3625C19.613 49.6091 27.153 40.254 37.607 37.9694C43.08 27.8857 53.515 21.6621 64.973 21.6621C81.373 21.6621 94.898 34.3653 96 50.6923C101.178 53.9025 104.368 59.5944 104.368 65.68C104.368 75.409 96.453 83.327 86.728 83.327C83.715 83.327 80.743 82.539 78.085 81.042C73.95 82.992 69.521 83.977 64.973 83.977ZM52.156 79.013L52.589 79.21C60.602 82.972 69.796 82.913 77.73 79.033L78.203 78.797L78.656 79.073C81.117 80.55 83.912 81.337 86.747 81.337C95.39 81.337 102.418 74.306 102.418 65.66C102.418 60.0867 99.406 54.8873 94.563 52.0906L94.091 51.8149L94.071 51.2831C93.283 35.7636 80.506 23.5922 64.973 23.5922C54.086 23.5922 44.183 29.5991 39.123 39.2693L38.907 39.6829L38.454 39.7814C28.689 41.7311 21.582 50.3772 21.582 60.3428C21.582 71.904 30.992 81.318 42.549 81.318C45.738 81.318 48.809 80.589 51.723 79.191L52.156 79.013Z" fill="#E1B168"/>
<path d="M85.093 102.372H38.907V81.062L40.009 81.2C40.974 81.318 41.781 81.377 42.549 81.377C45.738 81.377 48.809 80.648 51.723 79.25L52.156 79.014L52.589 79.21C60.602 82.972 69.796 82.913 77.73 79.033L78.203 78.797L78.656 79.073C80.368 80.097 82.239 80.786 84.267 81.121L85.093 81.259V102.372ZM40.875 100.402H83.125V82.913C81.353 82.539 79.66 81.909 78.104 81.022C69.895 84.883 60.445 84.942 52.156 81.2C49.105 82.618 45.876 83.327 42.549 83.327C42.017 83.327 41.466 83.307 40.875 83.248V100.402Z" fill="#E1B168"/>
<path d="M42.411 53.6267C41.86 53.6267 41.427 53.1934 41.427 52.6419C41.427 39.8206 51.861 29.3823 64.678 29.3823C65.229 29.3823 65.662 29.8156 65.662 30.3671C65.662 30.9185 65.229 31.3518 64.678 31.3518C52.944 31.3518 43.395 40.9038 43.395 52.6419C43.395 53.1934 42.962 53.6267 42.411 53.6267Z" fill="#E1B168"/>
</svg>
