<svg width="315" height="314" viewBox="0 0 315 314" fill="none" xmlns="http://www.w3.org/2000/svg">
<path d="M146.713 9.66699C149.268 -1.88212 165.732 -1.88212 168.287 9.66699C170.89 21.434 186.566 23.9169 192.678 13.53C198.676 3.33567 214.335 8.42358 213.196 20.1968C212.035 32.1924 226.177 39.3978 235.199 31.408C244.054 23.5662 257.375 33.244 252.654 44.089C247.842 55.1387 259.065 66.3612 270.115 61.5507C280.96 56.8291 290.638 70.1492 282.796 79.0052C274.806 88.0266 282.011 102.168 294.007 101.008C305.781 99.8679 310.869 115.527 300.674 121.526C290.287 127.638 292.769 143.314 304.537 145.917C316.086 148.471 316.086 164.936 304.537 167.491C292.769 170.093 290.287 185.77 300.674 191.882C310.869 197.88 305.781 213.539 294.007 212.4C282.011 211.239 274.806 225.381 282.796 234.403C290.638 243.258 280.96 256.578 270.115 251.857C259.065 247.046 247.842 258.269 252.654 269.319C257.375 280.163 244.054 289.842 235.199 282C226.177 274.009 212.035 281.216 213.196 293.21C214.335 304.984 198.676 310.072 192.678 299.878C186.566 289.491 170.89 291.974 168.287 303.74C165.732 315.29 149.268 315.29 146.713 303.74C144.11 291.974 128.434 289.491 122.322 299.878C116.324 310.072 100.665 304.984 101.804 293.21C102.965 281.216 88.8235 274.009 79.801 282C70.9461 289.842 57.6253 280.163 62.347 269.319C67.1581 258.269 55.9349 247.046 44.8852 251.857C34.0403 256.578 24.3624 243.258 32.2042 234.403C40.1941 225.381 32.9886 211.239 20.9931 212.4C9.21981 213.539 4.13191 197.88 14.3263 191.882C24.7131 185.77 22.2303 170.093 10.4632 167.491C-1.08589 164.936 -1.08589 148.471 10.4632 145.917C22.2303 143.314 24.7131 127.638 14.3263 121.526C4.13191 115.527 9.21981 99.8679 20.9931 101.008C32.9886 102.168 40.1941 88.0266 32.2042 79.0052C24.3624 70.1492 34.0403 56.8291 44.8852 61.5507C55.9349 66.3612 67.1581 55.1387 62.347 44.089C57.6253 33.244 70.9461 23.5662 79.801 31.408C88.8235 39.3978 102.965 32.1924 101.804 20.1968C100.665 8.42358 116.324 3.33567 122.322 13.53C128.434 23.9169 144.11 21.434 146.713 9.66699Z" stroke="#40464F" stroke-width="2"/>
<path d="M155.366 33.3691C155.565 30.7304 159.435 30.7304 159.634 33.3691C160.017 38.4707 167.355 38.8553 168.27 33.8217C168.743 31.2182 172.592 31.6229 172.513 34.2677C172.362 39.3814 179.621 40.531 181.056 35.6207C181.799 33.081 185.585 33.8855 185.229 36.5078C184.544 41.5776 191.643 43.4797 193.583 38.7463C194.587 36.2981 198.268 37.4939 197.641 40.0648C196.43 45.0351 203.291 47.6688 205.716 43.1642C206.97 40.8343 210.506 42.4085 209.614 44.8997C207.889 49.7161 214.437 53.0525 217.319 48.8262C218.81 46.6402 222.162 48.5752 221.015 50.9595C218.796 55.5693 224.96 59.5719 228.268 55.67C229.98 53.6519 233.111 55.9265 231.72 58.1779C229.032 62.5305 234.743 67.155 238.442 63.6208C240.355 61.7926 243.23 64.3821 241.613 66.4756C238.484 70.5233 243.68 75.7202 247.728 72.5916C249.821 70.973 252.411 73.8495 250.583 75.7623C247.048 79.4604 251.673 85.1723 256.026 82.4835C258.278 81.0935 260.553 84.2242 258.534 85.935C254.632 89.2445 258.634 95.4072 263.245 93.189C265.628 92.0411 267.563 95.3928 265.377 96.8838C261.151 99.7669 264.488 106.315 269.304 104.59C271.795 103.698 273.37 107.233 271.039 108.488C266.535 110.913 269.169 117.774 274.139 116.562C276.71 115.936 277.906 119.616 275.458 120.62C270.724 122.561 272.626 129.66 277.696 128.974C280.318 128.62 281.123 132.406 278.583 133.148C273.673 134.584 274.822 141.842 279.937 141.69C282.581 141.611 282.986 145.46 280.382 145.933C275.348 146.848 275.733 154.187 280.835 154.57C283.474 154.769 283.474 158.639 280.835 158.837C275.733 159.221 275.348 166.559 280.382 167.474C282.986 167.947 282.581 171.796 279.937 171.717C274.822 171.565 273.673 178.824 278.583 180.26C281.123 181.002 280.318 184.788 277.696 184.434C272.626 183.747 270.724 190.846 275.458 192.788C277.906 193.791 276.71 197.472 274.139 196.846C269.169 195.633 266.535 202.494 271.039 204.92C273.37 206.174 271.795 209.709 269.304 208.818C264.488 207.093 261.151 213.641 265.377 216.524C267.563 218.015 265.628 221.366 263.245 220.218C258.634 218 254.632 224.163 258.534 227.472C260.553 229.183 258.278 232.315 256.026 230.924C251.673 228.236 247.048 233.947 250.583 237.645C252.411 239.558 249.821 242.434 247.728 240.816C243.68 237.687 238.484 242.884 241.613 246.932C243.23 249.026 240.355 251.615 238.442 249.787C234.743 246.252 229.032 250.877 231.72 255.229C233.111 257.481 229.98 259.756 228.268 257.737C224.96 253.836 218.796 257.838 221.015 262.448C222.162 264.833 218.81 266.768 217.319 264.582C214.437 260.355 207.889 263.691 209.614 268.508C210.506 271 206.97 272.573 205.716 270.244C203.291 265.739 196.43 268.373 197.641 273.343C198.268 275.913 194.587 277.109 193.583 274.661C191.643 269.928 184.544 271.83 185.229 276.899C185.585 279.523 181.799 280.326 181.056 277.787C179.621 272.877 172.362 274.026 172.513 279.14C172.592 281.785 168.743 282.189 168.27 279.586C167.355 274.552 160.017 274.937 159.634 280.039C159.435 282.677 155.565 282.677 155.366 280.039C154.983 274.937 147.645 274.552 146.73 279.586C146.257 282.189 142.408 281.785 142.487 279.14C142.638 274.026 135.379 272.877 133.944 277.787C133.201 280.326 129.415 279.523 129.771 276.899C130.456 271.83 123.357 269.928 121.417 274.661C120.413 277.109 116.731 275.913 117.359 273.343C118.57 268.373 111.709 265.739 109.284 270.244C108.03 272.573 104.494 271 105.386 268.508C107.111 263.691 100.563 260.355 97.6806 264.582C96.1896 266.768 92.8379 264.833 93.9848 262.448C96.204 257.838 90.0402 253.836 86.7319 257.737C85.0199 259.756 81.8892 257.481 83.2803 255.229C85.9681 250.877 80.2572 246.252 76.5581 249.787C74.6452 251.615 71.7698 249.026 73.3873 246.932C76.5159 242.884 71.3202 237.687 67.2724 240.816C65.1782 242.434 62.5887 239.558 64.417 237.645C67.9518 233.947 63.3267 228.235 58.974 230.924C56.7227 232.315 54.448 229.183 56.4661 227.472C60.368 224.163 56.3654 218 51.7557 220.218C49.3713 221.366 47.4364 218.015 49.6223 216.524C53.8486 213.641 50.5123 207.093 45.6958 208.818C43.2046 209.709 41.6305 206.174 43.9603 204.92C48.465 202.494 45.8312 195.633 40.8609 196.846C38.29 197.472 37.0942 193.791 39.5424 192.788C44.2759 190.846 42.3738 183.747 37.304 184.434C34.6817 184.788 33.8771 181.002 36.4168 180.26C41.3272 178.824 40.1776 171.565 35.0638 171.717C32.419 171.796 32.0143 167.947 34.6179 167.474C39.6515 166.559 39.2669 159.221 34.1652 158.837C31.5266 158.639 31.5266 154.769 34.1652 154.57C39.2669 154.187 39.6515 146.848 34.6179 145.933C32.0143 145.46 32.419 141.611 35.0638 141.69C40.1776 141.842 41.3272 134.584 36.4168 133.148C33.8771 132.406 34.6817 128.62 37.304 128.974C42.3738 129.66 44.2759 122.561 39.5424 120.62C37.0942 119.616 38.29 115.936 40.8609 116.562C45.8314 117.774 48.465 110.913 43.9603 108.488C41.6305 107.233 43.2046 103.698 45.6958 104.59C50.5123 106.315 53.8487 99.7669 49.6223 96.8838C47.4364 95.3928 49.3713 92.0411 51.7557 93.189C56.3655 95.4072 60.368 89.2445 56.4661 85.935C54.448 84.2242 56.7227 81.0935 58.974 82.4835C63.3267 85.1723 67.9518 79.4604 64.4169 75.7623C62.5887 73.8495 65.1782 70.973 67.2724 72.5916C71.3202 75.7202 76.5159 70.5233 73.3873 66.4756C71.7698 64.3821 74.6452 61.7926 76.5581 63.6207C80.2572 67.155 85.9681 62.5305 83.2803 58.1779C81.8892 55.9265 85.0199 53.6519 86.7319 55.67C90.0402 59.5719 96.204 55.5694 93.9848 50.9595C92.8379 48.5752 96.1896 46.6401 97.6806 48.8262C100.563 53.0525 107.111 49.7161 105.386 44.8997C104.494 42.4084 108.03 40.8343 109.284 43.1642C111.709 47.6688 118.57 45.0352 117.359 40.0648C116.731 37.4939 120.413 36.2981 121.417 38.7463C123.357 43.4797 130.456 41.5776 129.771 36.5078C129.415 33.8855 133.201 33.081 133.944 35.6207C135.379 40.531 142.638 39.3814 142.487 34.2677C142.408 31.6229 146.257 31.2182 146.73 33.8217C147.645 38.8553 154.983 38.4706 155.366 33.3691Z" stroke="#40464F" stroke-width="2"/>
<path d="M154.248 54.425C155.018 50.9432 159.982 50.9433 160.752 54.4249L165.249 74.7565C166.338 79.6791 172.896 80.7182 175.453 76.3729L186.013 58.4259C187.822 55.3525 192.542 56.8865 192.199 60.4357L190.193 81.1612C189.708 86.1804 195.624 89.1945 199.399 85.8518L214.987 72.0465C217.657 69.6829 221.672 72.6005 220.249 75.87L211.937 94.962C209.924 99.5848 214.619 104.28 219.242 102.267L238.334 93.9551C241.604 92.5318 244.521 96.5473 242.157 99.2162L228.351 114.806C225.009 118.58 228.024 124.496 233.042 124.01L253.768 122.005C257.317 121.662 258.852 126.383 255.778 128.191L237.831 138.75C233.486 141.307 234.525 147.866 239.448 148.955L259.779 153.451C263.26 154.222 263.26 159.186 259.779 159.956L239.448 164.453C234.525 165.541 233.486 172.1 237.831 174.657L255.778 185.217C258.852 187.025 257.317 191.746 253.768 191.402L233.042 189.397C228.024 188.911 225.009 194.827 228.351 198.602L242.157 214.191C244.521 216.86 241.604 220.876 238.334 219.452L219.242 211.14C214.619 209.128 209.924 213.824 211.937 218.445L220.249 237.537C221.672 240.807 217.657 243.724 214.987 241.361L199.399 227.556C195.624 224.213 189.708 227.227 190.193 232.246L192.199 252.972C192.542 256.522 187.822 258.055 186.013 254.982L175.453 237.036C172.896 232.689 166.338 233.728 165.249 238.651L160.752 258.983C159.982 262.465 155.018 262.465 154.248 258.983L149.751 238.651C148.662 233.728 142.104 232.689 139.547 237.036L128.987 254.982C127.178 258.055 122.458 256.522 122.801 252.972L124.807 232.246C125.292 227.227 119.376 224.213 115.601 227.556L100.013 241.361C97.3431 243.724 93.3275 240.807 94.7508 237.537L103.063 218.447C105.076 213.824 100.381 209.128 95.7578 211.14L76.6658 219.452C73.3963 220.876 70.4787 216.86 72.8434 214.191L86.6486 198.602C89.9914 194.827 86.9761 188.911 81.9581 189.397L61.2319 191.402C57.6827 191.746 56.1488 187.025 59.2221 185.217L77.1687 174.657C81.514 172.1 80.4759 165.541 75.5522 164.453L55.2212 159.956C51.7394 159.186 51.7395 154.222 55.2211 153.451L75.5522 148.955C80.4748 147.866 81.514 141.307 77.1687 138.75L59.2221 128.191C56.1488 126.383 57.6827 121.662 61.2319 122.005L81.9581 124.01C86.9761 124.496 89.9914 118.58 86.6486 114.806L72.8434 99.2162C70.4787 96.5473 73.3963 92.5318 76.6658 93.9551L95.7578 102.267C100.381 104.28 105.076 99.5848 103.063 94.962L94.7508 75.87C93.3275 72.6005 97.3431 69.6829 100.013 72.0465L115.601 85.8518C119.376 89.1945 125.292 86.1804 124.807 81.1612L122.801 60.4357C122.458 56.8865 127.178 55.3525 128.987 58.4259L139.547 76.3729C142.104 80.7182 148.662 79.6791 149.751 74.7565L154.248 54.425Z" stroke="#40464F" stroke-width="2"/>
</svg>
