<svg width="240" height="256" viewBox="0 0 240 256" fill="none" xmlns="http://www.w3.org/2000/svg">
<g opacity="0.3">
<path d="M149.789 174.443C149.114 175.757 148.485 177.071 147.889 178.385C147.293 179.7 146.731 181.025 146.213 182.351C145.685 183.676 145.202 185.002 144.752 186.327C144.302 187.653 143.886 188.978 143.504 190.304H142.424C142.818 188.945 143.245 187.574 143.717 186.215C144.178 184.856 144.684 183.485 145.224 182.126C145.764 180.767 146.337 179.408 146.956 178.048C147.563 176.689 148.215 175.341 148.912 173.993C148.923 173.982 148.923 173.971 148.934 173.948C148.946 173.937 148.946 173.926 148.957 173.903C148.968 173.892 148.968 173.881 148.979 173.858C148.991 173.847 148.991 173.836 149.002 173.813L149.89 174.274C149.879 174.285 149.879 174.297 149.868 174.308C149.856 174.319 149.856 174.33 149.845 174.341C149.834 174.353 149.834 174.364 149.823 174.375C149.8 174.42 149.789 174.431 149.789 174.443Z" fill="#0098FF"/>
<path d="M161.111 155.818L161.674 156.795C160.763 157.84 159.863 158.929 158.998 160.041C158.132 161.153 157.277 162.288 156.445 163.456C155.613 164.625 154.815 165.827 154.028 167.051C153.252 168.275 152.487 169.534 151.757 170.825L150.925 170.275C151.678 168.949 152.454 167.658 153.263 166.399C154.062 165.13 154.894 163.906 155.748 162.704C156.603 161.502 157.48 160.322 158.368 159.188C159.245 158.008 160.167 156.896 161.111 155.818Z" fill="#0098FF"/>
<path d="M142.514 194.079C142.188 195.472 141.896 196.864 141.637 198.257C141.379 199.65 141.165 201.043 140.996 202.425C140.816 203.818 140.681 205.2 140.591 206.57C140.502 207.952 140.445 209.322 140.423 210.681L139.208 211.288C139.231 209.884 139.287 208.48 139.388 207.053C139.49 205.638 139.636 204.222 139.816 202.784C139.996 201.358 140.22 199.931 140.479 198.493C140.738 197.067 141.041 195.629 141.39 194.191L142.514 194.079Z" fill="#0098FF"/>
<path d="M177.021 143.315C175.886 144.045 174.773 144.82 173.671 145.64C172.569 146.449 171.489 147.303 170.421 148.19C169.364 149.078 168.319 149.999 167.296 150.954C166.272 151.908 165.272 152.897 164.282 153.919L163.799 152.852C164.811 151.796 165.845 150.774 166.891 149.785C167.948 148.797 169.016 147.842 170.106 146.932C171.208 146.011 172.321 145.135 173.446 144.292C174.581 143.45 175.728 142.652 176.898 141.888L177.021 143.315Z" fill="#0098FF"/>
<path d="M140.502 214.411C140.569 215.759 140.67 217.095 140.817 218.421C140.963 219.746 141.154 221.061 141.39 222.353C141.626 223.656 141.907 224.936 142.244 226.183C142.582 227.453 142.953 228.688 143.38 229.901L142.188 231.148C141.75 229.89 141.367 228.598 141.03 227.295C140.693 225.992 140.412 224.667 140.164 223.33C139.928 221.993 139.737 220.645 139.58 219.263C139.434 217.904 139.332 216.523 139.265 215.13L140.502 214.411Z" fill="#0098FF"/>
<path d="M195.124 134.059L194.685 135.811C193.437 136.069 192.2 136.384 190.952 136.755C189.727 137.125 188.501 137.541 187.287 138.013C186.084 138.485 184.881 139.001 183.689 139.563C182.508 140.125 181.339 140.731 180.181 141.394L180.147 139.9C181.339 139.215 182.553 138.586 183.768 138.001C184.993 137.406 186.23 136.867 187.478 136.373C188.737 135.878 189.997 135.44 191.267 135.047C192.549 134.676 193.831 134.339 195.124 134.059Z" fill="#0098FF"/>
<path d="M198.632 133.475C199.576 133.351 200.521 133.272 201.476 133.216C202.432 133.16 203.388 133.149 204.332 133.171C205.288 133.194 206.244 133.25 207.199 133.351C208.166 133.452 209.122 133.587 210.078 133.767C210.393 133.823 210.696 133.89 211.011 133.958C211.326 134.025 211.63 134.092 211.933 134.171C212.237 134.25 212.54 134.328 212.844 134.407C213.147 134.497 213.451 134.575 213.743 134.677L212.653 136.552C212.36 136.463 212.079 136.373 211.787 136.283C211.495 136.204 211.202 136.114 210.91 136.047C210.618 135.968 210.314 135.901 210.022 135.834C209.729 135.766 209.426 135.699 209.122 135.643C208.2 135.463 207.278 135.317 206.345 135.216C205.423 135.115 204.501 135.047 203.579 135.025C202.657 135.002 201.746 135.002 200.824 135.047C199.914 135.092 198.992 135.171 198.081 135.272L198.632 133.475Z" fill="#0098FF"/>
<path d="M153.106 245.224C153.353 245.46 153.601 245.684 153.859 245.898C154.118 246.122 154.365 246.336 154.624 246.549C154.882 246.763 155.141 246.965 155.411 247.178C155.681 247.381 155.939 247.583 156.22 247.774L155.355 249.773C155.073 249.571 154.804 249.358 154.523 249.144C154.253 248.931 153.983 248.717 153.713 248.493C153.443 248.268 153.185 248.043 152.926 247.807C152.667 247.572 152.409 247.336 152.15 247.1C151.206 246.201 150.317 245.269 149.485 244.28C148.665 243.303 147.889 242.281 147.169 241.225C146.461 240.18 145.797 239.09 145.179 237.967C144.572 236.855 144.01 235.709 143.504 234.53L144.673 233.159C145.179 234.294 145.719 235.395 146.315 236.462C146.911 237.54 147.563 238.585 148.26 239.596C148.968 240.618 149.721 241.595 150.52 242.528C151.318 243.471 152.184 244.37 153.106 245.224Z" fill="#0098FF"/>
<path d="M158.289 251.683L159.065 249.594C160.178 250.223 161.314 250.762 162.494 251.245C163.675 251.728 164.9 252.132 166.137 252.469C167.397 252.806 168.678 253.065 169.983 253.244C171.309 253.424 172.647 253.536 174.019 253.559L173.749 255.952C172.333 255.907 170.938 255.794 169.567 255.592C168.217 255.39 166.879 255.109 165.586 254.75C164.305 254.39 163.045 253.963 161.82 253.447C160.605 252.919 159.436 252.334 158.289 251.683Z" fill="#0098FF"/>
<path d="M236.276 168.455C236.028 166.736 235.714 165.051 235.32 163.423C234.938 161.805 234.477 160.244 233.948 158.738C233.431 157.244 232.846 155.806 232.194 154.436C231.553 153.077 230.845 151.774 230.08 150.527L231.958 148.999C232.756 150.28 233.499 151.628 234.173 153.032C234.859 154.458 235.477 155.941 236.028 157.48C236.579 159.042 237.074 160.659 237.479 162.333C237.895 164.018 238.243 165.759 238.502 167.545L236.276 168.455Z" fill="#0098FF"/>
<path d="M177.909 253.413C179.371 253.289 180.844 253.076 182.328 252.784C183.824 252.48 185.341 252.098 186.859 251.626C188.388 251.155 189.929 250.593 191.458 249.941C193.01 249.29 194.561 248.549 196.102 247.717L196.709 250.043C195.101 250.896 193.493 251.66 191.874 252.323C190.277 252.986 188.681 253.559 187.084 254.042C185.51 254.525 183.936 254.907 182.373 255.21C180.833 255.502 179.304 255.715 177.786 255.828L177.909 253.413Z" fill="#0098FF"/>
<path d="M234.274 196.583C234.814 194.55 235.264 192.528 235.635 190.517C236.006 188.518 236.287 186.541 236.501 184.586C236.703 182.643 236.827 180.722 236.872 178.835C236.917 176.959 236.883 175.116 236.771 173.319L239.053 172.611C239.177 174.487 239.222 176.397 239.177 178.352C239.143 180.318 239.019 182.317 238.806 184.339C238.603 186.372 238.311 188.439 237.929 190.517C237.546 192.607 237.074 194.719 236.523 196.842L234.274 196.583Z" fill="#0098FF"/>
<path d="M201.117 247.459L200.33 245.213C201.847 244.224 203.365 243.157 204.85 242.011C206.345 240.854 207.829 239.607 209.28 238.293C210.741 236.967 212.169 235.552 213.563 234.069C214.969 232.575 216.329 231.014 217.656 229.362L219.208 231.014C217.825 232.721 216.397 234.35 214.935 235.911C213.474 237.45 211.978 238.922 210.46 240.292C208.942 241.663 207.402 242.955 205.839 244.145C204.287 245.336 202.713 246.448 201.117 247.459Z" fill="#0098FF"/>
<path d="M227.517 214.107C228.023 213.119 228.506 212.119 228.979 211.119C229.44 210.12 229.889 209.12 230.317 208.109C230.744 207.109 231.149 206.098 231.531 205.087C231.913 204.076 232.273 203.076 232.622 202.065L234.814 202.571C234.454 203.616 234.083 204.671 233.69 205.716C233.296 206.772 232.869 207.817 232.43 208.861C231.992 209.906 231.52 210.951 231.036 211.996C230.553 213.04 230.047 214.074 229.518 215.107C229.012 216.096 228.495 217.062 227.967 218.017C227.438 218.971 226.887 219.915 226.336 220.836C225.774 221.757 225.212 222.678 224.627 223.566C224.043 224.465 223.447 225.341 222.84 226.206L221.13 224.745C221.715 223.914 222.277 223.072 222.84 222.207C223.402 221.342 223.941 220.466 224.481 219.578C225.021 218.691 225.538 217.781 226.044 216.871C226.539 215.983 227.033 215.051 227.517 214.107Z" fill="#0098FF"/>
<path d="M227.877 147.348C227.045 146.269 226.168 145.258 225.234 144.315C224.312 143.382 223.345 142.506 222.322 141.697C221.322 140.9 220.265 140.17 219.174 139.507C218.095 138.855 216.97 138.26 215.812 137.743L217.038 135.878C218.252 136.406 219.421 137.002 220.546 137.665C221.681 138.339 222.783 139.091 223.829 139.9C224.886 140.72 225.909 141.619 226.876 142.585C227.854 143.562 228.776 144.595 229.653 145.708L227.877 147.348Z" fill="#0098FF"/>
</g>
</svg>
