<svg width="330" height="384" viewBox="0 0 330 384" fill="none" xmlns="http://www.w3.org/2000/svg">
<g opacity="0.3">
<path d="M33.2159 124.656C32.8561 125.364 32.4963 126.083 32.1365 126.791C31.7767 127.498 31.4281 128.217 31.0908 128.925C30.7422 129.633 30.4049 130.352 30.0676 131.059C29.7303 131.767 29.393 132.486 29.0669 133.194L23.4451 131.127C23.8049 130.363 24.1647 129.599 24.5245 128.835C24.8843 128.071 25.2553 127.307 25.6264 126.543C25.9974 125.78 26.3797 125.016 26.762 124.252C27.1443 123.488 27.5265 122.724 27.9201 121.96C28.1449 121.522 28.3698 121.095 28.5835 120.657C28.8083 120.23 29.0332 119.792 29.2581 119.365C29.4829 118.939 29.7078 118.512 29.9327 118.085C30.1576 117.658 30.3825 117.231 30.6186 116.804L35.7345 119.871C35.5208 120.264 35.3072 120.657 35.0936 121.062C34.8799 121.455 34.6663 121.859 34.4639 122.252C34.2503 122.657 34.0479 123.05 33.8343 123.454C33.6206 123.847 33.4183 124.252 33.2159 124.656Z" fill="#0098FF"/>
<path d="M40.9403 99.2914L45.3479 103.627C44.6732 104.661 44.0211 105.694 43.3577 106.75C42.7056 107.795 42.0534 108.851 41.4126 109.918C40.7717 110.985 40.1308 112.052 39.5011 113.131C38.8715 114.209 38.2531 115.299 37.6347 116.389L32.6537 113.052C33.3171 111.873 33.9804 110.704 34.6551 109.536C35.3297 108.368 36.0156 107.222 36.7014 106.076C37.3873 104.931 38.0844 103.785 38.7928 102.661C39.5124 101.527 40.232 100.403 40.9403 99.2914Z" fill="#0098FF"/>
<path d="M27.4142 136.822C26.9082 137.968 26.4135 139.125 25.93 140.271C25.4465 141.416 24.9631 142.573 24.5021 143.719C24.0411 144.876 23.5801 146.022 23.1416 147.179C22.6918 148.336 22.2646 149.493 21.8373 150.65L15.6083 149.92C16.0693 148.673 16.5415 147.426 17.025 146.179C17.5085 144.932 18.0032 143.697 18.5092 142.45C19.0151 141.214 19.5323 139.967 20.0608 138.732C20.5892 137.496 21.1289 136.26 21.6686 135.025L27.4142 136.822Z" fill="#0098FF"/>
<path d="M52.7125 82.5425L56.333 88.1591C55.5684 89.1364 54.8151 90.1362 54.073 91.1247C53.3309 92.1245 52.5888 93.1243 51.858 94.1353C51.1271 95.1463 50.4075 96.1685 49.6879 97.1907C48.9683 98.213 48.26 99.2464 47.5629 100.291L43.3127 95.6855C44.0661 94.5621 44.8307 93.4388 45.5952 92.3267C46.3598 91.2146 47.1356 90.1137 47.9227 89.0129C48.7097 87.912 49.4968 86.8224 50.2951 85.744C51.0822 84.6768 51.8917 83.6096 52.7125 82.5425Z" fill="#0098FF"/>
<path d="M20.488 154.402C20.072 155.593 19.6784 156.772 19.2849 157.963C18.8914 159.154 18.5091 160.345 18.1381 161.535C17.767 162.726 17.4072 163.928 17.0587 165.119C16.7101 166.321 16.3728 167.512 16.0355 168.713L9.24426 169.399C9.60406 168.107 9.98635 166.815 10.3686 165.523C10.7509 164.231 11.1557 162.951 11.5605 161.659C11.9652 160.378 12.3813 159.087 12.8198 157.806C13.247 156.525 13.6855 155.245 14.1353 153.964L20.488 154.402Z" fill="#0098FF"/>
<path d="M68.6449 73.5895C67.7904 74.5107 66.9471 75.443 66.1151 76.3754C65.283 77.3078 64.451 78.2514 63.6302 79.2062C62.8094 80.161 61.9999 81.1159 61.2016 82.0819C60.4033 83.048 59.6049 84.0253 58.8179 85.0026L55.3885 79.1051C56.2318 78.0379 57.0864 76.9708 57.9521 75.9261C58.8179 74.8701 59.6837 73.8254 60.5607 72.792C61.4377 71.7473 62.3259 70.725 63.2254 69.7028C64.1249 68.6806 65.0244 67.6583 65.9464 66.6586L68.6449 73.5895Z" fill="#0098FF"/>
<path d="M15.0235 172.578C14.7087 173.802 14.4051 175.015 14.124 176.24C13.8317 177.464 13.5506 178.689 13.2808 179.913C13.0109 181.138 12.7523 182.373 12.505 183.598C12.2576 184.833 12.0215 186.069 11.7966 187.305L4.47693 189.506C4.73553 188.17 5.00539 186.833 5.28648 185.496C5.56757 184.159 5.85991 182.834 6.16349 181.497C6.46707 180.171 6.78189 178.846 7.10796 177.52C7.43403 176.195 7.77134 174.881 8.1199 173.566L15.0235 172.578Z" fill="#0098FF"/>
<path d="M82.3172 60.0422C81.3727 60.8959 80.4395 61.7496 79.5175 62.6258C78.5955 63.4908 77.6735 64.367 76.7628 65.2544C75.8521 66.1419 74.9526 67.0293 74.0643 67.928C73.1761 68.8266 72.2878 69.7365 71.4108 70.6464L68.9034 63.4346C69.8479 62.4349 70.7924 61.4351 71.7481 60.4466C72.7038 59.458 73.682 58.4807 74.649 57.5034C75.6272 56.5261 76.6166 55.5601 77.6173 54.6052C78.618 53.6504 79.6187 52.6956 80.6419 51.752L82.3172 60.0422Z" fill="#0098FF"/>
<path d="M11.0995 191.292C10.8972 192.539 10.706 193.798 10.5261 195.044C10.3462 196.303 10.1776 197.561 10.0201 198.819C9.86273 200.077 9.71656 201.346 9.58164 202.604C9.44671 203.874 9.32303 205.143 9.21059 206.401L1.42993 210.266C1.5761 208.884 1.72227 207.502 1.89092 206.12C2.05958 204.75 2.23948 203.368 2.41938 201.998C2.61052 200.627 2.81291 199.268 3.02654 197.898C3.24017 196.538 3.46505 195.179 3.70117 193.82L11.0995 191.292Z" fill="#0098FF"/>
<path d="M97.3726 47.7079C96.3382 48.4718 95.315 49.2469 94.2919 50.0332C93.2799 50.8195 92.268 51.6059 91.2673 52.4147C90.2666 53.2122 89.2772 54.0323 88.299 54.8523C87.3208 55.6724 86.3426 56.5036 85.3756 57.3349L83.9476 48.7751C84.9933 47.8427 86.039 46.9216 87.0959 46.0229C88.164 45.113 89.2322 44.2031 90.3116 43.3157C91.391 42.417 92.4929 41.5296 93.5835 40.6534C94.6854 39.7772 95.7985 38.901 96.9229 38.0472L97.3726 47.7079Z" fill="#0098FF"/>
<path d="M8.87322 210.479C8.78327 211.76 8.71581 213.029 8.64835 214.31C8.58088 215.59 8.53591 216.871 8.50218 218.151C8.46845 219.443 8.43472 220.724 8.42347 222.016C8.41223 223.307 8.41223 224.599 8.42347 225.891L0.238037 231.609C0.249281 230.194 0.271768 228.767 0.305499 227.351C0.33923 225.936 0.395448 224.532 0.451666 223.117C0.519129 221.712 0.586592 220.308 0.676542 218.904C0.766492 217.511 0.867686 216.107 0.980123 214.714L8.87322 210.479Z" fill="#0098FF"/>
<path d="M113.833 36.8452C112.709 37.508 111.585 38.1708 110.472 38.856C109.358 39.5412 108.257 40.2265 107.166 40.9342C106.075 41.6306 104.996 42.3496 103.916 43.0797C102.848 43.7987 101.78 44.5401 100.723 45.2815L100.555 35.3063C101.701 34.4638 102.86 33.6325 104.018 32.8237C105.187 32.0037 106.368 31.1949 107.548 30.3973C108.74 29.5997 109.943 28.8022 111.157 28.0271C112.372 27.2407 113.597 26.4769 114.834 25.7242L113.833 36.8452Z" fill="#0098FF"/>
<path d="M8.52464 230.036C8.56962 231.328 8.62583 232.631 8.6933 233.923C8.76076 235.226 8.85071 236.518 8.9519 237.81C9.0531 239.113 9.16553 240.416 9.30046 241.708C9.43538 243.011 9.58155 244.314 9.73896 245.617L1.24995 253.424C1.10378 251.975 0.980098 250.526 0.867661 249.077C0.755223 247.639 0.654029 246.19 0.575323 244.752C0.496617 243.314 0.429154 241.887 0.372936 240.45C0.316717 239.023 0.282986 237.596 0.260498 236.17L8.52464 230.036Z" fill="#0098FF"/>
<path d="M131.666 27.8361C130.44 28.3641 129.226 28.9033 128.023 29.4537C126.82 30.0041 125.628 30.577 124.448 31.1499C123.267 31.7228 122.098 32.3182 120.928 32.9248C119.77 33.5314 118.612 34.1493 117.476 34.7783L118.826 23.3315C120.085 22.6014 121.344 21.8824 122.615 21.186C123.897 20.4783 125.19 19.7818 126.483 19.1078C127.787 18.4226 129.102 17.7598 130.429 17.1083C131.767 16.4567 133.105 15.8052 134.454 15.1874L131.666 27.8361Z" fill="#0098FF"/>
<path d="M10.3124 249.796C10.5036 251.099 10.7172 252.391 10.9421 253.682C11.167 254.985 11.4143 256.277 11.6729 257.569C11.9315 258.872 12.2126 260.164 12.505 261.467C12.7973 262.77 13.1121 264.073 13.4382 265.365L4.80301 275.565C4.47694 274.105 4.17336 272.644 3.88102 271.173C3.58868 269.712 3.33008 268.252 3.07147 266.792C2.82411 265.343 2.58799 263.882 2.37436 262.433C2.16073 260.984 1.95834 259.535 1.77844 258.086L10.3124 249.796Z" fill="#0098FF"/>
<path d="M150.848 21.1074C149.544 21.4668 148.239 21.8375 146.935 22.2307C145.642 22.6239 144.36 23.0283 143.09 23.4551C141.819 23.882 140.56 24.3201 139.312 24.7807C138.064 25.2412 136.827 25.713 135.601 26.1961L138.795 13.2328C140.166 12.6487 141.538 12.0758 142.921 11.5141C144.315 10.9524 145.721 10.4132 147.126 9.88528C148.543 9.35731 149.982 8.85181 151.41 8.35754C152.86 7.86328 154.322 7.39147 155.784 6.93091L150.848 21.1074Z" fill="#0098FF"/>
<path d="M14.5514 269.488C14.9112 270.768 15.2935 272.038 15.6982 273.307C16.103 274.588 16.519 275.857 16.9575 277.115C17.396 278.396 17.857 279.654 18.3405 280.923C18.824 282.193 19.3299 283.462 19.8472 284.72L11.2907 297.627C10.751 296.178 10.2338 294.729 9.73905 293.269C9.24432 291.82 8.77209 290.37 8.32234 288.91C7.87259 287.461 7.44533 286.012 7.04055 284.563C6.63578 283.125 6.25349 281.676 5.88245 280.227L14.5514 269.488Z" fill="#0098FF"/>
<path d="M171.233 17.2656C169.85 17.4116 168.467 17.5801 167.084 17.7711C165.723 17.962 164.363 18.1755 163.002 18.4114C161.664 18.6473 160.326 18.8944 158.988 19.1752C157.673 19.4448 156.357 19.7369 155.042 20.0515L160.484 5.57168C161.957 5.16728 163.43 4.77411 164.914 4.40341C166.409 4.03271 167.916 3.68448 169.434 3.35871C170.963 3.03295 172.503 2.71841 174.044 2.43758C175.607 2.14551 177.169 1.88715 178.744 1.65125L171.233 17.2656Z" fill="#0098FF"/>
<path d="M29.4042 303.244C29.4155 303.266 29.4267 303.278 29.438 303.3C29.4492 303.323 29.4604 303.334 29.4717 303.356C29.4829 303.379 29.4942 303.39 29.5054 303.412C29.5167 303.435 29.5279 303.446 29.5391 303.469L21.4099 319.431C21.3987 319.409 21.3874 319.386 21.3762 319.364C21.365 319.341 21.3537 319.319 21.3425 319.296C21.3312 319.274 21.32 319.251 21.3087 319.229C21.2975 319.207 21.2863 319.184 21.275 319.162C20.4879 317.769 19.7234 316.353 18.9925 314.938C18.2617 313.534 17.5533 312.118 16.8787 310.703C16.2041 309.299 15.552 307.883 14.9223 306.468C14.3039 305.064 13.6967 303.648 13.1121 302.222L21.6123 288.697C22.1745 289.921 22.7479 291.146 23.3551 292.359C23.9623 293.583 24.5807 294.796 25.2328 296.01C25.8849 297.223 26.5596 298.436 27.2567 299.638C27.9313 300.851 28.6509 302.053 29.4042 303.244Z" fill="#0098FF"/>
<path d="M175.663 16.8837L183.781 0.966028C183.792 0.966028 183.803 0.966028 183.814 0.966028C183.826 0.966028 183.837 0.966028 183.848 0.966028C183.859 0.966028 183.871 0.966028 183.882 0.966028C183.893 0.966028 183.904 0.966028 183.916 0.966028C185.512 0.786295 187.109 0.617795 188.694 0.494228C190.302 0.359428 191.899 0.258328 193.495 0.179695C195.103 0.101061 196.711 0.0561278 198.319 0.0336611C199.938 0.0111945 201.546 0.0224278 203.154 0.0561278L192.551 16.9623C191.157 16.85 189.762 16.7713 188.357 16.7152C186.963 16.659 185.568 16.6253 184.163 16.6253C182.769 16.6253 181.375 16.6365 179.969 16.6815C178.575 16.7264 177.181 16.7938 175.775 16.8949C175.764 16.8949 175.753 16.8949 175.741 16.8949C175.73 16.8949 175.719 16.8949 175.708 16.8949C175.696 16.8949 175.685 16.8949 175.674 16.8949C175.685 16.8837 175.674 16.8837 175.663 16.8837Z" fill="#0098FF"/>
<path d="M31.9904 307.209C32.7887 308.389 33.6095 309.546 34.4528 310.68C35.296 311.826 36.1618 312.949 37.0388 314.062C37.9271 315.174 38.8378 316.263 39.7598 317.342C40.693 318.42 41.6375 319.476 42.6157 320.509L35.386 339.797C34.3403 338.539 33.3171 337.258 32.3052 335.944C31.3158 334.652 30.3376 333.338 29.3818 332.001C28.4374 330.676 27.5154 329.328 26.6159 327.968C25.7276 326.62 24.8506 325.239 23.9961 323.846L31.9904 307.209Z" fill="#0098FF"/>
<path d="M214.33 20.9838C212.913 20.5569 211.496 20.1638 210.057 19.8043C208.641 19.4448 207.201 19.1191 205.762 18.8158C204.334 18.5237 202.895 18.2541 201.456 18.0182C200.028 17.7823 198.577 17.5801 197.127 17.4004L208.461 0.258301C210.147 0.359401 211.823 0.505434 213.498 0.673934C215.184 0.842434 216.871 1.05587 218.546 1.29177C220.233 1.5389 221.919 1.8085 223.595 2.12303C225.281 2.43757 226.968 2.7858 228.632 3.16773L214.33 20.9838Z" fill="#0098FF"/>
<path d="M45.8427 323.823C46.8996 324.857 47.9677 325.857 49.0584 326.845C50.1603 327.834 51.2734 328.8 52.4202 329.732C53.5671 330.676 54.7365 331.597 55.9283 332.484C57.1314 333.383 58.3457 334.259 59.5825 335.102L53.9606 357.95C52.5889 356.872 51.2509 355.771 49.9241 354.625C48.6199 353.502 47.3381 352.345 46.0675 351.165C44.8195 349.997 43.5939 348.795 42.3908 347.571C41.199 346.357 40.0297 345.122 38.894 343.852L45.8427 323.823Z" fill="#0098FF"/>
<path d="M235.794 30.3299C234.434 29.5324 233.051 28.7573 231.645 28.0271C230.262 27.2969 228.857 26.6117 227.451 25.9602C226.046 25.3086 224.629 24.6908 223.201 24.1067C221.785 23.5338 220.357 22.9833 218.917 22.4778L234.074 4.54944C235.794 5.03247 237.492 5.54921 239.19 6.09964C240.899 6.66131 242.597 7.25667 244.283 7.89697C245.981 8.53727 247.668 9.22251 249.343 9.95267C251.029 10.6828 252.705 11.4579 254.369 12.2667L235.794 30.3299Z" fill="#0098FF"/>
<path d="M63.6639 337.741C64.9795 338.55 66.3287 339.325 67.6779 340.067C69.0497 340.819 70.4439 341.538 71.8494 342.224C73.2773 342.92 74.7165 343.583 76.1782 344.201C77.6511 344.83 79.1466 345.436 80.6532 345.998L77.5499 372.408C75.8409 371.621 74.1543 370.79 72.4903 369.925C70.8487 369.071 69.2296 368.173 67.633 367.251C66.0476 366.33 64.496 365.375 62.9668 364.387C61.4489 363.41 59.9535 362.387 58.4918 361.343L63.6639 337.741Z" fill="#0098FF"/>
<path d="M240.179 33.0596L259.698 15.0638C261.373 15.9962 263.026 16.9735 264.668 17.9845C266.321 19.018 267.951 20.0851 269.559 21.1972C271.189 22.3206 272.786 23.5001 274.371 24.7133C275.968 25.9489 277.542 27.2183 279.082 28.5438L255.853 45.832C254.616 44.6075 253.357 43.4168 252.075 42.2598C250.804 41.114 249.511 40.0131 248.196 38.9459C246.891 37.89 245.565 36.8678 244.227 35.8792C242.9 34.9019 241.551 33.9695 240.179 33.0596Z" fill="#0098FF"/>
<path d="M85.6229 347.717C87.2195 348.222 88.8273 348.683 90.4577 349.11C92.0993 349.536 93.7633 349.93 95.4499 350.278C97.1477 350.626 98.8567 350.941 100.588 351.21C102.331 351.48 104.096 351.705 105.873 351.895L106.401 381.507C104.344 381.136 102.32 380.709 100.307 380.237C98.317 379.777 96.3494 379.26 94.4042 378.698C92.4816 378.148 90.5814 377.541 88.6924 376.901C86.8372 376.261 84.9932 375.587 83.183 374.856L85.6229 347.717Z" fill="#0098FF"/>
<path d="M273.123 68.1077C272.123 66.4227 271.088 64.7714 270.02 63.1651C268.963 61.5699 267.873 60.0085 266.748 58.492C265.635 56.9867 264.499 55.5152 263.33 54.0885C262.172 52.6731 260.991 51.2914 259.777 49.9547L284.019 32.9923C285.548 34.4526 287.043 35.9467 288.516 37.4969C290 39.0583 291.451 40.6759 292.879 42.3272C294.318 44.001 295.723 45.7309 297.084 47.4945C298.467 49.2806 299.816 51.1229 301.12 52.9989L273.123 68.1077Z" fill="#0098FF"/>
<path d="M111.686 352.322C113.541 352.412 115.396 352.468 117.274 352.468C119.174 352.468 121.074 352.423 122.997 352.333C124.931 352.243 126.887 352.097 128.844 351.906C130.823 351.715 132.813 351.468 134.814 351.176L140.2 383.113C137.839 383.292 135.5 383.416 133.173 383.472C130.868 383.528 128.585 383.54 126.314 383.483C124.065 383.427 121.839 383.315 119.624 383.158C117.431 382.989 115.273 382.776 113.114 382.506L111.686 352.322Z" fill="#0098FF"/>
<path d="M285.896 97.2807C285.244 95.1464 284.558 93.0457 283.816 90.99C283.085 88.9456 282.321 86.9348 281.5 84.9577C280.702 83.0031 279.858 81.071 278.97 79.195C278.093 77.3303 277.182 75.488 276.238 73.6907L305.224 59.2671C306.472 61.2891 307.687 63.356 308.856 65.4791C310.036 67.6135 311.172 69.804 312.251 72.0282C313.353 74.2861 314.399 76.5777 315.4 78.9254C316.412 81.2957 317.379 83.6996 318.289 86.1597L285.896 97.2807Z" fill="#0098FF"/>
<path d="M141.302 350.064C143.348 349.66 145.406 349.199 147.475 348.683C149.555 348.166 151.635 347.593 153.726 346.964C155.829 346.335 157.943 345.65 160.056 344.908C162.181 344.167 164.318 343.358 166.443 342.504L177.889 375.272C175.325 376.137 172.773 376.935 170.209 377.665C167.68 378.384 165.15 379.046 162.642 379.631C160.146 380.215 157.661 380.731 155.188 381.181C152.737 381.63 150.297 382.012 147.868 382.327L141.302 350.064Z" fill="#0098FF"/>
<path d="M292.339 132.699C292.159 130.194 291.934 127.712 291.653 125.252C291.372 122.814 291.046 120.399 290.664 118.017C290.281 115.647 289.865 113.311 289.393 111.008C288.921 108.716 288.404 106.458 287.841 104.234L321.055 94.2028C321.865 96.7864 322.618 99.4038 323.315 102.077C324.013 104.762 324.665 107.492 325.249 110.266C325.834 113.052 326.362 115.883 326.835 118.759C327.307 121.646 327.712 124.578 328.049 127.543L292.339 132.699Z" fill="#0098FF"/>
<path d="M173.302 339.561C175.449 338.573 177.585 337.528 179.722 336.438C181.869 335.337 184.017 334.169 186.164 332.945C188.323 331.72 190.459 330.429 192.596 329.092C194.743 327.744 196.88 326.328 199.005 324.868L217.354 356.265C214.757 357.905 212.149 359.467 209.54 360.961C206.943 362.444 204.334 363.848 201.714 365.184C199.117 366.51 196.509 367.757 193.911 368.936C191.325 370.105 188.739 371.206 186.142 372.239L173.302 339.561Z" fill="#0098FF"/>
<path d="M290.866 172.757C291.248 170.005 291.574 167.276 291.844 164.557C292.114 161.85 292.316 159.154 292.474 156.48C292.631 153.818 292.721 151.178 292.766 148.561C292.811 145.955 292.8 143.371 292.732 140.81L328.915 137.137C329.117 140.181 329.252 143.248 329.32 146.348C329.387 149.471 329.387 152.616 329.308 155.795C329.23 158.985 329.083 162.209 328.87 165.445C328.645 168.702 328.353 171.982 327.993 175.285L290.866 172.757Z" fill="#0098FF"/>
<path d="M225.641 350.739L205.784 319.959C207.876 318.375 209.945 316.735 212.002 315.039C214.071 313.332 216.117 311.568 218.141 309.759C220.176 307.94 222.189 306.052 224.179 304.12C226.181 302.177 228.148 300.177 230.105 298.133L255.47 325.553C253.076 327.957 250.647 330.283 248.196 332.541C245.756 334.787 243.282 336.966 240.775 339.067C238.29 341.156 235.771 343.178 233.242 345.133C230.734 347.076 228.193 348.941 225.641 350.739Z" fill="#0098FF"/>
<path d="M280.612 214.804C281.59 212.018 282.501 209.232 283.355 206.435C284.21 203.649 285.008 200.874 285.739 198.089C286.47 195.314 287.156 192.551 287.763 189.787C288.381 187.035 288.932 184.283 289.438 181.553L326.542 185.844C326.025 189.136 325.429 192.449 324.755 195.763C324.08 199.088 323.338 202.425 322.517 205.772C321.696 209.12 320.786 212.478 319.819 215.837C318.84 219.207 317.783 222.566 316.648 225.925L280.612 214.804Z" fill="#0098FF"/>
<path d="M262.959 317.69L236.21 291.438C238.065 289.315 239.898 287.135 241.686 284.911C243.485 282.687 245.25 280.407 246.993 278.081C248.736 275.756 250.434 273.374 252.109 270.959C253.784 268.533 255.415 266.062 257 263.557L288.392 284.552C286.458 287.562 284.468 290.505 282.422 293.404C280.387 296.29 278.307 299.121 276.17 301.885C274.045 304.648 271.875 307.344 269.672 309.984C267.479 312.624 265.23 315.185 262.959 317.69Z" fill="#0098FF"/>
<path d="M267.918 244.415C268.795 242.696 269.649 240.977 270.481 239.248C271.313 237.518 272.123 235.788 272.91 234.047C273.697 232.305 274.461 230.575 275.192 228.823C275.934 227.082 276.643 225.329 277.34 223.588L312.825 236.529C312.015 238.641 311.161 240.742 310.295 242.842C309.418 244.943 308.519 247.043 307.574 249.133C306.641 251.222 305.674 253.312 304.673 255.39C303.673 257.468 302.649 259.535 301.604 261.602C301.03 262.736 300.446 263.86 299.85 264.972C299.254 266.095 298.658 267.207 298.051 268.308C297.444 269.42 296.836 270.521 296.207 271.611C295.588 272.712 294.959 273.79 294.318 274.88L261.88 255.48C262.397 254.581 262.914 253.671 263.431 252.75C263.948 251.84 264.454 250.919 264.949 249.998C265.455 249.077 265.95 248.144 266.445 247.212C266.951 246.291 267.445 245.358 267.918 244.415Z" fill="#0098FF"/>
</g>
</svg>
