<svg width="580" height="452" viewBox="0 0 580 452" fill="none" xmlns="http://www.w3.org/2000/svg">
<g style="mix-blend-mode:darken">
<path d="M289.875 452C449.968 452 579.749 434.252 579.749 412.358C579.749 390.464 449.968 372.715 289.875 372.715C129.781 372.715 0 390.464 0 412.358C0 434.252 129.781 452 289.875 452Z" fill="url(#paint0_radial_660_194)"/>
</g>
<path d="M486.561 1.21755L486.685 1.27372C486.966 1.40852 487.236 1.56579 487.494 1.74552C487.101 1.48715 486.674 1.27372 486.213 1.09399C485.572 0.858086 484.931 0.712053 484.279 0.644653C484.38 0.655887 484.47 0.655885 484.571 0.667118C484.942 0.712052 485.302 0.779452 485.65 0.880552C485.965 0.970419 486.269 1.08275 486.561 1.21755Z" fill="white"/>
<path d="M484.088 0.633401C483.874 0.622167 483.672 0.622167 483.458 0.622167C483.087 0.6334 482.727 0.667101 482.356 0.734501C482.221 0.756968 482.075 0.779434 481.94 0.813134C482.019 0.790667 482.109 0.779433 482.199 0.756966C482.828 0.633399 483.458 0.599701 484.088 0.633401Z" fill="white"/>
<path d="M481.277 0.97036C481.4 0.93666 481.524 0.90296 481.659 0.880493C481.344 0.959127 481.018 1.03776 480.714 1.15009C480.894 1.08269 481.086 1.02653 481.277 0.97036Z" fill="white"/>
<path d="M451.852 296.037C451.402 298.328 450.952 300.62 450.502 302.9C449.254 309.314 448.029 315.729 446.747 322.12C446.623 322.727 446.5 323.345 446.376 323.951C447.478 318.38 448.546 312.808 449.637 307.236C450.367 303.507 451.098 299.777 451.852 296.037Z" fill="white"/>
<path d="M446.264 324.524C446.129 325.243 445.982 325.962 445.848 326.681C445.454 328.669 445.049 330.658 444.667 332.635C444.723 332.331 444.779 332.028 444.836 331.725C445.285 329.332 445.78 326.928 446.264 324.524Z" fill="white"/>
<path d="M444.082 335.51C444.127 335.308 444.161 335.117 444.206 334.926C444.172 335.128 444.127 335.319 444.082 335.51Z" fill="white"/>
<path d="M441.969 342.834C442.103 342.464 442.238 342.104 442.362 341.734C442.238 342.093 442.115 342.475 441.969 342.834Z" fill="white"/>
<path d="M441.485 344.115C441.643 343.699 441.8 343.284 441.957 342.868C441.912 342.98 441.879 343.093 441.834 343.205C441.721 343.52 441.609 343.823 441.485 344.115Z" fill="white"/>
<path d="M440.766 345.845C440.867 345.62 440.968 345.396 441.058 345.171C440.957 345.396 440.867 345.62 440.766 345.845Z" fill="white"/>
<path d="M439.911 347.665C440.068 347.339 440.226 347.013 440.383 346.688C440.327 346.822 440.259 346.957 440.203 347.081C440.102 347.272 440.012 347.474 439.911 347.665Z" fill="white"/>
<path d="M439.731 348.024C439.574 348.339 439.416 348.653 439.248 348.957C439.236 348.979 439.225 349.002 439.214 349.013C439.394 348.687 439.562 348.361 439.731 348.024Z" fill="white"/>
<path d="M438.416 350.473C438.517 350.316 438.607 350.147 438.697 349.979C438.607 350.147 438.505 350.305 438.416 350.473Z" fill="white"/>
<path d="M438 351.158C438.134 350.934 438.281 350.698 438.404 350.473C438.348 350.585 438.281 350.687 438.213 350.799C438.157 350.911 438.078 351.035 438 351.158Z" fill="white"/>
<path d="M436.392 353.618C436.616 353.304 436.841 352.978 437.055 352.641C436.841 352.967 436.616 353.304 436.392 353.618Z" fill="white"/>
<path d="M435.065 355.36C435.256 355.135 435.436 354.899 435.616 354.663C435.436 354.899 435.245 355.135 435.065 355.36Z" fill="white"/>
<path d="M433.187 357.471C433.412 357.247 433.637 357.011 433.851 356.775C433.637 357.011 433.412 357.247 433.187 357.471Z" fill="white"/>
<path d="M433.187 357.471C433.097 357.561 433.007 357.662 432.917 357.752C432.76 357.91 432.602 358.056 432.434 358.213C432.692 357.977 432.94 357.73 433.187 357.471Z" fill="white"/>
<path d="M432.434 358.224C432.276 358.37 432.108 358.527 431.939 358.685C431.849 358.763 431.759 358.842 431.658 358.921C431.917 358.685 432.175 358.46 432.434 358.224Z" fill="white"/>
<path d="M431.096 359.391C431.287 359.246 431.478 359.077 431.657 358.921C431.467 359.077 431.287 359.234 431.096 359.391Z" fill="white"/>
<path d="M429.128 360.785C429.274 360.695 429.42 360.605 429.555 360.505C429.42 360.605 429.274 360.695 429.128 360.785Z" fill="white"/>
<path d="M427.543 361.65C427.678 361.594 427.801 361.527 427.925 361.459C427.801 361.527 427.678 361.583 427.543 361.65Z" fill="white"/>
<path d="M427.429 361.695C427.373 361.718 427.328 361.74 427.272 361.763C427.126 361.819 426.992 361.886 426.846 361.931C427.048 361.863 427.239 361.785 427.429 361.695Z" fill="white"/>
<path d="M425.643 362.358C425.789 362.313 425.934 362.279 426.069 362.223C425.934 362.268 425.789 362.324 425.643 362.358Z" fill="white"/>
<path d="M425.484 362.392C425.417 362.414 425.361 362.425 425.294 362.448C425.181 362.481 425.069 362.504 424.946 362.526C425.125 362.493 425.305 362.448 425.484 362.392Z" fill="white"/>
<path d="M424.462 362.616C424.608 362.594 424.754 362.571 424.889 362.538C424.754 362.56 424.608 362.594 424.462 362.616Z" fill="white"/>
<path d="M424.461 362.616C424.394 362.639 424.327 362.639 424.248 362.65C424.17 362.661 424.091 362.672 424.012 362.672C424.169 362.661 424.315 362.639 424.461 362.616Z" fill="white"/>
<path d="M423.214 362.729C423.18 362.74 423.157 362.74 423.124 362.74C423.068 362.74 423.011 362.751 422.955 362.74C423.034 362.74 423.124 362.729 423.214 362.729Z" fill="white"/>
<path d="M422.944 362.74C422.258 362.762 421.561 362.717 420.864 362.684C420.763 362.672 420.673 362.672 420.583 362.672C420.988 362.684 421.404 362.695 421.808 362.706C422.191 362.717 422.573 362.74 422.944 362.74Z" fill="white"/>
<path d="M420.392 362.661C420.054 362.65 419.706 362.65 419.357 362.639C418.964 362.628 418.559 362.616 418.166 362.605C418.908 362.628 419.65 362.639 420.392 362.661Z" fill="white"/>
<path d="M417.615 362.605C417.502 362.605 417.379 362.594 417.266 362.594C415.692 362.56 414.118 362.515 412.532 362.47C413.646 362.493 414.759 362.527 415.861 362.549C416.445 362.571 417.03 362.594 417.615 362.605Z" fill="white"/>
<path d="M412.465 362.47C411.734 362.448 410.992 362.437 410.261 362.414C407.934 362.358 405.595 362.302 403.268 362.246C401.615 362.201 399.951 362.167 398.298 362.122C399.512 362.156 400.738 362.178 401.952 362.212C404.954 362.279 407.956 362.336 410.958 362.425C411.464 362.437 411.97 362.459 412.465 362.47Z" fill="white"/>
<path d="M358.844 371.715C358.9 370.716 358.9 369.716 358.832 368.716C358.911 369.716 358.911 370.716 358.844 371.715Z" fill="white"/>
<path d="M358.799 372.457C358.821 372.21 358.832 371.962 358.855 371.715C358.844 371.962 358.821 372.21 358.799 372.457Z" fill="white"/>
<path d="M358.72 373.187C358.754 372.94 358.776 372.704 358.799 372.457C358.776 372.704 358.754 372.94 358.72 373.187Z" fill="white"/>
<path d="M358.619 373.906C358.473 374.838 358.259 375.759 357.933 376.647C358.248 375.771 358.461 374.838 358.619 373.906Z" fill="white"/>
<path d="M357.168 378.253C357.27 378.096 357.359 377.927 357.449 377.759C357.359 377.916 357.258 378.085 357.168 378.253Z" fill="white"/>
<path d="M356.719 378.915C356.808 378.792 356.898 378.669 356.988 378.545C356.898 378.669 356.82 378.792 356.719 378.915Z" fill="white"/>
<path d="M355.785 379.882C356.134 379.601 356.438 379.275 356.719 378.905C356.46 379.287 356.145 379.612 355.785 379.882Z" fill="white"/>
<path d="M355.459 380.117C355.572 380.05 355.684 379.972 355.785 379.882C355.684 379.972 355.572 380.05 355.459 380.117Z" fill="white"/>
<path d="M353.458 380.68L353.884 380.668L353.828 380.68C353.705 380.691 353.57 380.691 353.458 380.68Z" fill="white"/>
<path d="M350.793 380.545L354.751 380.477C354.47 380.579 354.177 380.646 353.885 380.68L353.458 380.691L350.793 380.545Z" fill="white"/>
<path d="M347.915 360.864C351.277 360.943 354.639 361.033 358 361.111V361.122L347.712 360.864V360.853C347.769 360.853 347.847 360.864 347.915 360.864Z" fill="white"/>
<path d="M352.401 377.647C351.31 376.231 350.534 374.67 349.916 373.03C349.151 370.974 348.634 368.806 348.376 366.627L347.701 360.864V360.853C345.733 360.808 343.777 360.752 341.798 360.707L342.495 366.672C342.765 369.031 343.383 371.39 344.238 373.591C344.924 375.355 345.767 377.006 347.105 378.455C348.106 379.523 349.365 380.466 350.771 380.534L354.728 380.466C354.863 380.421 355.009 380.354 355.133 380.298C355.201 380.264 355.279 380.219 355.347 380.174C355.369 380.163 355.381 380.152 355.392 380.14C354.2 379.657 353.211 378.703 352.401 377.647Z" fill="url(#paint1_linear_660_194)"/>
<path d="M243.022 408.448C241.74 408.482 240.447 408.527 239.154 408.583C238.12 408.628 237.074 408.673 236.04 408.729C236.546 408.695 237.052 408.673 237.558 408.651C239.447 408.549 241.189 408.493 243.022 408.448Z" fill="white"/>
<path d="M219.118 357.651C232.914 358.011 246.732 358.336 260.551 358.673C248.835 358.393 237.141 358.134 225.426 357.82C223.323 357.764 221.22 357.707 219.118 357.651Z" fill="white"/>
<path d="M235.039 408.796C234.735 408.819 234.443 408.841 234.151 408.853C234.443 408.83 234.735 408.819 235.039 408.796Z" fill="white"/>
<path d="M233.386 408.92C233.161 408.943 232.936 408.965 232.723 408.976C232.936 408.954 233.161 408.931 233.386 408.92Z" fill="white"/>
<path d="M232.711 408.976C232.61 408.988 232.498 408.999 232.397 409.01C232.509 408.999 232.61 408.988 232.711 408.976Z" fill="white"/>
<path d="M231.148 409.167C231.092 409.179 231.025 409.19 230.957 409.201C230.924 409.212 230.89 409.212 230.856 409.223C230.946 409.19 231.047 409.179 231.148 409.167Z" fill="white"/>
<path d="M230.833 409.212C230.8 409.223 230.777 409.224 230.744 409.235C230.699 409.246 230.665 409.246 230.631 409.257C230.687 409.223 230.766 409.223 230.833 409.212Z" fill="white"/>
<path d="M230.484 409.28C230.383 409.313 230.327 409.347 230.181 409.381C230.114 409.403 230.024 409.414 229.968 409.448C230.035 409.392 230.148 409.369 230.249 409.336C230.338 409.313 230.417 409.291 230.484 409.28Z" fill="white"/>
<path d="M358 361.122C361.846 361.212 365.691 361.313 369.536 361.403C373.157 361.493 376.777 361.583 380.398 361.673C380.938 366.245 381.477 370.817 382.017 375.377C382.444 379.028 382.883 382.69 383.31 386.341C383.546 388.397 383.782 390.453 384.03 392.508C384.187 393.879 384.367 395.249 384.524 396.62C384.592 397.193 384.648 397.765 384.727 398.338C384.783 398.799 384.85 399.248 384.884 399.709C384.918 400.057 384.929 400.394 384.929 400.742C384.929 401.079 384.918 401.428 384.884 401.776C384.85 402.124 384.817 402.461 384.749 402.798C384.693 403.135 384.625 403.472 384.536 403.809C384.457 404.135 384.344 404.472 384.232 404.798C384.12 405.123 383.996 405.449 383.85 405.752C383.704 406.067 383.546 406.381 383.377 406.674C383.209 406.977 383.018 407.269 382.827 407.55C382.624 407.831 382.422 408.111 382.197 408.37C381.972 408.628 381.736 408.886 381.477 409.122C381.23 409.358 380.971 409.583 380.69 409.796C380.42 410.01 380.128 410.201 379.836 410.38C379.532 410.549 379.229 410.718 378.914 410.852C378.599 410.987 378.273 411.111 377.935 411.212C377.609 411.313 377.261 411.391 376.924 411.436C376.586 411.481 376.238 411.504 375.889 411.526C375.428 411.549 374.967 411.56 374.506 411.571C373.247 411.605 371.976 411.661 370.706 411.706C368.637 411.785 366.568 411.83 364.499 411.875C361.733 411.942 358.979 412.043 356.213 412.133C352.536 412.245 348.848 412.358 345.171 412.47C338.729 412.672 332.286 412.874 325.855 413.065C316.646 413.346 307.449 413.627 298.251 413.908C293.697 414.043 289.144 414.11 284.579 414.099C280.936 414.087 277.293 414.031 273.639 413.919C270.906 413.84 268.174 413.728 265.453 413.458L232.026 410.01C231.756 409.976 231.497 409.942 231.227 409.909C231.014 409.886 230.789 409.875 230.586 409.819C230.463 409.774 230.35 409.718 230.204 409.706C230.103 409.695 229.99 409.695 229.923 409.628C229.889 409.594 229.867 409.527 229.878 409.482C229.889 409.459 229.901 409.448 229.912 409.437C229.957 409.403 230.047 409.392 230.125 409.369C230.272 409.336 230.339 409.302 230.429 409.268C230.474 409.246 230.53 409.235 230.575 409.235C230.609 409.223 230.643 409.223 230.688 409.212C230.721 409.201 230.744 409.201 230.778 409.19C230.789 409.19 230.789 409.19 230.8 409.19C230.834 409.179 230.867 409.179 230.901 409.167C230.969 409.156 231.036 409.145 231.092 409.134C231.239 409.111 231.385 409.089 231.531 409.066C231.789 409.032 232.071 409.01 232.34 408.976C232.453 408.965 232.554 408.954 232.655 408.943C232.88 408.92 233.105 408.898 233.319 408.886C233.42 408.875 233.521 408.864 233.622 408.864C233.78 408.853 233.937 408.842 234.094 408.83C234.387 408.808 234.679 408.785 234.983 408.774C235.286 408.752 235.579 408.729 235.882 408.718C235.916 408.718 235.95 408.707 235.983 408.707C237.018 408.651 238.063 408.594 239.098 408.561C240.391 408.505 241.684 408.46 242.966 408.426C251.623 408.19 260.281 407.943 268.95 407.696C275.876 407.505 282.802 407.314 289.74 407.123C293.641 407.01 297.532 406.898 301.433 406.797C304.03 406.73 306.616 406.662 309.225 406.584C310.518 406.539 311.822 406.505 313.127 406.471C314.105 406.449 315.072 406.438 316.05 406.404C316.702 406.381 317.354 406.348 317.995 406.224C318.31 406.168 318.636 406.078 318.94 405.977C319.243 405.876 319.547 405.752 319.839 405.606C320.131 405.472 320.413 405.314 320.694 405.135C320.975 404.966 321.233 404.764 321.492 404.573C321.739 404.371 321.987 404.157 322.223 403.921C322.459 403.697 322.673 403.45 322.875 403.202C323.077 402.955 323.28 402.697 323.46 402.427C323.64 402.158 323.808 401.877 323.954 401.596C324.112 401.304 324.247 401.023 324.382 400.72C324.505 400.417 324.618 400.113 324.719 399.81C324.82 399.495 324.91 399.181 324.978 398.878C325.045 398.563 325.112 398.237 325.157 397.923C325.202 397.608 325.236 397.282 325.259 396.957C325.281 396.631 325.281 396.305 325.27 395.979C325.247 395.328 325.157 394.688 325.079 394.036C324.91 392.643 324.764 391.25 324.606 389.846C324.37 387.7 324.112 385.544 323.853 383.398C323.448 379.961 323.055 376.523 322.661 373.086C322.167 368.783 321.672 364.492 321.177 360.19C321.323 360.19 321.481 360.201 321.627 360.201C323.179 360.235 324.719 360.28 326.271 360.313C331.443 360.448 336.615 360.572 341.787 360.707L342.484 366.672C342.754 369.031 343.372 371.39 344.227 373.591C344.913 375.355 345.756 377.006 347.094 378.455C348.095 379.522 349.354 380.466 350.759 380.534L353.424 380.668C353.548 380.68 353.672 380.68 353.795 380.668L353.851 380.657C354.144 380.623 354.436 380.556 354.717 380.455C354.852 380.41 354.998 380.343 355.122 380.286C355.189 380.253 355.268 380.208 355.336 380.163C355.358 380.152 355.369 380.14 355.381 380.129C355.392 380.118 355.414 380.107 355.426 380.095C355.538 380.028 355.65 379.949 355.752 379.859C356.111 379.59 356.415 379.253 356.685 378.882C356.786 378.759 356.865 378.635 356.955 378.512C357.011 378.41 357.078 378.309 357.135 378.219C357.236 378.062 357.326 377.894 357.416 377.725C357.596 377.366 357.753 376.995 357.899 376.624C358.225 375.737 358.439 374.816 358.585 373.883C358.596 373.861 358.596 373.85 358.596 373.827C358.63 373.603 358.664 373.378 358.686 373.164C358.72 372.929 358.742 372.681 358.765 372.434C358.799 372.187 358.81 371.94 358.821 371.693C358.889 370.693 358.877 369.693 358.81 368.694C358.776 368.188 358.742 367.683 358.675 367.188L358 361.122Z" fill="url(#paint2_linear_660_194)"/>
<path d="M390.686 397.395C390.506 395.833 390.304 394.261 390.112 392.699C389.843 390.464 389.595 388.228 389.325 385.982C388.909 382.398 388.482 378.826 388.055 375.243C387.526 370.772 387.009 366.29 386.481 361.819C388.628 361.875 390.776 361.931 392.923 361.976C391.124 361.931 389.337 361.875 387.538 361.83C385.154 361.774 382.77 361.707 380.387 361.662C380.926 366.234 381.466 370.806 382.006 375.366C382.433 379.017 382.872 382.679 383.299 386.33C383.535 388.386 383.771 390.441 384.018 392.497C384.176 393.868 384.356 395.238 384.513 396.609C384.581 397.181 384.637 397.754 384.715 398.327C384.772 398.788 384.839 399.237 384.873 399.698C384.907 400.046 384.918 400.383 384.918 400.731C384.918 401.068 384.907 401.416 384.873 401.765C384.839 402.102 384.805 402.45 384.738 402.787C384.682 403.124 384.614 403.461 384.524 403.798C384.446 404.124 384.333 404.461 384.221 404.786C384.108 405.112 383.985 405.438 383.838 405.741C383.692 406.056 383.535 406.37 383.366 406.662C383.198 406.966 383.006 407.258 382.815 407.539C382.613 407.819 382.411 408.1 382.186 408.359C381.961 408.628 381.725 408.875 381.466 409.111C381.219 409.347 380.96 409.572 380.679 409.785C380.409 409.999 380.117 410.19 379.824 410.369C379.521 410.538 379.217 410.706 378.902 410.841C378.588 410.976 378.262 411.1 377.924 411.201C377.598 411.302 377.25 411.38 376.912 411.425C376.575 411.47 376.226 411.493 375.878 411.515C375.417 411.538 374.956 411.549 374.495 411.56C373.236 411.594 371.965 411.65 370.695 411.695C368.626 411.774 366.557 411.818 364.488 411.863C361.722 411.931 358.967 412.032 356.201 412.122C352.525 412.234 348.837 412.346 345.16 412.459C338.717 412.661 332.275 412.863 325.843 413.054C316.635 413.335 307.437 413.616 298.24 413.897C293.686 414.031 289.133 414.099 284.568 414.088C280.925 414.076 277.282 414.02 273.627 413.908C270.895 413.829 268.163 413.717 265.442 413.447L232.014 409.999C231.745 409.965 231.486 409.931 231.216 409.898C231.002 409.875 230.778 409.864 230.575 409.808C230.452 409.763 230.339 409.707 230.193 409.695C230.092 409.684 229.979 409.684 229.912 409.617C229.878 409.583 229.856 409.516 229.867 409.471C229.878 409.448 229.889 409.437 229.901 409.426C229.867 409.448 229.844 409.471 229.844 409.504L229.754 416.492C229.754 416.581 229.867 416.626 229.968 416.66C230.103 416.705 230.204 416.739 230.317 416.772C230.519 416.817 230.755 416.862 230.98 416.896C231.295 416.941 231.587 416.986 231.913 417.02L265.352 420.816C268.062 421.131 270.805 421.243 273.549 421.333C277.192 421.445 280.835 421.513 284.489 421.524C289.043 421.547 293.608 421.479 298.161 421.322L375.957 418.682C376.294 418.671 376.631 418.648 376.969 418.603C377.306 418.57 377.632 418.514 377.969 418.457C378.307 418.39 378.633 418.311 378.959 418.221C379.285 418.132 379.611 418.03 379.926 417.918C380.24 417.806 380.555 417.682 380.87 417.536C381.174 417.401 381.477 417.244 381.781 417.087C382.084 416.93 382.377 416.761 382.658 416.581C382.95 416.402 383.231 416.211 383.501 416.009C383.782 415.806 384.041 415.604 384.299 415.379C384.569 415.166 384.817 414.941 385.064 414.705C385.311 414.481 385.548 414.234 385.784 413.986C386.087 413.661 386.38 413.312 386.672 412.964C387.02 412.526 387.347 412.066 387.661 411.594C388.032 411.021 388.358 410.437 388.673 409.83C388.977 409.235 389.258 408.617 389.494 407.988C389.741 407.359 389.955 406.707 390.135 406.067C390.304 405.415 390.45 404.753 390.562 404.09C390.675 403.427 390.765 402.753 390.81 402.079C390.855 401.405 390.877 400.731 390.855 400.046C390.877 399.181 390.787 398.282 390.686 397.395Z" fill="url(#paint3_linear_660_194)"/>
<path opacity="0.17" d="M390.124 392.699C389.854 390.464 389.607 388.228 389.337 385.982C388.921 382.398 388.493 378.826 388.066 375.243C387.538 370.772 387.02 366.29 386.492 361.819C388.64 361.875 390.787 361.931 392.935 361.976C391.136 361.931 389.348 361.875 387.549 361.83C385.165 361.774 382.782 361.706 380.398 361.65C376.777 361.56 373.157 361.471 369.536 361.381C365.691 361.291 361.846 361.19 358 361.089V361.1L358.72 367.2C358.776 367.694 358.821 368.199 358.855 368.705C358.922 369.693 358.922 370.693 358.866 371.704C358.855 371.951 358.844 372.198 358.81 372.446C358.787 372.693 358.765 372.94 358.731 373.176C358.709 373.4 358.675 373.625 358.641 373.838C358.641 373.861 358.63 373.872 358.63 373.895C358.484 374.827 358.27 375.748 357.944 376.636C357.798 377.017 357.641 377.377 357.461 377.736C357.382 377.905 357.281 378.073 357.18 378.231C357.123 378.332 357.056 378.433 357 378.523C356.921 378.646 356.831 378.77 356.73 378.893C356.46 379.264 356.156 379.59 355.797 379.871C355.695 379.961 355.583 380.039 355.471 380.107C355.459 380.118 355.437 380.129 355.426 380.14C355.403 380.152 355.392 380.163 355.381 380.174C355.313 380.219 355.234 380.253 355.167 380.298C355.032 380.365 354.897 380.421 354.762 380.477C354.481 380.578 354.189 380.646 353.896 380.68L353.84 380.691C353.717 380.702 353.593 380.702 353.469 380.691L350.804 380.556C349.399 380.489 348.128 379.545 347.139 378.478C345.801 377.04 344.958 375.377 344.272 373.614C343.406 371.401 342.799 369.053 342.529 366.694L341.832 360.729C336.66 360.594 331.488 360.471 326.316 360.336C324.764 360.302 323.224 360.257 321.672 360.224C321.526 360.212 321.368 360.212 321.222 360.212C321.717 364.515 322.223 368.806 322.706 373.108C323.1 376.546 323.493 379.983 323.898 383.42C324.157 385.566 324.415 387.723 324.651 389.868C324.798 391.261 324.955 392.654 325.124 394.058C325.202 394.71 325.292 395.35 325.315 396.002C325.326 396.328 325.326 396.653 325.304 396.979C325.281 397.305 325.247 397.631 325.202 397.945C325.157 398.271 325.09 398.585 325.023 398.9C324.955 399.215 324.865 399.529 324.764 399.832C324.663 400.136 324.55 400.439 324.427 400.742C324.292 401.046 324.157 401.326 323.999 401.618C323.853 401.911 323.685 402.18 323.505 402.45C323.471 402.495 323.437 402.54 323.415 402.573L352.986 414.885L353.222 419.479L363.218 419.142L376.047 418.704C376.384 418.693 376.721 418.671 377.059 418.626C377.396 418.592 377.722 418.536 378.059 418.48C378.397 418.412 378.723 418.334 379.049 418.244C379.375 418.154 379.701 418.053 380.016 417.941C380.33 417.828 380.645 417.705 380.96 417.559C381.264 417.424 381.567 417.267 381.871 417.109C382.174 416.952 382.467 416.783 382.748 416.604C383.04 416.424 383.321 416.233 383.591 416.031C383.872 415.829 384.131 415.626 384.389 415.402C384.659 415.188 384.907 414.964 385.154 414.728C385.401 414.503 385.637 414.256 385.874 414.009C386.177 413.683 386.47 413.335 386.762 412.987C387.11 412.549 387.436 412.088 387.751 411.616C388.122 411.043 388.448 410.459 388.763 409.853C389.067 409.257 389.348 408.639 389.584 408.01C389.831 407.381 390.045 406.73 390.225 406.089C390.394 405.438 390.54 404.775 390.652 404.112C390.765 403.45 390.855 402.776 390.9 402.102C390.945 401.428 390.967 400.754 390.945 400.068C390.922 399.17 390.821 398.271 390.731 397.372C390.506 395.822 390.315 394.261 390.124 392.699ZM382.838 407.55C382.635 407.831 382.433 408.111 382.208 408.37C382.433 408.111 382.647 407.842 382.838 407.55C383.029 407.269 383.22 406.977 383.389 406.673C383.22 406.977 383.029 407.269 382.838 407.55Z" fill="#131619"/>
<path d="M217.757 357.618C210.932 357.449 204.119 357.269 197.282 357.101C198.261 357.123 199.228 357.146 200.206 357.157C206.053 357.292 211.899 357.449 217.757 357.618Z" fill="white"/>
<path d="M196.383 357.078C196.608 357.09 196.833 357.09 197.058 357.101C193.909 357.034 190.75 356.966 187.602 356.876C187.219 356.865 186.837 356.854 186.443 356.843C189.749 356.921 193.066 357 196.383 357.078Z" fill="white"/>
<path d="M186.016 356.82C185.904 356.82 185.791 356.809 185.679 356.809C184.026 356.764 182.362 356.719 180.698 356.685C180.9 356.685 181.092 356.685 181.283 356.696C182.857 356.73 184.442 356.775 186.016 356.82Z" fill="white"/>
<path d="M180.327 356.674C180.451 356.674 180.574 356.685 180.698 356.685C179.855 356.663 178.989 356.651 178.134 356.629C177.977 356.618 177.82 356.618 177.662 356.607C178.55 356.64 179.45 356.651 180.327 356.674Z" fill="white"/>
<path d="M177.662 356.618C177.314 356.607 176.965 356.595 176.616 356.584C176.965 356.584 177.314 356.595 177.662 356.618Z" fill="white"/>
<path d="M176.133 356.573C176.279 356.584 176.414 356.584 176.56 356.584C176.257 356.573 175.964 356.584 175.661 356.562C175.627 356.562 175.593 356.55 175.56 356.55C175.751 356.562 175.942 356.573 176.133 356.573Z" fill="white"/>
<path d="M167.52 308.247C166.958 310.483 166.407 312.707 165.845 314.942C165.159 317.683 164.473 320.424 163.787 323.154C163.54 324.153 163.293 325.142 163.045 326.131C163.428 324.58 163.81 323.03 164.181 321.491C165.272 317.076 166.407 312.662 167.52 308.247Z" fill="white"/>
<path d="M164.697 353.484C164.563 353.484 164.417 353.495 164.271 353.472C164.406 353.472 164.552 353.472 164.697 353.484Z" fill="white"/>
<path d="M163.922 353.461C164.035 353.472 164.147 353.472 164.259 353.472C164.147 353.484 164.035 353.472 163.922 353.461Z" fill="white"/>
<path d="M163.922 353.461C163.9 353.461 163.888 353.461 163.877 353.461C163.821 353.45 163.765 353.45 163.72 353.45C163.787 353.461 163.855 353.461 163.922 353.461Z" fill="white"/>
<path d="M163.675 353.45C163.641 353.45 163.607 353.45 163.574 353.439C163.54 353.427 163.518 353.427 163.495 353.416C163.562 353.427 163.619 353.439 163.675 353.45Z" fill="white"/>
<path d="M163.09 353.327C163.146 353.349 163.202 353.36 163.247 353.372C163.202 353.36 163.146 353.349 163.09 353.327Z" fill="white"/>
<path d="M163.09 353.326C163.079 353.326 163.079 353.326 163.079 353.326C163.045 353.315 163.012 353.304 162.978 353.292C163.023 353.304 163.056 353.315 163.09 353.326Z" fill="white"/>
<path d="M162.247 329.321C162.495 328.343 162.742 327.355 162.989 326.377C162.63 327.849 162.27 329.309 161.887 330.781C161.494 332.32 161.078 333.87 160.752 335.42C160.819 335.094 160.887 334.78 160.965 334.465C161.359 332.736 161.809 331.028 162.247 329.321Z" fill="white"/>
<path d="M162.404 352.978C162.472 353.023 162.539 353.079 162.618 353.113C162.539 353.079 162.472 353.034 162.404 352.978Z" fill="white"/>
<path d="M162.146 352.787C162.202 352.832 162.258 352.888 162.325 352.922C162.281 352.888 162.236 352.866 162.191 352.821C162.168 352.821 162.157 352.798 162.146 352.787Z" fill="white"/>
<path d="M162 352.664C162.045 352.708 162.101 352.742 162.146 352.787C162.089 352.753 162.045 352.708 162 352.664Z" fill="white"/>
<path d="M161.606 352.248C161.662 352.327 161.741 352.405 161.819 352.483C161.808 352.472 161.797 352.472 161.786 352.461C161.718 352.394 161.662 352.315 161.606 352.248Z" fill="white"/>
<path d="M161.449 352.046C161.494 352.102 161.527 352.169 161.583 352.214C161.539 352.169 161.494 352.102 161.449 352.046Z" fill="white"/>
<path d="M160.628 350.496C160.662 350.596 160.695 350.686 160.74 350.776C160.707 350.686 160.673 350.585 160.628 350.496Z" fill="white"/>
<path d="M160.527 336.533C160.471 336.813 160.414 337.094 160.369 337.375C160.414 337.094 160.471 336.813 160.527 336.533Z" fill="white"/>
<path d="M160.527 350.215C160.437 349.945 160.358 349.687 160.29 349.417C160.358 349.687 160.437 349.957 160.527 350.215Z" fill="white"/>
<path d="M160.246 338.105C160.268 337.982 160.291 337.847 160.313 337.723C160.279 337.937 160.246 338.15 160.212 338.375C160.223 338.274 160.234 338.195 160.246 338.105Z" fill="white"/>
<path d="M160.189 349.002C160.223 349.136 160.246 349.271 160.29 349.394C160.279 349.36 160.268 349.327 160.257 349.293C160.234 349.203 160.212 349.102 160.189 349.002Z" fill="white"/>
<path d="M160.167 338.622C160.178 338.543 160.189 338.454 160.212 338.375C160.167 338.622 160.133 338.869 160.099 339.128C160.122 338.948 160.144 338.791 160.167 338.622Z" fill="white"/>
<path d="M160.111 348.653C160.133 348.765 160.156 348.889 160.189 349.001C160.156 348.889 160.133 348.765 160.111 348.653Z" fill="white"/>
<path d="M160.1 339.116C160.055 339.386 160.021 339.655 159.987 339.925C160.021 339.655 160.055 339.386 160.1 339.116Z" fill="white"/>
<path d="M159.886 347.193C159.897 347.35 159.92 347.507 159.942 347.664C159.92 347.507 159.897 347.35 159.886 347.193Z" fill="white"/>
<path d="M159.863 346.968C159.841 346.822 159.83 346.676 159.818 346.53C159.807 346.44 159.796 346.351 159.796 346.261C159.807 346.497 159.83 346.733 159.863 346.968Z" fill="white"/>
<path d="M159.74 345.486C159.751 345.744 159.773 346.003 159.785 346.261C159.773 346.003 159.751 345.744 159.74 345.486Z" fill="white"/>
<path d="M159.785 342.172C159.762 342.486 159.751 342.789 159.74 343.093C159.751 342.778 159.773 342.475 159.785 342.172Z" fill="white"/>
<path d="M159.728 343.362C159.728 343.318 159.728 343.273 159.74 343.228C159.728 343.419 159.728 343.61 159.728 343.801C159.728 343.643 159.728 343.497 159.728 343.362Z" fill="white"/>
<path d="M159.728 345.171C159.728 345.092 159.717 345.025 159.717 344.946C159.706 344.823 159.706 344.699 159.706 344.564C159.717 344.767 159.728 344.969 159.728 345.171Z" fill="white"/>
<path d="M171.489 292.341L441.114 270.582C439.45 278.883 437.786 287.196 436.133 295.497C434.896 301.732 433.682 307.955 432.423 314.189C431.647 317.998 430.871 321.794 430.118 325.603C429.837 326.984 429.567 328.366 429.286 329.759C429.072 330.792 428.858 331.826 428.6 332.859C428.341 333.882 428.049 334.904 427.734 335.915C427.419 336.926 427.071 337.926 426.688 338.914C426.306 339.903 425.912 340.88 425.474 341.846C425.035 342.812 424.563 343.767 424.069 344.699C423.652 345.474 423.214 346.249 422.764 347.002C422.393 347.609 422.011 348.204 421.606 348.788C421.303 349.226 420.999 349.653 420.684 350.08C420.369 350.507 420.043 350.922 419.706 351.327C419.369 351.731 419.02 352.136 418.672 352.529C418.312 352.922 417.941 353.304 417.57 353.663C417.187 354.034 416.805 354.394 416.4 354.742C415.996 355.09 415.58 355.416 415.152 355.73C414.725 356.045 414.286 356.337 413.825 356.618C413.376 356.887 412.903 357.135 412.431 357.37C412.038 357.561 411.622 357.73 411.206 357.865C410.868 357.977 410.531 358.078 410.194 358.157C409.935 358.224 409.677 358.269 409.418 358.314C409.159 358.359 408.901 358.393 408.631 358.415C408.102 358.449 407.563 358.438 407.034 358.426C405.179 358.37 403.324 358.359 401.48 358.325C398.309 358.269 395.116 358.19 391.934 358.112C386.278 357.977 380.634 357.887 374.99 357.775C367.929 357.64 360.868 357.483 353.806 357.348C345.329 357.168 336.851 357 328.373 356.831C317.073 356.607 305.773 356.371 294.473 356.146C283.173 355.921 271.873 355.685 260.573 355.461C249.273 355.225 237.962 354.989 226.674 354.776C219.613 354.63 212.551 354.495 205.49 354.349C199.835 354.225 194.19 354.102 188.535 354C185.004 353.944 181.474 353.888 177.943 353.798C175.47 353.731 172.996 353.641 170.534 353.619C169.297 353.607 168.06 353.607 166.823 353.562C166.205 353.54 165.586 353.506 164.968 353.506C164.889 353.506 164.811 353.506 164.732 353.506C164.597 353.495 164.451 353.495 164.305 353.495C164.192 353.495 164.08 353.484 163.967 353.484C163.9 353.484 163.832 353.472 163.754 353.472C163.742 353.472 163.731 353.461 163.72 353.461C163.664 353.45 163.596 353.45 163.54 353.439C163.484 353.428 163.428 353.416 163.371 353.405L163.304 353.383C163.248 353.371 163.191 353.349 163.146 353.338C163.113 353.326 163.079 353.315 163.034 353.304C162.91 353.259 162.787 353.203 162.663 353.135C162.584 353.102 162.517 353.057 162.449 353.001C162.438 353.001 162.438 352.989 162.438 352.989C162.416 352.967 162.393 352.956 162.371 352.944C162.303 352.9 162.247 352.855 162.191 352.81C162.146 352.765 162.09 352.731 162.045 352.686C161.977 352.63 161.921 352.574 161.865 352.506C161.786 352.428 161.719 352.349 161.651 352.27C161.64 352.259 161.629 352.259 161.629 352.248C161.584 352.192 161.539 352.136 161.494 352.08C161.437 352.012 161.392 351.934 161.347 351.866C161.201 351.641 161.078 351.417 160.954 351.181C160.898 351.057 160.842 350.945 160.797 350.81C160.752 350.72 160.718 350.619 160.684 350.529C160.673 350.496 160.662 350.473 160.65 350.451C160.628 350.383 160.605 350.316 160.583 350.249C160.493 349.99 160.414 349.721 160.347 349.451C160.336 349.44 160.336 349.44 160.336 349.44C160.302 349.305 160.268 349.17 160.234 349.047C160.201 348.934 160.178 348.811 160.156 348.698C160.122 348.507 160.088 348.328 160.054 348.148C160.032 348.002 160.009 347.856 159.987 347.699C159.965 347.541 159.942 347.384 159.931 347.227C159.92 347.159 159.908 347.081 159.908 347.002C159.875 346.766 159.863 346.53 159.841 346.294C159.818 346.036 159.807 345.778 159.796 345.519C159.785 345.407 159.785 345.306 159.785 345.205C159.773 345.003 159.773 344.8 159.773 344.598C159.762 344.34 159.762 344.093 159.785 343.823C159.785 343.632 159.796 343.441 159.796 343.25C159.796 343.205 159.796 343.172 159.807 343.127C159.818 342.823 159.83 342.52 159.852 342.205C159.875 341.891 159.897 341.588 159.92 341.284C159.953 340.835 159.998 340.397 160.054 339.959C160.088 339.689 160.122 339.42 160.167 339.15C160.201 338.903 160.234 338.644 160.279 338.397C160.313 338.184 160.347 337.97 160.381 337.746C160.403 337.633 160.414 337.521 160.437 337.409C160.482 337.128 160.538 336.847 160.594 336.566C160.662 336.196 160.74 335.825 160.819 335.454C161.156 333.904 161.561 332.354 161.955 330.815C162.337 329.343 162.697 327.883 163.057 326.411C163.079 326.333 163.102 326.254 163.113 326.175C163.36 325.187 163.607 324.187 163.855 323.199C164.529 320.458 165.227 317.717 165.912 314.987C166.475 312.752 167.026 310.527 167.588 308.292C167.891 307.101 168.184 305.911 168.487 304.72C169.443 300.563 170.466 296.452 171.489 292.341Z" fill="url(#paint4_linear_660_194)"/>
<path d="M173.952 295.239L168.217 318.177C167.734 320.087 167.262 321.985 166.789 323.895C166.789 323.895 166.025 326.984 165.991 327.097C165.631 328.579 165.26 330.062 164.878 331.545L164.709 332.208C164.361 333.533 164.046 334.791 163.776 336.049C163.709 336.375 163.641 336.712 163.574 337.038L163.551 337.173C163.506 337.409 163.461 337.645 163.416 337.892L163.394 338.015C163.394 338.015 163.293 338.622 163.259 338.892C163.225 339.083 163.191 339.285 163.169 339.487L163.158 339.599C163.124 339.824 163.09 340.049 163.068 340.273C163.023 340.678 162.978 341.093 162.944 341.554C162.922 341.823 162.899 342.082 162.877 342.374C162.865 342.643 162.843 342.902 162.843 343.16V343.351V343.385C162.843 343.52 162.832 343.935 162.832 343.935C162.82 344.126 162.82 344.306 162.832 344.564C162.832 344.733 162.832 344.901 162.843 345.002L162.854 345.351C162.865 345.587 162.877 345.822 162.899 346.081C162.91 346.249 162.922 346.418 162.944 346.586L162.955 346.699L162.978 346.833L162.989 346.968C163 347.047 163.012 347.114 163.023 347.193C163.023 347.193 163.068 347.485 163.09 347.62C163.113 347.755 163.135 347.889 163.18 348.08L163.315 348.62C163.371 348.811 163.428 349.013 163.473 349.159L163.596 349.485L163.675 349.642L163.742 349.799C163.776 349.866 163.81 349.934 163.855 350.013L163.9 350.08L164.203 350.383L164.979 350.394C165.541 350.394 166.092 350.417 166.655 350.439L166.947 350.451C167.88 350.484 168.813 350.484 169.747 350.496L170.579 350.507C172.411 350.529 174.233 350.574 176.066 350.63L178.044 350.687C180.788 350.754 183.52 350.799 186.264 350.844L188.614 350.877C192.032 350.934 195.461 351.012 198.879 351.08L244.439 289.543L173.952 295.239Z" fill="url(#paint5_linear_660_194)"/>
<path d="M170.5 353.585C172.974 353.607 175.447 353.697 177.91 353.765C181.44 353.854 184.971 353.899 188.501 353.967C194.157 354.068 199.801 354.191 205.457 354.315C212.518 354.461 219.579 354.596 226.64 354.742C237.94 354.967 249.24 355.202 260.54 355.427C271.84 355.652 283.14 355.888 294.44 356.112C305.739 356.337 317.051 356.573 328.339 356.798C336.817 356.966 345.284 357.135 353.773 357.314C360.834 357.46 367.906 357.618 374.956 357.741C380.612 357.854 386.245 357.943 391.9 358.078C395.082 358.157 398.275 358.235 401.446 358.292C403.301 358.325 405.145 358.337 407.001 358.393C407.529 358.404 408.069 358.426 408.597 358.381C408.856 358.359 409.126 358.325 409.384 358.28C409.643 358.235 409.901 358.19 410.16 358.123C410.497 358.044 410.835 357.943 411.172 357.831C411.588 357.685 412.004 357.516 412.398 357.337C412.881 357.112 413.342 356.854 413.792 356.584C414.253 356.303 414.691 356.011 415.119 355.697C415.546 355.382 415.962 355.056 416.367 354.708C416.771 354.371 417.165 354.012 417.536 353.63C417.918 353.259 418.278 352.877 418.638 352.495C418.998 352.102 419.335 351.698 419.672 351.293C420.01 350.889 420.336 350.473 420.65 350.046C420.965 349.619 421.28 349.193 421.572 348.754C421.977 348.17 422.348 347.575 422.73 346.968C423.191 346.216 423.63 345.452 424.035 344.666C424.53 343.733 425.002 342.778 425.44 341.812C425.879 340.857 426.284 339.869 426.655 338.88C427.037 337.892 427.385 336.892 427.7 335.881C428.015 334.87 428.307 333.848 428.566 332.826C428.825 331.792 429.049 330.759 429.252 329.725C429.533 328.344 429.803 326.951 430.084 325.569C430.837 321.761 431.613 317.953 432.389 314.156C433.648 307.933 434.874 301.698 436.099 295.464C437.752 287.162 439.416 278.849 441.08 270.548L455.877 275.423C454.528 282.287 453.167 289.139 451.807 296.003C451.065 299.732 450.334 303.473 449.592 307.214C448.501 312.785 447.433 318.357 446.331 323.929C446.297 324.12 446.264 324.311 446.219 324.49C445.735 326.894 445.24 329.287 444.791 331.691C444.734 331.994 444.678 332.298 444.622 332.601C444.611 332.68 444.588 332.747 444.577 332.826C444.442 333.511 444.318 334.196 444.172 334.893C444.127 335.083 444.094 335.286 444.049 335.477C443.992 335.769 443.925 336.061 443.857 336.353C443.655 337.24 443.43 338.105 443.183 338.97C442.935 339.835 442.666 340.7 442.373 341.554C442.351 341.599 442.34 341.655 442.328 341.7C442.205 342.071 442.07 342.441 441.935 342.801C441.935 342.812 441.924 342.835 441.924 342.846C441.766 343.261 441.609 343.677 441.451 344.093C441.316 344.452 441.17 344.789 441.024 345.137C440.923 345.362 440.833 345.587 440.732 345.811C440.619 346.07 440.507 346.317 440.394 346.575C440.383 346.609 440.372 346.631 440.349 346.654C440.203 346.98 440.046 347.305 439.877 347.631C439.821 347.755 439.765 347.867 439.709 347.991C439.54 348.328 439.371 348.653 439.191 348.99C439.023 349.305 438.854 349.631 438.674 349.945C438.584 350.114 438.483 350.271 438.393 350.439C438.258 350.675 438.123 350.9 437.988 351.125C437.943 351.192 437.91 351.26 437.865 351.338C437.606 351.765 437.325 352.192 437.044 352.619C436.83 352.944 436.605 353.27 436.38 353.596C436.133 353.956 435.874 354.293 435.605 354.641C435.436 354.877 435.245 355.113 435.054 355.337C435.042 355.36 435.031 355.371 435.02 355.382C434.638 355.843 434.255 356.303 433.851 356.741C433.626 356.977 433.401 357.213 433.187 357.438C432.94 357.685 432.692 357.932 432.434 358.179C432.434 358.179 432.423 358.179 432.423 358.19C432.175 358.426 431.917 358.662 431.647 358.887C431.456 359.044 431.276 359.213 431.085 359.359C431.028 359.415 430.961 359.46 430.893 359.516C430.534 359.797 430.174 360.066 429.803 360.314C429.724 360.37 429.634 360.426 429.544 360.482C429.409 360.583 429.263 360.673 429.117 360.763C428.971 360.864 428.813 360.954 428.656 361.044C428.409 361.179 428.161 361.313 427.914 361.437C427.79 361.504 427.667 361.56 427.532 361.628C427.509 361.639 427.487 361.65 427.464 361.662C427.453 361.673 427.43 361.673 427.419 361.684C427.228 361.763 427.037 361.853 426.834 361.931C426.621 362.01 426.418 362.088 426.205 362.167C426.16 362.19 426.115 362.201 426.07 362.212C425.924 362.257 425.778 362.302 425.643 362.347C425.586 362.369 425.53 362.381 425.485 362.392C425.305 362.448 425.125 362.493 424.946 362.527C424.934 362.527 424.923 362.538 424.912 362.538C424.901 362.538 424.901 362.538 424.901 362.538C424.754 362.571 424.608 362.594 424.473 362.616C424.327 362.639 424.181 362.661 424.024 362.673C423.754 362.706 423.484 362.729 423.214 362.729C423.124 362.729 423.045 362.74 422.955 362.74C422.573 362.74 422.202 362.718 421.82 362.706C421.415 362.695 420.999 362.684 420.594 362.673C420.527 362.673 420.471 362.661 420.403 362.661C419.661 362.628 418.919 362.628 418.177 362.616C417.986 362.605 417.806 362.605 417.626 362.605C417.041 362.594 416.457 362.571 415.883 362.56C414.77 362.527 413.657 362.504 412.555 362.482C412.532 362.482 412.51 362.482 412.487 362.482C411.993 362.459 411.487 362.448 410.981 362.437C407.979 362.347 404.977 362.291 401.975 362.223C400.76 362.19 399.535 362.167 398.32 362.133C396.533 362.088 394.745 362.055 392.957 361.999C391.158 361.954 389.37 361.897 387.571 361.853C385.188 361.796 382.804 361.729 380.42 361.684C376.8 361.594 373.179 361.504 369.559 361.414C365.714 361.325 361.868 361.223 358.023 361.122C354.661 361.044 351.299 360.954 347.937 360.875C347.87 360.875 347.802 360.864 347.735 360.864C345.767 360.819 343.811 360.763 341.832 360.718C336.66 360.583 331.488 360.46 326.316 360.325C324.764 360.291 323.223 360.246 321.672 360.212C321.526 360.201 321.368 360.201 321.222 360.201C313.318 359.999 305.402 359.808 297.498 359.606C285.49 359.303 273.481 358.999 261.473 358.707C261.169 358.696 260.866 358.696 260.562 358.685C246.744 358.348 232.936 358.011 219.129 357.663C218.679 357.64 218.218 357.629 217.769 357.629C211.911 357.46 206.064 357.303 200.217 357.168C199.239 357.146 198.272 357.123 197.294 357.112C197.215 357.112 197.136 357.101 197.058 357.101C196.833 357.09 196.608 357.09 196.383 357.078C193.066 357 189.749 356.921 186.444 356.842C186.297 356.842 186.162 356.831 186.027 356.831C184.453 356.786 182.868 356.73 181.294 356.708C181.091 356.696 180.9 356.696 180.709 356.696C180.586 356.685 180.462 356.685 180.338 356.685C179.45 356.663 178.562 356.64 177.673 356.618H177.662C177.314 356.607 176.965 356.595 176.616 356.584C176.594 356.584 176.583 356.584 176.56 356.584C176.414 356.573 176.279 356.573 176.133 356.573C175.942 356.573 175.751 356.562 175.56 356.55C175.368 356.539 175.177 356.517 174.997 356.472L163.338 353.394C163.394 353.405 163.45 353.416 163.506 353.428C163.54 353.439 163.563 353.439 163.585 353.45C163.619 353.461 163.652 353.461 163.686 353.461C163.697 353.461 163.709 353.472 163.72 353.472C163.776 353.484 163.832 353.484 163.877 353.484C163.9 353.484 163.911 353.484 163.922 353.484C164.035 353.495 164.147 353.506 164.26 353.495C164.406 353.506 164.552 353.506 164.687 353.506C164.766 353.506 164.844 353.506 164.923 353.506C165.541 353.506 166.16 353.54 166.778 353.562C168.026 353.574 169.263 353.574 170.5 353.585Z" fill="url(#paint6_linear_660_194)"/>
<path d="M486.685 1.27368L500.2 7.37338C500.526 7.51942 500.841 7.68792 501.133 7.89012C501.437 8.09232 501.718 8.30575 501.976 8.55288C502.246 8.78878 502.494 9.04715 502.718 9.31675C503.033 9.68745 503.303 10.0694 503.55 10.485C503.865 10.9905 504.124 11.5297 504.36 12.0802C504.63 12.7429 504.855 13.4282 505.023 14.1246C505.192 14.8211 505.327 15.5176 505.428 16.2253C505.529 16.9442 505.586 17.6519 505.619 18.3708C505.653 19.0898 505.653 19.7975 505.642 20.5164C505.619 21.2353 505.574 21.9543 505.507 22.662C505.439 23.3809 505.349 24.0886 505.237 24.7963C505.091 25.7399 504.911 26.6835 504.731 27.6159C504.405 29.2559 504.079 30.896 503.753 32.5248C502.741 37.6697 501.729 42.8258 500.717 47.9707C498.322 60.1476 495.916 72.3021 493.521 84.479C488.349 110.686 483.199 136.905 478.05 163.124C470.685 200.576 463.298 238.016 455.922 275.468L441.125 270.593C445.746 247.497 450.356 224.39 454.978 201.294C458.823 182.041 462.68 162.787 466.525 143.533C469.594 128.132 472.675 112.731 475.767 97.3299C477.69 87.703 479.624 78.076 481.546 68.4603C483.076 60.7542 484.594 53.0481 486.156 45.3533C487.033 41.0285 487.922 36.7036 488.765 32.3676C489.338 29.4806 489.889 26.5824 490.474 23.7067C490.721 22.5047 490.98 21.3027 491.205 20.0895C491.373 19.1235 491.531 18.1574 491.655 17.1801C491.745 16.4499 491.801 15.7198 491.846 14.9784C491.891 14.237 491.902 13.5068 491.891 12.7654C491.879 12.024 491.834 11.2938 491.756 10.5524C491.7 9.94582 491.61 9.33922 491.486 8.73262C491.396 8.24958 491.284 7.77778 491.149 7.29475C491.047 6.94652 490.935 6.59828 490.811 6.25005C490.688 5.90182 490.553 5.56482 490.384 5.22782C490.227 4.89082 490.058 4.56505 489.867 4.25052C489.676 3.93598 489.462 3.62145 489.237 3.34062C489.012 3.04855 488.765 2.77895 488.495 2.52058C488.259 2.28468 488 2.07125 487.731 1.88028C487.708 1.85781 487.674 1.83535 487.652 1.81288C487.607 1.77918 487.562 1.74548 487.517 1.72301C487.236 1.56575 486.966 1.40848 486.685 1.27368Z" fill="url(#paint7_linear_660_194)"/>
<path d="M491.879 12.7654C491.902 13.4955 491.879 14.2369 491.834 14.9783C491.789 15.7085 491.733 16.4387 491.643 17.1801C491.531 18.1574 491.373 19.1234 491.194 20.0895C490.969 21.2915 490.721 22.4934 490.463 23.7066C489.878 26.5824 489.327 29.4806 488.754 32.3675C487.91 36.7036 487.022 41.0284 486.145 45.3533C484.582 53.0481 483.064 60.7542 481.535 68.4603C479.624 78.0872 477.69 87.7142 475.756 97.3299C472.664 112.731 469.594 128.132 466.514 143.533C462.668 162.787 458.812 182.041 454.966 201.294C450.345 224.39 445.735 247.497 441.114 270.593L171.489 292.352C175.492 276.333 179.506 260.314 183.509 244.296C186.713 231.478 189.918 218.661 193.122 205.844C195.124 197.835 197.136 189.825 199.138 181.816C200.746 175.413 202.342 168.999 203.95 162.596C205.153 157.788 206.356 152.98 207.548 148.172C208.751 143.364 209.943 138.556 211.157 133.748C212.068 130.154 213.001 126.548 213.889 122.942C214.429 120.729 214.958 118.527 215.52 116.325C215.722 115.528 215.936 114.73 216.161 113.933C216.329 113.337 216.521 112.742 216.712 112.158C216.914 111.574 217.116 110.99 217.33 110.406C217.544 109.821 217.769 109.248 218.005 108.676C218.241 108.103 218.488 107.53 218.747 106.968C218.994 106.406 219.264 105.845 219.545 105.283C219.826 104.733 220.107 104.182 220.411 103.643C220.714 103.104 221.018 102.565 221.344 102.037C221.67 101.509 222.007 100.992 222.356 100.475C222.705 99.9698 223.076 99.4643 223.458 98.97C223.84 98.487 224.234 98.0152 224.661 97.5546C225.01 97.1727 225.381 96.8132 225.763 96.4762C226.078 96.1954 226.404 95.9482 226.741 95.7123C227 95.5438 227.258 95.3753 227.539 95.2293C227.82 95.0833 228.102 94.9597 228.394 94.8586C228.967 94.6339 229.552 94.4317 230.137 94.2183C231.014 93.9038 231.879 93.5668 232.745 93.2298C234.286 92.6456 235.848 92.0727 237.389 91.5111C239.334 90.7921 241.268 90.0732 243.202 89.3543C245.529 88.4893 247.846 87.6243 250.173 86.7594C254.817 85.0407 259.472 83.3107 264.115 81.5808C271.086 78.9859 278.057 76.4022 285.029 73.8186C297.419 69.2129 309.821 64.6072 322.212 60.0015C337.705 54.2501 353.199 48.4986 368.693 42.7359C387.279 35.8386 405.876 28.9301 424.462 22.0216C443.059 15.1131 461.645 8.20463 480.242 1.30736C480.4 1.2512 480.557 1.18379 480.726 1.13886C481.04 1.03776 481.355 0.947894 481.67 0.86926C481.771 0.846794 481.861 0.824328 481.951 0.801861C482.086 0.768161 482.232 0.745695 482.367 0.723228C482.738 0.667061 483.098 0.622128 483.469 0.610894C483.683 0.599661 483.885 0.599661 484.099 0.622128C484.155 0.622128 484.223 0.633361 484.29 0.633361C484.942 0.689528 485.583 0.846794 486.224 1.08269C486.685 1.25119 487.112 1.47586 487.506 1.73423C487.551 1.75669 487.607 1.79039 487.641 1.82409C487.674 1.84656 487.697 1.86903 487.719 1.89149C487.989 2.08246 488.248 2.29589 488.484 2.53179C488.742 2.79016 488.99 3.071 489.226 3.35183C489.451 3.6439 489.653 3.9472 489.856 4.26173C490.047 4.57626 490.215 4.90203 490.373 5.23903C490.53 5.5648 490.676 5.91303 490.8 6.26126C490.935 6.59826 491.047 6.95773 491.137 7.30596C491.272 7.77776 491.385 8.2608 491.475 8.74383C491.598 9.3392 491.688 9.95703 491.745 10.5636C491.823 11.2826 491.868 12.024 491.879 12.7654Z" fill="#111111"/>
<path d="M286.085 76.7055C279.114 79.2892 272.143 81.8729 265.172 84.4678C260.528 86.1977 255.874 87.9277 251.23 89.6464L248.936 90.5001C247.373 91.073 245.822 91.6571 244.259 92.2412L242.482 92.904C241.133 93.4095 239.784 93.915 238.435 94.4093L237.378 94.8024C236.186 95.2405 235.005 95.6786 233.813 96.128L233.105 96.3976C232.453 96.6447 231.812 96.8918 231.149 97.1278L230.665 97.2962C230.272 97.431 229.878 97.5771 229.44 97.7456C229.271 97.813 229.091 97.8804 228.934 97.959C228.765 98.0489 228.596 98.1612 228.506 98.2174C228.259 98.3971 228.012 98.5769 227.775 98.8015C227.483 99.0599 227.191 99.3407 226.876 99.6777C226.561 100.015 226.235 100.397 225.864 100.868C225.515 101.307 225.189 101.756 224.886 102.205C224.571 102.677 224.256 103.149 223.953 103.643C223.649 104.137 223.368 104.632 223.098 105.126C222.817 105.643 222.547 106.148 222.3 106.654C222.041 107.17 221.794 107.698 221.546 108.249C221.31 108.777 221.074 109.305 220.861 109.844C220.636 110.383 220.433 110.922 220.231 111.473C220.029 112.023 219.826 112.574 219.658 113.113C219.478 113.674 219.298 114.236 219.14 114.787C218.915 115.55 218.713 116.314 218.522 117.089C218.128 118.628 217.757 120.179 217.375 121.729L216.903 123.683C216.251 126.334 215.576 128.974 214.901 131.614L214.159 134.512C213.294 137.938 212.439 141.365 211.585 144.791L210.561 148.913C209.752 152.171 208.931 155.429 208.121 158.686L202.151 182.557C200.15 190.567 198.148 198.576 196.136 206.585L175.537 288.926L196.394 287.241L323.224 62.9222C301.287 71.0664 286.085 76.7055 286.085 76.7055Z" fill="url(#paint8_linear_660_194)"/>
<path d="M348.724 53.4413L210.325 286.117L247.396 283.129L388.572 38.647C375.046 43.6683 361.43 48.7233 348.724 53.4413Z" fill="url(#paint9_linear_660_194)"/>
<defs>
<radialGradient id="paint0_radial_660_194" cx="0" cy="0" r="1" gradientUnits="userSpaceOnUse" gradientTransform="translate(289.87 412.359) scale(289.837 39.649)">
<stop/>
<stop offset="0.1684" stop-color="#333333"/>
<stop offset="0.4742" stop-color="#898989"/>
<stop offset="0.7242" stop-color="#C9C9C9"/>
<stop offset="0.9057" stop-color="#F0F0F0"/>
<stop offset="1" stop-color="white"/>
</radialGradient>
<linearGradient id="paint1_linear_660_194" x1="348.909" y1="380.99" x2="347.499" y2="330.387" gradientUnits="userSpaceOnUse">
<stop stop-color="#F4F4F4"/>
<stop offset="0.3436" stop-color="#B3BCC6"/>
<stop offset="0.6397" stop-color="#CAD0D8"/>
<stop offset="1" stop-color="#848F99"/>
</linearGradient>
<linearGradient id="paint2_linear_660_194" x1="307.358" y1="411.735" x2="308.415" y2="300.302" gradientUnits="userSpaceOnUse">
<stop stop-color="#F4F4F4"/>
<stop offset="0.3436" stop-color="#B3BCC6"/>
<stop offset="0.6397" stop-color="#CAD0D8"/>
<stop offset="1" stop-color="#848F99"/>
</linearGradient>
<linearGradient id="paint3_linear_660_194" x1="229.82" y1="391.61" x2="392.93" y2="391.61" gradientUnits="userSpaceOnUse">
<stop stop-color="#F4F4F4"/>
<stop offset="0.3436" stop-color="#B3BCC6"/>
<stop offset="0.6397" stop-color="#CAD0D8"/>
<stop offset="1" stop-color="#848F99"/>
</linearGradient>
<linearGradient id="paint4_linear_660_194" x1="172.833" y1="273.698" x2="572.238" y2="392.121" gradientUnits="userSpaceOnUse">
<stop stop-color="#F4F4F4"/>
<stop offset="0.3436" stop-color="#B3BCC6"/>
<stop offset="0.6397" stop-color="#CAD0D8"/>
<stop offset="1" stop-color="#848F99"/>
</linearGradient>
<linearGradient id="paint5_linear_660_194" x1="155.809" y1="253.83" x2="265.272" y2="403.62" gradientUnits="userSpaceOnUse">
<stop stop-color="white"/>
<stop offset="0.0635" stop-color="#EAEAEA"/>
<stop offset="0.3301" stop-color="#989898"/>
<stop offset="0.5664" stop-color="#575757"/>
<stop offset="0.7635" stop-color="#282828"/>
<stop offset="0.914" stop-color="#0B0B0B"/>
<stop offset="1"/>
</linearGradient>
<linearGradient id="paint6_linear_660_194" x1="260.81" y1="180.703" x2="334.547" y2="383.071" gradientUnits="userSpaceOnUse">
<stop stop-color="#F4F4F4"/>
<stop offset="0.3436" stop-color="#B3BCC6"/>
<stop offset="0.6397" stop-color="#CAD0D8"/>
<stop offset="1" stop-color="#848F99"/>
</linearGradient>
<linearGradient id="paint7_linear_660_194" x1="441.121" y1="138.367" x2="505.653" y2="138.367" gradientUnits="userSpaceOnUse">
<stop stop-color="#333333"/>
<stop offset="0.6397" stop-color="#1A1A1A"/>
<stop offset="1"/>
</linearGradient>
<linearGradient id="paint8_linear_660_194" x1="329.791" y1="-113.807" x2="235.711" y2="212.075" gradientUnits="userSpaceOnUse">
<stop stop-color="white"/>
<stop offset="0.0635" stop-color="#EAEAEA"/>
<stop offset="0.3301" stop-color="#989898"/>
<stop offset="0.5664" stop-color="#575757"/>
<stop offset="0.7635" stop-color="#282828"/>
<stop offset="0.914" stop-color="#0B0B0B"/>
<stop offset="1"/>
</linearGradient>
<linearGradient id="paint9_linear_660_194" x1="375.514" y1="-100.607" x2="281.434" y2="225.275" gradientUnits="userSpaceOnUse">
<stop stop-color="white"/>
<stop offset="0.0635" stop-color="#EAEAEA"/>
<stop offset="0.3301" stop-color="#989898"/>
<stop offset="0.5664" stop-color="#575757"/>
<stop offset="0.7635" stop-color="#282828"/>
<stop offset="0.914" stop-color="#0B0B0B"/>
<stop offset="1"/>
</linearGradient>
</defs>
</svg>
