<svg width="710" height="800" viewBox="0 0 710 800" fill="none" xmlns="http://www.w3.org/2000/svg">
<path d="M504.62 228.366C494.017 226.977 489.62 232.497 488.23 234.972C486.841 237.408 484.29 244.052 490.916 252.504L525.427 296.878C533.5 304.969 546.446 305.769 555.526 298.744L597.73 266.173C603.439 261.813 604.905 257.149 605.116 254.047C605.572 246.717 599.842 240.57 590.476 239.351L569.764 236.706C567.289 236.343 564.681 233.355 564.528 230.596C561.407 170.535 536.184 113.919 493.482 71.2016C461.424 39.1424 421.123 16.7762 376.94 6.43813C345.472 -0.967508 313.244 -1.99474 281.167 3.41018C220.572 13.6706 166.547 45.8433 129.083 94.0058C125.941 98.061 123.524 103.771 131.177 111.425C132.586 112.834 134.452 114.491 136.546 116.127C141.21 119.744 152.004 128.064 158.856 119.287C191.352 77.5203 236.755 50.5076 287.621 41.9215C314.5 37.3706 341.571 38.2087 368.107 44.396C405.191 53.0956 439.038 71.9024 465.937 98.8215C500.927 133.791 522.057 180.128 525.447 229.26L523.413 230.783L504.62 228.366Z" fill="#C32CE2"/>
<path d="M670.391 413.29H367.022V466.384H633.992C639.97 466.384 644.806 471.237 644.806 477.216V692.674C644.806 698.65 639.97 703.504 633.992 703.504H367.022V756.635H670.409C692.17 756.635 709.776 738.989 709.776 717.286V452.62C709.778 430.879 692.15 413.29 670.391 413.29Z" fill="#7C07D3"/>
<path d="M304.22 800C325.941 800 343.569 782.372 343.569 760.633V255.779C343.569 234.02 325.921 216.412 304.22 216.412H39.5541C17.7951 216.412 0.224609 234.04 0.224609 255.779V760.633C0.224609 782.392 17.815 800 39.5541 800H304.22ZM171.231 775.957C157.525 775.957 146.446 764.879 146.446 751.19C146.446 737.504 157.525 726.405 171.231 726.405C184.9 726.405 195.998 737.504 195.998 751.19C195.978 764.879 184.88 775.957 171.231 775.957ZM53.2983 292.178C53.2983 286.202 58.1518 281.364 64.1301 281.364H279.586C285.565 281.364 290.418 286.2 290.418 292.178V680.869C290.418 686.847 285.565 691.683 279.586 691.683H64.15C58.1737 691.683 53.3183 686.847 53.3183 680.869V292.178H53.2983Z" fill="#C32CE2"/>
</svg>
