<?xml version="1.0" encoding="UTF-8"?>
<!DOCTYPE svg PUBLIC "-//W3C//DTD SVG 1.1//EN" "http://www.w3.org/Graphics/SVG/1.1/DTD/svg11.dtd">
<!-- Creator: CorelDRAW 2020 (64-Bit) -->
<svg xmlns="http://www.w3.org/2000/svg" xml:space="preserve" width="387.719mm" height="111.546mm" version="1.1" style="shape-rendering:geometricPrecision; text-rendering:geometricPrecision; image-rendering:optimizeQuality; fill-rule:evenodd; clip-rule:evenodd"
viewBox="0 0 38771.9 11154.6"
 xmlns:xlink="http://www.w3.org/1999/xlink"
 xmlns:xodm="http://www.corel.com/coreldraw/odm/2003">
 <defs>
  <style type="text/css">
   <![CDATA[
    .fil2 {fill:#C22BE1}
    .fil0 {fill:#FEFEFE;fill-rule:nonzero}
    .fil1 {fill:#7C07D3;fill-rule:nonzero}
   ]]>
  </style>
 </defs>
 <g id="Слой_x0020_1">
  <metadata id="CorelCorpID_0Corel-Layer"/>
  <g id="_2046127249584">
   <path class="fil0" d="M8237.09 9112.54c0,511.16 -358.36,884.83 -854.2,884.83 -495.84,0 -854.2,-373.67 -854.2,-884.83 0,-495.64 358.36,-884.63 854.2,-884.63 495.84,0 854.2,388.99 854.2,884.63zm12569.8 -8959.86l0 5339.11 2745.87 0c572.07,0 1035.81,-139.3 1380.47,-419.47 349.37,-284.11 526.32,-656.01 526.32,-1113.64 0,-388.99 -106.7,-701.76 -312.62,-953.47 -205.91,-251.71 -442.51,-404.16 -701.75,-465.21 327.88,-152.6 625.38,-518.74 625.38,-1037.28 0,-877.09 -686.64,-1350.04 -1662.66,-1350.04l-2601.01 0zm1372.94 4194.99l0 -1136.55 1106.11 0c404.1,0 671.13,213.71 671.13,572.07 0,358.56 -251.86,564.48 -671.13,564.48l-1106.11 0zm1022.15 -2150.92l-1022.15 0 0 -930.42 1022.15 0c335.62,0 549.17,175.34 549.17,472.79 0,282.14 -213.7,457.63 -549.17,457.63zm-18656.5 3712.49c-419.62,-205.92 -877.05,-305.19 -1380.47,-305.19 -854.4,0 -1563.74,259.44 -2128.02,777.98 -556.95,518.74 -839.09,1182.28 -839.09,1998.32 0,816.15 282.14,1479.74 846.62,1998.48 564.48,518.54 1273.87,777.98 2128.07,777.98 541.38,0 1029.69,-114.43 1464.43,-335.67l0 -1357.62c-373.83,282.19 -839.04,427.05 -1403.37,427.05 -465.41,0 -854.4,-137.33 -1166.97,-419.47 -305.24,-282.14 -457.68,-648.28 -457.68,-1090.75 0,-434.78 152.44,-800.87 449.9,-1083.06 297.5,-282.14 671.33,-427 1121.22,-427 495.84,0 945.74,129.54 1365.36,388.84l0 -1349.89zm5705.2 -4551.38l0 4133.93 1372.94 0 0 -4133.93 1609.34 0 0 -1205.18 -4583.98 0 0 1205.18 1601.7 0zm6452.76 2196.51c0,511.16 -358.36,884.83 -854.2,884.83 -495.84,0 -854.2,-373.67 -854.2,-884.83 0,-495.64 358.36,-884.63 854.2,-884.63 495.84,0 854.2,388.99 854.2,884.63zm709.34 1456.89c411.88,-388.99 617.85,-877.09 617.85,-1456.89 0,-579.59 -205.97,-1060.12 -617.85,-1449.16 -411.84,-388.99 -930.42,-587.17 -1563.54,-587.17 -633.12,0 -1151.66,198.18 -1563.54,587.17 -411.89,389.04 -617.81,869.57 -617.81,1449.16 0,579.8 205.92,1067.9 617.81,1456.89 411.88,388.99 930.42,579.6 1563.54,579.6 633.12,0 1151.7,-190.61 1563.54,-579.6zm10693.53 579.6c663.55,0 1174.55,-137.28 1540.65,-404.1l0 -1037.43c-404.11,221.23 -823.78,335.67 -1243.2,335.67 -556.74,0 -1014.37,-198.39 -1128.8,-602.54l2593.28 0 0 -335.67c0,-594.91 -179.48,-1079.58 -526.32,-1456.89 -346.99,-377.62 -793.29,-571.86 -1342.46,-571.86 -617.8,0 -1113.65,198.18 -1487.32,587.17 -373.73,388.84 -564.33,877.1 -564.33,1449.16 0,617.81 204.15,1115.82 625.39,1487.32 417.44,368.12 930.57,549.17 1533.11,549.17zm-839.09 -2425.48c53.53,-404.15 312.77,-655.81 671.33,-655.81 327.94,0 602.49,266.82 610.08,655.81l-1281.41 0zm-18320.79 7404.05c411.89,-388.99 617.81,-877.09 617.81,-1456.89 0,-579.59 -205.92,-1060.12 -617.81,-1449.11 -411.88,-388.99 -930.42,-587.17 -1563.54,-587.17 -633.17,0 -1151.7,198.18 -1563.59,587.17 -411.83,388.99 -617.8,869.52 -617.8,1449.11 0,579.8 205.97,1067.9 617.8,1456.89 411.89,388.99 930.42,579.65 1563.59,579.65 633.12,0 1151.66,-190.66 1563.54,-579.65zm2654.29 -1944.95c167.96,-228.81 381.46,-343.24 648.49,-343.24 312.57,0 556.7,183.07 556.7,640.7l0 2128.02 1350.04 0 0 -2379.73c0,-976.37 -518.69,-1593.97 -1380.47,-1593.97 -450.1,0 -839.09,175.29 -1174.76,533.85l0 -434.79 -1350.04 0 0 3874.64 1350.04 0 0 -2425.48zm5087.4 2524.6c419.62,0 747.55,-76.22 991.68,-228.82l0 -1075.48c-175.49,91.53 -350.98,137.28 -534.05,137.28 -327.88,0 -449.84,-129.55 -449.84,-465.21l0 -1258.51 983.89 0 0 -1083.02 -983.89 0 0 -1342.46c-267.23,80.72 -550.63,118.38 -846.67,118.38 -172.26,0 -340.32,-12.79 -503.38,-39.27l0 1263.35 -678.91 0 0 1083.02 678.91 0 0 1624.65c0,823.72 549.17,1266.09 1342.26,1266.09zm3142.6 -99.12l0 -3874.64 -1350.04 0 0 3874.64 1350.04 0zm-678.91 -4225.41c434.78,0 778.03,-343.25 778.03,-778.03 0,-434.74 -343.25,-777.98 -778.03,-777.98 -427,0 -770.2,343.24 -770.2,777.98 0,434.78 343.2,778.03 770.2,778.03zm3005.12 1799.93c167.96,-228.81 381.46,-343.24 648.48,-343.24 312.57,0 556.75,183.07 556.75,640.7l0 2128.02 1350.04 0 0 -2379.73c0,-976.37 -518.74,-1593.97 -1380.52,-1593.97 -450.05,0 -839.09,175.29 -1174.75,533.85l0 -434.79 -1350.04 0 0 3874.64 1350.04 0 0 -2425.48zm4729.04 2524.6c449.89,0 838.88,-175.34 1174.55,-533.85l0 434.73 1350.04 0 0 -3874.64 -1350.04 0 0 2425.53c-167.71,228.82 -381.41,343.2 -648.23,343.2 -312.82,0 -556.95,-183.02 -556.95,-640.7l0 -2128.03 -1350.05 0 0 2379.74c0,976.16 518.74,1594.02 1380.68,1594.02zm5369.53 0c663.6,0 1174.55,-137.33 1540.7,-404.16l0 -1037.42c-404.15,221.23 -823.77,335.66 -1243.19,335.66 -556.75,0 -1014.38,-198.38 -1128.81,-602.48l2593.23 0 0 -335.67c0,-594.96 -175.49,-1083.07 -526.27,-1456.89 -343.24,-381.26 -793.29,-571.86 -1342.51,-571.86 -617.8,0 -1113.44,198.18 -1487.32,587.17 -373.67,388.99 -564.28,877.1 -564.28,1449.11 0,617.86 205.92,1113.7 625.39,1487.37 419.42,366.09 930.57,549.17 1533.06,549.17zm-839.03 -2425.53c53.47,-404.1 312.76,-655.81 671.33,-655.81 327.88,0 602.49,266.82 610.07,655.81l-1281.4 0zm4843.42 2425.53c503.42,0 892.41,-175.34 1159.43,-533.85l0 434.73 1349.84 0 0 -5339.11 -1349.84 0 0 1899.26c-274.6,-358.56 -663.59,-533.85 -1159.43,-533.85 -510.96,0 -930.63,198.18 -1266.09,587.17 -335.67,388.99 -503.42,869.52 -503.42,1449.11 0,579.8 167.75,1067.9 503.42,1456.89 335.46,388.99 755.13,579.65 1266.09,579.65zm388.99 -1144.13c-480.53,0 -816.2,-381.25 -816.2,-892.41 0,-510.95 335.67,-892.36 816.2,-892.36 343.24,0 594.95,137.28 770.44,411.83l0 961.06c-175.49,274.6 -427.2,411.88 -770.44,411.88z"/>
   <g>
    <path class="fil1" d="M8036.47 8962.14c0,511.15 -358.37,884.83 -854.21,884.83 -495.83,0 -854.2,-373.68 -854.2,-884.83 0,-495.66 358.37,-884.66 854.2,-884.66 495.84,0 854.21,389 854.21,884.66zm709.34 1456.88c411.88,-388.99 617.82,-877.08 617.82,-1456.88 0,-579.62 -205.94,-1060.15 -617.82,-1449.14 -411.87,-389 -930.41,-587.19 -1563.55,-587.19 -633.13,0 -1151.67,198.19 -1563.54,587.19 -411.88,388.99 -617.82,869.52 -617.82,1449.14 0,579.8 205.94,1067.89 617.82,1456.88 411.87,389 930.41,579.62 1563.54,579.62 633.14,0 1151.68,-190.62 1563.55,-579.62zm2654.32 -1944.97c167.93,-228.82 381.43,-343.24 648.45,-343.24 312.6,0 556.74,183.06 556.74,640.7l0 2128.04 1350.04 0 0 -2379.74c0,-976.36 -518.72,-1594 -1380.49,-1594 -450.08,0 -839.07,175.31 -1174.74,533.86l0 -434.76 -1350.04 0 0 3874.64 1350.04 0 0 -2425.5zm5087.39 2524.59c419.63,0 747.55,-76.21 991.68,-228.82l0 -1075.46c-175.49,91.53 -350.98,137.3 -534.03,137.3 -327.92,0 -449.9,-129.55 -449.9,-465.21l0 -1258.52 983.93 0 0 -1083.02 -983.93 0 0 -1342.48c-267.2,80.72 -550.61,118.38 -846.64,118.38 -172.24,0 -340.34,-12.8 -503.4,-39.28l0 1263.38 -678.9 0 0 1083.02 678.9 0 0 1624.63c0,823.76 549.17,1266.08 1342.29,1266.08zm3142.6 -99.09l0 -3874.64 -1350.05 0 0 3874.64 1350.05 0zm-678.9 -4225.44c434.76,0 777.99,-343.23 777.99,-777.99 0,-434.76 -343.23,-777.99 -777.99,-777.99 -427.01,0 -770.24,343.23 -770.24,777.99 0,434.76 343.23,777.99 770.24,777.99zm3005.12 1799.94c167.92,-228.82 381.43,-343.24 648.45,-343.24 312.6,0 556.73,183.06 556.73,640.7l0 2128.04 1350.05 0 0 -2379.74c0,-976.36 -518.72,-1594 -1380.49,-1594 -450.08,0 -839.07,175.31 -1174.74,533.86l0 -434.76 -1350.04 0 0 3874.64 1350.04 0 0 -2425.5zm4729.03 2524.59c449.89,0 838.89,-175.31 1174.55,-533.85l0 434.76 1350.04 0 0 -3874.64 -1350.04 0 0 2425.5c-167.74,228.82 -381.43,343.23 -648.27,343.23 -312.78,0 -556.91,-183.06 -556.91,-640.7l0 -2128.03 -1350.05 0 0 2379.73c0,976.19 518.72,1594 1380.68,1594zm5369.54 0c663.58,0 1174.55,-137.29 1540.66,-404.13l0 -1037.44c-404.13,221.25 -823.75,335.67 -1243.2,335.67 -556.73,0 -1014.37,-198.38 -1128.78,-602.51l2593.24 0 0 -335.66c0,-594.93 -175.49,-1083.03 -526.29,-1456.89 -343.23,-381.24 -793.31,-571.87 -1342.48,-571.87 -617.81,0 -1113.47,198.19 -1487.33,587.19 -373.68,388.99 -564.31,877.09 -564.31,1449.14 0,617.81 205.94,1113.65 625.39,1487.33 419.44,366.12 930.6,549.17 1533.1,549.17zm-839.07 -2425.5c53.51,-404.13 312.78,-655.83 671.33,-655.83 327.91,0 602.5,266.84 610.06,655.83l-1281.39 0zm4843.43 2425.5c503.41,0 892.4,-175.31 1159.42,-533.85l0 434.76 1349.86 0 0 -5339.1 -1349.86 0 0 1899.22c-274.58,-358.55 -663.58,-533.86 -1159.42,-533.86 -510.97,0 -930.6,198.19 -1266.08,587.19 -335.66,388.99 -503.41,869.52 -503.41,1449.14 0,579.8 167.75,1067.89 503.41,1456.88 335.48,389 755.11,579.62 1266.08,579.62zm389 -1144.1c-480.53,0 -816.19,-381.25 -816.19,-892.4 0,-510.98 335.66,-892.4 816.19,-892.4 343.23,0 594.93,137.29 770.42,411.87l0 961.05c-175.49,274.59 -427.19,411.88 -770.42,411.88z"/>
    <path class="fil1" d="M16502.84 3403.95c0,511.16 -358.37,884.84 -854.21,884.84 -495.83,0 -854.2,-373.68 -854.2,-884.84 0,-495.66 358.37,-884.65 854.2,-884.65 495.84,0 854.21,388.99 854.21,884.65zm709.34 1456.89c411.88,-389 617.82,-877.09 617.82,-1456.89 0,-579.62 -205.94,-1060.14 -617.82,-1449.14 -411.87,-388.99 -930.41,-587.18 -1563.55,-587.18 -633.13,0 -1151.67,198.19 -1563.54,587.18 -411.88,389 -617.82,869.52 -617.82,1449.14 0,579.8 205.94,1067.89 617.82,1456.89 411.87,388.99 930.41,579.62 1563.54,579.62 633.14,0 1151.68,-190.63 1563.55,-579.62zm10693.5 579.62c663.58,0 1174.56,-137.29 1540.67,-404.13l0 -1037.44c-404.13,221.25 -823.75,335.66 -1243.2,335.66 -556.74,0 -1014.38,-198.37 -1128.79,-602.5l2593.24 0 0 -335.66c0,-594.94 -179.45,-1079.61 -526.28,-1456.89 -347.02,-377.64 -793.31,-571.87 -1342.48,-571.87 -617.82,0 -1113.65,198.19 -1487.34,587.18 -373.68,388.82 -564.3,877.09 -564.3,1449.14 0,617.82 204.14,1115.82 625.38,1487.34 417.47,368.09 930.6,549.17 1533.1,549.17zm-839.07 -2425.5c53.52,-404.13 312.79,-655.83 671.33,-655.83 327.92,0 602.5,266.83 610.07,655.83l-1281.4 0z"/>
    <polygon class="fil2" points="10050.07,1207.44 10050.07,5341.37 11423.01,5341.37 11423.01,1207.44 13032.34,1207.44 13032.34,2.26 8448.37,2.26 8448.37,1207.44 "/>
    <path class="fil2" d="M4344.87 5758.82c-419.62,-205.92 -877.05,-305.19 -1380.47,-305.19 -854.4,0 -1563.74,259.44 -2128.02,777.98 -556.95,518.74 -839.09,1182.28 -839.09,1998.32 0,816.14 282.14,1479.74 846.62,1998.48 564.48,518.54 1273.87,777.98 2128.07,777.98 541.38,0 1029.69,-114.43 1464.43,-335.67l0 -1357.62c-373.83,282.19 -839.04,427.05 -1403.37,427.05 -465.41,0 -854.4,-137.33 -1166.97,-419.47 -305.24,-282.14 -457.68,-648.28 -457.68,-1090.75 0,-434.78 152.44,-800.87 449.9,-1083.06 297.5,-282.14 671.33,-427 1121.22,-427 495.84,0 945.74,129.54 1365.36,388.84l0 -1349.89z"/>
    <path class="fil2" d="M20606.28 2.26l0 5339.11 2745.87 0c572.06,0 1035.81,-139.3 1380.47,-419.47 349.36,-284.11 526.32,-656.01 526.32,-1113.64 0,-388.99 -106.7,-701.76 -312.62,-953.47 -205.91,-251.71 -442.51,-404.16 -701.76,-465.21 327.89,-152.6 625.39,-518.74 625.39,-1037.28 0,-877.09 -686.64,-1350.04 -1662.66,-1350.04l-2601.01 0zm1372.93 4194.99l0 -1136.55 1106.12 0c404.1,0 671.13,213.71 671.13,572.07 0,358.56 -251.87,564.48 -671.13,564.48l-1106.12 0zm1022.16 -2150.92l-1022.16 0 0 -930.42 1022.16 0c335.62,0 549.17,175.34 549.17,472.79 0,282.14 -213.7,457.63 -549.17,457.63z"/>
   </g>
  </g>
 </g>
</svg>
