<svg xmlns="http://www.w3.org/2000/svg">
    <defs>
        <symbol id="logo" xmlns="http://www.w3.org/2000/svg" viewBox="0 0 104 108">
            <polygon style="fill:#E12728;" points="104,87.9 52,108 0,87.9 0,0 104,0 "/>
                    <g>
                <path style="fill:#FFFFFF;" d="M25.4,79.5h-2.6l-0.4,1.2h-1.9l2.7-7h2l2.7,7h-1.9L25.4,79.5z M24.9,78.2l-0.8-2.3l-0.8,2.3H24.9z"/>
                        <path style="fill:#FFFFFF;" d="M29.7,73.8h2.7c0.6,0,1.1,0.2,1.5,0.5c0.3,0.3,0.5,0.8,0.5,1.3c0,0.4-0.1,0.6-0.2,0.9
                    c-0.1,0.2-0.3,0.4-0.6,0.6c0.3,0.1,0.5,0.1,0.7,0.2c0.2,0.1,0.3,0.2,0.4,0.4c0.1,0.1,0.2,0.3,0.2,0.5c0,0.2,0.1,0.4,0.1,0.6
                    c0,0.3-0.1,0.6-0.2,0.9c-0.1,0.3-0.3,0.5-0.5,0.6c-0.2,0.2-0.5,0.3-0.8,0.4c-0.3,0.1-0.6,0.1-1,0.1h-2.9V73.8z M31.5,76.5h0.3
                    c0.6,0,0.9-0.2,0.9-0.7c0-0.4-0.3-0.7-0.9-0.7h-0.3V76.5z M31.5,79.3h0.4c0.5,0,0.8-0.1,1-0.2c0.2-0.1,0.3-0.3,0.3-0.6
                    c0-0.3-0.1-0.4-0.3-0.6c-0.2-0.1-0.5-0.2-1-0.2h-0.4V79.3z"/>
                        <path style="fill:#FFFFFF;" d="M41.4,79.5h-2.6l-0.4,1.2h-1.9l2.6-7h2l2.7,7h-1.9L41.4,79.5z M40.9,78.2l-0.8-2.3l-0.8,2.3H40.9z"
                        />
                        <path style="fill:#FFFFFF;" d="M47.4,76.5H50v-2.7h1.8v7H50v-2.9h-2.6v2.9h-1.8v-7h1.8V76.5z"/>
                        <path style="fill:#FFFFFF;" d="M54.4,80.8v-7h4v1.5h-2.2v5.4H54.4z"/>
                        <path style="fill:#FFFFFF;" d="M64.7,79.5h-2.6l-0.4,1.2h-1.9l2.7-7h2l2.7,7h-1.9L64.7,79.5z M64.2,78.2l-0.8-2.3l-0.8,2.3H64.2z"
                        />
                        <path style="fill:#FFFFFF;" d="M70.8,80.8H69v-7h2.9c0.8,0,1.4,0.2,1.8,0.6c0.4,0.4,0.6,1,0.6,1.7s-0.2,1.3-0.6,1.7
                    c-0.4,0.4-1,0.6-1.8,0.6h-1.1V80.8z M70.8,77h0.6c0.7,0,1-0.3,1-0.9c0-0.6-0.3-0.9-1-0.9h-0.6V77z"/>
                        <path style="fill:#FFFFFF;" d="M76.6,79.2c0.2,0,0.4-0.1,0.5-0.2s0.1-0.3,0.1-0.6v-4.6h5.7v5.4h0.9v2.8H82v-1.3h-4.2v1.3H76v-2.8
                    H76.6z M81.1,75.3H79v3.1c0,0.2,0,0.3,0,0.5c0,0.1,0,0.2-0.1,0.3h2.2V75.3z"/>
                        <path style="fill:#FFFFFF;" d="M40.7,33.8H21.2l6.5,5H39L40.7,33.8z"/>
                        <path style="fill:#FFFFFF;" d="M63.6,33.8l1.7,5h11.2l6.5-5H63.6z"/>
                        <path style="fill:#FFFFFF;" d="M66.4,41.8l1.2,3.7l4.8-3.7H66.4z"/>
                        <path style="fill:#FFFFFF;" d="M37.8,41.8l-1.2,3.7l-4.8-3.7H37.8z"/>
                        <path style="fill:#FFFFFF;" d="M71.6,70.4l-19.5-59l-19.5,59l7.4-5.3l12-37.8L64,65L71.6,70.4z"/>
                        <path style="fill:#FFFFFF;" d="M54.1,51.5L52.2,50l-2.1,1.6L47.5,60l4.7-3.4l4.5,3.2L54.1,51.5z"/>
            </g>
        </symbol>
        <symbol id="m-caret_b" viewBox="0 0 10 7" fill="none" xmlns="http://www.w3.org/2000/svg">
            <path d="M9 1L5 5L1 1" fill="none" stroke="currentColor" stroke-width="2"/>
        </symbol>
        <symbol id="h-phone" viewBox="0 0 16 16" fill="none" xmlns="http://www.w3.org/2000/svg">
            <path d="M6.62534 9.37484C5.09817 7.84766 4.75334 6.32049 4.67555 5.70863C4.65381 5.53945 4.71203 5.36978 4.83306 5.24959L6.06893 4.01428C6.25072 3.8326 6.28298 3.54945 6.14672 3.33153L4.179 0.276077C4.02824 0.0347661 3.7187 -0.0523254 3.46424 0.0749733L0.305339 1.5627C0.0995625 1.66402 -0.0214727 1.88266 0.00189102 2.11084C0.167408 3.68325 0.852925 7.54863 4.65155 11.3475C8.45017 15.1464 12.315 15.8317 13.8882 15.9972C14.1164 16.0205 14.335 15.8995 14.4364 15.6937L15.9241 12.5348C16.0509 12.2809 15.9644 11.9722 15.7241 11.8212L12.6687 9.85401C12.4509 9.7176 12.1677 9.74963 11.9859 9.93125L10.7506 11.1671C10.6304 11.2881 10.4607 11.3464 10.2915 11.3246C9.67968 11.2468 8.15251 10.902 6.62534 9.37484Z" fill="currentColor"/>
        </symbol>
        <symbol id="h-glass" viewBox="0 0 26 11" fill="none" xmlns="http://www.w3.org/2000/svg">
            <circle cx="5.5" cy="5.5" r="4.5" fill="none" stroke="currentColor" stroke-width="2"/>
            <circle cx="20.5" cy="5.5" r="4.5" fill="none" stroke="currentColor" stroke-width="2"/>
            <path d="M10 5.5H16" fill="none" stroke="currentColor" stroke-width="2"/>
        </symbol>
        <symbol id="h-user" viewBox="0 0 18 20" fill="none" xmlns="http://www.w3.org/2000/svg">
            <path d="M17.4212 21.0129H15.3947C15.3947 17.5941 12.5271 14.8137 8.9999 14.8137C5.47269 14.8137 2.60614 17.5951 2.60614 21.0129H0.57959C0.57959 16.4754 4.35809 12.7871 9.00091 12.7871C13.6427 12.7871 17.4212 16.4754 17.4212 21.0129Z" fill="currentColor"/>
            <path d="M9.00064 11.1156C5.93752 11.1156 3.44385 8.62093 3.44385 5.55781C3.44283 2.49367 5.9365 0 9.00064 0C12.0658 0 14.5595 2.49265 14.5595 5.55781C14.5595 8.62296 12.0658 11.1156 9.00064 11.1156ZM9.00064 2.02655C7.05313 2.02655 5.46938 3.61029 5.46938 5.55781C5.46938 7.50532 7.05313 9.08907 9.00064 9.08907C10.9492 9.08907 12.5329 7.50532 12.5329 5.55781C12.5329 3.61029 10.9471 2.02655 9.00064 2.02655Z" fill="currentColor"/>
        </symbol>
        <symbol id="h-menu" viewBox="0 0 40 40" fill="none" xmlns="http://www.w3.org/2000/svg">
            <rect x="10" y="11" width="20" height="2" fill="currentColor"/>
            <rect x="10" y="19" width="20" height="2" fill="currentColor"/>
            <rect x="10" y="27" width="20" height="2" fill="currentColor"/>
        </symbol>
        <symbol id="h-cross" viewBox="0 0 40 40" fill="none" xmlns="http://www.w3.org/2000/svg">
            <rect x="13.636" y="12.2217" width="20" height="2" transform="rotate(45 13.636 12.2217)" fill="currentColor"/>
            <rect width="20" height="2" transform="matrix(-0.707107 0.707107 0.707107 0.707107 26.1421 12)" fill="currentColor"/>
        </symbol>
        <symbol id="h-wing_l" viewBox="0 0 39 24" fill="none" xmlns="http://www.w3.org/2000/svg">
            <path d="M0 0H38.069L34.1645 9.93103H11.7135L0 0Z" fill="currentColor"/>
            <path d="M28.5835 24L19.0344 16.5518H31.4482L28.5835 24Z" fill="currentColor"/>
        </symbol>
        <symbol id="h-wing_r" viewBox="0 0 39 24" fill="none" xmlns="http://www.w3.org/2000/svg">
            <path d="M38.0688 0H-0.000118256L3.90439 9.93103H26.3553L38.0688 0Z" fill="currentColor"/>
            <path d="M9.48535 24L19.0344 16.5518H6.62063L9.48535 24Z" fill="currentColor"/>
        </symbol>
        <symbol id="caret_r" viewBox="0 0 9 14" fill="none" xmlns="http://www.w3.org/2000/svg">
            <path d="M1 1L7 7L1 13" fill="none" stroke="currentColor" stroke-width="2"/>
        </symbol>
        <symbol id="caret_l" viewBox="0 0 9 14" fill="none" xmlns="http://www.w3.org/2000/svg">
            <path d="M8 1L2 7L8 13" fill="none" stroke="currentColor" stroke-width="2"/>
        </symbol>
        <symbol id="i-caret_b" viewBox="0 0 10 7" fill="none" xmlns="http://www.w3.org/2000/svg">
            <path d="M9 1L5 5L1 1" fill="none" stroke="currentColor" stroke-width="2"/>
        </symbol>
        <symbol id="arrow_r" viewBox="0 0 24 14" fill="none" xmlns="http://www.w3.org/2000/svg">
            <path d="M0.5 7H22.5M22.5 7L16.5 1M22.5 7L16.5 13" stroke="currentColor" stroke-width="2"/>
        </symbol>
        <symbol id="arrow_l" viewBox="0 0 24 14" fill="none" xmlns="http://www.w3.org/2000/svg">
            <path d="M24 7H2M2 7L8 1M2 7L8 13" fill="none" stroke="currentColor" stroke-width="2"/>
        </symbol>
        <symbol id="arrow_b" viewBox="0 0 14 14" fill="none" xmlns="http://www.w3.org/2000/svg">
            <path d="M7 -2.62268e-07L7 12M7 12L13 6M7 12L1 6" fill="none" stroke="currentColor" stroke-width="2"/>
        </symbol>
        <symbol id="i-file" viewBox="0 0 25 32" fill="none" xmlns="http://www.w3.org/2000/svg">
            <path d="M4.66053 0.0078125L0.00585938 4.66249H4.66053V0.0078125Z" fill="currentColor"/>
            <path d="M24.241 0H6.85974V6.85974H0V32H24.2411V0H24.241ZM19.7145 21.2337H4.52661V19.0358H19.7145V21.2337ZM19.7145 16.5645H4.52661V14.3667H19.7145V16.5645ZM19.7145 11.8952H4.52661V9.69741H19.7145V11.8952Z" fill="currentColor"/>
        </symbol>
        <symbol id="i-attach" viewBox="0 0 24 24" fill="none" xmlns="http://www.w3.org/2000/svg">
            <path d="M22.7666 8.7357L10.5695 20.7974C8.54852 22.7961 5.27154 22.7961 3.25056 20.7974C1.22957 18.7987 1.22957 15.5586 3.25056 13.5599L14.2286 2.70444C15.5762 1.37222 17.76 1.37222 19.1076 2.70444C20.4552 4.03661 20.4552 6.19729 19.1076 7.52946L8.12957 18.3849C7.45619 19.0515 6.36387 19.0515 5.68963 18.3849C5.01626 17.7193 5.01626 16.639 5.68963 15.9724L15.4477 6.32319L14.2277 5.11695L4.47054 14.767C3.12293 16.0992 3.12293 18.2599 4.47054 19.592C5.81816 20.9242 8.00194 20.9242 9.34956 19.592L20.3276 8.73656C22.3486 6.73787 22.3486 3.49776 20.3276 1.49902C18.3066 -0.499674 15.0296 -0.499674 13.0087 1.49902L1.42061 12.9576L1.46261 12.9995C-0.642366 15.6759 -0.457315 19.5449 2.03061 22.0045C4.51853 24.4641 8.42943 24.6483 11.1366 22.5656L11.1786 22.6076L23.9858 9.9428L22.7666 8.7357Z" fill="currentColor"/>
        </symbol>

        <symbol id="i-vk" viewBox="0 0 16 10" fill="none" xmlns="http://www.w3.org/2000/svg">
            <path d="M13.7703 6.22997C14.301 6.74816 14.8612 7.23566 15.3372 7.80609C15.5475 8.05959 15.7466 8.32115 15.8989 8.61534C16.1147 9.03353 15.9192 9.49372 15.5442 9.51869L13.2133 9.51762C12.6121 9.5675 12.1325 9.3255 11.7293 8.91444C11.4066 8.58572 11.1077 8.23587 10.7974 7.89606C10.6701 7.75719 10.537 7.6265 10.3779 7.52319C10.0597 7.31666 9.78352 7.37987 9.60168 7.71175C9.41649 8.04931 9.37446 8.42306 9.35627 8.79925C9.33131 9.34812 9.1654 9.49244 8.61406 9.51756C7.43577 9.57312 6.31752 9.39487 5.27868 8.80047C4.36281 8.27647 3.65262 7.53669 3.03443 6.69922C1.8309 5.0685 0.909182 3.27656 0.0808066 1.43444C-0.105662 1.01941 0.0307129 0.796625 0.48865 0.788719C1.24906 0.773937 2.00937 0.775 2.77068 0.787656C3.07974 0.792188 3.28434 0.969438 3.40368 1.26141C3.81509 2.273 4.31849 3.23544 4.95037 4.12753C5.11865 4.36503 5.29024 4.60256 5.53456 4.76972C5.80487 4.95481 6.01068 4.89347 6.13784 4.59234C6.21852 4.40141 6.25387 4.19575 6.27206 3.99128C6.33231 3.28775 6.34024 2.58541 6.23459 1.88434C6.16971 1.44681 5.92327 1.16356 5.48668 1.08078C5.2639 1.03856 5.29706 0.955656 5.40493 0.8285C5.59227 0.609188 5.76849 0.472656 6.11977 0.472656H8.75409C9.16881 0.5545 9.2609 0.740813 9.31768 1.15809L9.31993 4.08425C9.3154 4.24578 9.40062 4.72519 9.69159 4.83209C9.92446 4.90822 10.078 4.72191 10.2177 4.57425C10.8484 3.90484 11.2986 3.11372 11.7007 2.29453C11.8792 1.93431 12.0327 1.56025 12.1814 1.18647C12.2916 0.909125 12.4645 0.772656 12.7769 0.778687L15.3123 0.780937C15.3875 0.780937 15.4635 0.782031 15.5363 0.7945C15.9636 0.867313 16.0806 1.05109 15.9487 1.46828C15.7408 2.12281 15.3362 2.66828 14.9407 3.21625C14.5179 3.80128 14.0657 4.36631 13.6464 4.95481C13.2611 5.49231 13.2917 5.76319 13.7703 6.22997Z" fill="currentColor"/>
        </symbol>
        <symbol id="i-yt" viewBox="0 0 16 12" fill="none" xmlns="http://www.w3.org/2000/svg">
            <path fill-rule="evenodd" clip-rule="evenodd" d="M14.2602 0.7489C14.9455 0.933469 15.4859 1.47375 15.6703 2.15917C16.0131 3.41112 15.9999 6.02073 15.9999 6.02073C15.9999 6.02073 15.9999 8.61703 15.6705 9.8691C15.4859 10.5544 14.9456 11.0948 14.2602 11.2793C13.0081 11.6088 7.99997 11.6088 7.99997 11.6088C7.99997 11.6088 3.00487 11.6088 1.73974 11.2662C1.05432 11.0816 0.514036 10.5412 0.329466 9.85592C0 8.61703 0 6.00754 0 6.00754C0 6.00754 0 3.41112 0.329466 2.15917C0.513914 1.47387 1.0675 0.920286 1.73962 0.735838C2.99169 0.40625 7.99984 0.40625 7.99984 0.40625C7.99984 0.40625 13.0081 0.40625 14.2602 0.7489ZM10.5699 6.00755L6.40527 8.40623V3.60887L10.5699 6.00755Z" fill="currentColor"/>
        </symbol>
        <symbol id="i-ig" viewBox="0 0 12 12" fill="none" xmlns="http://www.w3.org/2000/svg">
            <path d="M11.9639 3.52625C11.9347 2.88757 11.8333 2.45142 11.685 2.06982C11.5344 1.66946 11.2982 1.30682 10.9929 1.00708C10.6933 0.701843 10.3305 0.465546 9.93018 0.31485C9.54849 0.166626 9.11243 0.0652771 8.47375 0.0362549C7.83389 0.00695801 7.62946 0 6 0C4.37054 0 4.16611 0.00695801 3.52625 0.0360718C2.88757 0.0652771 2.45151 0.166718 2.06982 0.315033C1.66946 0.465637 1.30682 0.701843 1.00708 1.00708C0.701843 1.30673 0.465546 1.66937 0.31485 2.06973C0.166626 2.45142 0.0652771 2.88757 0.0362549 3.52615C0.00695801 4.16611 0 4.37045 0 5.99991C0 7.62946 0.00695801 7.83389 0.0362549 8.47375C0.0653686 9.11234 0.166809 9.54849 0.315124 9.93018C0.465729 10.3304 0.701935 10.6932 1.00717 10.9928C1.30682 11.2981 1.66956 11.5343 2.06992 11.6849C2.45151 11.8333 2.88766 11.9346 3.52634 11.9638C4.16629 11.993 4.37064 11.9999 6.00009 11.9999C7.62955 11.9999 7.83398 11.993 8.47385 11.9638C9.11252 11.9346 9.54858 11.8333 9.93027 11.6849C10.7362 11.3732 11.3733 10.7361 11.685 9.93018C11.8334 9.54849 11.9347 9.11234 11.9639 8.47375C11.993 7.8338 12 7.62946 12 6C12 4.37045 11.993 4.16611 11.9639 3.52625ZM10.8839 8.42459C10.8572 9.00961 10.7595 9.3273 10.6773 9.5387C10.4755 10.062 10.0619 10.4756 9.5386 10.6774C9.32721 10.7596 9.00952 10.8573 8.4245 10.884C7.79196 10.9129 7.60217 10.9189 6 10.9189C4.39774 10.9189 4.20804 10.9129 3.57541 10.884C2.99048 10.8573 2.67279 10.7596 2.4613 10.6774C2.20074 10.5812 1.965 10.4279 1.77145 10.2285C1.57214 10.035 1.41879 9.79935 1.32257 9.5387C1.24045 9.3273 1.14267 9.00961 1.11603 8.42459C1.08719 7.79196 1.08105 7.60217 1.08105 6.00009C1.08105 4.39792 1.08719 4.20822 1.11603 3.5755C1.14276 2.99048 1.24045 2.67279 1.32257 2.4614C1.41879 2.20074 1.57224 1.965 1.77145 1.77145C1.965 1.57214 2.20074 1.41879 2.4614 1.32266C2.67279 1.24045 2.99048 1.14276 3.5755 1.11603C4.20813 1.08719 4.39792 1.08105 6 1.08105H5.99991C7.60199 1.08105 7.79178 1.08719 8.4245 1.11612C9.00952 1.14276 9.32712 1.24054 9.5386 1.32266C9.79916 1.41888 10.0349 1.57224 10.2285 1.77145C10.4278 1.965 10.5811 2.20074 10.6772 2.4614C10.7595 2.67279 10.8572 2.99048 10.8839 3.5755C10.9127 4.20813 10.9189 4.39792 10.9189 6C10.9189 7.60217 10.9128 7.79187 10.8839 8.42459Z" fill="currentColor"/>
            <path d="M5.99997 2.91895C4.29837 2.91895 2.91895 4.29846 2.91895 6.00006C2.91895 7.70166 4.29837 9.08109 5.99997 9.08109C7.70166 9.08109 9.08109 7.70166 9.08109 6.00006C9.08109 4.29846 7.70166 2.91895 5.99997 2.91895ZM5.99997 8.00003C4.89548 7.99994 4 7.10455 4.00009 5.99997C4.00009 4.89548 4.89548 4 6.00006 4C7.10464 4.00009 8.00003 4.89548 8.00003 5.99997C8.00003 7.10455 7.10455 8.00003 5.99997 8.00003Z" fill="currentColor"/>
            <path d="M9.92294 2.79721C9.92294 3.19482 9.60059 3.51718 9.20297 3.51718C8.80527 3.51718 8.48291 3.19482 8.48291 2.79721C8.48291 2.39951 8.80527 2.07715 9.20297 2.07715C9.60059 2.07715 9.92294 2.39951 9.92294 2.79721Z" fill="currentColor"/>
        </symbol>
        <symbol id="i-fb" viewBox="0 0 8 16" fill="none" xmlns="http://www.w3.org/2000/svg">
            <path d="M5 5.5V3.5C5 2.948 5.448 2.5 6 2.5H7V0H5C3.343 0 2 1.343 2 3V5.5H0V8H2V16H5V8H7L8 5.5H5Z" fill="currentColor"/>
        </symbol>

        <symbol id="i-tg" viewBox="0 0 22 24" fill="none" xmlns="http://www.w3.org/2000/svg">
            <path d="M21 5L2 12.5L9 13.5M21 5L18.5 20L9 13.5M21 5L9 13.5M9 13.5V19L12.2488 15.7229" fill="currentColor"/>
        </symbol>

        <symbol id="i-ok" viewBox="0 0 16 16" fill="none" xmlns="http://www.w3.org/2000/svg">
            <path d="M8.2,0C6,0,4.1,1.9,4.1,4.1c0,2.3,1.9,4.1,4.1,4.1s4.1-1.9,4.1-4.1C12.4,1.9,10.5,0,8.2,0z M8.2,5.9c-0.9,0-1.7-0.8-1.7-1.7
	s0.8-1.7,1.7-1.7S10,3.2,10,4.1S9.2,5.9,8.2,5.9z" fill="currentColor"/>
            <path d="M9.8,11.6c1.7-0.3,2.7-1.1,2.7-1.2C13,10,13,9.3,12.7,8.8c-0.4-0.5-1.1-0.6-1.6-0.2c0,0-1.1,0.8-2.8,0.8
	c-1.7,0-2.8-0.8-2.8-0.8C4.9,8.3,4.2,8.4,3.8,8.8C3.4,9.3,3.5,10,4,10.4c0.1,0,1.1,0.8,2.8,1.2l-2.4,2.5c-0.4,0.4-0.4,1.2,0,1.6
	C4.7,15.9,5,16,5.2,16c0.3,0,0.6-0.1,0.8-0.3l2.2-2.4l2.4,2.4c0.4,0.4,1.2,0.4,1.6,0c0.4-0.4,0.4-1.2,0-1.6L9.8,11.6z" fill="currentColor"/>
        </symbol>
        <symbol id="i-tt" viewBox="0 0 11 12" fill="none" xmlns="http://www.w3.org/2000/svg">
            <path d="M10.7,3c-0.7,0-1.3-0.2-1.8-0.6C8.3,2,7.9,1.3,7.8,0.6c0-0.2-0.1-0.4-0.1-0.6h-2v5.4l0,2.9
	c0,0.8-0.5,1.4-1.2,1.7c-0.2,0.1-0.4,0.1-0.7,0.1C3.6,10,3.3,10,3.1,9.8C2.6,9.5,2.2,8.9,2.2,8.3c0-1,0.8-1.8,1.8-1.8
	c0.2,0,0.4,0,0.6,0.1V5.1V4.6c-0.2,0-0.4,0-0.6,0C2.9,4.6,1.9,5,1.2,5.8C0.6,6.4,0.3,7.2,0.3,8.1c-0.1,1.1,0.3,2.1,1.1,2.9
	c0.1,0.1,0.2,0.2,0.4,0.3C2.4,11.7,3.2,12,4,12c0.2,0,0.4,0,0.6,0c0.8-0.1,1.5-0.5,2.1-1c0.7-0.7,1.1-1.6,1.1-2.6l0-4.4
	c0.3,0.3,0.7,0.5,1.1,0.6C9.4,4.8,10.1,5,10.7,5V3.5L10.7,3C10.8,3,10.7,3,10.7,3z" fill="currentColor"/>
        </symbol>
        <symbol id="g-zoom" viewBox="0 0 30 30" fill="none" xmlns="http://www.w3.org/2000/svg">
            <circle cx="13" cy="13" r="12" fill="none" stroke="currentColor" stroke-width="2"/>
            <path d="M13 9V17" fill="none" stroke="currentColor" stroke-width="2"/>
            <path d="M17 13L9 13" fill="none" stroke="currentColor" stroke-width="2"/>
            <path d="M28.5 28.5L21.5 21.5" fill="none" stroke="currentColor" stroke-width="2"/>
        </symbol>
        <symbol id="f-point" viewBox="0 0 14 16" fill="none" xmlns="http://www.w3.org/2000/svg">
            <path d="M7 0C3.64 0 0.90625 2.73375 0.90625 6.09375C0.90625 7.42344 1.32625 8.68687 2.12188 9.74687L6.62437 15.811C6.63562 15.8257 6.65281 15.8313 6.66531 15.8444C6.89031 16.0853 7.215 16.0247 7.37531 15.811C8.67188 14.081 11.0484 10.85 11.9622 9.63125C11.9622 9.63125 11.9625 9.63031 11.9628 9.62969L11.9684 9.62219C12.7047 8.58781 13.0938 7.36781 13.0938 6.09375C13.0938 2.73375 10.36 0 7 0ZM7 9.38125C5.19094 9.38125 3.7125 7.90281 3.7125 6.09375C3.7125 4.28469 5.19094 2.80625 7 2.80625C8.80906 2.80625 10.2875 4.28469 10.2875 6.09375C10.2875 7.90281 8.80906 9.38125 7 9.38125Z" fill="currentColor"/>
        </symbol>
        <symbol id="f-phone" viewBox="0 0 16 16" fill="none" xmlns="http://www.w3.org/2000/svg">
            <path d="M6.62534 9.37484C5.09817 7.84766 4.75334 6.32049 4.67555 5.70863C4.65381 5.53945 4.71203 5.36978 4.83306 5.24959L6.06893 4.01428C6.25072 3.8326 6.28298 3.54945 6.14672 3.33153L4.179 0.276077C4.02824 0.0347661 3.7187 -0.0523254 3.46424 0.0749733L0.305339 1.5627C0.0995625 1.66402 -0.0214727 1.88266 0.00189102 2.11084C0.167408 3.68325 0.852925 7.54863 4.65155 11.3475C8.45017 15.1464 12.315 15.8317 13.8882 15.9972C14.1164 16.0205 14.335 15.8995 14.4364 15.6937L15.9241 12.5348C16.0509 12.2809 15.9644 11.9722 15.7241 11.8212L12.6687 9.85401C12.4509 9.7176 12.1677 9.74963 11.9859 9.93125L10.7506 11.1671C10.6304 11.2881 10.4607 11.3464 10.2915 11.3246C9.67968 11.2468 8.15251 10.902 6.62534 9.37484Z" fill="currentColor"/>
        </symbol>
        <symbol id="f-mail" viewBox="0 0 16 16" fill="none" xmlns="http://www.w3.org/2000/svg">
            <path d="M15.4287 2.28516H0.571533L8.00011 8.40401L15.5127 2.3023C15.4852 2.29426 15.4571 2.28854 15.4287 2.28516Z" fill="currentColor"/>
            <path d="M8.36055 9.58635C8.15002 9.75875 7.8471 9.75875 7.63657 9.58635L0 3.29492V13.1429C0 13.4585 0.255837 13.7144 0.571439 13.7144H15.4286C15.7442 13.7144 16 13.4585 16 13.1429V3.3795L8.36055 9.58635Z" fill="currentColor"/>
        </symbol>
        <symbol id="f-map" viewBox="0 0 24 24" fill="none" xmlns="http://www.w3.org/2000/svg">
            <path d="M9 19.5L15 22.5V4.5L9 1.5V19.5Z" fill="currentColor"/>
            <path d="M1.5 22.5L7.5 19.5V1.5L1.5 4.5V22.5Z" fill="currentColor"/>
            <path d="M16.5 4.5V22.5L22.5 19.5V1.5L16.5 4.5Z" fill="currentColor"/>
        </symbol>
        <symbol id="i-map" viewBox="0 0 24 24" fill="none" xmlns="http://www.w3.org/2000/svg">
            <path d="M9 19.5L15 22.5V4.5L9 1.5V19.5Z" fill="currentColor"/>
            <path d="M1.5 22.5L7.5 19.5V1.5L1.5 4.5V22.5Z" fill="currentColor"/>
            <path d="M16.5 4.5V22.5L22.5 19.5V1.5L16.5 4.5Z" fill="currentColor"/>
        </symbol>
        <symbol id="i-quote" viewBox="0 0 95 69" fill="none" xmlns="http://www.w3.org/2000/svg">
            <path d="M0 41.2855H20.3571L6.7856 68.4282H27.1427L40.7142 41.2855V0.571289H0V41.2855Z" fill="currentColor"/>
            <path d="M54.2861 0.571289V41.2855H74.6433L61.0717 68.4282H81.4289L95.0004 41.2855V0.571289H54.2861Z" fill="currentColor"/>
        </symbol>
        <symbol id="g-play" viewBox="0 0 60 60" fill="none" xmlns="http://www.w3.org/2000/svg">
            <path d="M23 39V21L41 30L23 39Z" fill="currentColor"/>
            <rect x="1" y="1" width="58" height="58" rx="29" fill="none" stroke="currentColor" stroke-width="2"/>
        </symbol>
        <symbol id="i-calendar" viewBox="0 0 16 16" fill="none" xmlns="http://www.w3.org/2000/svg">
            <path d="M12.9875 0.671875V2.73953H12.05V0.671875H9.975V2.73953H9.0375V0.671875H6.9625V2.73953H6.025V0.671875H3.94997V2.73953H3.01247V0.671875H0V3.9555H16V0.671875H12.9875Z" fill="currentColor"/>
            <path d="M3.94922 0H3.01172V0.671656H3.94922V0Z" fill="currentColor"/>
            <path d="M6.96289 0H6.02539V0.671656H6.96289V0Z" fill="currentColor"/>
            <path d="M9.97461 0H9.03711V0.671656H9.97461V0Z" fill="currentColor"/>
            <path d="M12.9883 0H12.0508V0.671656H12.9883V0Z" fill="currentColor"/>
            <path d="M0 4.89258V15.9998H16V4.89258H0ZM4.91416 14.1248H2.34375V11.5544H4.91416V14.1248ZM4.91416 9.33798H2.34375V6.76758H4.91416V9.33798ZM9.28519 14.1248H6.71478V11.5544H9.28519V14.1248ZM9.28519 9.33798H6.71478V6.76758H9.28519V9.33798ZM13.6562 14.1248H11.0858V11.5544H13.6562V14.1248ZM13.6562 9.33798H11.0858V6.76758H13.6562V9.33798Z" fill="currentColor"/>
        </symbol>
        <symbol id="i-user" viewBox="0 0 16 16" fill="none" xmlns="http://www.w3.org/2000/svg">
            <path d="M10.8284 1.17159C12.3905 2.73368 12.3905 5.26634 10.8284 6.82843C9.26631 8.39051 6.73365 8.39051 5.17157 6.82843C3.60948 5.26634 3.60948 2.73368 5.17157 1.17159C6.73365 -0.39053 9.26631 -0.39053 10.8284 1.17159Z" fill="currentColor"/>
            <path d="M14.1357 10.883C10.4893 8.41919 5.51073 8.41919 1.86425 10.883C1.32322 11.2483 1 11.8655 1 12.5344V16.0002H15V12.5344C15 11.8655 14.6767 11.2483 14.1357 10.883Z" fill="currentColor"/>
        </symbol>
        <symbol id="i-placeholder" viewBox="0 0 16 16" fill="none" xmlns="http://www.w3.org/2000/svg">
            <path d="M8 0C4.64 0 1.90625 2.73375 1.90625 6.09375C1.90625 7.42344 2.32625 8.68687 3.12188 9.74687L7.62437 15.811C7.63562 15.8257 7.65281 15.8313 7.66531 15.8444C7.89031 16.0853 8.215 16.0247 8.37531 15.811C9.67188 14.081 12.0484 10.85 12.9622 9.63125C12.9622 9.63125 12.9625 9.63031 12.9628 9.62969L12.9684 9.62219C13.7047 8.58781 14.0938 7.36781 14.0938 6.09375C14.0938 2.73375 11.36 0 8 0ZM8 9.38125C6.19094 9.38125 4.7125 7.90281 4.7125 6.09375C4.7125 4.28469 6.19094 2.80625 8 2.80625C9.80906 2.80625 11.2875 4.28469 11.2875 6.09375C11.2875 7.90281 9.80906 9.38125 8 9.38125Z" fill="currentColor"/>
        </symbol>
    </defs>
</svg>

