<svg width="277" height="350" viewBox="0 0 277 350" fill="none" xmlns="http://www.w3.org/2000/svg">
<path d="M271.161 6.48586L271.161 278.969L264.141 283.325L264.141 347.758L6.11621 347.758L6.1162 103.573L16.0009 97.438L16.0009 6.48587L271.161 6.48586ZM269.957 278.662L269.957 7.23308L17.2169 7.23309L17.2169 97.7444L7.33222 103.879L7.33223 347.011L262.938 347.011L262.938 283.019L269.957 278.662Z" fill="#DD261D"/>
<path d="M35.6016 -7.15256e-05L35.6016 4.48328L93.3686 4.48327L93.3686 -7.40507e-05L35.6016 -7.15256e-05Z" fill="#DD261D"/>
<path d="M100.857 -7.15256e-05L100.857 4.48328L105.782 4.48328L105.782 -7.17408e-05L100.857 -7.15256e-05Z" fill="#DD261D"/>
<path d="M108.214 -7.15256e-05L108.214 4.48328L113.138 4.48328L113.138 -7.17408e-05L108.214 -7.15256e-05Z" fill="#DD261D"/>
<path d="M115.582 -7.15256e-05L115.582 4.48328L120.506 4.48328L120.506 -7.17408e-05L115.582 -7.15256e-05Z" fill="#DD261D"/>
<path d="M122.938 -7.15256e-05L122.938 4.48328L127.863 4.48328L127.863 -7.17408e-05L122.938 -7.15256e-05Z" fill="#DD261D"/>
<path d="M277 281.323L270.161 285.574L270.162 349.626L268.958 349.626L268.958 285.261L276.145 280.792L277 281.323Z" fill="#DD261D"/>
<path d="M11.197 4.61779L11.197 95.5027L1.11964 101.75L0.276855 101.226L9.99299 95.1964L9.99298 4.61779L11.197 4.61779Z" fill="#DD261D"/>
<path d="M20.4194 344.769L20.4194 350L22.8274 350L22.8274 344.769L20.4194 344.769Z" fill="#DD261D"/>
<path d="M152.328 344.769L152.328 350L147.536 350L147.536 344.769L152.328 344.769ZM141.54 344.769L141.54 350L136.748 350L136.748 344.769L141.54 344.769ZM130.752 344.769L130.752 350L125.96 350L125.96 344.769L130.752 344.769ZM119.965 344.769L119.965 350L115.173 350L115.173 344.769L119.965 344.769ZM109.177 344.769L109.177 350L104.385 350L104.385 344.769L109.177 344.769ZM98.3892 344.769L98.3892 350L93.5974 350L93.5974 344.769L98.3892 344.769ZM87.6016 344.769L87.6016 350L82.8097 350L82.8097 344.769L87.6016 344.769ZM76.8139 344.769L76.8139 350L72.022 350L72.022 344.769L76.8139 344.769ZM66.0262 344.769L66.0262 350L61.2344 350L61.2344 344.769L66.0262 344.769ZM55.2385 344.769L55.2385 350L50.4467 350L50.4467 344.769L55.2385 344.769ZM44.4509 344.769L44.4509 350L39.659 350L39.659 344.769L44.4509 344.769ZM33.6632 344.769L33.6632 350L28.8713 350L28.8713 344.769L33.6632 344.769Z" fill="#DD261D"/>
<path d="M158.323 344.769L158.323 350L160.731 350L160.731 344.769L158.323 344.769Z" fill="#DD261D"/>
<path d="M-8.38113e-07 310.195L-5.53004e-06 202.857L13.4364 194.518L13.4364 310.195L-8.38113e-07 310.195ZM-6.93092e-07 313.513L-4.83727e-07 318.303L13.4364 318.303L13.4364 313.513L-6.93092e-07 313.513ZM-2.26023e-07 324.198L0 329.369L13.4364 329.369L13.4364 324.198L-2.26023e-07 324.198Z" fill="#DD261D"/>
<path d="M261.637 248.542L261.637 249.521L254.197 249.521L254.197 248.542L261.637 248.542ZM254.197 246.636L254.197 247.615L261.637 247.615L261.637 246.636L254.197 246.636ZM254.197 244.731L254.197 245.71L261.637 245.71L261.637 244.731L254.197 244.731ZM254.197 242.826L254.197 243.804L261.637 243.804L261.637 242.826L254.197 242.826ZM254.197 240.92L254.197 241.899L261.637 241.899L261.637 240.92L254.197 240.92ZM254.197 239.015L254.197 239.994L261.637 239.994L261.637 239.015L254.197 239.015ZM254.197 237.109L254.197 238.088L261.637 238.088L261.637 237.109L254.197 237.109ZM254.197 235.204L254.197 236.183L261.637 236.183L261.637 235.204L254.197 235.204ZM254.197 233.299L254.197 234.277L261.637 234.277L261.637 233.299L254.197 233.299ZM254.197 231.393L254.197 232.372L261.637 232.372L261.637 231.393L254.197 231.393ZM254.197 229.488L254.197 230.467L261.637 230.467L261.637 229.488L254.197 229.488ZM254.197 227.582L254.197 228.561L261.637 228.561L261.637 227.582L254.197 227.582ZM254.197 225.677L254.197 226.656L261.637 226.656L261.637 225.677L254.197 225.677ZM254.197 223.771L254.197 224.75L261.637 224.75L261.637 223.771L254.197 223.771ZM254.197 221.866L254.197 222.845L261.637 222.845L261.637 221.866L254.197 221.866ZM254.197 219.961L254.197 220.939L261.637 220.939L261.637 219.961L254.197 219.961ZM254.197 218.055L254.197 219.034L261.637 219.034L261.637 218.055L254.197 218.055ZM254.197 216.15L254.197 217.129L261.637 217.129L261.637 216.15L254.197 216.15ZM254.197 214.244L254.197 215.223L261.637 215.223L261.637 214.244L254.197 214.244ZM254.197 212.339L254.197 213.318L261.637 213.318L261.637 212.339L254.197 212.339ZM254.197 210.433L254.197 211.412L261.637 211.412L261.637 210.433L254.197 210.433Z" fill="#DD261D"/>
</svg>
