<?xml version="1.0" encoding="utf-8"?><svg viewBox="0 0 512 512" xmlns="http://www.w3.org/2000/svg" xmlns:xlink="http://www.w3.org/1999/xlink"><style>:root>svg{display:none}:root>svg:target{display:block}</style><svg fill="none" viewBox="0 0 10 6" id="arrow-bottom" xmlns="http://www.w3.org/2000/svg"><path d="M1.429 0L5 3.642 8.571 0 10 .728 5 5.827 0 .728 1.429 0z" fill="#fff" fill-opacity=".9"/></svg><svg fill="none" viewBox="0 0 9 11" id="arrow-player" xmlns="http://www.w3.org/2000/svg"><path d="M.528 6.314L6.91 10.63c.518.35 1.312.01 1.312-.856V1.142c0-.778-.738-1.246-1.312-.856L.528 4.6c-.57.384-.571 1.33 0 1.714z" fill="#fff"/></svg><svg fill="none" viewBox="0 0 10 7" id="arrow-setting" xmlns="http://www.w3.org/2000/svg"><path d="M10 0v2L5 7 0 2V0l5 5 5-5z" fill="#7979C5"/></svg><svg viewBox="0 0 28 28" fill="none" id="blog" xmlns="http://www.w3.org/2000/svg"><g stroke="#F0F0F0" stroke-width="1.5" stroke-linecap="round" stroke-linejoin="round"><path d="M16.334 2.333H7a2.333 2.333 0 00-2.333 2.334v18.666A2.333 2.333 0 007 25.667h14a2.333 2.333 0 002.334-2.334v-14l-7-7z"/><path d="M16.333 2.333v7h7M18.666 15.167H9.333M18.666 19.833H9.333M11.666 10.5H9.333"/></g></svg><svg viewBox="0 0 512 512" id="chat" xmlns="http://www.w3.org/2000/svg"><path d="M408 64H104a56.16 56.16 0 00-56 56v192a56.16 56.16 0 0056 56h40v80l93.72-78.14a8 8 0 015.13-1.86H408a56.16 56.16 0 0056-56V120a56.16 56.16 0 00-56-56z" fill="none" stroke="#fff" stroke-linejoin="round" stroke-width="32"/></svg><svg viewBox="0 0 14 16" id="chess-side" xmlns="http://www.w3.org/2000/svg"><path d="M12.5 13.985h-11a.5.5 0 00-.5.499v.999a.5.5 0 00.5.5h11a.5.5 0 00.5-.5v-1a.5.5 0 00-.5-.498zm.5-8.99H8V3.495h1.25a.25.25 0 00.25-.25V1.748a.25.25 0 00-.25-.25H8V.25A.25.25 0 007.75 0h-1.5A.25.25 0 006 .25v1.248H4.75a.25.25 0 00-.25.25v1.498a.25.25 0 00.25.25H6v1.498H1a1 1 0 00-.955 1.297l2.284 6.695h9.34l2.284-6.695a.997.997 0 00-.954-1.297z" fill="inherit"/></svg><svg fill="none" viewBox="0 0 30 23" id="crown" xmlns="http://www.w3.org/2000/svg"><path d="M4.641 20.502a1.002 1.002 0 001.247.733 34.237 34.237 0 0118.218-.002 1 1 0 001.246-.732l3.186-13.54a1 1 0 00-1.379-1.143l-6.323 2.81a1 1 0 01-1.28-.428l-3.682-6.627a1 1 0 00-1.748 0L10.444 8.2a1 1 0 01-1.28.428L2.84 5.818A1 1 0 001.46 6.96l3.181 13.542z" stroke="#fff" stroke-width="2" stroke-linecap="round" stroke-linejoin="round"/></svg><svg fill="none" viewBox="0 0 10 11" id="emoji" xmlns="http://www.w3.org/2000/svg"><path d="M5 .404c-2.757 0-5 2.243-5 4.998a5.005 5.005 0 005 4.999c2.757 0 5-2.243 5-4.999A5.005 5.005 0 005 .404zm0 9.58A4.588 4.588 0 01.417 5.402 4.588 4.588 0 015 .821a4.588 4.588 0 014.583 4.581A4.588 4.588 0 015 9.984z" fill="#fff"/><path d="M7.683 6.244a.207.207 0 00-.25.155A2.49 2.49 0 015 8.318a2.49 2.49 0 01-2.433-1.922.208.208 0 10-.406.096A2.905 2.905 0 005 8.733c1.358 0 2.524-.92 2.838-2.24a.208.208 0 00-.155-.25zM3.333 4.57a.417.417 0 100-.834.417.417 0 000 .833zM6.667 4.57a.417.417 0 100-.834.417.417 0 000 .833z" fill="#fff"/></svg><svg fill="none" viewBox="0 0 24 23" id="exit" xmlns="http://www.w3.org/2000/svg"><path d="M11.999 1v9.5M18 1.78a11 11 0 11-12-.001" stroke="#fff" stroke-width="2" stroke-linecap="round" stroke-linejoin="round"/></svg><svg fill="none" viewBox="0 0 28 28" id="filter" xmlns="http://www.w3.org/2000/svg"><path d="M26.686 0H1.314C.148 0-.44 1.415.386 2.24L10.5 12.357v11.269c0 .428.209.83.56 1.075l4.375 3.062c.863.604 2.065-.009 2.065-1.076v-14.33L27.614 2.241c.825-.825.24-2.241-.928-2.241z" fill="#E0E0E0"/></svg><svg fill="none" viewBox="0 0 9 8" id="germany" xmlns="http://www.w3.org/2000/svg"><path d="M8.528.427H.008v7.497h8.52V.427z" fill="#D80027"/><path d="M8.528.427H.008v2.499h8.52v-2.5z" fill="#000"/><path d="M8.528 5.425H.008v2.499h8.52v-2.5z" fill="#FFDA44"/></svg><svg fill="none" viewBox="0 0 11 14" id="horse" xmlns="http://www.w3.org/2000/svg"><path d="M2.32 12.11l-.003-1.19c0-.28.234-.508.525-.508h5.774c.29 0 .525.227.525.508l-.004 1.19c.747.12 1.317.749 1.317 1.506h-9.45c0-.757.57-1.386 1.316-1.505zM10.322 4.677c-.53-2.052-2.58-3.574-4.285-3.574h-.54l.783 1.696c1.324.22 2.31 1.205 2.577 2.241.424 1.646.059 2.597-.307 3.718h1.589c.339-1.051.65-2.274.183-4.081z" fill="#fff"/><path d="M5.731 6.305a1.6 1.6 0 01-.092-.042c-1.122-.543-1.846.48-1.94.534a.802.802 0 01-1.11 0l-.642-.623a.498.498 0 010-.72l1.197-1.16c0-.838.695-1.519 1.561-1.519V1.103h.792c.433 0 .783.34.783.76v.936c1.324.22 2.31 1.205 2.577 2.241.424 1.646.059 2.597-.307 3.718-.112.344-.315.914-.086 1.654h-5.4v-.11a3.822 3.822 0 011.529-2.675A3.776 3.776 0 005.73 6.305z" fill="#fff"/><path d="M5.991 12.09c0 .14-.117.255-.262.255a.258.258 0 01-.263-.255c0-.14.118-.254.263-.254.145 0 .262.114.262.254z" fill="#000"/><path d="M4.435 7.423a4.092 4.092 0 00-1.617 2.735.776.776 0 00-.764.762v.99c-.773.22-1.313.906-1.313 1.706 0 .14.118.255.263.255h9.45a.258.258 0 00.262-.255c0-.8-.54-1.486-1.313-1.706v-.99a.775.775 0 00-.735-.76 2.157 2.157 0 01.075-1.147h1.396a.262.262 0 00.251-.179c.342-1.065.667-2.357.187-4.219-.56-2.172-2.721-3.767-4.54-3.767H4.705a.258.258 0 00-.263.255v1.436c-.845.12-1.504.805-1.557 1.647L1.761 5.275a.746.746 0 000 1.08l.643.622a1.07 1.07 0 001.466.014c.165-.129.675-.85 1.493-.566-.24.386-.556.728-.928.998zm4.443 3.497v.916h-2.1a.259.259 0 00-.262.254c0 .14.117.255.262.255h2.1c.624 0 1.163.42 1.287 1.017H1.292c.123-.594.66-1.017 1.287-1.017h2.1a.259.259 0 00.262-.255.259.259 0 00-.262-.254h-2.1v-.916c0-.14.117-.254.262-.254h5.775c.145 0 .262.114.262.254zm1.19-6.182c.421 1.637.187 2.766-.123 3.766H8.908c.327-.999.603-1.976.203-3.525-.276-1.072-1.249-2.085-2.569-2.387v-.73a.984.984 0 00-.124-.478c1.51.206 3.19 1.577 3.65 3.354zM5.856 6.615c.53.137.98-.023 1.324-.188a.25.25 0 00.12-.34.266.266 0 00-.352-.116c-.415.199-.77.268-1.193.065-.482-.234-.98-.246-1.44-.036-.387.177-.62.44-.803.617a.533.533 0 01-.738 0l-.643-.623a.249.249 0 010-.36l1.198-1.16a.25.25 0 00.077-.18c0-.697.582-1.265 1.298-1.265a.258.258 0 00.262-.254V1.357h.53c.287 0 .52.227.52.506v.936c0 .124.092.23.218.25 1.218.203 2.124 1.11 2.367 2.053.392 1.52.09 2.374-.302 3.579-.155.473-.266.888-.166 1.476H3.348A3.577 3.577 0 014.75 7.83a4.066 4.066 0 001.107-1.215z" fill="#000"/><path d="M4.941 4.307h-.525a.258.258 0 00-.262.255c0 .14.117.254.262.254h.525a.258.258 0 00.263-.254.258.258 0 00-.263-.255z" fill="#000"/></svg><svg viewBox="0 0 512 512" id="info" xmlns="http://www.w3.org/2000/svg"><!--! Font Awesome Pro 6.2.1 by @fontawesome - https://fontawesome.com License - https://fontawesome.com/license (Commercial License) Copyright 2022 Fonticons, Inc.--><path d="M256 512c141.4 0 256-114.6 256-256S397.4 0 256 0 0 114.6 0 256s114.6 256 256 256zm-40-176h24v-64h-24c-13.3 0-24-10.7-24-24s10.7-24 24-24h48c13.3 0 24 10.7 24 24v88h8c13.3 0 24 10.7 24 24s-10.7 24-24 24h-80c-13.3 0-24-10.7-24-24s10.7-24 24-24zm40-144c-17.7 0-32-14.3-32-32s14.3-32 32-32 32 14.3 32 32-14.3 32-32 32z" fill="#fff"/></svg><svg fill="none" viewBox="0 0 22 30" id="light" xmlns="http://www.w3.org/2000/svg"><path d="M7 28.999l2-10-8-3 14-15-2 10 8 3-14 15z" stroke="#fff" stroke-width="2" stroke-linecap="round" stroke-linejoin="round"/></svg><svg fill="none" viewBox="0 0 62 17" id="logo" xmlns="http://www.w3.org/2000/svg"><path fill-rule="evenodd" clip-rule="evenodd" d="M11.34 13.318H4.535L3.31 16.78H.612L6.348 1.206h3.179l5.736 15.574h-2.688l-1.234-3.462zm-.786-2.24l-2.611-7.36-2.611 7.36h5.222zm12.64 5.91c-1.494 0-2.837-.326-4.032-.978a7.054 7.054 0 01-2.813-2.79c-.681-1.21-1.022-2.622-1.022-4.238 0-1.61.34-3.018 1.022-4.227a7.054 7.054 0 012.813-2.79c1.195-.652 2.538-.978 4.032-.978 1.085 0 2.097.177 3.037.53.94.353 1.76.863 2.464 1.529a6.916 6.916 0 011.633 2.386l-2.436.929a4.658 4.658 0 00-1.852-2.163c-.834-.517-1.783-.775-2.846-.775-.991 0-1.885.222-2.683.666-.797.444-1.425 1.087-1.884 1.928-.46.84-.689 1.829-.689 2.965 0 1.143.23 2.135.689 2.976.459.84 1.087 1.483 1.884 1.928.798.444 1.692.666 2.683.666 1.07 0 2.02-.257 2.851-.77a4.636 4.636 0 001.847-2.157l2.436.928a6.941 6.941 0 01-1.633 2.376 7.243 7.243 0 01-2.464 1.529c-.94.353-1.952.53-3.037.53zm23.947-.208L46.114 4.482 41.646 16.78h-1.64L35.56 4.504 34.522 16.78h-2.6l1.245-15.574h3.639l4.01 11.009 4.042-11.01h3.638l1.235 15.575h-2.59zm8.27-13.248v4.314h5.353v2.304H55.41v4.293h6.053v2.337h-8.697V1.206h8.697v2.326H55.41z" fill="#0065F2"/></svg><svg viewBox="0 0 24 27" fill="none" id="notifications" xmlns="http://www.w3.org/2000/svg"><path d="M3.025 10a8.987 8.987 0 019.043-9c4.95.037 8.908 4.15 8.908 9.113V11c0 4.477.936 7.075 1.761 8.495a1 1 0 01-.86 1.505H2.123a.999.999 0 01-.86-1.505c.825-1.42 1.762-4.018 1.762-8.495v-1zM8 21v1a4 4 0 108 0v-1" stroke="#fff" stroke-width="2" stroke-linecap="round" stroke-linejoin="round"/></svg><svg fill="none" viewBox="0 0 14 11" id="pause-player" xmlns="http://www.w3.org/2000/svg"><rect x=".594" y=".146" width="3.749" height="10.621" rx="1.25" fill="#fff"/><rect x="9.341" y=".146" width="3.749" height="10.621" rx="1.25" fill="#fff"/></svg><svg fill="none" viewBox="0 0 28 25" id="person" xmlns="http://www.w3.org/2000/svg"><path d="M14 17a8 8 0 100-16 8 8 0 000 16z" stroke="#fff" stroke-width="2" stroke-miterlimit="10"/><path d="M1.874 23.999a14.005 14.005 0 0124.253 0" stroke="#fff" stroke-width="2" stroke-linecap="round" stroke-linejoin="round"/></svg><svg fill="none" viewBox="0 0 16 16" id="play-btn" xmlns="http://www.w3.org/2000/svg"><path d="M7.75 0C3.469 0 0 3.465 0 7.741c0 4.277 3.469 7.742 7.75 7.742 4.281 0 7.75-3.465 7.75-7.742C15.5 3.465 12.031 0 7.75 0zm3.616 8.49l-5.5 3.153a.751.751 0 01-1.116-.655V4.495c0-.574.619-.93 1.116-.656l5.5 3.34a.751.751 0 010 1.312z" fill="#fff" fill-opacity=".9"/></svg><svg fill="none" viewBox="0 0 10 12" id="progress-point" xmlns="http://www.w3.org/2000/svg"><path d="M8.89 12H1.121v-1.2h7.77V12zM7.78 4.8c-.788 0-1.52.462-1.914 1.2H5.56V3h1.664V1.8H5.561V0H4.45v1.8H2.786V3h1.665v3h-.305c-.61-1.146-1.97-1.542-3.025-.876A2.39 2.39 0 00.08 6.576c-.156.614-.081 1.27.209 1.824.41.744 1.149 1.2 1.942 1.2h5.55c.588 0 1.153-.253 1.569-.703.416-.45.65-1.06.65-1.697s-.234-1.247-.65-1.697A2.139 2.139 0 007.78 4.8z" fill="#fff"/></svg><svg fill="none" viewBox="0 0 22 15" id="russia" xmlns="http://www.w3.org/2000/svg"><path d="M0 0h22v14.989H0V0z" fill="#BF0436"/><path d="M0 0h22v5.128H0V0z" fill="#fff"/><path d="M0 5.127h22v4.734H0V5.127z" fill="#1907E0"/></svg><svg fill="none" viewBox="0 0 20 20" id="search" xmlns="http://www.w3.org/2000/svg"><path d="M16.031 14.617l3.576 3.575a1 1 0 01-1.415 1.415l-3.575-3.576A8.96 8.96 0 019 18c-4.968 0-9-4.032-9-9s4.032-9 9-9 9 4.032 9 9a8.96 8.96 0 01-1.969 5.617zm-2.006-.742A6.977 6.977 0 0016 9c0-3.868-3.133-7-7-7-3.868 0-7 3.132-7 7 0 3.867 3.132 7 7 7a6.977 6.977 0 004.875-1.975l.15-.15z" fill="#7979C5"/></svg><svg fill="none" viewBox="0 0 20 20" id="search-white" xmlns="http://www.w3.org/2000/svg"><path d="M16.031 14.617l3.576 3.575a1 1 0 01-1.415 1.415l-3.575-3.576A8.96 8.96 0 019 18c-4.968 0-9-4.032-9-9s4.032-9 9-9 9 4.032 9 9a8.96 8.96 0 01-1.969 5.617zm-2.006-.742A6.977 6.977 0 0016 9c0-3.868-3.133-7-7-7-3.868 0-7 3.132-7 7 0 3.867 3.132 7 7 7a6.977 6.977 0 004.875-1.975l.15-.15z" fill="#fff"/></svg><svg fill="none" viewBox="0 0 11 11" id="send" xmlns="http://www.w3.org/2000/svg"><path d="M10.971.217a.21.21 0 00-.02-.069c-.004-.006-.005-.013-.009-.019-.002-.004-.006-.006-.009-.01a.228.228 0 00-.024-.028.22.22 0 00-.029-.024L10.87.06c-.005-.004-.012-.005-.018-.008a.224.224 0 00-.037-.015.228.228 0 00-.105-.001c-.007.002-.015.001-.022.004l-9.564 3.26a.217.217 0 00-.008.408l4.469 1.717 1.93 4.47c.035.08.114.131.2.131h.01a.218.218 0 00.197-.151L10.965.31l.003-.02a.203.203 0 00.003-.073zm-9.14 3.3L9.944.75l-4.25 4.25-3.861-1.484zm5.853 5.671L6.006 5.303 10.28 1.03 7.684 9.19z" fill="#fff"/><path d="M4.39 6.611a.217.217 0 00-.306 0L1.04 9.654a.217.217 0 10.307.308L4.39 6.919a.217.217 0 000-.308zM4.953 8.133L3.432 9.654a.217.217 0 10.307.308L5.26 8.44a.217.217 0 10-.307-.307zM1.194 7.635a.217.217 0 00.154-.064l1.521-1.522a.217.217 0 10-.307-.307L1.041 7.263a.217.217 0 00.153.372z" fill="#fff"/></svg><svg fill="none" viewBox="0 0 30 28" id="setting" xmlns="http://www.w3.org/2000/svg"><path d="M5.538 9.45c.225-.475.487-.925.787-1.363l-.05-3.25c0-.3.125-.587.363-.787a12.968 12.968 0 013.95-2.288c.287-.1.6-.075.85.088l2.787 1.675a11.04 11.04 0 011.575 0l2.788-1.675c.262-.15.575-.188.862-.088a12.904 12.904 0 013.95 2.275.991.991 0 01.35.788l-.05 3.25c.3.437.563.887.788 1.362l2.837 1.575c.263.15.45.4.5.7a12.94 12.94 0 010 4.55c-.05.3-.237.55-.5.7l-2.837 1.575A9.879 9.879 0 0123.7 19.9l.05 3.25c0 .3-.125.587-.362.787a12.968 12.968 0 01-3.95 2.288c-.288.1-.6.075-.85-.088L15.8 24.462a11.04 11.04 0 01-1.575 0l-2.787 1.675c-.263.15-.575.188-.863.088a12.904 12.904 0 01-3.95-2.275.991.991 0 01-.35-.788l.05-3.25a9.879 9.879 0 01-.787-1.362L2.7 16.975a.997.997 0 01-.5-.7 12.94 12.94 0 010-4.55c.05-.3.238-.55.5-.7L5.538 9.45z" stroke="#fff" stroke-width="2" stroke-miterlimit="10" stroke-linecap="round" stroke-linejoin="round"/><path d="M15 20a6 6 0 100-12 6 6 0 000 12z" stroke="#fff" stroke-width="2" stroke-miterlimit="10" stroke-linecap="round" stroke-linejoin="round"/></svg><svg class="azionicon" viewBox="0 0 512 512" id="signup" xmlns="http://www.w3.org/2000/svg"><path d="M192 176v-40a40 40 0 0140-40h160a40 40 0 0140 40v240a40 40 0 01-40 40H240c-22.09 0-48-17.91-48-40v-40" fill="none" stroke="#fff" stroke-linecap="round" stroke-linejoin="round" stroke-width="32"/><path fill="none" stroke="#fff" stroke-linecap="round" stroke-linejoin="round" stroke-width="32" d="M288 336l80-80-80-80M80 256h272"/></svg><svg fill="none" viewBox="0 0 24 24" id="star" xmlns="http://www.w3.org/2000/svg"><path d="M9.268 5.672C10.483 3.49 11.09 2.4 12 2.4c.909 0 1.516 1.09 2.733 3.272l.315.564c.345.62.518.93.787 1.135.269.204.605.28 1.277.432l.61.138c2.362.535 3.542.802 3.823 1.705.28.902-.524 1.844-2.134 3.727l-.417.487c-.457.534-.686.802-.789 1.132-.103.331-.068.689.001 1.402l.063.65c.243 2.512.365 3.768-.37 4.326-.735.558-1.841.049-4.051-.969l-.574-.263c-.627-.29-.941-.434-1.274-.434-.333 0-.647.144-1.276.434l-.571.263c-2.211 1.018-3.317 1.526-4.052.97-.736-.56-.614-1.815-.371-4.327l.063-.65c.07-.713.104-1.07 0-1.4-.102-.332-.331-.6-.788-1.133l-.417-.488c-1.61-1.882-2.414-2.824-2.134-3.727.282-.903 1.462-1.171 3.824-1.705l.61-.138c.672-.152 1.007-.228 1.276-.432.27-.205.442-.515.788-1.135l.315-.564z" stroke="#fff" stroke-width="1.5"/></svg><svg fill="none" viewBox="0 0 28 28" id="telegram" xmlns="http://www.w3.org/2000/svg"><path d="M14 2.333C7.56 2.333 2.334 7.56 2.334 14c0 6.44 5.226 11.667 11.666 11.667S25.667 20.44 25.667 14C25.667 7.56 20.44 2.333 14 2.333zm5.413 7.934c-.175 1.843-.933 6.323-1.318 8.388-.163.875-.49 1.167-.793 1.202-.677.058-1.19-.444-1.843-.875-1.027-.677-1.61-1.097-2.602-1.75-1.155-.759-.409-1.179.257-1.855.175-.175 3.161-2.894 3.22-3.139a.234.234 0 00-.059-.21c-.07-.058-.163-.035-.245-.023-.105.023-1.738 1.108-4.923 3.255-.467.315-.887.478-1.26.467-.42-.012-1.213-.234-1.808-.432-.736-.233-1.307-.362-1.26-.77.023-.21.314-.42.863-.642 3.407-1.481 5.67-2.461 6.801-2.928 3.244-1.353 3.909-1.587 4.352-1.587.093 0 .315.024.455.14a.464.464 0 01.163.315c-.011.07.012.28 0 .444z" fill="#0065F2"/></svg><svg fill="none" viewBox="0 0 28 28" id="vk" xmlns="http://www.w3.org/2000/svg"><path d="M17.585 2.333h-7.158c-6.538 0-8.093 1.556-8.093 8.082v7.159c0 6.536 1.543 8.093 8.081 8.093h7.159c6.536 0 8.093-1.544 8.093-8.082v-7.159c0-6.537-1.544-8.093-8.082-8.093zm3.585 16.649h-1.702c-.644 0-.837-.522-1.992-1.677-1.008-.972-1.434-1.093-1.69-1.093-.352 0-.449.097-.449.583v1.531c0 .414-.134.657-1.216.657a6.64 6.64 0 01-5.189-3.112 13.563 13.563 0 01-2.686-5.638c0-.256.097-.487.584-.487h1.7c.438 0 .596.195.767.644.826 2.432 2.236 4.546 2.807 4.546.22 0 .315-.097.315-.644v-2.504c-.072-1.142-.679-1.239-.679-1.652a.42.42 0 01.437-.39h2.674c.365 0 .486.182.486.62v3.379c0 .365.158.486.267.486.22 0 .389-.121.79-.523a13.997 13.997 0 002.09-3.476.732.732 0 01.742-.486h1.702c.51 0 .618.256.51.62a21.243 21.243 0 01-2.285 3.926c-.183.28-.256.425 0 .753.17.256.766.754 1.167 1.228a7.567 7.567 0 011.434 1.992c.146.474-.098.717-.584.717z" fill="#0065F2"/></svg></svg>