<svg width="147" height="137" viewBox="0 0 147 137" fill="none" xmlns="http://www.w3.org/2000/svg">
<g opacity="0.57">
<path opacity="0.2" d="M98.738 54.5513L104.36 57.7955L104.21 112.556L98.5876 109.312L98.738 54.5513ZM103.263 110.664L103.353 78.8677L99.6249 76.7199L99.5347 108.516L103.263 110.664Z" fill="#31E2FF"/>
<path d="M103.353 78.8526L103.263 110.664L99.5347 108.501L99.6249 76.7048L103.353 78.8526Z" fill="#31E2FF"/>
<path d="M111.455 99.4593L111.41 115.32L107.682 113.157L107.727 97.3115L111.455 99.4593Z" fill="#31E2FF"/>
<path opacity="0.2" d="M106.885 59.2522L112.508 62.4964L112.357 117.257L106.735 114.013L106.885 59.2522ZM111.41 115.32L111.455 99.4591L107.727 97.3113L107.682 113.172L111.41 115.32Z" fill="#31E2FF"/>
<path opacity="0.2" d="M115.048 63.9534L120.67 67.1975L120.52 121.958L114.898 118.714L115.048 63.9534ZM119.558 120.021L119.693 74.9325L115.965 72.7847L115.83 117.873L119.558 120.021Z" fill="#31E2FF"/>
<path d="M119.693 74.9326L119.558 120.021L115.83 117.858L115.965 72.7698L119.693 74.9326Z" fill="#31E2FF"/>
<path d="M127.795 100.405L127.72 124.767L123.992 122.619L124.052 98.2576L127.795 100.405Z" fill="#31E2FF"/>
<path opacity="0.2" d="M123.195 68.6543L128.818 71.8985L128.667 126.659L123.045 123.415L123.195 68.6543ZM127.72 124.767L127.795 100.405L124.067 98.2575L123.992 122.619L127.72 124.767Z" fill="#31E2FF"/>
<path d="M135.883 124.151L135.868 129.468L132.14 127.32L132.155 122.003L135.883 124.151Z" fill="#31E2FF"/>
<path opacity="0.2" d="M131.343 73.3555L136.965 76.5997L136.815 131.36L131.193 128.116L131.343 73.3555ZM135.868 129.468L135.883 124.151L132.155 122.003L132.14 127.32L135.868 129.468Z" fill="#31E2FF"/>
<path d="M93.1609 51.337V53.3947L87.8695 50.3458L87.8846 48.2881L93.1609 51.337Z" fill="#31E2FF"/>
<path d="M93.1308 64.5241V66.5818L87.8395 63.5329V61.4602L93.1308 64.5241Z" fill="#31E2FF"/>
<path d="M93.0858 77.6962V79.7538L87.7944 76.7049L87.8094 74.6472L93.0858 77.6962Z" fill="#31E2FF"/>
<path d="M93.0557 90.868V92.9407L87.7643 89.8767V87.8191L93.0557 90.868Z" fill="#31E2FF"/>
<path d="M93.0257 104.04L93.0106 106.098L87.7192 103.049L87.7343 100.991L93.0257 104.04Z" fill="#31E2FF"/>
<path d="M146.406 82.0516V84.1093L141.129 81.0603V79.0027L146.406 82.0516Z" fill="#31E2FF"/>
<path d="M146.375 95.2236L146.36 97.2813L141.084 94.2473V92.1897L146.375 95.2236Z" fill="#31E2FF"/>
<path d="M146.33 108.411V110.468L141.054 107.42V105.362L146.33 108.411Z" fill="#31E2FF"/>
<path d="M146.3 121.568L146.285 123.64L141.009 120.606V118.534L146.3 121.568Z" fill="#31E2FF"/>
<path d="M146.255 134.755V136.812L140.979 133.763V131.706L146.255 134.755Z" fill="#31E2FF"/>
<path d="M14.5117 12.2265C15.1731 12.602 15.7143 13.5332 15.7143 14.2992L15.6842 25.1581C15.6842 25.9241 15.1431 26.2245 14.4816 25.849C13.8202 25.4735 13.2791 24.5424 13.2791 23.7764L13.3091 12.9173C13.3091 12.1514 13.8503 11.851 14.5117 12.2265Z" fill="#31E2FF"/>
<path opacity="0.5216" d="M14.5267 6.44406C15.594 7.05985 16.4509 8.54677 16.4509 9.77836L16.3156 59.1171C16.3156 60.3336 15.4437 60.8293 14.3764 60.2135C13.3091 59.5977 12.4523 58.1107 12.4523 56.8792L12.5876 7.54049C12.6026 6.32392 13.4745 5.82826 14.5267 6.44406ZM15.6842 25.1432L15.7143 14.2842C15.7143 13.5182 15.1882 12.602 14.5117 12.2115C13.8503 11.836 13.3091 12.1364 13.3091 12.9024L13.2791 23.7614C13.2791 24.5274 13.8202 25.4436 14.4816 25.8341C15.1431 26.2096 15.6842 25.9092 15.6842 25.1432Z" fill="#31E2FF"/>
<path opacity="0.2" d="M14.5418 5.03236C16.1503 5.96356 17.443 8.20145 17.443 10.0488L17.3078 59.9583C17.3078 61.8057 15.9999 62.5416 14.3915 61.6254C12.783 60.6942 11.4902 58.4563 11.4902 56.6089L11.6255 6.69949C11.6255 4.85211 12.9333 4.10116 14.5418 5.03236ZM16.3156 59.1022L16.4509 9.76346C16.4509 8.54689 15.5941 7.04495 14.5268 6.42915C13.4595 5.81336 12.5876 6.30901 12.5876 7.52558L12.4523 56.8643C12.4523 58.0809 13.3091 59.5828 14.3764 60.1986C15.4437 60.8144 16.3156 60.3187 16.3156 59.1022Z" fill="#31E2FF"/>
<path d="M22.8998 26.57C23.5612 26.9455 24.1023 27.8767 24.1023 28.6427L24.0723 39.5017C24.0723 40.2677 23.5311 40.5681 22.8697 40.1926C22.2083 39.8171 21.6671 38.8859 21.6671 38.1199L21.6972 27.2609C21.7122 26.4949 22.2383 26.1795 22.8998 26.57Z" fill="#31E2FF"/>
<path opacity="0.5216" d="M22.945 11.2954C24.0122 11.9112 24.8691 13.3981 24.8691 14.6296L24.7338 63.9683C24.7338 65.1849 23.8619 65.6806 22.7946 65.0648C21.7273 64.449 20.8705 62.9621 20.8705 61.7305L21.0058 12.3918C21.0208 11.1752 21.8927 10.6796 22.945 11.2954ZM24.0724 39.4868L24.1024 28.6277C24.1024 27.8617 23.5763 26.9455 22.8998 26.555C22.2384 26.1796 21.6973 26.48 21.6973 27.246L21.6672 38.105C21.6672 38.8709 22.1933 39.7871 22.8698 40.1776C23.5312 40.5531 24.0724 40.2528 24.0724 39.4868Z" fill="#31E2FF"/>
<path opacity="0.2" d="M22.9599 9.88343C24.5683 10.8146 25.8611 13.0525 25.8611 14.8999L25.7258 64.8093C25.7258 66.6567 24.418 67.3927 22.8096 66.4765C21.2011 65.5453 19.9083 63.3074 19.9083 61.46L20.0436 11.5506C20.0436 9.70318 21.3514 8.96725 22.9599 9.88343ZM24.7337 63.9532L24.869 14.6145C24.869 13.398 24.0122 11.896 22.9449 11.2802C21.8776 10.6644 21.0057 11.16 21.0057 12.3766L20.8704 61.7153C20.8704 62.9319 21.7272 64.4338 22.7945 65.0496C23.8618 65.6654 24.7337 65.1848 24.7337 63.9532Z" fill="#31E2FF"/>
<path d="M31.3029 37.2939C31.9643 37.6694 32.5054 38.5855 32.5054 39.3665L32.4754 50.2256C32.4754 50.9916 31.9342 51.2919 31.2728 50.9164C30.6114 50.541 30.0702 49.6098 30.0702 48.8438L30.1003 37.9848C30.1003 37.2038 30.6414 36.9184 31.3029 37.2939Z" fill="#31E2FF"/>
<path opacity="0.2" d="M31.378 14.7347C32.9865 15.6659 34.2792 17.9038 34.2792 19.7512L34.1289 69.6606C34.1289 71.508 32.8211 72.259 31.2127 71.3278C29.6042 70.3966 28.3114 68.1587 28.3114 66.3113L28.4467 16.4019C28.4617 14.5695 29.7696 13.8186 31.378 14.7347ZM33.1518 68.8045L33.2871 19.4658C33.2871 18.2493 32.4303 16.7473 31.363 16.1315C30.2957 15.5157 29.4238 16.0114 29.4238 17.228L29.2885 66.5667C29.2885 67.7832 30.1454 69.2852 31.2127 69.901C32.2799 70.5318 33.1518 70.0361 33.1518 68.8045Z" fill="#31E2FF"/>
<path opacity="0.5216" d="M31.363 16.1467C32.4303 16.7625 33.2872 18.2494 33.2872 19.481L33.1519 68.8197C33.1519 70.0363 32.28 70.5319 31.2127 69.9161C30.1454 69.3003 29.2886 67.8134 29.2886 66.5818L29.4239 17.2431C29.4389 16.0266 30.2957 15.5309 31.363 16.1467ZM32.4754 50.2257L32.5055 39.3667C32.5055 38.6007 31.9643 37.6845 31.3029 37.294C30.6415 36.9185 30.1003 37.2039 30.1003 37.9849L30.0703 48.8439C30.0703 49.6099 30.5964 50.5261 31.2729 50.9166C31.9343 51.2921 32.4754 50.9767 32.4754 50.2257Z" fill="#31E2FF"/>
<path opacity="0.2" d="M39.7811 19.6012C41.3895 20.5324 42.6823 22.7703 42.6823 24.6177L42.547 74.5271C42.547 76.3745 41.2392 77.1255 39.6307 76.1943C38.0223 75.2631 36.7295 73.0252 36.7445 71.1778L36.8798 21.2683C36.8798 19.421 38.1876 18.67 39.7811 19.6012ZM41.5699 73.671L41.7052 24.3323C41.7052 23.1157 40.8483 21.6138 39.7811 20.998C38.7138 20.3822 37.8569 20.8778 37.8569 22.1094L37.7216 71.4481C37.7216 72.6647 38.5634 74.1516 39.6307 74.7674C40.698 75.3832 41.5699 74.8876 41.5699 73.671Z" fill="#31E2FF"/>
<path d="M39.7511 34.2749C40.4276 34.6654 40.9537 35.5966 40.9537 36.3476L40.9236 47.2066C40.9236 47.9726 40.3825 48.273 39.706 47.8825C39.0446 47.507 38.5034 46.5758 38.5034 45.8098L38.5335 34.9508C38.5485 34.1999 39.0897 33.8844 39.7511 34.2749Z" fill="#31E2FF"/>
<path opacity="0.5216" d="M39.7811 21.013C40.8484 21.6288 41.7052 23.1157 41.7052 24.3473L41.5699 73.686C41.5699 74.9026 40.698 75.3983 39.6307 74.7825C38.5634 74.1667 37.7066 72.6798 37.7216 71.4632L37.8569 22.1245C37.8569 20.8929 38.7138 20.3972 39.7811 21.013ZM40.9235 47.2068L40.9536 36.3478C40.9536 35.5819 40.4275 34.6657 39.751 34.2752C39.0896 33.8997 38.5484 34.2001 38.5484 34.966L38.5184 45.8251C38.5184 46.5911 39.0445 47.5073 39.7209 47.8978C40.3824 48.2732 40.9235 47.9578 40.9235 47.2068Z" fill="#31E2FF"/>
<path d="M48.139 47.0114C48.8005 47.3869 49.3416 48.3031 49.3416 49.0841L49.3116 59.9431C49.3116 60.7091 48.7704 61.0095 48.109 60.634C47.4475 60.2585 46.9064 59.3273 46.9064 58.5613L46.9364 47.7023C46.9364 46.9213 47.4776 46.6209 48.139 47.0114Z" fill="#31E2FF"/>
<path opacity="0.5216" d="M48.2142 25.8642C49.2815 26.48 50.1384 27.9669 50.1384 29.1985L50.0031 78.5372C50.0031 79.7538 49.1312 80.2495 48.0639 79.6337C46.9966 79.0179 46.1398 77.531 46.1398 76.2994L46.2751 26.9607C46.2751 25.7441 47.1469 25.2484 48.2142 25.8642ZM49.3116 59.9282L49.3417 49.0692C49.3417 48.3032 48.8005 47.387 48.1391 46.9965C47.4777 46.621 46.9365 46.9064 46.9365 47.6874L46.9064 58.5464C46.9064 59.3124 47.4325 60.2286 48.109 60.6191C48.7704 60.9946 49.3116 60.6942 49.3116 59.9282Z" fill="#31E2FF"/>
<path opacity="0.2" d="M48.2143 24.4523C49.8227 25.3835 51.1155 27.6214 51.1005 29.4687L50.9652 79.3782C50.9652 81.2256 49.6574 81.9765 48.0639 81.0453C46.4555 80.1141 45.1627 77.8762 45.1627 76.0289L45.298 26.1194C45.298 24.2721 46.6058 23.5211 48.2143 24.4523ZM49.9881 78.5221L50.1234 29.1834C50.1234 27.9668 49.2665 26.4649 48.1992 25.8491C47.1319 25.2333 46.2601 25.7289 46.2601 26.9455L46.1248 76.2842C46.1248 77.5008 46.9816 79.0027 48.0489 79.6185C49.1313 80.2493 49.9881 79.7537 49.9881 78.5221Z" fill="#31E2FF"/>
<path d="M5.05637 3.18491C5.50734 3.44024 5.86812 4.05607 5.85308 4.58175C5.85308 5.09241 5.49232 5.30267 5.04135 5.04734L1.2081 2.82446C0.757128 2.56913 0.396362 1.95334 0.396362 1.42766C0.396362 0.917005 0.757128 0.706706 1.2081 0.977055L5.05637 3.18491Z" fill="#31E2FF"/>
<path d="M5.02634 15.0653C5.47731 15.3206 5.83811 15.9514 5.82308 16.4621C5.82308 16.9877 5.46229 17.1981 5.01132 16.9277L1.17807 14.7199C0.727099 14.4645 0.366333 13.8337 0.366333 13.308C0.366333 12.7974 0.727099 12.5871 1.17807 12.8574L5.02634 15.0653Z" fill="#31E2FF"/>
<path d="M4.9813 26.9305C5.43227 27.1858 5.79304 27.8167 5.77801 28.3274C5.77801 28.838 5.41724 29.0633 4.96627 28.7929L1.13302 26.5851C0.682055 26.3298 0.321289 25.6989 0.321289 25.1733C0.321289 24.6626 0.682055 24.4523 1.13302 24.7227L4.9813 26.9305Z" fill="#31E2FF"/>
<path opacity="0.4" d="M4.95117 38.7958C5.40214 39.0511 5.76291 39.6819 5.74788 40.1926C5.74788 40.7032 5.38709 40.9135 4.93612 40.6582L1.10287 38.4503C0.651904 38.195 0.291138 37.5642 0.291138 37.0535C0.291138 36.5429 0.651904 36.3326 1.10287 36.5879L4.95117 38.7958Z" fill="#31E2FF"/>
<path opacity="0.4" d="M4.92114 50.6611C5.37211 50.9164 5.73289 51.5472 5.71785 52.0579C5.71785 52.5685 5.35709 52.7788 4.90612 52.5235L1.07287 50.3156C0.621897 50.0603 0.261108 49.4295 0.261108 48.9188C0.261108 48.3931 0.621897 48.1979 1.07287 48.4532L4.92114 50.6611Z" fill="#31E2FF"/>
<path d="M60.0597 34.9209C60.4956 35.1762 60.8714 35.792 60.8564 36.3177C60.8564 36.8283 60.4956 37.0386 60.0447 36.7832L56.2114 34.5754C55.7604 34.3201 55.3997 33.7043 55.3997 33.1786C55.3997 32.6679 55.7604 32.4577 56.2114 32.728L60.0597 34.9209Z" fill="#31E2FF"/>
<path opacity="0.4" d="M60.0297 46.7862C60.4656 47.0416 60.8414 47.6724 60.8264 48.1831C60.8264 48.7087 60.4656 48.904 60.0146 48.6487L56.1814 46.4408C55.7304 46.1855 55.3696 45.5547 55.3696 45.029C55.3696 44.5183 55.7304 44.308 56.1814 44.5784L60.0297 46.7862Z" fill="#31E2FF"/>
<path d="M59.9846 58.6515C60.4206 58.9068 60.7964 59.5376 60.7813 60.0483C60.7813 60.5589 60.4205 60.7692 59.9696 60.5139L56.1363 58.306C55.6854 58.0507 55.3246 57.4199 55.3246 56.8942C55.3246 56.3835 55.6854 56.1733 56.1363 56.4436L59.9846 58.6515Z" fill="#31E2FF"/>
<path d="M59.9544 70.5167C60.3904 70.7721 60.7662 71.4029 60.7512 71.9135C60.7512 72.4242 60.3904 72.6345 59.9394 72.3791L56.1062 70.1713C55.6552 69.916 55.2944 69.2851 55.2944 68.7745C55.2944 68.2638 55.6552 68.0536 56.1062 68.3089L59.9544 70.5167Z" fill="#31E2FF"/>
<path d="M59.9244 82.3971C60.3604 82.6525 60.7362 83.2833 60.7211 83.7939C60.7211 84.3046 60.3603 84.5149 59.9094 84.2595L56.0761 82.0517C55.6252 81.7964 55.2644 81.1656 55.2644 80.6549C55.2644 80.1292 55.6252 79.934 56.0761 80.1893L59.9244 82.3971Z" fill="#31E2FF"/>
</g>
</svg>
