<svg width="181" height="224" viewBox="0 0 181 224" fill="none" xmlns="http://www.w3.org/2000/svg">
<g opacity="0.36">
<path d="M109.767 114.138C111.105 114.904 112.172 116.767 112.172 118.284L111.872 222.113C111.872 223.63 110.789 224.245 109.452 223.479L2.6619 161.87C1.33905 161.104 0.256729 159.242 0.271761 157.725L0.572426 53.8955C0.572426 52.3786 1.65472 51.7628 2.97756 52.5287L109.767 114.138Z" fill="url(#paint0_linear_595_1518)"/>
</g>
<path opacity="0.6784" d="M29.5848 142.84L29.5698 146.055L27.1196 146.19C26.8941 145.604 26.7738 145.003 26.7738 144.448C26.7888 142.675 28.0365 141.954 29.5848 142.84Z" fill="#12D2FF"/>
<path d="M29.5849 141.188V142.84C28.0365 141.954 26.7889 142.675 26.7889 144.447C26.7889 145.003 26.9091 145.604 27.1346 146.19L25.8719 146.25C25.5412 145.364 25.3458 144.462 25.3608 143.606C25.3458 140.933 27.2549 139.852 29.5849 141.188Z" fill="#12D2FF"/>
<path opacity="0.2" d="M29.5699 149.269C28.5176 148.653 27.5856 147.452 27.1196 146.19L29.5699 146.055L29.5849 142.841C31.1332 143.727 32.3809 145.89 32.3809 147.677C32.3659 149.434 31.1032 150.155 29.5699 149.269Z" fill="#12D2FF"/>
<path d="M29.5848 141.188C31.6743 142.39 33.4181 145.153 33.7488 147.632L33.0874 147.256C32.6966 147.031 32.3658 147.211 32.3658 147.662C32.3658 148.112 32.6815 148.668 33.0874 148.893L33.7488 149.269C33.403 151.356 31.6443 152.107 29.5698 150.906C27.9764 149.99 26.5784 148.157 25.8568 146.235L27.1196 146.175C27.5856 147.436 28.5175 148.653 29.5698 149.254C31.1031 150.14 32.3658 149.419 32.3658 147.662C32.3658 145.889 31.1181 143.726 29.5848 142.84V141.188Z" fill="#12D2FF"/>
<path opacity="0.2" d="M29.5702 150.921C31.6597 152.123 33.4035 151.387 33.7492 149.284L42.017 154.045C41.6261 161.345 36.1845 164.183 29.5402 160.338C24.835 157.62 20.7463 152.258 18.6417 146.611L25.8723 146.235C26.5638 148.173 27.9618 150.005 29.5702 150.921Z" fill="#12D2FF"/>
<path opacity="0.6" d="M14.1467 137.163C14.1768 127.386 21.1067 123.435 29.63 128.347L29.615 131.756C22.7302 127.791 17.1381 130.975 17.1231 138.875C17.1231 141.369 17.6643 144.027 18.6414 146.64L16.0408 146.776C14.8081 143.546 14.1317 140.242 14.1467 137.163Z" fill="#12D2FF"/>
<path opacity="0.2" d="M33.7489 147.647C33.4182 145.153 31.6745 142.405 29.585 141.203L29.6 131.756C36.2443 135.586 41.6559 144.688 42.0017 152.423L33.7489 147.647Z" fill="#12D2FF"/>
<path opacity="0.6784" d="M29.6149 131.741L29.5849 141.188C27.2549 139.852 25.3458 140.933 25.3308 143.607C25.3308 144.448 25.5111 145.364 25.8418 146.25L18.6113 146.625C17.6342 144.027 17.093 141.354 17.093 138.86C17.1381 130.96 22.7301 127.776 29.6149 131.741Z" fill="#12D2FF"/>
<path d="M29.5248 163.778C37.7926 168.554 44.5872 164.949 44.9781 155.772L45.6996 156.193C45.2937 165.82 38.1835 169.605 29.5098 164.604C23.4067 161.089 18.1003 154.12 15.3644 146.806L15.9957 146.776C18.6264 153.76 23.7073 160.413 29.5248 163.778Z" fill="#12D2FF"/>
<path d="M29.63 127.506V128.332C21.1217 123.42 14.1768 127.386 14.1467 137.148C14.1317 140.227 14.8232 143.531 16.0258 146.761L15.3944 146.791C14.1317 143.411 13.4252 139.957 13.4252 136.728C13.4402 126.514 20.7159 122.384 29.63 127.506Z" fill="#12D2FF"/>
<path opacity="0.6" d="M12.2977 136.097C12.3278 125.223 20.1446 120.762 29.63 126.229V127.521C20.7158 122.384 13.4552 126.514 13.4251 136.743C13.4101 139.972 14.1317 143.426 15.3944 146.806L14.4173 146.851C13.0042 143.126 12.2827 139.431 12.2977 136.097Z" fill="#12D2FF"/>
<path d="M44.9931 154.12C44.6473 144.508 37.8978 133.108 29.63 128.332V127.506C38.3037 132.507 45.3688 144.478 45.7296 154.541L44.9931 154.12Z" fill="#12D2FF"/>
<path d="M59.6796 162.606C60.0854 162.831 60.4011 163.387 60.4011 163.853C60.4011 164.303 60.0704 164.499 59.6796 164.258L45.7146 156.208L44.993 155.787L42.0166 154.075L33.7488 149.314L33.0874 148.938C32.6966 148.713 32.3658 148.157 32.3658 147.707C32.3658 147.256 32.6966 147.061 33.0874 147.301L33.7488 147.677L42.0166 152.438L44.993 154.15L45.7146 154.571L59.6796 162.606Z" fill="#12D2FF"/>
<path d="M67.6618 169.53L68.2781 169.89V171.287L67.6618 170.927V172.549L66.384 171.813V170.191L63.3926 168.464V167.067L66.384 163.702L67.6918 164.453L67.6618 169.53ZM66.384 168.794L66.399 166.151L64.8207 167.893L66.384 168.794Z" fill="#12D2FF"/>
<path d="M49.7733 117.923C50.1642 118.149 50.4949 118.704 50.4949 119.17C50.4949 119.62 50.1642 119.816 49.7733 119.575L49.0668 119.17L24.1432 104.796C23.7524 104.571 23.4216 104.015 23.4216 103.565C23.4216 103.099 23.7524 102.919 24.1432 103.144L49.0668 117.518L49.7733 117.923Z" fill="#12D2FF"/>
<path d="M81.8373 130.585V132.913L78.0793 130.75L77.5982 132.883C77.7335 132.913 77.8538 132.958 77.974 133.003C78.1093 133.063 78.2296 133.123 78.3348 133.183C79.372 133.784 80.2439 134.685 80.9354 135.901C81.6269 137.118 81.9576 138.365 81.9576 139.641C81.9576 140.933 81.5668 141.789 80.8001 142.24C80.0335 142.675 79.1014 142.585 78.0041 141.954C77.027 141.384 76.1852 140.572 75.4787 139.536C74.7721 138.485 74.3212 137.343 74.0957 136.097L76.3956 137.418C76.576 137.929 76.8015 138.38 77.0871 138.755C77.3727 139.146 77.6884 139.431 78.0492 139.626C78.5302 139.912 78.9511 139.942 79.2969 139.746C79.6276 139.536 79.808 139.116 79.808 138.5C79.808 137.884 79.6577 137.298 79.342 136.713C79.0263 136.142 78.6505 135.721 78.1995 135.466C77.959 135.331 77.7185 135.256 77.493 135.271C77.2675 135.271 77.027 135.346 76.8015 135.496L75.0127 134.009L76.4257 127.476L81.8373 130.585Z" fill="#12D2FF"/>
<path d="M97.516 149.344C97.7114 149.464 97.9219 149.554 98.1023 149.614C96.7644 163.041 86.2568 168.103 73.5695 160.774C60.2509 153.084 49.3975 134.595 49.0668 119.185L49.7733 119.59C50.1641 119.816 50.4949 119.635 50.4949 119.185C50.4498 133.844 60.807 151.762 73.5845 159.121C85.5051 166 95.3814 161.284 96.6742 148.698C96.9297 148.953 97.2154 149.164 97.516 149.344Z" fill="#12D2FF"/>
<path opacity="0.2" d="M73.7048 110.323C84.3928 116.481 93.0213 131.426 92.9762 143.697C92.9462 155.952 84.2575 160.894 73.5695 154.736C62.8815 148.578 54.2529 133.649 54.298 121.378C54.3281 109.107 63.0168 104.15 73.7048 110.323ZM72.0362 137.253C72.8028 136.878 73.1786 136.082 73.1786 134.895C73.1786 134.084 72.9832 133.273 72.5924 132.447C72.2016 131.621 71.6604 130.9 70.9538 130.239C71.48 130.254 71.8859 130.089 72.1715 129.774C72.4571 129.458 72.5924 128.993 72.5924 128.407C72.5924 127.461 72.2767 126.454 71.6303 125.403C70.9989 124.352 70.2023 123.54 69.2552 123C68.203 122.384 67.316 122.294 66.6095 122.729C66.1134 123.03 65.7978 123.646 65.6775 124.547L67.782 125.763C67.8873 125.478 68.0526 125.283 68.3082 125.223C68.5637 125.148 68.8493 125.208 69.165 125.388C69.5108 125.598 69.7964 125.868 70.0218 126.244C70.2473 126.619 70.3525 126.965 70.3525 127.325C70.3525 127.596 70.2774 127.821 70.1271 127.986C69.9918 128.151 69.7813 128.227 69.5258 128.212C69.2702 128.212 68.8794 128.076 68.3533 127.821V129.969C69.2101 130.479 69.8565 131.065 70.3225 131.741C70.7735 132.417 70.9989 133.048 70.9989 133.649C70.9989 134.189 70.8336 134.565 70.5029 134.745C70.1571 134.925 69.7362 134.865 69.2251 134.58C68.7291 134.294 68.3382 133.889 68.0075 133.378C67.6918 132.868 67.4814 132.237 67.3912 131.501L65.2265 130.254C65.2866 131.621 65.6775 132.898 66.369 134.084C67.0605 135.271 67.9774 136.172 69.0898 136.818C70.2924 137.493 71.2695 137.644 72.0362 137.253ZM80.8151 142.24C81.5817 141.789 81.9575 140.933 81.9726 139.641C81.9726 138.365 81.6268 137.118 80.9504 135.901C80.2589 134.685 79.402 133.784 78.3498 133.183C78.2295 133.123 78.1093 133.048 77.989 133.003C77.8687 132.958 77.7334 132.913 77.6132 132.883L78.0942 130.75L81.8523 132.913V130.585L76.4557 127.476L75.0426 134.009L76.8315 135.496C77.057 135.361 77.2825 135.286 77.523 135.271C77.7485 135.271 77.989 135.331 78.2295 135.466C78.6805 135.721 79.0563 136.142 79.3719 136.713C79.6876 137.298 79.8379 137.884 79.8379 138.5C79.8379 139.131 79.6576 139.536 79.3269 139.746C78.9811 139.942 78.5753 139.912 78.0792 139.626C77.7334 139.431 77.4177 139.146 77.1171 138.755C76.8315 138.38 76.591 137.929 76.4256 137.418L74.1257 136.097C74.3361 137.328 74.8021 138.485 75.5086 139.536C76.2001 140.572 77.057 141.384 78.0341 141.954C79.1164 142.585 80.0334 142.675 80.8151 142.24Z" fill="#12D2FF"/>
<path d="M96.6742 142.931C95.5468 129.894 86.9934 115.1 76.2302 107.545C76.3204 107.289 76.3806 106.989 76.3806 106.644C76.3806 106.418 76.3655 106.178 76.3204 105.938C87.8202 113.958 96.9598 129.774 98.1323 143.666C97.9369 143.501 97.7415 143.366 97.5461 143.246C97.2304 143.081 96.9448 142.976 96.6742 142.931Z" fill="#12D2FF"/>
<path d="M69.2852 123.015C70.2323 123.555 71.0139 124.367 71.6603 125.418C72.2917 126.484 72.6224 127.476 72.6224 128.422C72.6224 129.008 72.4721 129.473 72.2015 129.789C71.9159 130.104 71.51 130.269 70.9839 130.254C71.6904 130.9 72.2316 131.636 72.6224 132.462C73.0132 133.288 73.2086 134.099 73.2086 134.91C73.2086 136.097 72.8178 136.893 72.0662 137.268C71.2996 137.644 70.3225 137.508 69.1499 136.818C68.0375 136.172 67.1356 135.271 66.4291 134.084C65.7226 132.898 65.3468 131.621 65.2866 130.254L67.4513 131.501C67.5415 132.237 67.7519 132.868 68.0676 133.378C68.3833 133.904 68.7892 134.294 69.2852 134.58C69.7963 134.88 70.2172 134.925 70.563 134.745C70.8937 134.565 71.059 134.189 71.059 133.649C71.059 133.048 70.8336 132.417 70.3826 131.741C69.9316 131.065 69.2702 130.479 68.4134 129.969V127.821C68.9395 128.076 69.3303 128.212 69.5859 128.212C69.8414 128.227 70.0519 128.151 70.1872 127.986C70.3375 127.821 70.4127 127.596 70.4127 127.325C70.4127 126.965 70.3074 126.604 70.0819 126.244C69.8565 125.883 69.5708 125.598 69.2251 125.388C68.9094 125.208 68.6238 125.148 68.3682 125.223C68.1127 125.298 67.9474 125.478 67.8421 125.763L65.7376 124.547C65.8428 123.646 66.1585 123.03 66.6696 122.729C67.3461 122.309 68.233 122.399 69.2852 123.015Z" fill="#12D2FF"/>
<path d="M71.2094 104.646C59.6195 99.4044 50.5249 105.487 50.4949 119.17C50.4949 118.704 50.1792 118.149 49.7733 117.923L49.0668 117.518C49.4726 103.535 59.0182 97.4218 71.1343 102.949C71.0892 103.144 71.0741 103.355 71.0741 103.58C71.0591 103.925 71.1192 104.286 71.2094 104.646Z" fill="#12D2FF"/>
<path d="M19.2877 98.1878C20.7308 99.0138 21.8883 101.026 21.8883 102.679C21.8883 104.316 20.7158 104.992 19.2727 104.165C17.8446 103.339 16.6721 101.327 16.6872 99.6897C16.6872 98.0226 17.8596 97.3617 19.2877 98.1878ZM19.2877 102.498C19.9341 102.874 20.4452 102.573 20.4602 101.838C20.4602 101.102 19.9492 100.2 19.3028 99.8399C18.6564 99.4644 18.1453 99.7648 18.1302 100.501C18.1152 101.237 18.6413 102.138 19.2877 102.498Z" fill="#12D2FF"/>
<path opacity="0.2" d="M36.9958 95.244L36.9657 103.385L19.0021 93.0211L19.0322 84.8806L36.9958 95.244Z" fill="#12D2FF"/>
<path opacity="0.2" d="M94.1637 180.014L94.1487 188.169L76.17 177.791L76.2001 169.65L94.1637 180.014Z" fill="#12D2FF"/>
<path d="M73.3741 167.938V169.335L71.1343 168.043L70.8486 169.32C70.9238 169.335 70.999 169.365 71.0741 169.395C71.1493 169.425 71.2244 169.455 71.2996 169.5C71.9159 169.86 72.442 170.401 72.8479 171.122C73.2538 171.843 73.4643 172.594 73.4643 173.345C73.4643 174.111 73.2388 174.637 72.7728 174.892C72.3218 175.147 71.7656 175.102 71.1042 174.727C70.5179 174.381 70.0218 173.916 69.6009 173.285C69.18 172.654 68.9095 171.978 68.7742 171.242L70.1421 172.038C70.2473 172.354 70.3826 172.609 70.548 172.834C70.7284 173.075 70.9088 173.24 71.1192 173.36C71.4048 173.525 71.6604 173.555 71.8558 173.42C72.0662 173.3 72.1564 173.045 72.1564 172.669C72.1564 172.309 72.0663 171.948 71.8859 171.618C71.6905 171.272 71.4649 171.032 71.1944 170.867C71.0591 170.792 70.9087 170.747 70.7735 170.747C70.6382 170.747 70.5029 170.792 70.3676 170.882L69.3003 169.996L70.1421 166.091L73.3741 167.938Z" fill="#12D2FF"/>
<path d="M73.735 102.063C74.9978 102.799 76.05 104.421 76.3206 105.938C76.3657 106.178 76.3808 106.418 76.3808 106.643C76.3808 106.989 76.3356 107.289 76.2304 107.545C75.8696 108.536 74.8775 108.821 73.72 108.16C72.5475 107.485 71.5704 106.058 71.2096 104.646C71.1194 104.285 71.0743 103.925 71.0743 103.58C71.0743 103.354 71.1044 103.144 71.1345 102.949C71.4051 101.747 72.4573 101.342 73.735 102.063Z" fill="#12D2FF"/>
<path d="M97.531 143.261C97.7264 143.381 97.9368 143.516 98.1172 143.682C99.3048 144.673 100.177 146.385 100.177 147.842C100.177 149.284 99.2898 149.99 98.1022 149.614C97.9068 149.554 97.7114 149.464 97.5159 149.344C97.2153 149.179 96.9297 148.953 96.6591 148.683C95.6219 147.677 94.8702 146.1 94.8702 144.763C94.8702 143.426 95.6369 142.72 96.6741 142.916C96.9447 142.976 97.2303 143.081 97.531 143.261Z" fill="#12D2FF"/>
<path d="M95.8324 200.41L95.8173 202.467L85.3699 196.43L85.3849 194.387L95.8324 200.41Z" fill="#12D2FF"/>
<path d="M22.7151 75.7789L22.7001 77.8215L12.2526 71.7987L12.2676 69.7561L22.7151 75.7789Z" fill="#12D2FF"/>
<path d="M82.6339 192.81V194.853L77.2523 191.744V189.701L82.6339 192.81Z" fill="#12D2FF"/>
<g opacity="0.61">
<g opacity="0.36">
<path d="M146.07 88.5453C147.408 89.3112 148.476 91.1736 148.476 92.6906L148.175 196.52C148.175 198.037 147.093 198.652 145.755 197.886L38.965 136.277C37.6422 135.511 36.5598 133.648 36.5749 132.132L36.8755 28.3025C36.8755 26.7855 37.9579 26.1697 39.2807 26.9357L146.07 88.5453Z" fill="url(#paint1_linear_595_1518)"/>
</g>
<path opacity="0.6784" d="M65.8879 117.262L65.8729 120.476L63.4227 120.611C63.1972 120.026 63.0769 119.425 63.0769 118.869C63.0919 117.082 64.3546 116.376 65.8879 117.262Z" fill="#12D2FF"/>
<path d="M65.903 115.61V117.262C64.3547 116.376 63.107 117.097 63.107 118.869C63.107 119.425 63.2272 120.026 63.4527 120.611L62.19 120.671C61.8593 119.785 61.6639 118.884 61.6789 118.028C61.6488 115.34 63.5579 114.258 65.903 115.61Z" fill="#12D2FF"/>
<path opacity="0.2" d="M65.888 123.675C64.8358 123.06 63.9037 121.858 63.4377 120.596L65.888 120.461L65.9031 117.247C67.4514 118.133 68.6991 120.296 68.6991 122.083C68.684 123.856 67.4213 124.562 65.888 123.675Z" fill="#12D2FF"/>
<path d="M65.903 115.61C67.9925 116.811 69.7362 119.575 70.0669 122.053L69.4055 121.678C69.0146 121.452 68.684 121.633 68.684 122.083C68.684 122.534 68.9996 123.09 69.4055 123.315L70.0669 123.69C69.7212 125.778 67.9624 126.529 65.8879 125.327C64.2945 124.411 62.8965 122.579 62.1749 120.656L63.4376 120.596C63.9036 121.858 64.8357 123.074 65.8879 123.675C67.4212 124.561 68.684 123.84 68.684 122.083C68.684 120.311 67.4363 118.148 65.903 117.262V115.61Z" fill="#12D2FF"/>
<path opacity="0.2" d="M65.873 125.343C67.9625 126.544 69.7062 125.808 70.052 123.705L78.3198 128.467C77.9289 135.766 72.4872 138.605 65.8429 134.76C61.1378 132.041 57.049 126.679 54.9445 121.032L62.175 120.656C62.8815 122.579 64.2796 124.411 65.873 125.343Z" fill="#12D2FF"/>
<path opacity="0.6" d="M50.4498 111.57C50.4799 101.792 57.4098 97.8419 65.9331 102.753L65.9181 106.163C59.0333 102.198 53.4413 105.382 53.4262 113.282C53.4262 115.775 53.9674 118.434 54.9445 121.047L52.3439 121.182C51.1263 117.953 50.4498 114.649 50.4498 111.57Z" fill="#12D2FF"/>
<path opacity="0.2" d="M70.067 122.053C69.7363 119.56 67.9926 116.812 65.9031 115.61L65.9181 106.163C72.5624 109.993 77.9741 119.095 78.3198 126.83L70.067 122.053Z" fill="#12D2FF"/>
<path opacity="0.6784" d="M65.9181 106.163L65.888 115.61C63.558 114.273 61.6489 115.355 61.6339 118.028C61.6339 118.869 61.8142 119.785 62.1449 120.672L54.9144 121.047C53.9373 118.449 53.3961 115.775 53.3961 113.282C53.4412 105.382 59.0483 102.198 65.9181 106.163Z" fill="#12D2FF"/>
<path d="M65.8429 138.199C74.1107 142.975 80.9053 139.371 81.2962 130.194L82.0177 130.614C81.6119 140.242 74.5016 144.027 65.8279 139.025C59.7248 135.511 54.4184 128.542 51.6825 121.227L52.3138 121.197C54.9445 128.181 60.0104 134.835 65.8429 138.199Z" fill="#12D2FF"/>
<path d="M65.933 101.927V102.753C57.4247 97.8421 50.4798 101.807 50.4497 111.57C50.4347 114.649 51.1262 117.953 52.3288 121.182L51.6974 121.212C50.4347 117.833 49.7281 114.378 49.7281 111.149C49.7582 100.921 57.0339 96.7908 65.933 101.927Z" fill="#12D2FF"/>
<path opacity="0.6" d="M48.6158 110.503C48.6459 99.6293 56.4627 95.1686 65.9481 100.636V101.927C57.0339 96.7906 49.7733 100.921 49.7433 111.149C49.7282 114.378 50.4498 117.833 51.7125 121.212L50.7354 121.257C49.3224 117.532 48.6008 113.838 48.6158 110.503Z" fill="#12D2FF"/>
<path d="M81.3112 128.542C80.9654 118.929 74.2159 107.529 65.9481 102.753V101.927C74.6218 106.929 81.687 118.899 82.0477 128.962L81.3112 128.542Z" fill="#12D2FF"/>
<path d="M95.9977 137.013C96.4036 137.238 96.7193 137.794 96.7193 138.259C96.7193 138.71 96.3885 138.905 95.9977 138.665L82.0327 130.614L81.3111 130.194L78.3347 128.482L70.0669 123.72L69.4055 123.345C69.0146 123.12 68.684 122.564 68.684 122.113C68.684 121.663 69.0146 121.468 69.4055 121.708L70.0669 122.083L78.3347 126.844L81.3111 128.557L82.0327 128.977L95.9977 137.013Z" fill="#12D2FF"/>
<path d="M103.98 143.937L104.596 144.297V145.694L103.98 145.333V146.956L102.702 146.22V144.598L99.7107 142.87V141.473L102.702 138.109L104.01 138.86L103.98 143.937ZM102.702 143.201L102.717 140.557L101.139 142.3L102.702 143.201Z" fill="#12D2FF"/>
<path d="M86.0765 92.3449C86.4673 92.5702 86.798 93.1259 86.798 93.5915C86.798 94.0421 86.4673 94.2374 86.0765 93.9971L85.3699 93.5915L60.4463 79.218C60.0555 78.9927 59.7247 78.437 59.7247 77.9864C59.7247 77.5208 60.0555 77.3406 60.4463 77.5659L85.3699 91.9394L86.0765 92.3449Z" fill="#12D2FF"/>
<path d="M118.14 104.991V107.319L114.382 105.157L113.901 107.289C114.036 107.319 114.157 107.364 114.277 107.409C114.412 107.47 114.533 107.53 114.638 107.59C115.675 108.19 116.547 109.092 117.238 110.308C117.93 111.525 118.261 112.771 118.261 114.048C118.261 115.34 117.87 116.196 117.103 116.646C116.336 117.082 115.404 116.992 114.307 116.361C113.33 115.79 112.488 114.979 111.782 113.943C111.075 112.892 110.624 111.75 110.399 110.503L112.699 111.825C112.879 112.336 113.104 112.786 113.39 113.162C113.676 113.552 113.991 113.838 114.352 114.033C114.833 114.318 115.254 114.348 115.6 114.153C115.931 113.943 116.111 113.522 116.111 112.907C116.111 112.291 115.961 111.705 115.645 111.119C115.329 110.549 114.953 110.128 114.502 109.873C114.262 109.737 114.021 109.662 113.796 109.677C113.57 109.677 113.33 109.752 113.104 109.903L111.316 108.416L112.729 101.882L118.14 104.991Z" fill="#12D2FF"/>
<path d="M133.819 123.75C134.014 123.871 134.225 123.961 134.405 124.021C133.067 137.448 122.56 142.51 109.873 135.18C96.5539 127.49 85.7006 109.001 85.3699 93.5916L86.0764 93.9971C86.4672 94.2224 86.7979 94.0421 86.7979 93.5916C86.7528 108.25 97.1101 126.169 109.888 133.528C121.808 140.407 131.684 135.691 132.977 123.105C133.233 123.36 133.518 123.585 133.819 123.75Z" fill="#12D2FF"/>
<path opacity="0.2" d="M110.023 84.7302C120.711 90.8881 129.34 105.832 129.294 118.103C129.264 130.359 120.576 135.3 109.888 129.142C99.1997 122.985 90.5711 108.055 90.6012 95.7844C90.6462 83.5136 99.335 78.5722 110.023 84.7302ZM108.354 111.675C109.121 111.299 109.497 110.503 109.497 109.317C109.497 108.506 109.301 107.695 108.911 106.869C108.52 106.043 107.979 105.322 107.272 104.661C107.798 104.676 108.204 104.511 108.49 104.195C108.775 103.88 108.911 103.414 108.911 102.829C108.911 101.882 108.595 100.876 107.948 99.8246C107.317 98.7733 106.52 97.9622 105.573 97.4215C104.521 96.8057 103.634 96.7156 102.928 97.1512C102.432 97.4516 102.116 98.0674 101.996 98.9685L104.1 100.185C104.205 99.8997 104.371 99.7045 104.626 99.6444C104.882 99.5693 105.167 99.6294 105.483 99.8096C105.829 100.02 106.115 100.29 106.34 100.666C106.565 101.026 106.671 101.387 106.671 101.747C106.671 102.017 106.596 102.243 106.445 102.408C106.31 102.573 106.1 102.648 105.844 102.633C105.588 102.633 105.198 102.498 104.671 102.243V104.391C105.528 104.901 106.175 105.487 106.641 106.163C107.092 106.839 107.317 107.469 107.317 108.07C107.317 108.611 107.152 108.986 106.821 109.167C106.475 109.347 106.054 109.287 105.543 109.001C105.047 108.716 104.656 108.311 104.326 107.8C104.01 107.289 103.8 106.658 103.709 105.923L101.545 104.676C101.605 106.043 101.996 107.319 102.687 108.506C103.394 109.692 104.296 110.594 105.408 111.239C106.611 111.915 107.588 112.05 108.354 111.675ZM117.118 116.646C117.885 116.196 118.261 115.34 118.276 114.048C118.276 112.771 117.93 111.525 117.253 110.308C116.562 109.092 115.705 108.19 114.653 107.59C114.533 107.53 114.412 107.454 114.292 107.409C114.172 107.364 114.037 107.319 113.916 107.289L114.397 105.157L118.155 107.319V104.991L112.759 101.882L111.346 108.416L113.135 109.903C113.36 109.752 113.586 109.692 113.826 109.677C114.052 109.677 114.292 109.737 114.533 109.873C114.984 110.128 115.359 110.548 115.675 111.119C115.991 111.705 116.141 112.291 116.141 112.907C116.141 113.537 115.961 113.943 115.63 114.153C115.284 114.348 114.878 114.318 114.382 114.033C114.037 113.838 113.721 113.552 113.42 113.162C113.135 112.786 112.894 112.336 112.729 111.825L110.429 110.503C110.639 111.735 111.105 112.892 111.812 113.943C112.503 114.979 113.36 115.79 114.337 116.361C115.42 116.992 116.352 117.082 117.118 116.646Z" fill="#12D2FF"/>
<path d="M132.992 117.337C131.865 104.3 123.311 89.5063 112.548 81.9516C112.639 81.6962 112.699 81.3958 112.699 81.0504C112.699 80.8251 112.684 80.5848 112.639 80.3445C124.138 88.3648 133.278 104.18 134.45 118.073C134.255 117.908 134.06 117.773 133.864 117.653C133.548 117.502 133.248 117.382 132.992 117.337Z" fill="#12D2FF"/>
<path d="M105.603 97.4215C106.55 97.9622 107.332 98.7733 107.978 99.8246C108.61 100.891 108.941 101.882 108.941 102.828C108.941 103.414 108.79 103.88 108.52 104.195C108.234 104.511 107.828 104.676 107.302 104.661C108.009 105.307 108.55 106.043 108.941 106.869C109.331 107.695 109.527 108.506 109.527 109.317C109.527 110.503 109.136 111.299 108.384 111.675C107.618 112.05 106.641 111.915 105.468 111.224C104.356 110.579 103.454 109.677 102.747 108.491C102.041 107.304 101.665 106.028 101.605 104.661L103.769 105.907C103.86 106.643 104.07 107.274 104.386 107.785C104.701 108.311 105.107 108.701 105.603 108.986C106.114 109.287 106.535 109.332 106.881 109.152C107.212 108.971 107.377 108.596 107.377 108.055C107.377 107.454 107.152 106.824 106.701 106.148C106.25 105.472 105.588 104.886 104.731 104.375V102.228C105.258 102.483 105.648 102.618 105.904 102.618C106.16 102.633 106.37 102.558 106.505 102.393C106.656 102.228 106.731 102.002 106.731 101.732C106.731 101.372 106.626 101.011 106.4 100.651C106.175 100.29 105.889 100.005 105.543 99.7946C105.228 99.6144 104.942 99.5543 104.686 99.6294C104.431 99.7045 104.265 99.8847 104.16 100.17L102.056 98.9535C102.161 98.0523 102.477 97.4365 102.988 97.1361C103.664 96.7156 104.536 96.8057 105.603 97.4215Z" fill="#12D2FF"/>
<path d="M107.512 79.0678C95.9225 73.826 86.828 79.9089 86.7979 93.5916C86.7979 93.126 86.4823 92.5702 86.0764 92.3449L85.3699 91.9394C85.7757 77.9564 95.3213 71.8435 107.437 77.3706C107.392 77.5659 107.377 77.7761 107.377 78.0014C107.377 78.3319 107.422 78.6923 107.512 79.0678Z" fill="#12D2FF"/>
<path d="M55.6058 72.5945C57.0489 73.4206 58.2064 75.4332 58.2064 77.0853C58.2064 78.7224 57.0339 79.3983 55.5908 78.5722C54.1627 77.7461 52.9902 75.7336 53.0053 74.0964C53.0053 72.4443 54.1778 71.7684 55.6058 72.5945ZM55.5908 76.9201C56.2372 77.2956 56.7483 76.9952 56.7634 76.2592C56.7634 75.5233 56.2522 74.6221 55.6058 74.2617C54.9594 73.8862 54.4483 74.1865 54.4333 74.9225C54.4333 75.6434 54.9594 76.5446 55.5908 76.9201Z" fill="#12D2FF"/>
<path opacity="0.2" d="M73.3139 69.6507L73.2838 77.8063L55.3202 67.4429L55.3352 59.2874L73.3139 69.6507Z" fill="#12D2FF"/>
<path opacity="0.2" d="M130.482 154.435L130.452 162.576L112.488 152.212L112.503 144.057L130.482 154.435Z" fill="#12D2FF"/>
<path d="M109.677 142.345V143.742L107.437 142.45L107.152 143.726C107.227 143.742 107.302 143.772 107.377 143.802C107.452 143.832 107.528 143.862 107.603 143.907C108.219 144.267 108.745 144.808 109.151 145.529C109.557 146.25 109.767 147.001 109.767 147.752C109.767 148.518 109.542 149.043 109.076 149.299C108.625 149.554 108.069 149.509 107.407 149.133C106.821 148.788 106.325 148.322 105.904 147.692C105.483 147.061 105.213 146.385 105.077 145.649L106.46 146.445C106.565 146.76 106.701 147.016 106.866 147.241C107.047 147.481 107.227 147.647 107.437 147.767C107.723 147.932 107.979 147.962 108.174 147.827C108.384 147.707 108.475 147.451 108.475 147.076C108.475 146.715 108.384 146.355 108.204 146.024C108.009 145.679 107.783 145.439 107.513 145.273C107.377 145.198 107.227 145.153 107.092 145.153C106.956 145.153 106.821 145.198 106.686 145.289L105.618 144.402L106.46 140.497L109.677 142.345Z" fill="#12D2FF"/>
<path d="M110.038 76.4845C111.301 77.2204 112.353 78.8425 112.623 80.3595C112.669 80.5998 112.684 80.8401 112.684 81.0654C112.684 81.4109 112.639 81.7112 112.533 81.9666C112.173 82.9578 111.18 83.2432 110.023 82.5824C108.85 81.9065 107.873 80.4797 107.512 79.0678C107.422 78.7074 107.377 78.3469 107.377 78.0014C107.377 77.7762 107.407 77.5659 107.437 77.3706C107.708 76.1541 108.775 75.7485 110.038 76.4845Z" fill="#12D2FF"/>
<path d="M133.834 117.668C134.029 117.788 134.24 117.923 134.42 118.088C135.608 119.08 136.48 120.792 136.48 122.249C136.48 123.691 135.593 124.396 134.405 124.021C134.21 123.961 134.014 123.871 133.819 123.751C133.518 123.585 133.233 123.36 132.962 123.09C131.925 122.084 131.173 120.506 131.173 119.17C131.173 117.833 131.94 117.127 132.977 117.322C133.248 117.382 133.548 117.503 133.834 117.668Z" fill="#12D2FF"/>
<path d="M132.135 174.832V176.874L121.688 170.851V168.794L132.135 174.832Z" fill="#12D2FF"/>
<path d="M59.0182 50.1856V52.2433L48.5707 46.2055V44.1628L59.0182 50.1856Z" fill="#12D2FF"/>
<path d="M118.952 167.217V169.274L113.555 166.165L113.57 164.108L118.952 167.217Z" fill="#12D2FF"/>
</g>
<g opacity="0.26">
<g opacity="0.36">
<path d="M177.728 62.1412C179.066 62.9072 180.134 64.7696 180.134 66.2865L179.833 170.116C179.833 171.633 178.751 172.248 177.413 171.482L70.6231 109.873C69.3002 109.107 68.2179 107.244 68.2329 105.727L68.5336 1.89843C68.5336 0.381473 69.6159 -0.234316 70.9388 0.531673L177.728 62.1412Z" fill="url(#paint2_linear_595_1518)"/>
</g>
<path opacity="0.6784" d="M97.546 90.8583L97.531 94.0724L95.0807 94.2076C94.8553 93.6219 94.735 93.0211 94.735 92.4654C94.75 90.6931 96.0127 89.9721 97.546 90.8583Z" fill="#12D2FF"/>
<path d="M97.5611 89.2061V90.8582C96.0127 89.972 94.7651 90.693 94.7651 92.4653C94.7651 93.021 94.8853 93.6218 95.1108 94.2075L93.8481 94.2676C93.5174 93.3815 93.322 92.4803 93.337 91.6242C93.322 88.9507 95.216 87.8693 97.5611 89.2061Z" fill="#12D2FF"/>
<path opacity="0.2" d="M97.5461 97.2867C96.4938 96.6709 95.5618 95.4694 95.0958 94.2077L97.5461 94.0725L97.5611 90.8584C99.1094 91.7445 100.357 93.9073 100.357 95.6946C100.342 97.4519 99.0794 98.1729 97.5461 97.2867Z" fill="#12D2FF"/>
<path d="M97.561 89.2061C99.6505 90.4076 101.394 93.1712 101.725 95.6494L101.064 95.2739C100.673 95.0486 100.342 95.2288 100.342 95.6794C100.342 96.13 100.658 96.6857 101.064 96.911L101.725 97.2865C101.379 99.3742 99.6205 100.125 97.546 98.9236C95.9526 98.0074 94.5546 96.1751 93.833 94.2526L95.0958 94.1925C95.5618 95.4541 96.4937 96.6707 97.546 97.2715C99.0793 98.1576 100.342 97.4367 100.342 95.6794C100.342 93.9071 99.0943 91.7443 97.561 90.8582V89.2061Z" fill="#12D2FF"/>
<path opacity="0.2" d="M97.5313 98.9385C99.6208 100.14 101.365 99.4041 101.71 97.3014L109.978 102.063C109.587 109.362 104.146 112.201 97.5012 108.356C92.7961 105.637 88.7073 100.275 86.6028 94.6279L93.8333 94.2524C94.5399 96.1899 95.9379 98.0073 97.5313 98.9385Z" fill="#12D2FF"/>
<path opacity="0.6" d="M82.1079 85.1658C82.138 75.3882 89.0679 71.4381 97.5912 76.3495L97.5762 79.7589C90.7064 75.7937 85.0994 78.9779 85.0843 86.8781C85.0843 89.3713 85.6255 92.0297 86.6026 94.6431L84.002 94.7782C82.7844 91.5491 82.1079 88.2598 82.1079 85.1658Z" fill="#12D2FF"/>
<path opacity="0.2" d="M101.725 95.6644C101.394 93.1712 99.6505 90.4227 97.561 89.2211L97.5761 79.7739C104.22 83.6039 109.632 92.7056 109.978 100.441L101.725 95.6644Z" fill="#12D2FF"/>
<path opacity="0.6784" d="M97.5911 79.759L97.5611 89.2062C95.2311 87.8695 93.322 88.9509 93.3069 91.6243C93.3069 92.4654 93.4873 93.3816 93.818 94.2678L86.5875 94.6432C85.6104 92.0449 85.0692 89.3714 85.0692 86.8782C85.1143 78.978 90.7063 75.7939 97.5911 79.759Z" fill="#12D2FF"/>
<path d="M97.501 111.795C105.769 116.572 112.563 112.967 112.954 103.79L113.676 104.211C113.27 113.838 106.16 117.623 97.486 112.621C91.3829 109.107 86.0765 102.138 83.3406 94.8235L83.9719 94.7935C86.6026 101.777 91.6685 108.431 97.501 111.795Z" fill="#12D2FF"/>
<path d="M97.5911 75.5236V76.3497C89.0828 71.4383 82.1379 75.4034 82.1078 85.166C82.0928 88.245 82.7843 91.5493 83.9868 94.7784L83.3555 94.8085C82.0927 91.4291 81.3862 87.9747 81.3862 84.7455C81.4163 74.5323 88.6919 70.3869 97.5911 75.5236Z" fill="#12D2FF"/>
<path opacity="0.6" d="M80.2739 84.0995C80.304 73.2255 88.1208 68.7647 97.6062 74.2318V75.5235C88.692 70.3868 81.4314 74.5172 81.4013 84.7454C81.3863 87.9745 82.1079 91.429 83.3706 94.8084L82.3935 94.8534C80.9804 91.1436 80.2589 87.4338 80.2739 84.0995Z" fill="#12D2FF"/>
<path d="M112.969 102.138C112.624 92.5254 105.874 81.1257 97.6062 76.3495V75.5234C106.28 80.5249 113.345 92.4953 113.706 102.558L112.969 102.138Z" fill="#12D2FF"/>
<path d="M127.656 110.609C128.062 110.834 128.377 111.39 128.377 111.855C128.377 112.306 128.047 112.501 127.656 112.261L113.691 104.211L112.969 103.79L109.993 102.078L101.725 97.3166L101.064 96.9411C100.673 96.7158 100.342 96.1601 100.342 95.7096C100.342 95.259 100.673 95.0637 101.064 95.304L101.725 95.6795L109.993 100.441L112.969 102.153L113.691 102.573L127.656 110.609Z" fill="#12D2FF"/>
<path d="M135.638 117.548L136.254 117.908V119.305L135.638 118.945V120.567L134.36 119.831V118.209L131.369 116.481V115.085L134.36 111.72L135.668 112.471L135.638 117.548ZM134.36 116.797L134.375 114.153L132.797 115.896L134.36 116.797Z" fill="#12D2FF"/>
<path d="M117.734 65.9411C118.125 66.1664 118.456 66.7221 118.456 67.1877C118.456 67.6383 118.125 67.8336 117.734 67.5933L117.028 67.1877L92.1043 52.8142C91.7135 52.5889 91.3828 52.0332 91.3828 51.5826C91.3828 51.117 91.7135 50.9368 92.1043 51.1621L117.028 65.5356L117.734 65.9411Z" fill="#12D2FF"/>
<path d="M149.814 78.6024V80.9304L146.055 78.7676L145.574 80.9004C145.71 80.9304 145.83 80.9755 145.95 81.0206C146.086 81.0806 146.206 81.1407 146.311 81.2008C147.348 81.8016 148.22 82.7027 148.912 83.9193C149.603 85.1359 149.934 86.3825 149.934 87.6591C149.934 88.9508 149.543 89.8069 148.776 90.2575C148.01 90.693 147.078 90.6029 145.98 89.9721C145.003 89.4014 144.161 88.5903 143.455 87.554C142.748 86.5026 142.297 85.3612 142.072 84.1145L144.372 85.4362C144.552 85.9469 144.778 86.3975 145.063 86.773C145.349 87.1635 145.665 87.4488 146.025 87.6441C146.506 87.9295 146.927 87.9595 147.273 87.7642C147.604 87.554 147.784 87.1334 147.784 86.5176C147.784 85.9018 147.634 85.3161 147.318 84.7303C147.002 84.1596 146.627 83.7391 146.176 83.4837C145.935 83.3486 145.695 83.2735 145.469 83.2885C145.244 83.2885 145.003 83.3636 144.778 83.5138L142.989 82.0269L144.402 75.4934L149.814 78.6024Z" fill="#12D2FF"/>
<path d="M165.477 97.3616C165.673 97.4817 165.883 97.5719 166.063 97.6319C164.726 111.059 154.218 116.121 141.531 108.791C128.212 101.101 117.359 82.6125 117.028 67.2026L117.734 67.6082C118.125 67.8335 118.456 67.6532 118.456 67.2026C118.411 81.8616 128.768 99.7797 141.546 107.139C153.466 114.018 163.343 109.302 164.635 96.7158C164.891 96.9561 165.176 97.1813 165.477 97.3616Z" fill="#12D2FF"/>
<path opacity="0.2" d="M141.681 58.3263C152.369 64.4843 160.997 79.4286 160.967 91.6994C160.937 103.955 152.249 108.897 141.561 102.739C130.873 96.5807 122.244 81.6515 122.289 69.3806C122.304 57.1098 130.993 52.1684 141.681 58.3263ZM140.012 85.2711C140.779 84.8957 141.155 84.0996 141.155 82.9131C141.155 82.102 140.959 81.291 140.569 80.4649C140.178 79.6389 139.637 78.9179 138.93 78.2571C139.456 78.2721 139.862 78.1069 140.148 77.7915C140.433 77.4761 140.569 77.0105 140.569 76.4247C140.569 75.4785 140.253 74.4722 139.606 73.4208C138.975 72.3695 138.178 71.5584 137.231 71.0177C136.179 70.4019 135.292 70.3118 134.586 70.7474C134.09 71.0478 133.774 71.6636 133.654 72.5647L135.758 73.7813C135.863 73.4959 136.029 73.3007 136.284 73.2406C136.54 73.1655 136.825 73.2256 137.141 73.4058C137.487 73.6161 137.773 73.8864 137.998 74.2619C138.223 74.6224 138.329 74.9829 138.329 75.3433C138.329 75.6137 138.254 75.8389 138.103 76.0042C137.968 76.1694 137.758 76.2445 137.502 76.2295C137.246 76.2295 136.856 76.0943 136.329 75.8389V77.9867C137.186 78.4974 137.833 79.0831 138.299 79.759C138.75 80.4349 138.975 81.0657 138.975 81.6665C138.975 82.2072 138.81 82.5827 138.479 82.7629C138.133 82.9431 137.712 82.883 137.201 82.5977C136.705 82.3123 136.314 81.9068 135.984 81.3961C135.668 80.8855 135.458 80.2547 135.367 79.5187L133.203 78.2721C133.263 79.6389 133.654 80.9155 134.345 82.1021C135.052 83.2886 135.954 84.1897 137.066 84.8356C138.269 85.5114 139.246 85.6617 140.012 85.2711ZM148.776 90.2426C149.543 89.792 149.919 88.9359 149.934 87.6442C149.934 86.3675 149.588 85.1209 148.911 83.9044C148.22 82.6878 147.363 81.7866 146.311 81.1859C146.191 81.1258 146.07 81.0507 145.95 81.0056C145.83 80.9606 145.695 80.9155 145.574 80.8855L146.055 78.7527L149.813 80.9155V78.5875L144.417 75.4785L143.004 82.0119L144.793 83.4988C145.018 83.3487 145.244 83.2886 145.484 83.2736C145.71 83.2736 145.95 83.3336 146.191 83.4688C146.642 83.7241 147.017 84.1447 147.333 84.7154C147.649 85.3012 147.799 85.8869 147.799 86.5027C147.799 87.1335 147.619 87.5391 147.288 87.7493C146.942 87.9446 146.536 87.9145 146.04 87.6292C145.695 87.4339 145.379 87.1486 145.078 86.7581C144.793 86.3826 144.552 85.932 144.387 85.4213L142.087 84.0996C142.297 85.3312 142.763 86.4877 143.47 87.5391C144.161 88.5754 145.018 89.3865 145.995 89.9572C147.078 90.588 148.01 90.6931 148.776 90.2426Z" fill="#12D2FF"/>
<path d="M164.65 90.9334C163.523 77.8966 154.97 63.1025 144.206 55.5477C144.297 55.2924 144.357 54.992 144.357 54.6466C144.357 54.4213 144.342 54.181 144.297 53.9407C155.796 61.961 164.936 77.7764 166.109 91.6694C165.913 91.5042 165.718 91.369 165.522 91.2488C165.207 91.0986 164.906 90.9935 164.65 90.9334Z" fill="#12D2FF"/>
<path d="M137.261 71.0328C138.208 71.5735 138.99 72.3846 139.637 73.436C140.268 74.5023 140.599 75.4936 140.599 76.4398C140.599 77.0256 140.448 77.4912 140.178 77.8066C139.892 78.122 139.486 78.2872 138.96 78.2722C139.667 78.918 140.208 79.654 140.599 80.4801C140.989 81.3061 141.185 82.1172 141.185 82.9282C141.185 84.1147 140.794 84.9108 140.042 85.2863C139.276 85.6617 138.299 85.5266 137.126 84.8357C136.014 84.1898 135.112 83.2887 134.405 82.1022C133.699 80.9156 133.323 79.639 133.263 78.2722L135.427 79.5188C135.518 80.2548 135.728 80.8856 136.044 81.3962C136.359 81.9219 136.765 82.3124 137.261 82.5978C137.773 82.8982 138.193 82.9432 138.539 82.763C138.87 82.5828 139.035 82.2073 139.035 81.6666C139.035 81.0658 138.81 80.435 138.359 79.7591C137.908 79.0832 137.246 78.4975 136.39 77.9868V75.839C136.916 76.0944 137.307 76.2296 137.562 76.2296C137.818 76.2446 138.028 76.1695 138.163 76.0043C138.314 75.839 138.389 75.6138 138.389 75.3434C138.389 74.983 138.284 74.6225 138.058 74.262C137.833 73.9016 137.547 73.6162 137.201 73.4059C136.886 73.2257 136.6 73.1656 136.344 73.2407C136.089 73.3158 135.924 73.496 135.818 73.7814L133.714 72.5648C133.819 71.6637 134.135 71.0479 134.646 70.7475C135.322 70.3269 136.194 70.4171 137.261 71.0328Z" fill="#12D2FF"/>
<path d="M139.171 52.664C127.581 47.4222 118.486 53.5051 118.456 67.1877C118.456 66.7221 118.14 66.1664 117.734 65.9411L117.028 65.5356C117.434 51.5525 126.979 45.4397 139.095 50.9668C139.05 51.1621 139.035 51.3723 139.035 51.5976C139.035 51.9431 139.08 52.3035 139.171 52.664Z" fill="#12D2FF"/>
<path d="M87.2639 46.2058C88.707 47.0319 89.8645 49.0445 89.8645 50.6967C89.8645 52.3338 88.692 53.0096 87.2489 52.1836C85.8208 51.3575 84.6483 49.3449 84.6634 47.7078C84.6634 46.0406 85.8358 45.3798 87.2639 46.2058ZM87.2489 50.5164C87.8953 50.8919 88.4064 50.5915 88.4214 49.8556C88.4214 49.1196 87.9103 48.2185 87.2639 47.858C86.6175 47.4825 86.1064 47.7829 86.0914 48.5188C86.0914 49.2548 86.6176 50.1409 87.2489 50.5164Z" fill="#12D2FF"/>
<path opacity="0.2" d="M104.972 43.2621L104.942 51.4026L86.9783 41.0392L86.9933 32.8987L104.972 43.2621Z" fill="#12D2FF"/>
<path opacity="0.2" d="M162.14 128.031L162.11 136.172L144.146 125.808L144.161 117.668L162.14 128.031Z" fill="#12D2FF"/>
<path d="M141.35 115.956V117.353L139.11 116.061L138.825 117.338C138.9 117.353 138.975 117.383 139.05 117.413C139.125 117.443 139.201 117.473 139.276 117.518C139.892 117.878 140.418 118.419 140.824 119.14C141.23 119.861 141.44 120.612 141.44 121.363C141.44 122.129 141.215 122.654 140.749 122.91C140.298 123.165 139.742 123.12 139.08 122.745C138.494 122.399 137.998 121.933 137.577 121.303C137.156 120.672 136.886 119.996 136.75 119.26L138.133 120.056C138.239 120.371 138.374 120.627 138.539 120.852C138.72 121.092 138.9 121.258 139.11 121.378C139.396 121.543 139.652 121.573 139.847 121.438C140.057 121.318 140.148 121.062 140.148 120.687C140.148 120.326 140.057 119.966 139.877 119.636C139.682 119.29 139.456 119.05 139.186 118.885C139.05 118.809 138.9 118.764 138.765 118.764C138.629 118.764 138.494 118.809 138.359 118.9L137.292 118.013L138.133 114.108L141.35 115.956Z" fill="#12D2FF"/>
<path d="M141.696 50.0807C142.959 50.8166 144.011 52.4387 144.282 53.9557C144.327 54.196 144.342 54.4363 144.342 54.6616C144.342 55.0071 144.297 55.3074 144.191 55.5628C143.831 56.5541 142.838 56.8394 141.681 56.1786C140.508 55.5027 139.531 54.0759 139.171 52.664C139.08 52.3036 139.035 51.9431 139.035 51.5977C139.035 51.3724 139.065 51.1621 139.095 50.9668C139.381 49.7653 140.433 49.3447 141.696 50.0807Z" fill="#12D2FF"/>
<path d="M165.492 91.264C165.688 91.3842 165.898 91.5193 166.078 91.6845C167.266 92.6758 168.138 94.388 168.138 95.8449C168.138 97.2868 167.251 97.9927 166.063 97.6172C165.868 97.5571 165.673 97.467 165.477 97.3469C165.176 97.1816 164.891 96.9563 164.62 96.686C163.583 95.6797 162.831 94.1027 162.831 92.7659C162.831 91.4292 163.598 90.7233 164.635 90.9186C164.906 90.9937 165.207 91.0988 165.492 91.264Z" fill="#12D2FF"/>
<path d="M163.794 148.428V150.485L153.346 144.448V142.405L163.794 148.428Z" fill="#12D2FF"/>
<path d="M90.6762 23.7968V25.8395L80.2288 19.8167V17.759L90.6762 23.7968Z" fill="#12D2FF"/>
<path d="M150.61 140.828V142.871L145.214 139.762L145.229 137.719L150.61 140.828Z" fill="#12D2FF"/>
</g>
<defs>
<linearGradient id="paint0_linear_595_1518" x1="0.261689" y1="138.005" x2="112.165" y2="138.005" gradientUnits="userSpaceOnUse">
<stop stop-color="#29ABE2"/>
<stop offset="0.1796" stop-color="#1F81AA"/>
<stop offset="0.3938" stop-color="#14536E"/>
<stop offset="0.5908" stop-color="#0B2F3F"/>
<stop offset="0.7637" stop-color="#05161C"/>
<stop offset="0.906" stop-color="#010608"/>
<stop offset="1"/>
</linearGradient>
<linearGradient id="paint1_linear_595_1518" x1="36.5749" y1="112.418" x2="148.478" y2="112.418" gradientUnits="userSpaceOnUse">
<stop stop-color="#29ABE2"/>
<stop offset="0.1796" stop-color="#1F81AA"/>
<stop offset="0.3938" stop-color="#14536E"/>
<stop offset="0.5908" stop-color="#0B2F3F"/>
<stop offset="0.7637" stop-color="#05161C"/>
<stop offset="0.906" stop-color="#010608"/>
<stop offset="1"/>
</linearGradient>
<linearGradient id="paint2_linear_595_1518" x1="68.2343" y1="86.0192" x2="180.137" y2="86.0192" gradientUnits="userSpaceOnUse">
<stop stop-color="#29ABE2"/>
<stop offset="0.1796" stop-color="#1F81AA"/>
<stop offset="0.3938" stop-color="#14536E"/>
<stop offset="0.5908" stop-color="#0B2F3F"/>
<stop offset="0.7637" stop-color="#05161C"/>
<stop offset="0.906" stop-color="#010608"/>
<stop offset="1"/>
</linearGradient>
</defs>
</svg>
