<svg width="201" height="167" viewBox="0 0 201 167" fill="none" xmlns="http://www.w3.org/2000/svg">
<path d="M43.3299 82.8243L26.599 92.1213V73.0016C24.2239 71.6048 21.8487 70.208 19.4736 68.8112C9.04119 62.6833 0.578003 48.0544 0.578003 36.1139C0.578003 28.5592 0.578003 21.0044 0.578003 13.4497C0.578003 7.59213 2.6224 3.47682 5.92951 1.53932C9.35688 -0.4883 14.1672 -0.1729 19.4736 2.95113C73.3796 34.612 127.271 66.2579 181.176 97.9187C191.609 104.047 200.072 118.691 200.072 130.616C200.072 138.171 200.072 145.725 200.072 153.28C200.072 159.048 198.103 163.118 194.886 165.1C192.33 166.662 189.008 166.933 185.265 165.671C183.942 165.236 182.574 164.605 181.176 163.779C135.223 136.804 89.2687 109.814 43.3299 82.8243Z" fill="url(#paint0_linear_595_1249)"/>
<defs>
<linearGradient id="paint0_linear_595_1249" x1="116.253" y1="41.6639" x2="82.2879" y2="130.77" gradientUnits="userSpaceOnUse">
<stop stop-color="#29ABE2"/>
<stop offset="0.1796" stop-color="#1F81AA"/>
<stop offset="0.3938" stop-color="#14536E"/>
<stop offset="0.5908" stop-color="#0B2F3F"/>
<stop offset="0.7637" stop-color="#05161C"/>
<stop offset="0.906" stop-color="#010608"/>
<stop offset="1"/>
</linearGradient>
</defs>
</svg>
