<svg width="131" height="114" viewBox="0 0 131 114" fill="none" xmlns="http://www.w3.org/2000/svg">
<path d="M124.627 39.823L124.642 42.0609L126.581 40.9344V38.6965L124.627 39.823Z" fill="#31E2FF"/>
<path d="M101.342 53.5206V55.5032L108.738 51.2227V49.2551L101.342 53.5206Z" fill="#31E2FF"/>
<path d="M119.697 42.6767V44.9146L122.748 43.1573V40.9194L119.697 42.6767Z" fill="#31E2FF"/>
<path d="M101.327 48.9248C101.011 49.1051 100.756 49.5406 100.756 49.9011C100.756 50.2465 101.011 50.4118 101.327 50.2315L126.566 35.6778C126.882 35.4975 127.137 35.0469 127.137 34.7015C127.137 34.341 126.882 34.1908 126.566 34.371L101.327 48.9248Z" fill="#31E2FF"/>
<path d="M116.014 19.5468L116.059 36.8342L117.847 35.7978L117.787 18.5105L116.014 19.5468Z" fill="#31E2FF"/>
<path opacity="0.2" d="M112.992 27.8075L113.022 38.5914L114.796 37.5551L114.766 26.7861L112.992 27.8075Z" fill="#31E2FF"/>
<path d="M109.956 32.764L109.986 40.3338L111.759 39.3125L111.744 31.7427L109.956 32.764Z" fill="#31E2FF"/>
<path d="M106.904 26.7711L106.934 42.0908L108.723 41.0695L108.678 25.7498L106.904 26.7711Z" fill="#31E2FF"/>
<path opacity="0.2" d="M103.882 40.6491L103.897 43.8482L105.686 42.8119L105.671 39.6128L103.882 40.6491Z" fill="#31E2FF"/>
<path d="M122.117 22.4155L122.147 33.3196L123.936 32.2983L123.891 21.3792L122.117 22.4155Z" fill="#31E2FF"/>
<path opacity="0.2" d="M119.035 12.9383L119.095 35.0769L120.884 34.0556L120.824 11.917L119.035 12.9383Z" fill="#31E2FF"/>
<path d="M127.814 2.01919V4.52743L130.009 3.2658L129.994 0.757568L127.814 2.01919Z" fill="#31E2FF"/>
<path d="M100.966 17.5041V18.7657L104.078 16.9784L104.063 15.7168L100.966 17.5041Z" fill="#31E2FF"/>
<path d="M91.6611 58.8376L91.6762 61.0755L93.6153 59.9491V57.7112L91.6611 58.8376Z" fill="#31E2FF"/>
<path opacity="0.2" d="M86.7306 61.6911V63.929L89.7822 62.1717L89.7671 59.9338L86.7306 61.6911Z" fill="#31E2FF"/>
<path d="M68.3759 72.5503V74.5178L75.7868 70.2373V68.2698L68.3759 72.5503Z" fill="#31E2FF"/>
<path d="M68.361 67.9392C68.0454 68.1195 67.7898 68.555 67.7898 68.9155C67.7898 69.2609 68.0454 69.4262 68.361 69.2459L93.6003 54.6921C93.916 54.5119 94.1715 54.0613 94.1715 53.7159C94.1715 53.3554 93.916 53.2052 93.6003 53.3855L68.361 67.9392Z" fill="#31E2FF"/>
<path d="M83.0477 38.5611L83.0928 55.8484L84.8817 54.8271L84.8216 37.5398L83.0477 38.5611Z" fill="#31E2FF"/>
<path d="M80.0261 46.8221L80.0562 57.606L81.83 56.5847L81.7999 45.8008L80.0261 46.8221Z" fill="#31E2FF"/>
<path d="M76.9896 51.7934L77.0197 59.3632L78.7935 58.3268L78.7785 50.7571L76.9896 51.7934Z" fill="#31E2FF"/>
<path d="M73.923 45.8007L73.9681 61.1055L75.7569 60.0842L75.7118 44.7644L73.923 45.8007Z" fill="#31E2FF"/>
<path d="M70.9165 59.6635L70.9315 62.8627L72.7204 61.8413L72.7054 58.6272L70.9165 59.6635Z" fill="#31E2FF"/>
<path opacity="0.2" d="M89.1508 41.43L89.1808 52.3491L90.9547 51.3128L90.9246 40.4087L89.1508 41.43Z" fill="#31E2FF"/>
<path opacity="0.2" d="M86.0691 31.9527L86.1292 54.0913L87.9181 53.07L87.8579 30.9314L86.0691 31.9527Z" fill="#31E2FF"/>
<path d="M94.848 21.0339V23.5571L97.0427 22.2805L97.0277 19.7722L94.848 21.0339Z" fill="#31E2FF"/>
<path d="M68.0002 36.5188V37.7804L71.0969 35.9931V34.7314L68.0002 36.5188Z" fill="#31E2FF"/>
<path d="M57.2522 78.6931L57.2672 80.931L59.2064 79.8045V77.5667L57.2522 78.6931Z" fill="#31E2FF"/>
<path d="M52.3215 81.5469V83.7848L55.3731 82.0125V79.7747L52.3215 81.5469Z" fill="#31E2FF"/>
<path opacity="0.2" d="M33.967 92.391V94.3585L41.3629 90.093V88.1255L33.967 92.391Z" fill="#31E2FF"/>
<path d="M33.9521 87.7798C33.6364 87.9601 33.3809 88.3956 33.3809 88.7561C33.3809 89.1015 33.6364 89.2668 33.9521 89.0865L59.1914 74.5327C59.492 74.3525 59.7626 73.9019 59.7626 73.5565C59.7626 73.196 59.5071 73.0608 59.1914 73.2261L33.9521 87.7798Z" fill="#31E2FF"/>
<path d="M48.6387 58.417L48.6838 75.7043L50.4726 74.6679L50.4125 57.3806L48.6387 58.417Z" fill="#31E2FF"/>
<path d="M45.6172 66.6777L45.6472 77.4616L47.4211 76.4253L47.391 65.6414L45.6172 66.6777Z" fill="#31E2FF"/>
<path opacity="0.2" d="M42.5806 71.6341L42.5956 79.2039L44.3845 78.1826L44.3544 70.6128L42.5806 71.6341Z" fill="#31E2FF"/>
<path d="M39.5291 65.6414L39.5591 80.9612L41.348 79.9399L41.3029 64.6201L39.5291 65.6414Z" fill="#31E2FF"/>
<path opacity="0.2" d="M36.5077 79.5045L36.5227 82.7186L38.2965 81.6973V78.4832L36.5077 79.5045Z" fill="#31E2FF"/>
<path opacity="0.2" d="M54.7417 61.2856L54.7718 72.1897L56.5456 71.1533L56.5155 60.2493L54.7417 61.2856Z" fill="#31E2FF"/>
<path d="M51.6602 51.8086L51.7203 73.9471L53.5091 72.9108L53.449 50.7722L51.6602 51.8086Z" fill="#31E2FF"/>
<path d="M60.439 40.8893V43.3976L62.6337 42.1359L62.6186 39.6277L60.439 40.8893Z" fill="#31E2FF"/>
<path opacity="0.2" d="M33.5763 56.3745L33.5913 57.6361L36.703 55.8338L36.688 54.5872L33.5763 56.3745Z" fill="#31E2FF"/>
<path d="M24.2863 97.7078L24.3013 99.9457L26.2405 98.8192V96.5813L24.2863 97.7078Z" fill="#31E2FF"/>
<path d="M19.3406 100.561L19.3556 102.799L22.4072 101.042L22.3921 98.8042L19.3406 100.561Z" fill="#31E2FF"/>
<path d="M1.00122 111.405V113.388L8.39713 109.107V107.14L1.00122 111.405Z" fill="#31E2FF"/>
<path d="M0.986142 106.81C0.670463 106.99 0.414917 107.425 0.414917 107.786C0.414917 108.131 0.670463 108.297 0.986142 108.116L26.2254 93.5625C26.5411 93.3823 26.7967 92.9317 26.7967 92.5862C26.7967 92.2258 26.5411 92.0756 26.2254 92.2558L0.986142 106.81Z" fill="#31E2FF"/>
<path opacity="0.2" d="M15.6727 77.4316L15.7178 94.7189L17.5067 93.6826L17.4465 76.3953L15.6727 77.4316Z" fill="#31E2FF"/>
<path d="M12.6512 85.692L12.6813 96.4609L14.4551 95.4396L14.4251 84.6707L12.6512 85.692Z" fill="#31E2FF"/>
<path opacity="0.2" d="M9.61475 90.6485L9.64482 98.2183L11.4186 97.197L11.3886 89.6272L9.61475 90.6485Z" fill="#31E2FF"/>
<path d="M6.5481 84.6559L6.59319 99.9756L8.36701 98.9543L8.33694 83.6345L6.5481 84.6559Z" fill="#31E2FF"/>
<path opacity="0.2" d="M3.54163 98.5189L3.55665 101.733L5.3455 100.697L5.33047 97.4976L3.54163 98.5189Z" fill="#31E2FF"/>
<path opacity="0.2" d="M21.7759 80.3003L21.8059 91.2043L23.5798 90.183L23.5497 79.2639L21.7759 80.3003Z" fill="#31E2FF"/>
<path d="M18.6942 70.8231L18.7543 92.9617L20.5432 91.9403L20.4831 69.8018L18.6942 70.8231Z" fill="#31E2FF"/>
<path d="M27.4731 59.904V62.4122L29.6679 61.1506L29.6528 58.6423L27.4731 59.904Z" fill="#31E2FF"/>
<path opacity="0.2" d="M0.610352 75.3889L0.625387 76.6505L3.72204 74.8632V73.6016L0.610352 75.3889Z" fill="#31E2FF"/>
</svg>
