<svg width="186" height="159" viewBox="0 0 186 159" fill="none" xmlns="http://www.w3.org/2000/svg">
<path d="M43.9391 113.768L27.2081 123.065V103.946C24.833 102.549 22.4579 101.167 20.0828 99.7703C9.65035 93.6424 1.18713 78.9985 1.18713 67.0731C1.18713 59.5183 1.18713 51.9636 1.18713 44.4088C1.18713 38.5512 3.23153 34.4359 6.53864 32.4834C9.96601 30.4558 14.7764 30.7712 20.0828 33.8952C51.6808 52.4592 83.2787 71.0082 114.877 89.5721C125.309 95.7 133.772 110.344 133.772 122.269C133.772 129.824 133.772 137.379 133.772 144.934C133.772 150.656 131.818 154.711 128.646 156.709C128.571 156.754 128.496 156.799 128.421 156.844C124.993 158.872 120.183 158.556 114.877 155.432C91.2308 141.554 67.585 127.661 43.9391 113.768Z" fill="url(#paint0_linear_660_206)"/>
<path d="M177.141 88.8362C168.798 83.9398 161.702 73.5764 159.207 63.5285C158.591 61.0202 158.245 58.527 158.245 56.1389C158.245 55.5832 158.245 55.0275 158.245 54.4718C129.383 37.5149 100.506 20.573 71.6438 3.61613C66.3373 0.492099 61.542 0.191707 58.0996 2.20431C40.9176 12.2973 23.7357 22.3904 6.5387 32.4834C9.96607 30.4558 14.7764 30.7712 20.0828 33.8952C51.6808 52.4592 83.2788 71.0081 114.877 89.5721C125.309 95.7 133.772 110.344 133.772 122.269C133.772 129.824 133.772 137.379 133.772 144.934C133.772 150.656 131.818 154.711 128.646 156.709C145.753 146.661 162.875 136.613 179.982 126.565C183.289 124.627 185.333 120.512 185.333 114.654C185.333 107.655 185.333 100.641 185.333 93.6424C182.597 92.0503 179.877 90.4432 177.141 88.8362Z" fill="url(#paint1_linear_660_206)"/>
<path d="M123.49 158.691C120.754 158.691 117.733 157.76 114.591 155.913C91.0354 142.095 67.4798 128.247 43.9391 114.414L27.4938 123.561C27.3134 123.666 27.1029 123.651 26.9376 123.561C26.7722 123.456 26.6519 123.276 26.6519 123.08V104.276L19.7972 100.266C9.22948 94.0629 0.630981 79.1637 0.630981 67.0881V44.4239C0.630981 38.5663 2.63029 34.1506 6.25308 32.0179C10.0262 29.78 15.032 30.2906 20.3684 33.4297L115.162 89.1066C125.73 95.3096 134.329 110.209 134.329 122.284V144.949C134.329 150.656 132.419 155.012 128.932 157.204L128.691 157.355C127.158 158.241 125.399 158.691 123.49 158.691ZM43.9391 113.198C44.0444 113.198 44.1346 113.228 44.2248 113.273C67.8706 127.166 91.5165 141.059 115.162 154.937C120.123 157.865 124.738 158.361 128.135 156.348L128.271 156.273C131.487 154.246 133.216 150.235 133.216 144.934V122.269C133.216 110.539 124.858 96.0906 114.606 90.0528L19.8122 34.3759C14.8516 31.4471 10.2367 30.9515 6.83934 32.9641C3.56229 34.9016 1.75841 38.9568 1.75841 44.4089V67.0731C1.75841 78.8033 10.1164 93.2519 20.3835 99.2897L27.5088 103.465C27.6742 103.57 27.7794 103.75 27.7794 103.946V122.104L43.6686 113.273C43.7588 113.228 43.8489 113.198 43.9391 113.198Z" fill="#10FFFF"/>
<path d="M128.646 157.265C128.451 157.265 128.27 157.174 128.165 156.994C128 156.739 128.09 156.393 128.346 156.228C131.487 154.261 133.216 150.236 133.216 144.934V122.269C133.216 110.539 124.858 96.0906 114.591 90.0528L19.7972 34.3759C14.8515 31.4622 10.2667 30.9515 6.86937 32.934C6.85434 32.9491 6.83931 32.9491 6.82428 32.9641C6.55369 33.1143 6.20796 33.0392 6.05764 32.7688C5.90731 32.4985 5.98248 32.153 6.25306 32.0029C6.2681 31.9878 6.28312 31.9878 6.31318 31.9728C23.4951 21.8948 40.6621 11.8018 57.8139 1.72375C61.6021 -0.499115 66.6229 0.0115483 71.9293 3.13558C86.2251 11.5314 100.536 19.9423 114.847 28.3381C129.413 36.8841 143.979 45.4452 158.531 53.9912C158.696 54.0964 158.816 54.2766 158.816 54.4718V56.139C158.816 58.3919 159.132 60.8401 159.763 63.3934C162.304 73.6066 169.399 83.6395 177.441 88.3556L179.651 89.6623C181.635 90.8338 183.635 92.0053 185.619 93.1618C185.799 93.267 185.904 93.4472 185.904 93.6424V114.655C185.904 120.527 183.905 124.928 180.267 127.046L128.932 157.189C128.842 157.235 128.752 157.265 128.646 157.265ZM11.4693 30.6211C14.2052 30.6211 17.2267 31.5523 20.3684 33.3996L115.162 89.0765C125.73 95.2795 134.344 110.179 134.344 122.254V144.919C134.344 148.598 133.547 151.707 132.059 154.035L179.696 126.054C182.973 124.132 184.777 120.077 184.777 114.625V93.9428C182.868 92.8314 180.974 91.7199 179.08 90.6085L176.87 89.3018C168.587 84.4506 161.282 74.1322 158.681 63.6487C158.035 61.0053 157.704 58.482 157.704 56.124V54.7722C143.243 46.2713 128.767 37.7853 114.29 29.2843C99.9797 20.8885 85.6839 12.4926 71.3731 4.08179C66.4275 1.16803 61.8276 0.672405 58.4002 2.66998C42.5411 11.982 26.667 21.309 10.7928 30.6211C11.0033 30.6211 11.2438 30.6211 11.4693 30.6211Z" fill="#10FFFF"/>
<path d="M151.706 143.357C151.601 143.357 151.526 143.282 151.526 143.176L150.548 128.608L137.831 106.845L130.886 98.9444C130.856 98.8993 130.841 98.8542 130.841 98.8091C130.841 98.7641 130.871 98.719 130.901 98.674L149.361 83.1139L139.394 52.4743L129.548 52.8498L126.767 68.9206C126.767 68.9657 126.737 69.0107 126.707 69.0257L107.24 85.1415C107.195 85.1866 107.12 85.2016 107.06 85.1716C107 85.1565 106.955 85.0965 106.94 85.0364L104.76 74.1323C104.745 74.0722 104.76 74.0122 104.805 73.9671L116.681 61.3358L104.459 43.5829L84.0754 44.5441C84.0003 44.5441 83.9101 44.4991 83.8951 44.424C83.865 44.3489 83.8951 44.2587 83.9702 44.2137L110.142 26.1153C110.202 26.0703 110.292 26.0703 110.367 26.1153C110.427 26.1604 110.457 26.2505 110.427 26.3256L104.835 43.1774L121.566 41.8557C121.611 41.8406 121.686 41.8707 121.716 41.9157C121.762 41.9608 121.777 42.0209 121.762 42.0809L117.237 60.9153L129.308 52.5044L139.936 43.6129C139.996 43.5679 140.071 43.5528 140.146 43.5829C140.206 43.6129 140.251 43.688 140.251 43.7631L139.755 52.174L162.589 71.9996C162.634 72.0296 162.649 72.0897 162.649 72.1347C162.649 72.1948 162.619 72.2399 162.589 72.2699L149.752 83.2641L138.342 106.424L169.775 99.0044L177.005 88.6861C177.05 88.611 177.141 88.581 177.216 88.611C177.291 88.6411 177.351 88.7161 177.336 88.7912L176.254 110.359C176.254 110.419 176.224 110.464 176.179 110.509L151.075 128.487L163.702 135.967C163.792 136.027 163.822 136.132 163.762 136.222C163.702 136.313 163.597 136.343 163.506 136.283L150.939 128.833L151.886 143.086C151.901 143.252 151.811 143.342 151.706 143.357ZM138.267 106.86L150.774 128.277L175.863 110.299L176.915 89.4671L170.015 99.3048C169.985 99.3349 169.955 99.3649 169.91 99.3799L138.267 106.86ZM131.292 98.8392L137.936 106.409L149.015 83.9099L131.292 98.8392ZM105.136 74.1623L107.24 84.6609L126.407 68.7854L129.127 53.0751L117.041 61.501L105.136 74.1623ZM139.921 52.8649L149.677 82.8586L162.153 72.1648L139.921 52.8649ZM104.88 43.5528L116.831 60.9002L121.311 42.2461L104.88 43.5528ZM139.815 44.1987L129.924 52.4593L139.334 52.0989L139.815 44.1987ZM109.871 26.7461L84.7068 44.1536L104.414 43.2224L109.871 26.7461Z" fill="#10FFFF"/>
<path d="M121.551 42.2311C121.491 42.2311 121.431 42.201 121.401 42.156L110.081 26.3856C110.021 26.2955 110.036 26.1904 110.126 26.1303C110.202 26.0702 110.322 26.0852 110.382 26.1753L121.701 41.9457C121.761 42.0358 121.746 42.141 121.656 42.201C121.626 42.216 121.596 42.2311 121.551 42.2311Z" fill="#10FFFF"/>
<path d="M100.942 132.227C100.912 132.227 100.897 132.227 100.867 132.212L81.8657 124.688C81.8055 124.673 81.7755 124.613 81.7605 124.567L75.8076 103.435L64.6687 101.543L60.7002 111.741L65.6759 120.152C65.6909 120.182 65.7059 120.227 65.7059 120.272L65.0746 126.084C65.0595 126.19 64.9844 126.265 64.8641 126.25C64.7589 126.235 64.6837 126.144 64.6987 126.039L65.3151 120.287L60.3244 111.846C60.2943 111.801 60.2943 111.741 60.3093 111.681L64.368 101.257C64.3981 101.182 64.4883 101.122 64.5785 101.137L75.988 103.075C76.0632 103.09 76.1233 103.135 76.1384 103.21L82.1062 124.357L100.882 131.807L121.326 102.894L111.84 93.7927L98.4463 95.3097C98.3411 95.3097 98.281 95.2646 98.2509 95.1895L91.7269 76.1149C91.7119 76.0548 91.7119 76.0097 91.7419 75.9497C91.772 75.9046 91.8171 75.8746 91.8772 75.8596L104.76 73.922L104.369 43.3876C104.369 43.2825 104.459 43.1924 104.549 43.1924C104.655 43.1924 104.73 43.2675 104.73 43.3726L105.121 74.0722C105.121 74.1624 105.061 74.2525 104.955 74.2525L92.1328 76.175L98.5365 94.8891L111.87 93.3721C111.915 93.3721 111.975 93.3872 112.021 93.4172L121.686 102.684C121.746 102.744 121.761 102.849 121.716 102.925L101.092 132.077C101.047 132.197 100.987 132.227 100.942 132.227Z" fill="#10FFFF"/>
<path d="M52.6278 119.055C52.5827 119.055 52.5226 119.04 52.4925 118.995C52.4174 118.92 52.4324 118.8 52.5076 118.725L60.3695 111.621C60.4446 111.546 60.5649 111.561 60.6401 111.636C60.7152 111.711 60.7002 111.831 60.625 111.906L52.7631 119.01C52.718 119.04 52.6729 119.055 52.6278 119.055Z" fill="#10FFFF"/>
<path d="M64.5334 101.513C64.4282 101.513 64.353 101.422 64.353 101.332V84.7209C64.353 84.6758 64.3681 84.6307 64.3981 84.6007L78.8292 68.3648C78.8743 68.3197 78.9494 68.2897 79.0096 68.3047C79.0697 68.3197 79.1298 68.3648 79.1448 68.4399L88.2394 99.1545L98.3411 94.9641C98.4313 94.919 98.5516 94.9641 98.5817 95.0692C98.6268 95.1593 98.5816 95.2795 98.4764 95.3095L88.1793 99.575C88.1342 99.5901 88.074 99.5901 88.029 99.575C87.9839 99.545 87.9387 99.515 87.9237 99.4549L78.8743 68.8604L64.7138 84.796V101.332C64.7288 101.437 64.6386 101.513 64.5334 101.513Z" fill="#10FFFF"/>
<path d="M81.9258 124.688C81.9108 124.688 81.8958 124.688 81.8808 124.688L65.4504 120.437C65.3452 120.407 65.285 120.302 65.3151 120.212C65.3452 120.107 65.4504 120.062 65.5406 120.077L81.9709 124.327C82.0762 124.357 82.1363 124.462 82.1062 124.552C82.0912 124.627 82.016 124.688 81.9258 124.688Z" fill="#10FFFF"/>
<path d="M78.9644 68.6653C78.9494 68.6653 78.9344 68.6653 78.9193 68.6653C78.8141 68.6502 78.754 68.5451 78.769 68.44L83.865 44.3339C83.88 44.2287 83.9852 44.1687 84.0905 44.1837C84.1957 44.1987 84.2558 44.3038 84.2408 44.409L79.1448 68.5151C79.1298 68.6052 79.0546 68.6653 78.9644 68.6653Z" fill="#10FFFF"/>
<path d="M114.877 155.612C114.832 155.612 114.802 155.597 114.756 155.567C114.681 155.507 114.666 155.387 114.726 155.297L124.152 143.221L100.987 132.257L93.4406 142.861C93.4105 142.906 93.3504 142.936 93.2752 142.936C93.2151 142.936 93.155 142.906 93.1249 142.846L81.7605 124.582C81.7154 124.507 81.7304 124.417 81.7755 124.357L92.7341 111.696L87.9838 99.6051L75.973 103.42C75.8978 103.435 75.8227 103.42 75.7625 103.36C75.7174 103.3 75.7175 103.21 75.7475 103.15L84.8421 88.8963C84.8722 88.8512 84.9173 88.8212 84.9623 88.8061L107.045 84.811C107.12 84.796 107.21 84.841 107.24 84.9011L111.855 93.2068L126.376 68.7703C126.406 68.7252 126.437 68.7102 126.482 68.6952C126.497 68.6952 126.497 68.6952 126.512 68.6952C126.557 68.6802 126.572 68.6952 126.602 68.7102C126.602 68.7102 126.617 68.7102 126.617 68.7252L149.616 83.0087L169.925 99.0494C170 99.1094 170.015 99.2146 169.97 99.3047L150.819 128.653C150.804 128.668 150.789 128.683 150.774 128.698L133.817 141.254C133.802 141.269 133.772 141.284 133.742 141.284L124.482 143.327L114.952 155.537C114.982 155.582 114.937 155.612 114.877 155.612ZM120.589 128.728L124.588 142.951L133.697 140.938L150.594 128.427L169.624 99.2446L149.466 83.3241L126.752 69.2209L125.58 99.4099C125.58 99.4549 125.55 99.5 125.52 99.545L121.731 102.969L120.589 128.728ZM101.558 132.122L124.167 142.816L120.273 128.953L101.558 132.122ZM82.1663 124.522L93.3053 142.425L100.716 132.017L92.8994 112.131L82.1663 124.522ZM93.2752 112.011L101.047 131.822L120.213 128.593L120.679 118.274L93.2752 112.011ZM93.1099 111.591L120.694 117.884L121.371 102.849C121.371 102.804 121.401 102.744 121.431 102.714L125.204 99.2897L126.361 69.5964L112.051 93.6724C112.021 93.7325 111.96 93.7625 111.885 93.7625C111.81 93.7475 111.75 93.7175 111.72 93.6724L107.015 85.1865L85.1578 89.1366L76.3789 102.894L88.059 99.1845C88.1492 99.1545 88.2544 99.1996 88.2845 99.2897L93.1099 111.591Z" fill="#10FFFF"/>
<defs>
<linearGradient id="paint0_linear_660_206" x1="84.8966" y1="58.821" x2="50.4132" y2="129.908" gradientUnits="userSpaceOnUse">
<stop stop-color="#29ABE2"/>
<stop offset="0.1796" stop-color="#1F81AA"/>
<stop offset="0.3938" stop-color="#14536E"/>
<stop offset="0.5908" stop-color="#0B2F3F"/>
<stop offset="0.7637" stop-color="#05161C"/>
<stop offset="0.906" stop-color="#010608"/>
<stop offset="1"/>
</linearGradient>
<linearGradient id="paint1_linear_660_206" x1="6.5396" y1="78.8139" x2="185.334" y2="78.8139" gradientUnits="userSpaceOnUse">
<stop stop-color="#29ABE2"/>
<stop offset="0.1796" stop-color="#1F81AA"/>
<stop offset="0.3938" stop-color="#14536E"/>
<stop offset="0.5908" stop-color="#0B2F3F"/>
<stop offset="0.7637" stop-color="#05161C"/>
<stop offset="0.906" stop-color="#010608"/>
<stop offset="1"/>
</linearGradient>
</defs>
</svg>
