<svg width="253" height="198" viewBox="0 0 253 198" fill="none" xmlns="http://www.w3.org/2000/svg">
<path d="M43.9391 113.62L27.2081 122.917V103.797C24.833 102.401 22.4579 101.004 20.0828 99.6071C9.65035 93.4791 1.18713 78.8503 1.18713 66.9098C1.18713 59.3551 1.18713 51.8003 1.18713 44.2456C1.18713 38.388 3.23153 34.2727 6.53864 32.3352C9.96601 30.3076 14.7764 30.623 20.0828 33.747C73.9887 65.4079 127.88 97.0538 181.786 128.715C192.218 134.843 200.681 149.486 200.681 161.412C200.681 168.967 200.681 176.521 200.681 184.076C200.681 189.844 198.712 193.914 195.495 195.896C192.94 197.458 189.617 197.729 185.874 196.467C184.552 196.032 183.184 195.401 181.786 194.575C135.832 167.6 89.8779 140.61 43.9391 113.62Z" fill="url(#paint0_linear_660_204)"/>
<path d="M233.347 98.4356C179.456 66.7747 125.55 35.1289 71.6438 3.46799C66.3373 0.343952 61.542 0.0285415 58.0996 2.05616C40.9176 12.1492 23.7357 22.2422 6.5387 32.3353C9.96607 30.3076 14.7764 30.623 20.0828 33.7471C73.9888 65.408 127.88 97.0538 181.786 128.715C192.218 134.843 200.681 149.486 200.681 161.412C200.681 168.967 200.681 176.521 200.681 184.076C200.681 189.844 198.712 193.914 195.495 195.896C205.191 190.189 214.902 184.497 224.613 178.789H224.628C232.054 174.419 239.465 170.063 246.891 165.707C250.198 163.77 252.242 159.655 252.242 153.797C252.242 146.242 252.242 138.688 252.242 131.133C252.242 119.192 243.779 104.563 233.347 98.4356Z" fill="url(#paint1_linear_660_204)"/>
<path d="M190.414 197.819C188.926 197.819 187.348 197.549 185.694 196.993C184.341 196.542 182.928 195.897 181.5 195.055C135.636 168.141 89.7727 141.196 43.9391 114.266L27.4938 123.413C27.3134 123.503 27.1029 123.503 26.9376 123.413C26.7722 123.308 26.6519 123.128 26.6519 122.932V104.128L19.7972 100.103C9.22948 93.8999 0.630981 79.0006 0.630981 66.925V44.2458C0.630981 38.3732 2.63028 33.9725 6.26811 31.8548C10.0412 29.6169 15.047 30.1275 20.3835 33.2666L182.086 128.234C192.654 134.437 201.268 149.336 201.268 161.412V184.076C201.268 189.844 199.328 194.214 195.811 196.377C194.202 197.338 192.383 197.819 190.414 197.819ZM43.9391 113.05C44.0444 113.05 44.1346 113.08 44.2247 113.125C90.1636 140.115 136.117 167.104 182.071 194.079C183.424 194.875 184.762 195.506 186.055 195.927C189.557 197.113 192.714 196.933 195.209 195.416C198.381 193.463 200.125 189.438 200.125 184.076V161.412C200.125 149.682 191.767 135.233 181.5 129.195L19.7972 34.2278C14.8365 31.2991 10.2216 30.8034 6.8243 32.816C3.54725 34.7385 1.74338 38.7937 1.74338 44.2458V66.91C1.74338 78.6402 10.1014 93.0888 20.3684 99.1266L27.4938 103.317C27.6591 103.422 27.7643 103.602 27.7643 103.798V121.956L43.6535 113.125C43.7587 113.08 43.8489 113.05 43.9391 113.05Z" fill="#10FFFF"/>
<path d="M195.495 196.452C195.3 196.452 195.119 196.362 195.014 196.182C194.849 195.912 194.939 195.566 195.194 195.416C198.366 193.463 200.11 189.438 200.11 184.076V161.412C200.11 149.682 191.752 135.233 181.5 129.195L19.7972 34.2278C14.8516 31.314 10.2667 30.8034 6.86939 32.7859C6.85435 32.801 6.83933 32.801 6.80927 32.816C6.53869 32.9812 6.19295 32.8761 6.04263 32.6207C5.8923 32.3504 5.96745 32.0049 6.23803 31.8547C6.25306 31.8397 6.26809 31.8397 6.28313 31.8247C22.8788 22.0771 39.4595 12.3445 56.0552 2.59697L57.7989 1.57565C61.5721 -0.647223 66.5929 -0.15158 71.9143 2.98747L134.795 39.9202C167.745 59.2651 200.681 78.6101 233.617 97.9551C244.185 104.158 252.798 119.057 252.798 131.133V153.797C252.798 159.67 250.799 164.07 247.161 166.188C239.735 170.544 232.324 174.899 224.898 179.27C224.868 179.285 224.838 179.3 224.808 179.315L213.955 185.683C207.882 189.243 201.824 192.803 195.766 196.377C195.691 196.422 195.6 196.452 195.495 196.452ZM11.4693 30.473C14.2052 30.473 17.2267 31.4042 20.3684 33.2515L182.071 128.219C192.639 134.422 201.237 149.321 201.237 161.397V184.061C201.237 187.741 200.456 190.85 198.968 193.178C203.778 190.354 208.588 187.531 213.399 184.692L224.327 178.279C224.357 178.264 224.387 178.249 224.417 178.234C231.813 173.878 239.209 169.537 246.605 165.197C249.882 163.274 251.686 159.219 251.686 153.767V131.103C251.686 119.373 243.328 104.924 233.061 98.8863C200.125 79.5413 167.189 60.1963 134.238 40.8514L71.3581 3.91868C66.3974 1.00492 61.7975 0.494254 58.3852 2.50685L56.6414 3.52817C41.3536 12.5098 26.0807 21.4763 10.7778 30.4579C11.0033 30.473 11.2438 30.473 11.4693 30.473Z" fill="#10FFFF"/>
<path d="M172.165 189.108C172.12 189.108 172.075 189.093 172.045 189.063C171.985 189.018 171.969 188.943 171.985 188.883L178.884 159.024L158.095 133.341C158.065 133.296 158.05 133.236 158.05 133.191L161.221 117.075L138.508 125.906L127.624 162.719C127.609 162.794 127.534 162.839 127.459 162.854C127.369 162.869 127.308 162.824 127.278 162.749L113.975 136.149C113.945 136.089 113.945 136.029 113.975 135.969L133.427 100.734L116.816 102.761L107.075 114.266C107.045 114.296 107 114.326 106.955 114.326L86.8564 116.669C86.7963 116.684 86.7362 116.654 86.6911 116.594L74.3195 101.139C74.3044 101.109 74.2894 101.079 74.2744 101.049L70.2156 63.756L49.4259 98.3156L60.9106 123.383C60.9557 123.473 60.9106 123.593 60.8204 123.638C60.7302 123.683 60.61 123.638 60.5649 123.548L49.0351 98.3907C49.005 98.3307 49.02 98.2706 49.0501 98.2105L70.1856 63.0801C70.2307 63.005 70.3058 62.975 70.381 62.99C70.4561 63.005 70.5163 63.0801 70.5313 63.1552L74.6502 100.944L86.9165 116.264L106.834 113.936L116.575 102.431C116.605 102.401 116.651 102.371 116.696 102.371L133.742 100.283C133.802 100.268 133.878 100.313 133.923 100.358C133.968 100.418 133.968 100.493 133.938 100.554L114.351 136.029L127.399 162.118L138.177 125.666C138.192 125.606 138.237 125.561 138.282 125.546L161.402 116.564C161.462 116.534 161.537 116.549 161.597 116.594C161.657 116.639 161.672 116.714 161.657 116.774L158.44 133.146L179.23 158.829C179.26 158.874 179.275 158.934 179.26 158.994L172.435 188.567L200.576 175.981L213.188 163.32L199.854 155.179C199.779 155.134 199.749 155.059 199.764 154.969L203.116 141.842L195.104 142.923C195.029 142.938 194.954 142.893 194.924 142.833C194.879 142.773 194.894 142.683 194.939 142.623L207.01 126.672L210.828 111.713L201.478 108.604L169.865 121.791C169.79 121.821 169.715 121.806 169.654 121.746C169.594 121.686 169.579 121.611 169.624 121.536L178.929 101.094L153.931 92.7885L155.735 113.23C155.75 113.32 155.689 113.41 155.599 113.425C155.509 113.44 155.419 113.395 155.374 113.32L145.618 90.866L128.12 97.2793C128.015 97.3093 127.91 97.2643 127.88 97.1742C127.85 97.084 127.895 96.9639 127.985 96.9338L145.452 90.5356L145.167 89.8897L128.767 84.4377L103.963 83.1761C103.888 83.1761 103.813 83.116 103.798 83.0409C103.768 82.9658 103.798 82.8757 103.873 82.8306L110.157 78.2347L76.4691 67.0302C76.4089 67.0152 76.3638 66.9551 76.3488 66.88C76.3338 66.82 76.3639 66.7449 76.4089 66.6998L119.687 30.8485C119.732 30.8035 119.792 30.8035 119.852 30.8035C119.913 30.8185 119.958 30.8635 119.988 30.9086L133.216 61.3529L149.812 49.2172C149.872 49.1722 149.932 49.1722 150.007 49.2022C150.067 49.2323 150.112 49.2923 150.112 49.3524L153.284 85.2788L158.967 85.5642L191.512 73.6388C191.587 73.6087 191.662 73.6388 191.707 73.6838C191.752 73.7439 191.767 73.819 191.737 73.8941L185.799 86.9309L216.916 88.508C216.976 88.508 217.021 88.538 217.051 88.5831C217.081 88.6281 217.097 88.6882 217.082 88.7332L213.384 103.182L230.009 96.2429C230.085 96.2129 230.175 96.2279 230.235 96.303C230.28 96.3631 230.295 96.4682 230.235 96.5283L217.427 113.455L251.641 124.84C251.701 124.855 251.746 124.915 251.761 124.975C251.776 125.035 251.761 125.11 251.716 125.155L240.562 136.33L252.212 134.753C252.287 134.753 252.347 134.768 252.392 134.828C252.438 134.888 252.438 134.963 252.408 135.023L232.024 174.524C231.994 174.569 231.964 174.599 231.903 174.614C231.858 174.629 231.798 174.614 231.753 174.599L213.519 163.47L200.817 176.221C200.801 176.236 200.786 176.251 200.756 176.266L172.24 189.018C172.225 189.108 172.195 189.108 172.165 189.108ZM213.789 163.29L231.783 174.269L251.911 135.278L240.141 136.87L213.789 163.29ZM200.17 154.969L213.474 163.079L239.525 136.945L203.537 141.827L200.17 154.969ZM206.769 127.664L195.51 142.548L203.222 141.496L206.769 127.664ZM207.356 126.883L203.628 141.436L239.961 136.51L251.235 125.2L217.187 113.876L207.356 126.883ZM211.189 111.878L207.596 125.936L216.811 113.741L211.189 111.878ZM179.29 101.274L170.166 121.31L200.937 108.469L179.29 101.274ZM211.279 111.518L217.051 113.44L229.513 96.9639L213.278 103.738L211.279 111.518ZM145.979 90.7909L155.269 112.164L153.555 92.7134L146.85 90.4755L145.979 90.7909ZM202.004 108.424L210.918 111.398L212.827 103.903L202.004 108.424ZM179.441 100.929L201.448 108.258L212.948 103.467L216.661 88.9585L185.619 87.3815L179.441 100.929ZM153.901 92.428L179.08 100.809L185.213 87.3515L159.012 86.0147L153.51 88.0273L153.901 92.428ZM147.407 90.2652L153.51 92.2929L153.149 88.1625L147.407 90.2652ZM145.678 90.085L145.828 90.4455L146.264 90.2802L145.678 90.085ZM145.467 89.6194L146.82 90.07L153.104 87.772L152.924 85.6993L143.558 85.2187L145.467 89.6194ZM130.195 84.5428L144.986 89.4542L143.137 85.1887L130.195 84.5428ZM153.314 85.7294L153.48 87.6518L158.05 85.9697L153.314 85.7294ZM159.914 85.6843L185.393 86.976L191.211 74.2095L159.914 85.6843ZM143.393 84.8432L152.893 85.3238L149.752 49.773L133.351 61.7734L143.393 84.8432ZM128.872 84.1073L142.972 84.8282L133.051 62.0138L110.968 78.1746L128.872 84.1073ZM104.534 82.8607L127.459 84.0322L110.608 78.43L104.534 82.8607ZM76.92 66.82L110.547 78.0094L132.915 61.6533L119.747 31.3592L76.92 66.82Z" fill="#10FFFF"/>
<path d="M193.451 197.218C193.346 197.218 193.27 197.143 193.27 197.038L192.323 180.006L174.781 177.738L138.823 169.567C138.763 169.552 138.703 169.507 138.688 169.447C138.673 169.387 138.688 169.312 138.718 169.267L160.725 144.14L158.08 133.401L138.387 125.996L103.031 148.45C102.956 148.495 102.851 148.48 102.791 148.405C102.731 148.33 102.731 148.225 102.791 148.165L113.93 136.044L106.744 114.236L101.919 82.2297L74.56 101.214C74.53 101.244 74.4698 101.244 74.4398 101.244L49.1855 98.5257C49.0802 98.5107 49.0051 98.4206 49.0201 98.3155C49.0351 98.2103 49.1253 98.1352 49.2306 98.1503L74.4097 100.869L101.949 81.7491C102.009 81.704 102.069 81.704 102.129 81.7341C102.189 81.7641 102.235 81.8092 102.235 81.8843L107.105 114.146L114.306 136.029C114.321 136.089 114.306 136.164 114.26 136.209L104.023 147.369L138.252 125.621C138.297 125.591 138.357 125.576 138.417 125.606L158.29 133.07C158.35 133.085 158.395 133.145 158.41 133.206L161.011 143.794L176.795 125.771C176.84 125.711 176.915 125.696 176.99 125.711C177.065 125.726 177.111 125.786 177.126 125.861L178.914 137.426L196.547 145.236C196.608 145.266 196.653 145.326 196.653 145.386C196.668 145.446 196.638 145.521 196.577 145.551L179.17 159.144C179.14 159.159 179.125 159.174 179.095 159.174L165.25 161.878C165.16 161.893 165.055 161.832 165.025 161.742L160.816 144.575L139.184 169.267L174.811 177.378L192.489 179.66C192.579 179.676 192.654 179.751 192.654 179.841L193.601 197.038C193.646 197.113 193.571 197.203 193.451 197.218C193.466 197.218 193.451 197.218 193.451 197.218ZM161.131 144.215L165.37 161.457L179.005 158.799L196.127 145.431L178.689 137.711C178.629 137.681 178.584 137.636 178.584 137.561L176.84 126.282L161.131 144.215Z" fill="#10FFFF"/>
<path d="M78.754 134.257C78.6939 134.257 78.6488 134.227 78.6187 134.197C78.5736 134.137 78.5586 134.062 78.5886 134.002L86.661 116.429C86.7061 116.339 86.8113 116.294 86.9165 116.339C87.0067 116.384 87.0519 116.489 87.0068 116.594L79.1148 133.776L122.799 120.124C122.844 120.109 122.874 120.109 122.919 120.124L138.432 125.591C138.538 125.621 138.583 125.726 138.553 125.831C138.523 125.936 138.417 125.981 138.312 125.951L122.859 120.499L78.8292 134.257C78.7991 134.257 78.7841 134.257 78.754 134.257Z" fill="#10FFFF"/>
<defs>
<linearGradient id="paint0_linear_660_204" x1="116.858" y1="72.4591" x2="82.8932" y2="161.565" gradientUnits="userSpaceOnUse">
<stop stop-color="#29ABE2"/>
<stop offset="0.1796" stop-color="#1F81AA"/>
<stop offset="0.3938" stop-color="#14536E"/>
<stop offset="0.5908" stop-color="#0B2F3F"/>
<stop offset="0.7637" stop-color="#05161C"/>
<stop offset="0.906" stop-color="#010608"/>
<stop offset="1"/>
</linearGradient>
<linearGradient id="paint1_linear_660_204" x1="6.5396" y1="98.3303" x2="252.243" y2="98.3303" gradientUnits="userSpaceOnUse">
<stop stop-color="#29ABE2"/>
<stop offset="0.1796" stop-color="#1F81AA"/>
<stop offset="0.3938" stop-color="#14536E"/>
<stop offset="0.5908" stop-color="#0B2F3F"/>
<stop offset="0.7637" stop-color="#05161C"/>
<stop offset="0.906" stop-color="#010608"/>
<stop offset="1"/>
</linearGradient>
</defs>
</svg>
