<svg width="450" height="362" viewBox="0 0 450 362" fill="none" xmlns="http://www.w3.org/2000/svg">
<g opacity="0.51">
<path d="M110.604 25.9619L110.619 28.2899L104.787 31.6543L104.772 29.3263L110.604 25.9619Z" fill="#57FFEF"/>
<path d="M110.604 22.207V24.5501L104.772 27.9144L104.757 25.5714L110.604 22.207Z" fill="#57FFEF"/>
<path d="M102.562 30.5879L102.577 32.9309L99.6606 34.5981V32.2701L102.562 30.5879Z" fill="#57FFEF"/>
<path d="M102.562 26.8479V29.1909L99.6456 30.8731V28.5301L102.562 26.8479Z" fill="#57FFEF"/>
<path d="M115.55 23.1082L115.565 25.4362L112.649 27.1183L112.634 24.7903L115.55 23.1082Z" fill="#57FFEF"/>
<path d="M115.55 19.3533V21.6963L112.634 23.3785V21.0354L115.55 19.3533Z" fill="#57FFEF"/>
</g>
<g opacity="0.51">
<path d="M113.175 116.063V118.406L107.342 121.771L107.327 119.428L113.175 116.063Z" fill="#57FFEF"/>
<path d="M120.871 115.478L120.886 117.806L115.054 121.17L115.039 118.842L120.871 115.478Z" fill="#57FFEF"/>
<path d="M120.871 111.617V113.96L115.039 117.325V114.982L120.871 111.617Z" fill="#57FFEF"/>
<path d="M128.237 111.227V113.57L125.171 115.342V112.999L128.237 111.227Z" fill="#57FFEF"/>
<path d="M128.222 107.382L128.237 109.71L125.156 111.482V109.154L128.222 107.382Z" fill="#57FFEF"/>
<path d="M113.175 119.908L113.19 122.251L107.357 125.616L107.342 123.273L113.175 119.908Z" fill="#57FFEF"/>
</g>
<g opacity="0.51">
<path d="M438.595 10.6121L438.61 12.9401L432.777 16.3044L432.762 13.9764L438.595 10.6121Z" fill="#57FFEF"/>
<path d="M438.595 6.57178V8.9148L432.762 12.2791V9.93612L438.595 6.57178Z" fill="#57FFEF"/>
<path d="M442.112 4.54419L442.127 6.8722L439.722 8.269L439.707 5.92598L442.112 4.54419Z" fill="#57FFEF"/>
<path d="M446.772 1.85571L446.787 4.19875L445.104 5.15999L445.089 2.81696L446.772 1.85571Z" fill="#57FFEF"/>
<path d="M449.749 0.143555V2.48659L448.08 3.44783L448.065 1.10479L449.749 0.143555Z" fill="#57FFEF"/>
<path d="M442.127 8.56934V10.9124L439.722 12.2941V9.96614L442.127 8.56934Z" fill="#57FFEF"/>
<path d="M446.787 5.88086V8.22389L445.104 9.20015V6.85712L446.787 5.88086Z" fill="#57FFEF"/>
<path d="M449.749 4.1687L449.764 6.51173L448.08 7.47297V5.14496L449.749 4.1687Z" fill="#57FFEF"/>
</g>
<g opacity="0.51">
<path d="M327.806 352.904L327.791 355.232L333.624 358.596L333.639 356.268L327.806 352.904Z" fill="#57FFEF"/>
<path d="M327.806 349.149V351.492L333.639 354.857V352.513L327.806 349.149Z" fill="#57FFEF"/>
<path d="M335.834 357.545V359.873L338.75 361.555V359.212L335.834 357.545Z" fill="#57FFEF"/>
<path d="M335.849 353.79V356.133L338.75 357.815L338.765 355.472L335.849 353.79Z" fill="#57FFEF"/>
<path d="M322.846 350.05V352.378L325.762 354.06L325.777 351.732L322.846 350.05Z" fill="#57FFEF"/>
<path d="M322.86 346.295V348.638L325.777 350.321V347.978L322.86 346.295Z" fill="#57FFEF"/>
</g>
<g opacity="0.51">
<path d="M148.471 343.907L148.456 346.236L154.288 349.6L154.303 347.272L148.471 343.907Z" fill="#57FFEF"/>
<path d="M140.759 343.307L140.744 345.65L146.577 349.014L146.592 346.671L140.759 343.307Z" fill="#57FFEF"/>
<path d="M140.774 339.462L140.759 341.805L146.592 345.169L146.607 342.826L140.774 339.462Z" fill="#57FFEF"/>
<path d="M133.393 339.071V341.399L136.46 343.171L136.475 340.843L133.393 339.071Z" fill="#57FFEF"/>
<path d="M133.408 335.211V337.554L136.475 339.326V336.983L133.408 335.211Z" fill="#57FFEF"/>
<path d="M148.456 347.752V350.095L154.288 353.46V351.117L148.456 347.752Z" fill="#57FFEF"/>
</g>
<g opacity="0.51">
<path d="M445.089 136.88V139.223L448.156 140.996V138.653L445.089 136.88Z" fill="#57FFEF"/>
<path d="M445.074 140.74V143.068L448.14 144.841L448.156 142.513L445.074 140.74Z" fill="#57FFEF"/>
<path d="M440.158 134.042L440.143 136.37L443.225 138.142V135.814L440.158 134.042Z" fill="#57FFEF"/>
<path d="M440.143 137.887V140.23L443.21 142.002V139.659L440.143 137.887Z" fill="#57FFEF"/>
<path d="M430.553 128.5L430.538 130.828L438.294 135.303V132.96L430.553 128.5Z" fill="#57FFEF"/>
<path d="M430.538 132.344L430.523 134.688L438.279 139.148V136.82L430.538 132.344Z" fill="#57FFEF"/>
</g>
<g opacity="0.51">
<path d="M11.6614 68.0913V70.4193L17.4939 73.7836V71.4556L11.6614 68.0913Z" fill="#57FFEF"/>
<path d="M11.6764 64.051L11.6614 66.394L17.4939 69.7584L17.509 67.4154L11.6764 64.051Z" fill="#57FFEF"/>
<path d="M8.14392 62.0234V64.3665L10.5491 65.7483V63.4052L8.14392 62.0234Z" fill="#57FFEF"/>
<path d="M3.48389 59.335V61.678L5.16751 62.6392V60.3112L3.48389 59.335Z" fill="#57FFEF"/>
<path d="M0.52247 57.6228L0.507446 59.9658L2.19106 60.9271V58.584L0.52247 57.6228Z" fill="#57FFEF"/>
<path d="M8.12878 66.0486V68.3916L10.534 69.7734L10.549 67.4454L8.12878 66.0486Z" fill="#57FFEF"/>
<path d="M3.4839 63.3601L3.46887 65.7032L5.15249 66.6794V64.3364L3.4839 63.3601Z" fill="#57FFEF"/>
<path d="M0.507446 61.6479V63.991L2.17604 64.9522V62.6242L0.507446 61.6479Z" fill="#57FFEF"/>
</g>
</svg>
