<svg width="223" height="580" viewBox="0 0 223 580" fill="none" xmlns="http://www.w3.org/2000/svg">
<path d="M220.104 328.082C220.104 302.699 220.104 277.331 220.104 251.948C220.104 250.807 219.683 250.041 219.007 249.726C217.984 249.11 216.947 248.509 215.925 247.908C215.293 247.533 214.422 247.593 213.46 248.164C211.565 249.275 210.032 251.933 210.032 254.096C210.032 279.464 210.032 304.847 210.032 330.23C210.032 331.281 210.408 332.032 211.009 332.392C212.077 333.008 213.144 333.639 214.226 334.27V334.255C214.858 334.63 215.714 334.57 216.676 334.014C218.571 332.903 220.104 330.245 220.104 328.082ZM214.226 227.842C214.858 228.203 215.714 228.143 216.676 227.587C218.571 226.476 220.104 223.817 220.104 221.654C220.104 214.34 220.104 207.025 220.104 199.726C220.104 198.645 219.728 197.894 219.127 197.563C219.082 197.533 219.037 197.503 218.991 197.488C217.969 196.872 216.947 196.272 215.925 195.671C215.293 195.31 214.422 195.355 213.46 195.926C211.565 197.038 210.032 199.696 210.032 201.859C210.032 209.173 210.032 216.473 210.032 223.787C210.032 224.853 210.408 225.604 211.009 225.95C212.077 226.581 213.144 227.212 214.226 227.842ZM11.3799 12.284C17.3026 8.81457 23.2103 5.33007 29.1331 1.86059C34.1238 -1.06819 41.0838 -0.61761 48.8104 3.91825C97.5753 32.5602 146.34 61.2022 195.105 89.8292C210.258 98.7357 222.554 120.003 222.554 137.335C222.554 274.808 222.554 412.265 222.554 549.723C222.554 558.239 219.578 564.217 214.767 567.04C208.935 570.48 203.102 573.904 197.27 577.314C201.945 574.43 204.801 568.512 204.801 560.146C204.801 422.689 204.801 285.231 204.801 147.759C204.801 140.174 202.441 131.838 198.532 124.118C193.497 114.191 185.875 105.269 177.352 100.253C128.587 71.6257 79.8221 42.9837 31.0572 14.3417C23.3306 9.80585 16.3706 9.35527 11.3799 12.284Z" fill="url(#paint0_linear_595_1194)"/>
<path d="M216.677 227.587C215.714 228.143 214.858 228.203 214.226 227.827C213.625 227.497 213.249 226.746 213.249 225.68C213.249 218.365 213.249 211.051 213.249 203.751C213.249 201.573 214.782 198.93 216.677 197.819C217.563 197.293 218.375 197.203 218.992 197.488C219.037 197.503 219.082 197.533 219.127 197.563C219.728 197.894 220.104 198.645 220.104 199.726C220.104 207.025 220.104 214.34 220.104 221.654C220.104 223.817 218.571 226.476 216.677 227.587Z" fill="url(#paint1_linear_595_1194)"/>
<path d="M216.677 334.014C215.714 334.57 214.858 334.63 214.226 334.255C213.625 333.924 213.249 333.173 213.249 332.107C213.249 306.739 213.249 281.356 213.249 255.974C213.249 253.811 214.782 251.152 216.677 250.041C217.578 249.515 218.39 249.425 219.007 249.726C219.683 250.041 220.104 250.807 220.104 251.948C220.104 277.331 220.104 302.699 220.104 328.082C220.104 330.244 218.571 332.903 216.677 334.014Z" fill="url(#paint2_linear_595_1194)"/>
<path d="M216.676 197.819C214.782 198.93 213.249 201.573 213.249 203.751C213.249 211.051 213.249 218.365 213.249 225.68C213.249 226.746 213.625 227.497 214.226 227.827V227.842C213.144 227.212 212.077 226.581 211.009 225.95C210.408 225.604 210.032 224.854 210.032 223.787C210.032 216.473 210.032 209.173 210.032 201.859C210.032 199.696 211.566 197.038 213.46 195.926C214.422 195.355 215.294 195.31 215.925 195.671C216.947 196.272 217.969 196.872 218.991 197.488C218.375 197.203 217.563 197.293 216.676 197.819Z" fill="url(#paint3_linear_595_1194)"/>
<path d="M216.676 250.041C214.782 251.152 213.249 253.811 213.249 255.974C213.249 281.356 213.249 306.739 213.249 332.107C213.249 333.173 213.625 333.924 214.226 334.255V334.27C213.144 333.639 212.077 333.008 211.009 332.392C210.408 332.032 210.032 331.281 210.032 330.229C210.032 304.847 210.032 279.464 210.032 254.096C210.032 251.933 211.566 249.275 213.46 248.164C214.422 247.593 215.294 247.533 215.925 247.908C216.947 248.509 217.984 249.11 219.007 249.726C218.39 249.425 217.578 249.515 216.676 250.041Z" fill="url(#paint4_linear_595_1194)"/>
<path d="M199.78 144.815C199.78 282.273 199.78 419.745 199.78 557.203C199.78 571.351 189.724 576.938 177.352 569.684C128.587 541.042 79.8222 512.4 31.0573 483.758C24.4881 479.898 18.5654 473.184 14.4616 465.614C10.8388 458.916 8.61401 451.571 8.61401 444.933C8.61401 307.475 8.61401 170.018 8.61401 32.5452C8.61401 18.4119 18.6857 12.8097 31.0573 20.0791C79.8222 48.7211 128.587 77.348 177.352 105.99C184.312 110.075 190.535 117.375 194.654 125.5C197.856 131.808 199.78 138.627 199.78 144.815ZM128.377 89.7691C128.377 87.6663 126.888 85.098 125.054 84.0316C123.221 82.9503 121.732 83.7763 121.732 85.864C121.732 87.9667 123.221 90.535 125.054 91.6014C126.888 92.6828 128.377 91.8568 128.377 89.7691ZM115.103 81.974C115.103 80.9527 114.382 79.7061 113.495 79.1804C106.129 74.8548 98.7479 70.5292 91.382 66.2036C90.4951 65.678 89.7736 66.0835 89.7736 67.0898C89.7736 68.1111 90.4951 69.3577 91.382 69.8834C98.7479 74.209 106.129 78.5346 113.495 82.8752C114.382 83.3858 115.103 82.9953 115.103 81.974Z" fill="#070707"/>
<path d="M199.78 144.815C199.78 282.273 199.78 419.745 199.78 557.203C199.78 571.351 189.724 576.938 177.352 569.684C128.587 541.042 79.8222 512.4 31.0573 483.758C24.4881 479.898 18.5654 473.184 14.4616 465.614C10.8388 458.916 8.61401 451.571 8.61401 444.933C8.61401 307.475 8.61401 170.018 8.61401 32.5452C8.61401 18.4119 18.6857 12.8097 31.0573 20.0791C79.8222 48.7211 128.587 77.348 177.352 105.99C184.312 110.075 190.535 117.375 194.654 125.5C197.856 131.808 199.78 138.627 199.78 144.815ZM128.377 89.7691C128.377 87.6663 126.888 85.098 125.054 84.0316C123.221 82.9503 121.732 83.7763 121.732 85.864C121.732 87.9667 123.221 90.535 125.054 91.6014C126.888 92.6828 128.377 91.8568 128.377 89.7691ZM115.103 81.974C115.103 80.9527 114.382 79.7061 113.495 79.1804C106.129 74.8548 98.7479 70.5292 91.382 66.2036C90.4951 65.678 89.7736 66.0835 89.7736 67.0898C89.7736 68.1111 90.4951 69.3577 91.382 69.8834C98.7479 74.209 106.129 78.5346 113.495 82.8752C114.382 83.3858 115.103 82.9953 115.103 81.974Z" fill="url(#paint5_linear_595_1194)"/>
<path opacity="0.35" d="M199.78 216.383C199.78 192.532 199.78 168.681 199.78 144.815C199.78 138.627 197.856 131.808 194.654 125.5C190.535 117.375 184.312 110.075 177.352 105.99C128.587 77.348 79.8222 48.7211 31.0573 20.0791C18.6857 12.8097 8.61401 18.4119 8.61401 32.5452C8.61401 112.088 8.61401 191.616 8.61401 271.143C26.743 257.295 48.1641 247.428 69.1492 240.173C110.067 223.817 155.014 215.526 199.78 216.383ZM125.054 84.0316C126.888 85.098 128.377 87.6663 128.377 89.7691C128.377 91.8568 126.888 92.6828 125.054 91.6014C123.221 90.535 121.732 87.9667 121.732 85.864C121.732 83.7763 123.221 82.9503 125.054 84.0316ZM91.382 66.2036C98.7479 70.5292 106.129 74.8548 113.495 79.1804C114.382 79.7061 115.103 80.9527 115.103 81.974C115.103 82.9953 114.382 83.3858 113.495 82.8752C106.129 78.5346 98.7479 74.209 91.382 69.8834C90.4951 69.3577 89.7736 68.1111 89.7736 67.0898C89.7736 66.0835 90.4951 65.678 91.382 66.2036Z" fill="url(#paint6_linear_595_1194)"/>
<path d="M125.054 84.0316C126.888 85.098 128.377 87.6663 128.377 89.769C128.377 91.8567 126.888 92.6828 125.054 91.6014C123.221 90.535 121.732 87.9667 121.732 85.864C121.732 83.7763 123.221 82.9502 125.054 84.0316Z" fill="#070707"/>
<path d="M113.495 82.8753C106.129 78.5347 98.7478 74.2091 91.382 69.8835C90.4951 69.3578 89.7736 68.1112 89.7736 67.0899C89.7736 66.0836 90.4951 65.6781 91.382 66.2038C98.7478 70.5293 106.129 74.8549 113.495 79.1805C114.381 79.7062 115.103 80.9528 115.103 81.9741C115.103 82.9954 114.381 83.3859 113.495 82.8753Z" fill="#070707"/>
<path d="M198.532 124.118C193.497 114.19 185.875 105.269 177.352 100.252C128.587 71.6255 79.8221 42.9836 31.0572 14.3416C23.3306 9.80573 16.3706 9.35515 11.3799 12.2839C6.56952 15.1076 3.60815 21.0853 3.60815 29.6013C3.60815 167.074 3.60815 304.531 3.60815 441.989C3.60815 450.114 6.29893 459.096 10.7335 467.281C15.7543 476.548 22.9999 484.764 31.0572 489.495C79.8221 518.137 128.587 546.779 177.352 575.406C185.063 579.942 192.038 580.392 197.029 577.464C197.104 577.419 197.195 577.373 197.27 577.313C201.945 574.43 204.801 568.512 204.801 560.146C204.801 422.689 204.801 285.231 204.801 147.759C204.801 140.174 202.441 131.838 198.532 124.118ZM199.78 557.202C199.78 571.351 189.723 576.938 177.352 569.684C128.587 541.042 79.8221 512.4 31.0572 483.758C24.4881 479.898 18.5653 473.184 14.4615 465.614C10.8387 458.916 8.61392 451.571 8.61392 444.932C8.61392 307.475 8.61392 170.018 8.61392 32.5451C8.61392 18.4118 18.6856 12.8096 31.0572 20.079C79.8221 48.721 128.587 77.3479 177.352 105.99C184.312 110.075 190.535 117.375 194.654 125.5C197.856 131.808 199.78 138.627 199.78 144.815C199.78 282.272 199.78 419.745 199.78 557.202Z" fill="url(#paint7_linear_595_1194)"/>
<path d="M199.78 535.785C203.018 535.785 205.643 438.2 205.643 317.823C205.643 197.447 203.018 99.8621 199.78 99.8621C196.542 99.8621 193.917 197.447 193.917 317.823C193.917 438.2 196.542 535.785 199.78 535.785Z" fill="url(#paint8_radial_595_1194)"/>
<path d="M195.105 131.283C196.037 131.283 196.263 228.879 195.601 349.259C194.94 469.64 193.662 567.221 192.73 567.221C191.798 567.221 191.572 469.625 192.234 349.244C192.88 228.849 194.173 131.268 195.105 131.283Z" fill="url(#paint9_radial_595_1194)"/>
<g style="mix-blend-mode:screen" opacity="0.56">
<path d="M204.741 131.988C199.314 141.391 150.309 123.292 95.3054 91.5563C40.3021 59.8203 0.120678 26.4773 5.54735 17.0751C10.974 7.67298 59.9794 25.7713 114.983 57.5073C169.986 89.2433 210.183 122.586 204.741 131.988Z" fill="url(#paint10_radial_595_1194)"/>
</g>
<path d="M198.668 577.298C198.157 578.17 153.375 552.772 98.6426 520.57C43.9099 488.369 -0.0446507 461.574 0.466449 460.703C0.977548 459.832 45.7589 485.23 100.492 517.431C155.224 549.618 199.179 576.427 198.668 577.298Z" fill="url(#paint11_radial_595_1194)"/>
<path d="M125.054 84.0316C126.888 85.098 128.377 87.6663 128.377 89.769C128.377 91.8567 126.888 92.6828 125.054 91.6014C123.221 90.535 121.732 87.9667 121.732 85.864C121.732 83.7763 123.221 82.9502 125.054 84.0316Z" fill="#070707"/>
<path d="M113.495 82.8753C106.129 78.5347 98.7478 74.2091 91.382 69.8835C90.4951 69.3578 89.7736 68.1112 89.7736 67.0899C89.7736 66.0836 90.4951 65.6781 91.382 66.2038C98.7478 70.5293 106.129 74.8549 113.495 79.1805C114.381 79.7062 115.103 80.9528 115.103 81.9741C115.103 82.9954 114.381 83.3859 113.495 82.8753Z" fill="#070707"/>
<defs>
<linearGradient id="paint0_linear_595_1194" x1="298.93" y1="610.484" x2="92.8328" y2="14.8357" gradientUnits="userSpaceOnUse">
<stop stop-color="#323232"/>
<stop offset="0.3771" stop-color="#030611"/>
<stop offset="0.7514" stop-color="white"/>
<stop offset="1"/>
</linearGradient>
<linearGradient id="paint1_linear_595_1194" x1="220.691" y1="235.312" x2="209.628" y2="173" gradientUnits="userSpaceOnUse">
<stop stop-color="#323232"/>
<stop offset="0.7514" stop-color="white"/>
<stop offset="1"/>
</linearGradient>
<linearGradient id="paint2_linear_595_1194" x1="221.223" y1="334.567" x2="206.559" y2="197.33" gradientUnits="userSpaceOnUse">
<stop stop-color="#323232"/>
<stop offset="0.7514" stop-color="white"/>
<stop offset="1"/>
</linearGradient>
<linearGradient id="paint3_linear_595_1194" x1="209.45" y1="230.043" x2="216.139" y2="191.419" gradientUnits="userSpaceOnUse">
<stop stop-color="#323232"/>
<stop offset="0.7514" stop-color="white"/>
<stop offset="1"/>
</linearGradient>
<linearGradient id="paint4_linear_595_1194" x1="211.012" y1="305.825" x2="216.671" y2="245.833" gradientUnits="userSpaceOnUse">
<stop stop-color="#323232"/>
<stop offset="0.7514" stop-color="white"/>
<stop offset="1"/>
</linearGradient>
<linearGradient id="paint5_linear_595_1194" x1="8.6071" y1="294.885" x2="199.773" y2="294.885" gradientUnits="userSpaceOnUse">
<stop stop-color="#1D64EF"/>
<stop offset="1" stop-color="white"/>
<stop offset="1" stop-color="#0057FF"/>
</linearGradient>
<linearGradient id="paint6_linear_595_1194" x1="8.6071" y1="144.022" x2="199.773" y2="144.022" gradientUnits="userSpaceOnUse">
<stop stop-color="#1D64EF"/>
<stop offset="1" stop-color="white"/>
<stop offset="1" stop-color="#0057FF"/>
</linearGradient>
<linearGradient id="paint7_linear_595_1194" x1="16.0234" y1="437.79" x2="224.498" y2="99.307" gradientUnits="userSpaceOnUse">
<stop stop-color="#323232"/>
<stop offset="0.198" stop-color="#030611"/>
<stop offset="0.8106" stop-color="white"/>
<stop offset="1"/>
</linearGradient>
<radialGradient id="paint8_radial_595_1194" cx="0" cy="0" r="1" gradientUnits="userSpaceOnUse" gradientTransform="translate(199.773 317.829) rotate(90) scale(217.942 5.86077)">
<stop stop-color="white"/>
<stop offset="0.0355" stop-color="#ECECEC"/>
<stop offset="0.1447" stop-color="#B5B5B5"/>
<stop offset="0.2577" stop-color="#858585"/>
<stop offset="0.3722" stop-color="#5C5C5C"/>
<stop offset="0.4886" stop-color="#3B3B3B"/>
<stop offset="0.6074" stop-color="#212121"/>
<stop offset="0.7297" stop-color="#0E0E0E"/>
<stop offset="0.8575" stop-color="#040404"/>
<stop offset="1"/>
</radialGradient>
<radialGradient id="paint9_radial_595_1194" cx="0" cy="0" r="1" gradientUnits="userSpaceOnUse" gradientTransform="translate(193.913 349.24) rotate(90.3122) scale(217.875 1.69098)">
<stop stop-color="white"/>
<stop offset="0.0355" stop-color="#ECECEC"/>
<stop offset="0.1447" stop-color="#B5B5B5"/>
<stop offset="0.2577" stop-color="#858585"/>
<stop offset="0.3722" stop-color="#5C5C5C"/>
<stop offset="0.4886" stop-color="#3B3B3B"/>
<stop offset="0.6074" stop-color="#212121"/>
<stop offset="0.7297" stop-color="#0E0E0E"/>
<stop offset="0.8575" stop-color="#040404"/>
<stop offset="1"/>
</radialGradient>
<radialGradient id="paint10_radial_595_1194" cx="0" cy="0" r="1" gradientUnits="userSpaceOnUse" gradientTransform="translate(105.147 74.5383) rotate(-150.022) scale(114.981 19.6629)">
<stop stop-color="white"/>
<stop offset="0.0355" stop-color="#ECECEC"/>
<stop offset="0.1447" stop-color="#B5B5B5"/>
<stop offset="0.2577" stop-color="#858585"/>
<stop offset="0.3722" stop-color="#5C5C5C"/>
<stop offset="0.4886" stop-color="#3B3B3B"/>
<stop offset="0.6074" stop-color="#212121"/>
<stop offset="0.7297" stop-color="#0E0E0E"/>
<stop offset="0.8575" stop-color="#040404"/>
<stop offset="1"/>
</radialGradient>
<radialGradient id="paint11_radial_595_1194" cx="0" cy="0" r="1" gradientUnits="userSpaceOnUse" gradientTransform="translate(99.5594 518.998) rotate(-149.535) scale(115 1.82367)">
<stop stop-color="white"/>
<stop offset="0.0355" stop-color="#ECECEC"/>
<stop offset="0.1447" stop-color="#B5B5B5"/>
<stop offset="0.2577" stop-color="#858585"/>
<stop offset="0.3722" stop-color="#5C5C5C"/>
<stop offset="0.4886" stop-color="#3B3B3B"/>
<stop offset="0.6074" stop-color="#212121"/>
<stop offset="0.7297" stop-color="#0E0E0E"/>
<stop offset="0.8575" stop-color="#040404"/>
<stop offset="1"/>
</radialGradient>
</defs>
</svg>
