<svg width="423" height="382" viewBox="0 0 423 382" fill="none" xmlns="http://www.w3.org/2000/svg">
<path d="M16.1942 316.714L15.1935 316.456L66.8022 113.526C69.1746 104.202 75.9771 96.6419 85.0058 93.3056L335.91 0.495728L336.269 1.46179L85.3656 94.2716C76.6517 97.4956 70.0854 104.786 67.8029 113.784L16.1942 316.714Z" fill="#6CBDFF"/>
<path d="M50.555 332.25L49.5543 331.991L101.163 129.061C103.535 119.738 110.338 112.178 119.367 108.841L370.27 16.0314L370.63 16.9974L119.715 109.807C111.001 113.031 104.435 120.322 102.152 129.32L50.555 332.25Z" fill="#6CBDFF"/>
<path d="M93.6972 356.851L92.6965 356.593L144.305 153.662C146.678 144.339 153.48 136.779 162.509 133.442L413.413 40.6324L413.773 41.5985L162.869 134.408C154.155 137.632 147.588 144.923 145.306 153.921L93.6972 356.851Z" fill="#6CBDFF"/>
<path d="M162.936 381.665L161.935 381.407L213.544 178.477C215.916 169.153 222.719 161.593 231.748 158.257L482.651 65.4469L483.011 66.413L232.107 159.223C223.394 162.447 216.827 169.737 214.545 178.735L162.936 381.665Z" fill="#6CBDFF"/>
<path d="M64.3749 70.0592L63.8889 70.9714L301.748 197.45L302.234 196.538L64.3749 70.0592Z" fill="#6CBDFF"/>
<path d="M23.0912 89.6096L22.6741 90.5553L313.497 218.575L313.914 217.63L23.0912 89.6096Z" fill="#6CBDFF"/>
<path d="M132.762 22.4714L132.13 23.2897L320.175 168.215L320.807 167.396L132.762 22.4714Z" fill="#6CBDFF"/>
<path d="M0.949291 229.726L0.94751 230.76L308.553 231.289L308.555 230.256L0.949291 229.726Z" fill="#6CBDFF"/>
</svg>
