<svg width="145" height="118" viewBox="0 0 145 118" fill="none" xmlns="http://www.w3.org/2000/svg">
<path d="M47.9343 67.4422C66.3213 67.4422 81.227 52.5503 81.227 34.1802C81.227 15.8102 66.3213 0.918335 47.9343 0.918335C29.5472 0.918335 14.6416 15.8102 14.6416 34.1802C14.6416 52.5503 29.5472 67.4422 47.9343 67.4422Z" fill="url(#paint0_radial_659_193)"/>
<g style="mix-blend-mode:screen" opacity="0.46">
<path d="M1.93611 40.9202C10.3014 11.8596 48.6201 -2.63141 87.5121 8.55699C126.404 19.7342 151.152 52.3558 142.775 81.4164C134.41 110.477 96.0911 124.968 57.199 113.78C18.307 102.591 -6.44046 69.9696 1.93611 40.9202Z" fill="url(#paint1_radial_659_193)"/>
</g>
<defs>
<radialGradient id="paint0_radial_659_193" cx="0" cy="0" r="1" gradientUnits="userSpaceOnUse" gradientTransform="translate(30.0437 2.73409) scale(66.8765 66.8147)">
<stop stop-color="#ED1E79"/>
<stop offset="0.8073" stop-color="#1B1464"/>
<stop offset="1" stop-color="#662D91"/>
</radialGradient>
<radialGradient id="paint1_radial_659_193" cx="0" cy="0" r="1" gradientUnits="userSpaceOnUse" gradientTransform="translate(72.3541 61.1633) rotate(16.0401) scale(73.2747 54.7528)">
<stop stop-color="#29ABE2"/>
<stop offset="0.1796" stop-color="#1F81AA"/>
<stop offset="0.3938" stop-color="#14536E"/>
<stop offset="0.5908" stop-color="#0B2F3F"/>
<stop offset="0.7637" stop-color="#05161C"/>
<stop offset="0.906" stop-color="#010608"/>
<stop offset="1"/>
</radialGradient>
</defs>
</svg>
