<svg width="180" height="225" viewBox="0 0 180 225" fill="none" xmlns="http://www.w3.org/2000/svg">
<g opacity="0.3">
<path d="M40.4557 86.1688C40.2196 86.6406 39.9835 87.1011 39.7586 87.5729C39.5337 88.0447 39.3089 88.5053 39.084 88.9771C38.8704 89.4489 38.6455 89.9207 38.4431 90.3813C38.2295 90.8531 38.0271 91.3249 37.8247 91.7967L35.2499 91.0103C35.4635 90.5048 35.6884 89.9993 35.9133 89.4938C36.1381 88.9883 36.3742 88.4828 36.5991 87.9773C36.8352 87.4718 37.0714 86.9663 37.3187 86.4608C37.5661 85.9553 37.8135 85.4498 38.0721 84.9556C38.6455 83.8435 39.2302 82.7426 39.8373 81.6642C40.4445 80.5858 41.0629 79.5299 41.7038 78.4852C42.3447 77.4405 42.9968 76.4295 43.6714 75.4297C44.3461 74.4299 45.0319 73.4526 45.729 72.4866L47.573 74.5872C46.9209 75.4746 46.28 76.3845 45.6616 77.3169C45.0432 78.2493 44.4248 79.1929 43.8288 80.1589C43.2329 81.125 42.6595 82.1023 42.0861 83.1133C41.5351 84.1131 40.9842 85.1353 40.4557 86.1688Z" fill="#0098FF"/>
<path d="M36.0595 96.3348C35.4973 97.9187 34.9801 99.5026 34.5191 101.075C34.0581 102.659 33.6533 104.232 33.2935 105.816C32.9337 107.4 32.6414 108.972 32.3828 110.534C32.1354 112.106 31.933 113.668 31.7869 115.218L28.6836 116.252C28.841 114.578 29.0659 112.893 29.347 111.197C29.6168 109.512 29.9541 107.815 30.3364 106.108C30.7187 104.412 31.1685 102.704 31.6632 101.008C32.1579 99.3117 32.7201 97.6042 33.3273 95.8967L36.0595 96.3348Z" fill="#0098FF"/>
<path d="M63.8652 54.311L64.4274 57.8158C63.1793 58.692 61.9425 59.6244 60.7282 60.6129C59.5251 61.6015 58.3333 62.6349 57.1752 63.7246C56.017 64.803 54.8814 65.9375 53.7683 67.117C52.6664 68.2965 51.5758 69.521 50.5301 70.7903L48.911 68.3864C50.0466 67.0159 51.2047 65.6904 52.3966 64.421C53.5884 63.1404 54.814 61.916 56.0508 60.7477C57.2988 59.5682 58.5806 58.4449 59.8736 57.3777C61.2004 56.2881 62.5272 55.2659 63.8652 54.311Z" fill="#0098FF"/>
<path d="M31.5283 119.835C31.4945 121.397 31.5058 122.935 31.5845 124.452C31.6632 125.98 31.7869 127.485 31.978 128.957C32.1692 130.451 32.4165 131.911 32.7313 133.338C33.0462 134.775 33.4172 136.191 33.8445 137.561L30.7412 140.482C30.2914 138.988 29.8979 137.449 29.5831 135.876C29.2683 134.326 29.0097 132.731 28.8073 131.113C28.6161 129.507 28.4812 127.878 28.4137 126.227C28.3463 124.587 28.335 122.924 28.38 121.239L31.5283 119.835Z" fill="#0098FF"/>
<path d="M85.4532 44.6952L84.3851 49.1436C83.0021 49.3795 81.6191 49.694 80.2474 50.0872C78.8757 50.4691 77.5152 50.9297 76.1659 51.4577C74.8167 51.9744 73.4787 52.5698 72.1519 53.2213C70.8364 53.8728 69.5209 54.5805 68.2279 55.3556L67.958 51.6262C69.3522 50.7837 70.7689 49.9973 72.1856 49.2784C73.6248 48.5595 75.064 47.9079 76.5257 47.3238C77.9987 46.7397 79.4716 46.2229 80.9558 45.7848C82.4512 45.3355 83.9466 44.976 85.4532 44.6952Z" fill="#0098FF"/>
<path d="M44.7846 154.501C44.7958 154.501 44.7958 154.512 44.807 154.512C44.8183 154.512 44.8183 154.524 44.8295 154.524C44.8408 154.524 44.8408 154.535 44.852 154.535C44.8633 154.535 44.8633 154.546 44.8633 154.546L42.4908 159.197C42.4796 159.197 42.4796 159.185 42.4683 159.185C42.4571 159.185 42.4571 159.174 42.4459 159.174C42.4346 159.174 42.4346 159.163 42.4234 159.163C42.4121 159.163 42.4121 159.152 42.4009 159.152C41.2653 158.186 40.1971 157.141 39.2077 156.029C38.2295 154.939 37.3075 153.771 36.4642 152.558C35.6322 151.356 34.8563 150.098 34.148 148.795C33.4509 147.503 32.8212 146.155 32.2478 144.773L35.2724 141.482C35.8121 142.74 36.408 143.964 37.0601 145.144C37.7235 146.334 38.4431 147.469 39.2302 148.559C40.0172 149.66 40.8717 150.704 41.7937 151.693C42.7382 152.693 43.7277 153.625 44.7846 154.501Z" fill="#0098FF"/>
<path d="M89.8495 44.1223C90.7602 44.0549 91.671 44.0212 92.5817 44.0212C93.4925 44.0212 94.4145 44.0549 95.314 44.1223C96.2247 44.1897 97.1354 44.2908 98.0462 44.4369C98.9569 44.5829 99.8677 44.7626 100.767 44.9761C101.307 45.1109 101.835 45.2457 102.364 45.4029C102.892 45.5602 103.409 45.7287 103.927 45.9084C104.444 46.0882 104.95 46.2791 105.445 46.4926C105.951 46.6948 106.445 46.9194 106.929 47.1553L103.994 51.7161C103.556 51.4914 103.106 51.2892 102.645 51.087C102.195 50.8848 101.734 50.7051 101.262 50.5253C100.801 50.3456 100.329 50.1883 99.8452 50.0311C99.3729 49.885 98.8894 49.739 98.3947 49.6154C97.5739 49.402 96.7419 49.2223 95.9099 49.0762C95.0778 48.9302 94.2458 48.8179 93.4138 48.7505C92.5817 48.6718 91.7497 48.6269 90.9064 48.6157C90.0744 48.6044 89.2423 48.6269 88.399 48.6718L89.8495 44.1223Z" fill="#0098FF"/>
<path d="M48.0566 156.838C49.2372 157.557 50.4515 158.186 51.6995 158.725C52.9588 159.264 54.2631 159.713 55.6011 160.073C56.9504 160.432 58.3221 160.702 59.7276 160.87C61.1443 161.039 62.5835 161.118 64.0564 161.106L63.3368 166.757C61.7402 166.745 60.1548 166.633 58.6144 166.42C57.0853 166.206 55.5899 165.88 54.1169 165.465C52.6665 165.049 51.261 164.521 49.8893 163.903C48.5288 163.286 47.2133 162.578 45.9427 161.758L48.0566 156.838Z" fill="#0098FF"/>
<path d="M118.442 67.3079C117.79 65.8588 117.059 64.4884 116.25 63.1853C115.451 61.8935 114.597 60.6803 113.664 59.5345C112.742 58.3999 111.764 57.3552 110.718 56.3779C109.683 55.4118 108.593 54.5356 107.435 53.7381L110.729 49.2897C112.011 50.1322 113.225 51.0758 114.372 52.098C115.541 53.1427 116.632 54.266 117.655 55.4792C118.69 56.7037 119.657 58.018 120.545 59.4221C121.444 60.8375 122.265 62.3203 123.007 63.893L118.442 67.3079Z" fill="#0098FF"/>
<path d="M68.565 160.758C70.1392 160.533 71.7245 160.219 73.3099 159.792C74.9177 159.365 76.5368 158.826 78.1559 158.197C79.7863 157.557 81.4166 156.815 83.047 155.973C84.6773 155.119 86.3076 154.175 87.9267 153.131L89.5908 158.354C87.8143 159.489 86.0153 160.522 84.2051 161.432C82.4173 162.342 80.6183 163.128 78.8193 163.814C77.0428 164.488 75.2663 165.049 73.4898 165.487C71.7358 165.925 70.0042 166.251 68.2727 166.465L68.565 160.758Z" fill="#0098FF"/>
<path d="M122.389 94.1107C122.569 92.0662 122.647 90.0555 122.636 88.0784C122.625 86.1126 122.524 84.1917 122.333 82.3269C122.141 80.4622 121.872 78.6536 121.512 76.9012C121.152 75.1601 120.714 73.4751 120.196 71.8575L125.02 68.8582C125.616 70.6218 126.122 72.4641 126.538 74.3625C126.954 76.2834 127.28 78.2605 127.505 80.3049C127.73 82.3606 127.865 84.4725 127.887 86.6293C127.91 88.7973 127.842 91.0215 127.662 93.2794L122.389 94.1107Z" fill="#0098FF"/>
<path d="M94.808 154.658L92.6379 149.727C94.1896 148.502 95.7187 147.188 97.2029 145.773C98.6983 144.357 100.171 142.852 101.588 141.268C103.016 139.673 104.399 137.988 105.737 136.224C107.075 134.461 108.357 132.607 109.593 130.686L113.619 133.708C112.258 135.831 110.83 137.876 109.346 139.819C107.862 141.762 106.322 143.616 104.736 145.368C103.151 147.121 101.532 148.772 99.8676 150.322C98.2148 151.872 96.5283 153.322 94.808 154.658Z" fill="#0098FF"/>
<path d="M113.686 123.542C114.676 121.61 115.586 119.655 116.407 117.701C117.228 115.746 117.97 113.78 118.633 111.826C119.286 109.871 119.87 107.916 120.365 105.973C120.86 104.03 121.264 102.109 121.602 100.199L126.83 100.008C126.47 102.12 126.032 104.254 125.492 106.389C124.952 108.534 124.323 110.702 123.603 112.859C122.884 115.027 122.063 117.195 121.163 119.352C120.253 121.52 119.252 123.666 118.161 125.811C118.094 125.946 118.026 126.081 117.959 126.216C117.891 126.35 117.824 126.485 117.745 126.62C117.678 126.755 117.599 126.89 117.532 127.024C117.464 127.159 117.385 127.294 117.318 127.429L112.944 125.002C113.012 124.879 113.068 124.755 113.135 124.643C113.203 124.519 113.259 124.396 113.326 124.283C113.394 124.16 113.45 124.036 113.518 123.924C113.562 123.789 113.63 123.666 113.686 123.542Z" fill="#0098FF"/>
</g>
<g opacity="0.3">
<path d="M21.0154 75.351L23.489 76.5979C23.5452 76.6203 23.5902 76.6765 23.6127 76.7327C23.6464 76.7888 23.6577 76.8675 23.6577 76.9573C23.6577 77.036 23.6464 77.1371 23.6239 77.2269C23.6015 77.328 23.5565 77.4291 23.5115 77.5302C23.4553 77.6313 23.3991 77.7212 23.3316 77.7998C23.2641 77.8785 23.1967 77.9346 23.1292 77.9908C23.0618 78.0357 22.9943 78.0694 22.9268 78.0807C22.8594 78.0919 22.8031 78.0919 22.7469 78.0582L20.2845 76.7888L21.0154 75.351Z" fill="#0098FF"/>
<path d="M17.811 74.6208C18.0021 74.2614 18.2157 73.9356 18.4406 73.6548C18.6767 73.3739 18.9241 73.138 19.1714 72.9695C19.4188 72.7898 19.6774 72.6775 19.9135 72.6213C20.1496 72.5764 20.3745 72.5876 20.5769 72.6887L24.5235 74.6321C24.7258 74.7332 24.8833 74.9017 24.9957 75.1263C25.1081 75.351 25.1644 75.6318 25.1756 75.9464C25.1868 76.2609 25.1419 76.6091 25.0519 76.9686C24.962 77.3281 24.8158 77.71 24.6247 78.0919C24.4335 78.4626 24.2086 78.7996 23.9613 79.0917C23.7139 79.3838 23.4553 79.6197 23.1967 79.7882C22.9381 79.9679 22.6795 80.0802 22.4321 80.1252C22.1848 80.1701 21.9486 80.1476 21.7463 80.0353L17.8559 77.9796C17.6648 77.8785 17.5186 77.71 17.4174 77.4853C17.3162 77.2607 17.2713 76.9911 17.26 76.6878C17.26 76.3845 17.305 76.0475 17.3949 75.6992C17.4849 75.351 17.6198 74.9803 17.811 74.6208ZM24.1074 75.4184L20.1721 73.4638C20.0372 73.3964 19.8798 73.3852 19.7111 73.4189C19.5425 73.4526 19.3626 73.5424 19.1939 73.666C19.014 73.7896 18.8454 73.9581 18.6767 74.149C18.5081 74.3512 18.3619 74.5759 18.227 74.8343C18.092 75.0926 18.0021 75.351 17.9346 75.5981C17.8672 75.8453 17.8447 76.0812 17.8447 76.3058C17.8447 76.5193 17.8897 76.7102 17.9571 76.8675C18.0246 77.0248 18.1258 77.1484 18.2719 77.2158L22.1623 79.249C22.3084 79.3276 22.4659 79.3389 22.6458 79.3052C22.8257 79.2715 23.0056 79.1928 23.1855 79.0692C23.3654 78.9457 23.5565 78.7772 23.7252 78.575C23.8938 78.3728 24.0512 78.1369 24.1862 77.8673C24.3211 77.5977 24.4223 77.3281 24.4897 77.0809C24.5572 76.8226 24.5797 76.5754 24.5797 76.3508C24.5684 76.1261 24.5347 75.9351 24.456 75.7666C24.3548 75.6094 24.2536 75.4858 24.1074 75.4184Z" fill="#0098FF"/>
<path d="M7.89399 133.91C8.17508 133.753 8.44493 133.686 8.6923 133.697C8.93966 133.708 9.16453 133.798 9.34443 133.966C9.53557 134.124 9.68174 134.36 9.78293 134.652C9.88413 134.944 9.94035 135.303 9.94035 135.708C9.94035 135.91 9.9291 136.112 9.89537 136.314C9.87289 136.516 9.82791 136.73 9.77169 136.932C9.71547 137.134 9.65926 137.348 9.58055 137.55C9.50184 137.752 9.41189 137.954 9.32194 138.145C9.22075 138.336 9.11956 138.527 9.00712 138.696C8.89468 138.864 8.771 139.021 8.64732 139.168C8.52364 139.314 8.38871 139.437 8.25379 139.549C8.11887 139.662 7.98394 139.752 7.84902 139.83L2.3171 142.807C2.036 142.953 1.7774 143.009 1.54128 142.998C1.30516 142.976 1.09153 142.875 0.922877 142.706C0.742978 142.538 0.608052 142.302 0.518102 142.01C0.428152 141.717 0.383179 141.358 0.383179 140.965C0.383179 140.763 0.405665 140.56 0.439397 140.358C0.473128 140.156 0.518103 139.954 0.563078 139.752C0.619297 139.549 0.686757 139.347 0.75422 139.156C0.832926 138.965 0.911633 138.774 1.00158 138.595C1.09153 138.415 1.19273 138.246 1.30516 138.078C1.4176 137.921 1.53004 137.763 1.64248 137.629C1.76616 137.494 1.88984 137.359 2.01352 137.258C2.14844 137.146 2.27212 137.056 2.41829 136.977L7.89399 133.91ZM9.33319 136.045C9.33319 135.753 9.29945 135.505 9.22075 135.292C9.15329 135.079 9.04085 134.921 8.90592 134.809C8.771 134.697 8.61359 134.629 8.44493 134.618C8.27628 134.607 8.08513 134.652 7.88275 134.764L2.40705 137.786C2.30586 137.842 2.21591 137.909 2.12596 137.988C2.03601 138.067 1.94605 138.157 1.8561 138.258C1.76615 138.359 1.68745 138.46 1.61999 138.583C1.54128 138.696 1.47382 138.819 1.40636 138.943C1.3389 139.066 1.28268 139.201 1.22646 139.336C1.17024 139.471 1.12526 139.617 1.09153 139.752C1.0578 139.898 1.02407 140.032 1.00158 140.179C0.979096 140.325 0.967853 140.471 0.967853 140.605C0.956609 140.886 0.990338 141.145 1.0578 141.347C1.12526 141.56 1.22645 141.717 1.35014 141.841C1.47382 141.965 1.61999 142.032 1.78865 142.043C1.9573 142.054 2.1372 142.01 2.33959 141.908L7.86026 138.92C7.96145 138.864 8.0514 138.797 8.1526 138.729C8.24255 138.651 8.34374 138.561 8.42244 138.46C8.51239 138.359 8.5911 138.246 8.68105 138.134C8.75976 138.01 8.83846 137.887 8.90592 137.752C8.97339 137.617 9.04085 137.471 9.09707 137.336C9.15329 137.19 9.19826 137.044 9.23199 136.898C9.26573 136.752 9.29945 136.606 9.32194 136.46C9.32194 136.325 9.33319 136.191 9.33319 136.045Z" fill="#0098FF"/>
<path d="M4.41969 137.954L7.88276 136.056C7.96147 136.011 8.02893 136 8.09639 136C8.16385 136 8.22007 136.033 8.27629 136.078C8.33251 136.123 8.36624 136.191 8.38873 136.269C8.41122 136.348 8.4337 136.438 8.4337 136.55C8.4337 136.606 8.4337 136.663 8.42246 136.719C8.41121 136.775 8.39997 136.831 8.38873 136.887C8.37748 136.943 8.355 137 8.33251 137.044C8.31002 137.101 8.28753 137.146 8.26505 137.202C8.24256 137.247 8.20883 137.303 8.18634 137.348C8.15261 137.393 8.13012 137.438 8.09639 137.471C8.06266 137.505 8.02893 137.539 7.9952 137.572C7.96147 137.606 7.92773 137.629 7.88276 137.651L4.40845 139.538L4.41969 137.954Z" fill="#0098FF"/>
<path d="M61.3692 21.6444C61.684 21.3973 61.9988 21.2288 62.3024 21.1389C62.5947 21.0378 62.8646 21.0153 63.1119 21.0603C63.3481 21.1052 63.5505 21.2175 63.7079 21.3973C63.8653 21.577 63.9665 21.8241 64.0115 22.1387L64.8435 28.3619C64.866 28.5192 64.866 28.6877 64.8547 28.8562C64.8435 29.0247 64.821 29.2045 64.776 29.3954C64.7311 29.5752 64.6748 29.7661 64.6074 29.9571C64.5399 30.1481 64.45 30.339 64.3488 30.5412C64.2476 30.7322 64.1351 30.9231 64.0227 31.1029C63.899 31.2826 63.7753 31.4511 63.6404 31.6196C63.5055 31.7881 63.3593 31.9342 63.2131 32.0802C63.067 32.2262 62.9096 32.3498 62.7522 32.4733C62.4261 32.7093 62.1 32.8778 61.7964 32.9676C61.4929 33.0575 61.223 33.0687 60.9756 33.0125C60.7395 32.9564 60.5259 32.8328 60.3797 32.6419C60.2223 32.4509 60.1211 32.1925 60.0874 31.878L59.3341 25.6772C59.3116 25.5199 59.3116 25.3626 59.3228 25.1941C59.3341 25.0256 59.3678 24.8459 59.4015 24.6662C59.4465 24.4864 59.5027 24.3067 59.5702 24.127C59.6376 23.9472 59.7163 23.7675 59.8063 23.5878C59.8962 23.408 59.9974 23.2283 60.1099 23.0598C60.2223 22.8913 60.346 22.7228 60.4809 22.5543C60.6158 22.397 60.7508 22.2398 60.8969 22.0937C61.0543 21.8915 61.2005 21.7567 61.3692 21.6444ZM63.3143 22.6329C63.2806 22.4083 63.2131 22.2398 63.1007 22.1162C62.9883 21.9926 62.8421 21.914 62.6734 21.8803C62.5048 21.8466 62.3136 21.8691 62.1 21.9365C61.8976 22.0039 61.6728 22.1274 61.4479 22.2959C61.3354 22.3858 61.223 22.4757 61.1218 22.5768C61.0206 22.6779 60.9194 22.7902 60.8295 22.9025C60.7395 23.0149 60.6496 23.1384 60.5709 23.262C60.4922 23.3856 60.4135 23.5091 60.3572 23.6327C60.2898 23.7563 60.2336 23.8911 60.1886 24.0146C60.1436 24.1382 60.0986 24.273 60.0761 24.3966C60.0424 24.5201 60.0312 24.6437 60.0199 24.7673C60.0087 24.8908 60.0087 25.0032 60.0312 25.1155L60.7957 31.3275C60.8182 31.5522 60.8969 31.7319 61.0094 31.8667C61.1218 32.0015 61.268 32.0914 61.4366 32.1251C61.6053 32.1588 61.8077 32.1476 62.0101 32.0914C62.2237 32.024 62.4486 31.9117 62.6847 31.7432C62.7971 31.6645 62.9096 31.5635 63.0108 31.4736C63.112 31.3725 63.2131 31.2601 63.3143 31.1478C63.4155 31.0355 63.5055 30.9119 63.5842 30.7883C63.6629 30.6648 63.7416 30.53 63.8203 30.3952C63.8878 30.2604 63.9552 30.1256 64.0002 29.9908C64.0452 29.856 64.0902 29.7212 64.1239 29.5976C64.1576 29.4628 64.1689 29.3392 64.1801 29.2157C64.1914 29.0921 64.1801 28.9798 64.1689 28.8674L63.3143 22.6329Z" fill="#0098FF"/>
<path d="M61.313 26.6433L62.5723 25.7109L63.0783 29.6314C63.0783 29.6763 63.0895 29.7212 63.0783 29.7662C63.0783 29.8111 63.067 29.8673 63.0558 29.9122C63.0445 29.9571 63.0333 30.0133 63.0108 30.0582C62.9883 30.1032 62.9658 30.1593 62.9433 30.2043C62.9208 30.2492 62.8871 30.3054 62.8534 30.3503C62.8197 30.3952 62.7859 30.4402 62.7522 30.4851C62.7185 30.53 62.6735 30.575 62.6397 30.6087C62.606 30.6424 62.561 30.6873 62.5161 30.7098C62.4261 30.7772 62.3474 30.8221 62.2575 30.8446C62.1788 30.867 62.1 30.8783 62.0326 30.8558C61.9651 30.8446 61.9089 30.8109 61.8752 30.7547C61.8302 30.6985 61.8077 30.6311 61.7965 30.5525L61.313 26.6433Z" fill="#0098FF"/>
<path d="M119.038 3.56998C119.274 3.10942 119.578 2.67132 119.927 2.27815C120.275 1.88498 120.657 1.53675 121.073 1.25592C121.478 0.963849 121.905 0.739182 122.333 0.593149C122.76 0.447115 123.176 0.379717 123.558 0.402184C123.952 0.424651 124.278 0.548215 124.525 0.750415C124.773 0.952615 124.953 1.22221 125.054 1.54798C125.155 1.87375 125.177 2.26692 125.11 2.68255C125.042 3.10942 124.896 3.55875 124.649 4.03055L119.893 13.3318C119.645 13.8036 119.342 14.2417 118.993 14.6348C118.645 15.028 118.251 15.3762 117.835 15.6458C117.43 15.9266 117.003 16.1401 116.576 16.2637C116.16 16.3985 115.744 16.4434 115.362 16.3985C114.979 16.3535 114.676 16.2075 114.44 15.9941C114.204 15.7806 114.035 15.4998 113.945 15.1628C113.855 14.8258 113.844 14.4439 113.911 14.017C113.979 13.6014 114.136 13.1408 114.372 12.6802L119.038 3.56998ZM123.817 3.96315C123.986 3.62615 124.098 3.31162 124.143 3.00832C124.188 2.71625 124.177 2.43541 124.109 2.21075C124.042 1.97485 123.918 1.78388 123.738 1.64908C123.558 1.51428 123.333 1.42442 123.052 1.40195C122.782 1.37948 122.479 1.42442 122.187 1.53675C121.883 1.63785 121.579 1.79511 121.298 2.00855C121.006 2.21075 120.736 2.45788 120.489 2.73872C120.241 3.01955 120.028 3.32285 119.859 3.65985L115.182 12.8038C115.013 13.1295 114.912 13.4553 114.856 13.7474C114.811 14.0395 114.822 14.3203 114.878 14.5562C114.946 14.7921 115.058 14.9943 115.227 15.1403C115.395 15.2864 115.62 15.3875 115.89 15.4212C116.16 15.4549 116.452 15.4212 116.745 15.3313C117.037 15.2414 117.341 15.0842 117.633 14.8932C117.925 14.691 118.195 14.4551 118.454 14.1743C118.701 13.8934 118.915 13.5901 119.095 13.2531L123.817 3.96315Z" fill="#0098FF"/>
<path d="M119.319 7.16467L120.815 7.31071L117.858 13.0959C117.79 13.2194 117.711 13.343 117.622 13.4441C117.532 13.5452 117.419 13.6463 117.318 13.7137C117.206 13.7923 117.093 13.8485 116.981 13.8822C116.868 13.9159 116.756 13.9271 116.655 13.9159C116.553 13.9047 116.475 13.871 116.407 13.8148C116.34 13.7586 116.295 13.68 116.272 13.5901C116.25 13.5003 116.239 13.3992 116.261 13.2868C116.284 13.1745 116.317 13.0509 116.385 12.9274L119.319 7.16467Z" fill="#0098FF"/>
<path d="M24.2086 189.089C24.4448 188.628 24.7259 188.235 25.0182 187.943C25.3218 187.639 25.6366 187.426 25.9627 187.302C26.2887 187.179 26.6148 187.145 26.9296 187.213C27.2444 187.28 27.5368 187.449 27.7954 187.729C28.054 188.01 28.2564 188.37 28.4026 188.785C28.5375 189.201 28.6162 189.673 28.6387 190.167C28.6499 190.661 28.6049 191.178 28.4925 191.695C28.3801 192.211 28.2002 192.717 27.964 193.189L23.208 202.49C22.9606 202.962 22.6795 203.355 22.3759 203.647C22.0723 203.95 21.7463 204.152 21.4202 204.265C21.0941 204.377 20.7681 204.388 20.4645 204.299C20.1609 204.209 19.8686 204.018 19.6212 203.714C19.3738 203.411 19.1827 203.04 19.059 202.602C18.9353 202.175 18.8679 201.692 18.8566 201.198C18.8454 200.704 18.9016 200.187 19.0253 199.67C19.1377 199.165 19.3176 198.659 19.5537 198.199L24.2086 189.089ZM27.4131 192.571C27.5818 192.234 27.7054 191.874 27.7842 191.515C27.8629 191.155 27.8966 190.785 27.8853 190.437C27.8741 190.088 27.8179 189.751 27.7167 189.459C27.6155 189.167 27.4806 188.909 27.2894 188.707C27.1095 188.504 26.8959 188.392 26.671 188.336C26.4461 188.291 26.2213 188.313 25.9852 188.392C25.7603 188.482 25.5242 188.628 25.3105 188.841C25.0969 189.055 24.9058 189.324 24.7371 189.661L20.0597 198.817C19.8911 199.142 19.7674 199.502 19.6887 199.861C19.61 200.221 19.565 200.591 19.5762 200.94C19.5762 201.288 19.6324 201.636 19.7224 201.939C19.8123 202.243 19.9473 202.512 20.1272 202.726C20.3071 202.939 20.5095 203.074 20.7231 203.13C20.9367 203.186 21.1728 203.175 21.3977 203.097C21.6226 203.018 21.8587 202.872 22.0723 202.658C22.286 202.445 22.4884 202.175 22.657 201.838L27.4131 192.571Z" fill="#0098FF"/>
<path d="M25.5691 190.56C25.6366 190.437 25.7041 190.335 25.794 190.246C25.8727 190.167 25.9627 190.111 26.0526 190.077C26.1426 190.043 26.2325 190.032 26.3112 190.055C26.3899 190.077 26.4686 190.122 26.5473 190.201C26.6148 190.279 26.671 190.369 26.7048 190.482C26.7385 190.594 26.761 190.717 26.761 190.852C26.761 190.987 26.7497 191.122 26.7272 191.257C26.6935 191.391 26.6485 191.526 26.5811 191.65L23.624 197.435L22.6345 196.312L25.5691 190.56Z" fill="#0098FF"/>
<path d="M162.203 51.8059C162.237 51.7385 162.282 51.6711 162.327 51.6037C162.372 51.5363 162.428 51.4689 162.484 51.4127C162.54 51.3566 162.608 51.2892 162.675 51.2442C162.743 51.1881 162.821 51.1431 162.9 51.0982L170.231 47.0879L170.951 48.9863L163.575 52.9966C163.417 53.0865 163.26 53.1427 163.102 53.1651C162.945 53.1876 162.799 53.1876 162.664 53.1539C162.529 53.1202 162.405 53.064 162.315 52.9854C162.214 52.9068 162.135 52.7944 162.091 52.6709C162.068 52.6035 162.057 52.5361 162.046 52.4687C162.034 52.4013 162.046 52.3226 162.046 52.2552C162.057 52.1878 162.068 52.1092 162.091 52.0418C162.135 51.9407 162.158 51.8733 162.203 51.8059Z" fill="#0098FF"/>
<path d="M84.149 200.794C84.6437 200.648 85.1272 200.636 85.5882 200.749C86.0491 200.861 86.4877 201.097 86.8699 201.434C87.2522 201.771 87.5895 202.209 87.8481 202.726C88.1068 203.243 88.2979 203.849 88.3878 204.523L90.1868 217.969C90.2318 218.306 90.2543 218.655 90.2431 218.992C90.2431 219.329 90.2093 219.666 90.1531 219.991C90.0969 220.317 90.0182 220.643 89.917 220.958C89.8158 221.272 89.6921 221.575 89.546 221.856C89.3998 222.148 89.2311 222.407 89.0512 222.643C88.8713 222.878 88.6802 223.092 88.4666 223.272C88.2529 223.451 88.0393 223.609 87.8032 223.732C87.5671 223.856 87.3309 223.946 87.0836 224.013C86.5664 224.137 86.0604 224.114 85.5882 223.968C85.1159 223.822 84.6662 223.541 84.2726 223.171C83.8791 222.8 83.5418 222.317 83.2832 221.755C83.0246 221.205 82.8447 220.564 82.7547 219.879L81.1581 206.613C81.1244 206.298 81.1019 205.972 81.1132 205.658C81.1244 205.343 81.1469 205.017 81.2031 204.714C81.2593 204.4 81.3268 204.096 81.428 203.804C81.5292 203.512 81.6416 203.22 81.7878 202.951C81.9227 202.681 82.0801 202.423 82.26 202.198C82.4287 201.973 82.6198 201.76 82.811 201.58C83.0133 201.4 83.2157 201.243 83.4406 201.108C83.6767 200.962 83.9128 200.861 84.149 200.794ZM87.3197 204.826C87.2522 204.355 87.1286 203.928 86.9374 203.557C86.7575 203.186 86.5214 202.883 86.2515 202.636C85.9817 202.4 85.6781 202.232 85.3408 202.153C85.0147 202.074 84.6662 202.074 84.3176 202.187C84.149 202.232 83.9803 202.31 83.8341 202.4C83.6767 202.49 83.5306 202.602 83.3844 202.726C83.2382 202.849 83.1145 202.995 82.9909 203.164C82.8672 203.321 82.7547 203.501 82.6535 203.703C82.5524 203.894 82.4736 204.096 82.4062 204.31C82.3387 204.523 82.2825 204.737 82.2488 204.961C82.215 205.186 82.1925 205.411 82.1813 205.635C82.1813 205.86 82.1813 206.085 82.215 206.321L83.8454 219.621C83.9016 220.115 84.0365 220.564 84.2164 220.958C84.3963 221.351 84.6437 221.688 84.9135 221.957C85.1946 222.227 85.5095 222.418 85.8468 222.519C86.1841 222.62 86.5439 222.643 86.9037 222.553C87.0836 222.508 87.2522 222.44 87.4096 222.351C87.5783 222.261 87.7245 222.148 87.8819 222.025C88.028 221.901 88.163 221.744 88.2979 221.575C88.4216 221.407 88.5453 221.227 88.6464 221.025C88.7476 220.823 88.8376 220.609 88.9051 220.396C88.9725 220.171 89.0287 219.947 89.0625 219.711C89.0962 219.475 89.1187 219.239 89.1187 219.003C89.1187 218.767 89.1074 218.52 89.0737 218.284L87.3197 204.826Z" fill="#0098FF"/>
<path d="M83.9579 204.86C83.9916 204.793 84.0366 204.725 84.0815 204.658C84.1265 204.602 84.1715 204.546 84.2277 204.489C84.2839 204.445 84.3402 204.4 84.3964 204.366C84.4526 204.332 84.52 204.299 84.5875 204.287C84.7224 204.254 84.8461 204.254 84.9698 204.276C85.0935 204.31 85.2059 204.377 85.3071 204.467C85.4083 204.557 85.4983 204.68 85.5657 204.815C85.6332 204.95 85.6782 205.119 85.7119 205.287L86.7913 213.6L84.8236 214.128L83.778 205.849C83.7667 205.759 83.7667 205.669 83.7667 205.59C83.7667 205.5 83.778 205.422 83.7892 205.332C83.8005 205.253 83.8229 205.163 83.8454 205.085C83.8904 205.006 83.9241 204.928 83.9579 204.86Z" fill="#0098FF"/>
<path d="M173.683 42.0441C174.29 41.7071 174.908 41.4824 175.516 41.3701C176.123 41.2578 176.707 41.2465 177.236 41.3364C177.776 41.4263 178.259 41.6285 178.653 41.9318C179.057 42.2351 179.372 42.6282 179.575 43.1225C179.676 43.3584 179.732 43.6168 179.777 43.8751C179.811 44.1335 179.822 44.4031 179.788 44.6839C179.766 44.9648 179.709 45.2456 179.62 45.5264C179.53 45.8073 179.417 46.0993 179.271 46.3802C179.125 46.661 178.956 46.9418 178.754 47.2114C178.563 47.481 178.338 47.7282 178.102 47.9641C177.865 48.2 177.607 48.4246 177.337 48.6268C177.067 48.829 176.775 49.0088 176.471 49.1773L164.508 55.6027C163.912 55.9173 163.316 56.1195 162.743 56.2206C162.169 56.3104 161.618 56.2992 161.112 56.1869C160.618 56.0745 160.168 55.8611 159.808 55.5466C159.448 55.2433 159.167 54.8389 158.999 54.3558C158.92 54.1199 158.864 53.8728 158.841 53.6257C158.819 53.3673 158.819 53.1089 158.852 52.8393C158.886 52.5697 158.942 52.3001 159.032 52.0305C159.122 51.7609 159.235 51.4801 159.37 51.2105C159.504 50.9409 159.673 50.6713 159.853 50.4242C160.033 50.177 160.235 49.9299 160.46 49.7052C160.685 49.4806 160.921 49.2671 161.169 49.0762C161.427 48.8852 161.686 48.7055 161.978 48.5482L173.683 42.0441ZM178.248 43.8414C178.113 43.4932 177.888 43.2124 177.607 42.9989C177.326 42.7855 176.988 42.6507 176.606 42.5721C176.235 42.5047 175.819 42.5047 175.392 42.5945C174.965 42.6732 174.526 42.8304 174.099 43.0776L162.36 49.548C162.158 49.6603 161.967 49.7839 161.787 49.9187C161.607 50.0535 161.438 50.1995 161.281 50.368C161.124 50.5253 160.977 50.6938 160.854 50.8735C160.719 51.0532 160.606 51.2442 160.505 51.4352C160.404 51.6261 160.325 51.8283 160.269 52.0193C160.213 52.2103 160.168 52.4012 160.145 52.5922C160.123 52.7832 160.123 52.9629 160.145 53.1426C160.168 53.3224 160.202 53.5021 160.258 53.6594C160.381 54.0076 160.573 54.2884 160.831 54.5019C161.09 54.7153 161.405 54.8726 161.753 54.9512C162.102 55.0298 162.495 55.0411 162.9 54.9737C163.305 54.9063 163.732 54.7602 164.148 54.5356L176.066 48.0989C176.28 47.9865 176.483 47.8517 176.674 47.7169C176.865 47.5709 177.045 47.4136 177.213 47.2564C177.382 47.0879 177.528 46.9081 177.674 46.7284C177.809 46.5374 177.933 46.3465 178.034 46.1443C178.135 45.9421 178.214 45.7399 178.282 45.5377C178.338 45.3355 178.383 45.1333 178.405 44.9423C178.428 44.7513 178.416 44.5604 178.394 44.3694C178.36 44.1784 178.315 44.0099 178.248 43.8414Z" fill="#0098FF"/>
<path d="M151.993 143.088C152.083 142.919 152.196 142.773 152.319 142.661C152.454 142.549 152.601 142.459 152.758 142.391C152.915 142.335 153.084 142.301 153.241 142.313C153.41 142.324 153.568 142.358 153.725 142.436L160.977 146.11L159.695 148.603L152.466 144.885C152.308 144.806 152.185 144.694 152.083 144.571C151.982 144.436 151.903 144.29 151.858 144.132C151.813 143.975 151.802 143.795 151.814 143.627C151.858 143.425 151.903 143.245 151.993 143.088Z" fill="#0098FF"/>
<path d="M148.992 141.549C149.306 140.931 149.722 140.392 150.206 139.965C150.689 139.527 151.24 139.19 151.814 138.977C152.398 138.752 153.006 138.64 153.624 138.662C154.242 138.673 154.85 138.819 155.434 139.1L167.24 144.919C167.859 145.222 168.398 145.649 168.814 146.166C169.242 146.671 169.556 147.267 169.747 147.907C169.939 148.547 170.017 149.233 169.961 149.918C169.905 150.603 169.714 151.3 169.376 151.962C169.039 152.625 168.589 153.187 168.061 153.636C167.532 154.085 166.937 154.434 166.307 154.647C165.677 154.861 165.014 154.962 164.35 154.917C163.687 154.872 163.035 154.692 162.417 154.366L150.779 148.222C150.206 147.918 149.734 147.503 149.363 147.02C148.992 146.537 148.722 145.964 148.564 145.368C148.407 144.773 148.351 144.122 148.429 143.481C148.486 142.818 148.665 142.167 148.992 141.549ZM166.532 146.29L154.748 140.426C154.344 140.224 153.905 140.122 153.478 140.111C153.039 140.1 152.612 140.179 152.196 140.336C151.78 140.493 151.398 140.729 151.049 141.044C150.712 141.347 150.408 141.729 150.183 142.167C149.959 142.605 149.824 143.066 149.779 143.526C149.734 143.987 149.767 144.436 149.88 144.863C149.992 145.29 150.183 145.683 150.453 146.031C150.723 146.379 151.06 146.671 151.454 146.874L163.114 152.973C163.552 153.198 164.013 153.322 164.474 153.355C164.946 153.389 165.407 153.322 165.857 153.164C166.307 153.007 166.723 152.771 167.094 152.445C167.465 152.131 167.78 151.726 168.016 151.266C168.252 150.805 168.387 150.311 168.432 149.828C168.477 149.345 168.421 148.862 168.286 148.413C168.151 147.963 167.926 147.548 167.634 147.177C167.341 146.806 166.97 146.503 166.532 146.29Z" fill="#0098FF"/>
</g>
</svg>
