<svg width="120" height="144" viewBox="0 0 120 144" fill="none" xmlns="http://www.w3.org/2000/svg">
<g opacity="0.3">
<path d="M11.2083 48.3466C11.2532 48.2567 11.2982 48.1781 11.3319 48.0882C11.3769 47.9983 11.4219 47.9197 11.4556 47.8298C11.5006 47.74 11.5456 47.6613 11.5793 47.5715C11.6243 47.4816 11.6692 47.403 11.7142 47.3131C11.748 47.2345 11.7929 47.1558 11.8267 47.0884C11.8604 47.0098 11.9054 46.9424 11.9391 46.8638C11.9728 46.7851 12.0178 46.7177 12.0515 46.6391C12.0853 46.5605 12.1302 46.4931 12.164 46.4144L13.0522 46.8975C13.0185 46.9761 12.9735 47.0435 12.9398 47.1221C12.9061 47.2008 12.8611 47.2682 12.8274 47.3468C12.7936 47.4254 12.7486 47.4928 12.7149 47.5715C12.6812 47.6501 12.6362 47.7175 12.6025 47.7961C12.5575 47.8748 12.5125 47.9646 12.4788 48.0433C12.4451 48.1219 12.4001 48.2118 12.3551 48.2904C12.3101 48.369 12.2764 48.4589 12.2314 48.5375C12.1865 48.6162 12.1527 48.706 12.1078 48.7847L11.2083 48.3466Z" fill="#0098FF"/>
<path d="M14.1429 44.9317L13.2883 44.3925C13.3783 44.2352 13.4682 44.0779 13.5469 43.9206C13.6369 43.7634 13.7268 43.6061 13.8168 43.4488C13.9067 43.2916 13.9967 43.1343 14.0866 42.977C14.1766 42.8198 14.2665 42.6625 14.3565 42.5052L15.1773 43.1006C15.0873 43.2466 14.9974 43.4039 14.9187 43.55C14.8287 43.7072 14.75 43.8532 14.6601 44.0105C14.5701 44.1678 14.4914 44.3138 14.4015 44.4711C14.3115 44.6171 14.2216 44.7744 14.1429 44.9317Z" fill="#0098FF"/>
<path d="M9.29688 52.4017C9.36434 52.2332 9.44304 52.076 9.52175 51.9075C9.60045 51.739 9.66792 51.5817 9.74663 51.4132C9.82533 51.2447 9.89279 51.0875 9.9715 50.919C10.0502 50.7505 10.1289 50.5932 10.1964 50.4247L11.1408 50.7954C11.0621 50.9527 10.9947 51.1099 10.916 51.2784C10.8373 51.4357 10.7698 51.593 10.6911 51.7615C10.6236 51.9187 10.5449 52.076 10.4775 52.2445C10.41 52.4017 10.3313 52.559 10.2638 52.7275L9.29688 52.4017Z" fill="#0098FF"/>
<path d="M15.5371 40.5169C15.6271 40.3597 15.7283 40.2024 15.8182 40.0564C15.9082 39.8991 16.0093 39.7531 16.0993 39.5958C16.1892 39.4385 16.2904 39.2925 16.3916 39.1352C16.4928 38.978 16.5828 38.8319 16.684 38.6747L17.4485 39.3824C17.3586 39.5284 17.2574 39.6744 17.1675 39.8205C17.0775 39.9665 16.9763 40.1125 16.8864 40.2698C16.7964 40.4158 16.6952 40.5731 16.6053 40.7191C16.5153 40.8652 16.4254 41.0224 16.3242 41.1685L15.5371 40.5169Z" fill="#0098FF"/>
<path d="M9.37555 54.7833C9.30809 54.9406 9.24062 55.109 9.17316 55.2663C9.1057 55.4236 9.03824 55.5921 8.97077 55.7494C8.90331 55.9066 8.83585 56.0751 8.77963 56.2324C8.71217 56.3896 8.65594 56.5582 8.58848 56.7154L7.56531 56.5132C7.63277 56.3447 7.70023 56.1762 7.7677 56.0077C7.83516 55.8392 7.90262 55.6707 7.97008 55.5022C8.03754 55.3337 8.10501 55.1652 8.17247 54.9967C8.23993 54.8282 8.30739 54.6597 8.3861 54.4912L9.37555 54.7833Z" fill="#0098FF"/>
<path d="M17.9545 36.7425C18.0557 36.5965 18.1569 36.4392 18.2581 36.2932C18.3592 36.1472 18.4604 35.9899 18.5616 35.8439C18.6628 35.6978 18.764 35.5518 18.8652 35.3945C18.9664 35.2485 19.0676 35.1025 19.18 34.9564L19.8771 35.7765C19.776 35.9225 19.6748 36.0573 19.5736 36.2033C19.4724 36.3494 19.3712 36.4954 19.27 36.6302C19.1688 36.765 19.0676 36.9223 18.9664 37.0683C18.8652 37.2143 18.764 37.3604 18.6741 37.5064L17.9545 36.7425Z" fill="#0098FF"/>
<path d="M7.8014 58.8273C7.74518 58.9958 7.67771 59.1531 7.62149 59.3216C7.56528 59.4901 7.49782 59.6473 7.4416 59.8158C7.38538 59.9843 7.32916 60.1416 7.27294 60.3101C7.21672 60.4786 7.1605 60.6359 7.10428 60.8044L6.03613 60.7257C6.09235 60.5572 6.14857 60.3887 6.21603 60.209C6.27225 60.0405 6.33971 59.872 6.39593 59.7035C6.45215 59.535 6.51961 59.3665 6.57583 59.198C6.63205 59.0295 6.69951 58.861 6.76698 58.6925L7.8014 58.8273Z" fill="#0098FF"/>
<path d="M20.5405 33.0805C20.653 32.9345 20.7542 32.7885 20.8666 32.6424C20.979 32.4964 21.0802 32.3504 21.1927 32.2043C21.3051 32.0583 21.4175 31.9123 21.5187 31.7662C21.6312 31.6202 21.7436 31.4742 21.856 31.3394L22.4745 32.2605C22.362 32.3953 22.2608 32.5413 22.1484 32.6761C22.0359 32.8109 21.9347 32.957 21.8223 33.0918C21.7211 33.2266 21.6087 33.3726 21.5075 33.5186C21.4063 33.6647 21.2939 33.7995 21.1927 33.9455L20.5405 33.0805Z" fill="#0098FF"/>
<path d="M6.39595 62.95C6.33973 63.1185 6.29476 63.287 6.23854 63.4555C6.18232 63.624 6.13734 63.7925 6.08113 63.961C6.02491 64.1295 5.97993 64.298 5.93495 64.4665C5.88998 64.635 5.83376 64.8035 5.78879 64.972L4.67566 65.0169C4.73188 64.8484 4.77685 64.6687 4.83307 64.5002C4.88929 64.3317 4.93426 64.1519 4.99048 63.9834C5.0467 63.8149 5.09168 63.6352 5.14789 63.4667C5.20411 63.2982 5.26033 63.1185 5.30531 62.95H6.39595Z" fill="#0098FF"/>
<path d="M23.2953 29.5307C23.4077 29.3847 23.5202 29.2499 23.6438 29.1038C23.7563 28.969 23.88 28.823 23.9924 28.6882C24.1048 28.5534 24.2285 28.4074 24.341 28.2726C24.4534 28.1378 24.5771 27.9917 24.6895 27.8569L25.2292 28.8904C25.1168 29.0252 25.0043 29.16 24.8919 29.2948C24.7795 29.4296 24.667 29.5644 24.5546 29.6992C24.4422 29.834 24.3297 29.9688 24.2173 30.1036C24.1048 30.2384 23.9924 30.3732 23.88 30.508L23.2953 29.5307Z" fill="#0098FF"/>
<path d="M5.19289 67.1287C5.14792 67.2972 5.10294 67.4657 5.05796 67.6342C5.01299 67.8027 4.96802 67.9712 4.92304 68.1397C4.87807 68.3082 4.83309 68.4767 4.79936 68.6452C4.75439 68.8137 4.72066 68.9822 4.67568 69.1507L3.51758 69.3192C3.56255 69.1394 3.60753 68.9709 3.64126 68.7912C3.68623 68.6115 3.7312 68.443 3.77618 68.2632C3.82115 68.0835 3.86613 67.915 3.91111 67.7353C3.95608 67.5555 4.00105 67.387 4.04603 67.2073L5.19289 67.1287Z" fill="#0098FF"/>
<path d="M26.2186 26.1045C26.3423 25.9697 26.466 25.8349 26.5784 25.7001C26.7021 25.5653 26.8258 25.4305 26.9495 25.2957C27.0732 25.1609 27.1968 25.0261 27.3205 24.8913C27.4442 24.7565 27.5679 24.6217 27.6916 24.4982L28.1526 25.644C28.0289 25.7675 27.9164 25.9023 27.7928 26.0259C27.6691 26.1495 27.5566 26.2843 27.433 26.4078C27.3093 26.5314 27.1968 26.6662 27.0732 26.801C26.9495 26.9358 26.837 27.0594 26.7134 27.1942L26.2186 26.1045Z" fill="#0098FF"/>
<path d="M4.18099 71.3524C4.14726 71.5209 4.10229 71.7006 4.06855 71.8691C4.03482 72.0376 4.00109 72.2174 3.96736 72.3859C3.93362 72.5544 3.8999 72.7341 3.86617 72.9026C3.83244 73.0711 3.7987 73.2508 3.76497 73.4193L2.56189 73.7227C2.59562 73.5429 2.62936 73.3632 2.66309 73.1947C2.69682 73.015 2.73055 72.8352 2.77552 72.6667C2.80925 72.487 2.84298 72.3072 2.88796 72.1387C2.92169 71.959 2.96667 71.7793 3.0004 71.6108L4.18099 71.3524Z" fill="#0098FF"/>
<path d="M29.2994 22.8245C29.4231 22.6897 29.558 22.5661 29.6817 22.4425C29.8054 22.319 29.9403 22.1842 30.064 22.0606C30.1877 21.9371 30.3226 21.8022 30.4575 21.6787C30.5925 21.5551 30.7161 21.4203 30.8511 21.2968L31.2221 22.5549C31.0984 22.6785 30.9635 22.802 30.8398 22.9256C30.7161 23.0491 30.5925 23.1727 30.4575 23.2963C30.3339 23.4199 30.2102 23.5434 30.0865 23.667C29.9628 23.7906 29.8391 23.9141 29.7155 24.0377L29.2994 22.8245Z" fill="#0098FF"/>
<path d="M3.37133 75.6211C3.3376 75.7896 3.31512 75.9693 3.29263 76.1378C3.27014 76.3063 3.23641 76.4861 3.21392 76.6546C3.19143 76.8231 3.1577 77.0028 3.13522 77.1713C3.11273 77.3398 3.09024 77.5195 3.05651 77.688L1.8197 78.1261C1.84219 77.9464 1.87592 77.7667 1.89841 77.5869C1.9209 77.4072 1.95463 77.2275 1.97711 77.0477C1.9996 76.868 2.03333 76.6883 2.06707 76.5085C2.1008 76.3288 2.12329 76.1491 2.15702 75.9693L3.37133 75.6211Z" fill="#0098FF"/>
<path d="M32.5488 19.7015C32.6838 19.578 32.8187 19.4544 32.9536 19.3308C33.0885 19.2073 33.2235 19.0837 33.3584 18.9714C33.4933 18.8478 33.6282 18.7242 33.7631 18.6119C33.8981 18.4883 34.033 18.376 34.1679 18.2524L34.449 19.6229C34.3141 19.7352 34.1792 19.8588 34.0555 19.9711C33.9206 20.0835 33.7969 20.207 33.662 20.3194C33.527 20.4317 33.4034 20.5553 33.2684 20.6676C33.1335 20.7799 33.0098 20.9035 32.8749 21.0271L32.5488 19.7015Z" fill="#0098FF"/>
<path d="M2.77542 79.9347C2.75293 80.1144 2.74169 80.2829 2.7192 80.4627C2.69671 80.6424 2.68547 80.8109 2.66298 80.9906C2.64049 81.1703 2.62925 81.3388 2.618 81.5186C2.60676 81.6983 2.58427 81.8668 2.57303 82.0465L1.30249 82.6307C1.31373 82.451 1.33622 82.2712 1.3587 82.0915C1.38119 81.9118 1.39244 81.732 1.41493 81.5523C1.43741 81.3725 1.44866 81.1928 1.47115 81.0131C1.49364 80.8333 1.51612 80.6536 1.52736 80.4739L2.77542 79.9347Z" fill="#0098FF"/>
<path d="M35.9445 16.7472C36.0794 16.6348 36.2255 16.5113 36.3717 16.3989C36.5179 16.2866 36.6528 16.1743 36.799 16.0507C36.9452 15.9384 37.0801 15.826 37.2262 15.7137C37.3724 15.6014 37.5073 15.489 37.6535 15.3767L37.8334 16.8483C37.6985 16.9606 37.5523 17.0617 37.4174 17.174C37.2825 17.2864 37.1363 17.3875 37.0014 17.4998C36.8664 17.6122 36.7315 17.7245 36.5854 17.8256C36.4504 17.9379 36.3155 18.0502 36.1806 18.1626L35.9445 16.7472Z" fill="#0098FF"/>
<path d="M2.40437 84.282C2.39312 84.4617 2.38188 84.6302 2.37064 84.81C2.35939 84.9897 2.34815 85.1582 2.34815 85.3379C2.33691 85.5177 2.33691 85.6862 2.32566 85.8659C2.31442 86.0456 2.31442 86.2141 2.30318 86.3939L0.998901 87.124C1.01015 86.9443 1.01015 86.7645 1.02139 86.5736C1.03264 86.3938 1.03263 86.2141 1.04388 86.0232C1.05512 85.8434 1.06636 85.6637 1.07761 85.4839C1.08885 85.3042 1.1001 85.1245 1.11135 84.9447L2.40437 84.282Z" fill="#0098FF"/>
<path d="M41.2739 12.692L41.3414 14.2759C41.1952 14.377 41.0491 14.4781 40.9029 14.5792C40.7567 14.6803 40.6106 14.7814 40.4756 14.8825C40.3295 14.9836 40.1945 15.0847 40.0484 15.1858C39.9022 15.2869 39.7673 15.388 39.6211 15.5004L39.4974 13.9726C39.6436 13.8603 39.7898 13.7592 39.9359 13.6469C40.0821 13.5345 40.2283 13.4334 40.3744 13.3211C40.5206 13.22 40.6668 13.1077 40.8242 13.0066C40.9816 12.8942 41.1278 12.7931 41.2739 12.692Z" fill="#0098FF"/>
<path d="M2.2695 88.6405C2.2695 88.8202 2.2695 88.9887 2.2695 89.1685C2.2695 89.3482 2.2695 89.5167 2.2695 89.6964C2.2695 89.8762 2.2695 90.0447 2.28074 90.2244C2.28074 90.4041 2.29199 90.5726 2.29199 90.7524L0.965226 91.6286C0.965226 91.4488 0.953979 91.2691 0.953979 91.0781C0.953979 90.8984 0.953979 90.7187 0.953979 90.5277C0.953979 90.348 0.953979 90.1682 0.953979 89.9773C0.953979 89.7975 0.953979 89.6178 0.953979 89.4268L2.2695 88.6405Z" fill="#0098FF"/>
<path d="M45.0069 11.9056C44.8607 11.9955 44.7033 12.0853 44.5571 12.1752C44.411 12.2651 44.2536 12.3549 44.1074 12.456C43.9612 12.5459 43.815 12.647 43.6576 12.7369C43.5115 12.8267 43.3653 12.9278 43.2079 13.0177V11.3776C43.3653 11.2765 43.5115 11.1754 43.6689 11.0855C43.8263 10.9844 43.9725 10.8834 44.1299 10.7935C44.2873 10.6924 44.4335 10.6025 44.5909 10.5014C44.7483 10.4003 44.9057 10.3105 45.0519 10.2094L45.0069 11.9056Z" fill="#0098FF"/>
<path d="M2.51689 95.1109L1.17888 96.1444C1.16764 95.9646 1.15639 95.7849 1.1339 95.5939C1.12266 95.4142 1.11142 95.2345 1.10017 95.0435C1.08893 94.8638 1.07769 94.684 1.06644 94.4931C1.0552 94.3133 1.04396 94.1336 1.03271 93.9426L2.37071 92.9766C2.38196 93.1563 2.3932 93.3248 2.40444 93.5045C2.41569 93.6843 2.42694 93.8527 2.43818 94.0325C2.44942 94.2122 2.46067 94.3807 2.47191 94.5604C2.4944 94.7514 2.50564 94.9312 2.51689 95.1109Z" fill="#0098FF"/>
<path d="M48.8072 9.77134C48.6498 9.84997 48.4924 9.93984 48.335 10.0185C48.1776 10.0971 48.0202 10.187 47.874 10.2656C47.7166 10.3442 47.5704 10.4341 47.413 10.5127C47.2556 10.6026 47.1094 10.6812 46.952 10.7711L47.0645 9.01871C47.2219 8.92884 47.3793 8.83897 47.5367 8.74911C47.6941 8.65924 47.8515 8.56937 48.0202 8.4795C48.1776 8.38963 48.3462 8.29977 48.5037 8.22114C48.6611 8.13127 48.8297 8.05264 48.9871 7.96277L48.8072 9.77134Z" fill="#0098FF"/>
<path d="M2.7417 97.3464C2.76419 97.5262 2.78667 97.6947 2.80916 97.8744C2.83165 98.0541 2.85414 98.2226 2.87663 98.4024C2.89912 98.5821 2.9216 98.7506 2.94409 98.9303C2.96658 99.1101 2.98906 99.2786 3.02279 99.4583L1.67355 100.671C1.65106 100.492 1.62857 100.312 1.59484 100.132C1.57236 99.9526 1.54986 99.7728 1.52738 99.5931C1.50489 99.4134 1.4824 99.2336 1.45992 99.0539C1.43743 98.8742 1.41494 98.6944 1.39246 98.5147L2.7417 97.3464Z" fill="#0098FF"/>
<path d="M52.7426 7.88415C52.5852 7.95155 52.4166 8.03019 52.2591 8.09759C52.1017 8.16499 51.9331 8.24362 51.7757 8.31102C51.6182 8.38966 51.4608 8.45705 51.2922 8.53569C51.1348 8.61432 50.9774 8.68172 50.8199 8.76035L51.0673 6.90686C51.236 6.82822 51.3934 6.74958 51.562 6.67095C51.7307 6.59232 51.8881 6.51368 52.0567 6.43505C52.2254 6.35642 52.3828 6.27778 52.5515 6.19915C52.7201 6.12052 52.8888 6.05312 53.0462 5.97449L52.7426 7.88415Z" fill="#0098FF"/>
<path d="M3.39382 101.671C3.42755 101.84 3.46127 102.02 3.495 102.188C3.52874 102.357 3.56247 102.536 3.5962 102.705C3.62993 102.873 3.66366 103.053 3.69739 103.221C3.73112 103.39 3.7761 103.57 3.80983 103.738L2.44934 105.12C2.41561 104.94 2.37063 104.76 2.3369 104.581C2.30317 104.401 2.26944 104.221 2.23571 104.041C2.20198 103.862 2.16825 103.682 2.13451 103.502C2.10078 103.323 2.06706 103.143 2.03333 102.963L3.39382 101.671Z" fill="#0098FF"/>
<path d="M56.7903 6.28897C56.6216 6.34513 56.453 6.41253 56.2956 6.4687C56.1269 6.52486 55.9695 6.59227 55.8008 6.64843C55.6322 6.7046 55.4748 6.772 55.3061 6.8394C55.1375 6.9068 54.9801 6.96296 54.8114 7.03036L55.2049 5.06453C55.3736 4.99713 55.5422 4.92974 55.7109 4.86234C55.8795 4.79494 56.0482 4.72754 56.2281 4.66014C56.3968 4.59274 56.5654 4.52533 56.7453 4.46916C56.914 4.40176 57.0939 4.3456 57.2625 4.2782L56.7903 6.28897Z" fill="#0098FF"/>
<path d="M4.3384 105.94C4.38337 106.108 4.42835 106.277 4.47332 106.457C4.5183 106.625 4.56327 106.794 4.60824 106.962C4.65322 107.131 4.6982 107.299 4.75442 107.468C4.79939 107.636 4.85561 107.805 4.90058 107.973L3.54009 109.546C3.48387 109.366 3.4389 109.198 3.39393 109.018C3.34895 108.838 3.29273 108.658 3.24775 108.49C3.20278 108.31 3.15781 108.13 3.11283 107.962C3.06786 107.782 3.02288 107.602 2.97791 107.434L4.3384 105.94Z" fill="#0098FF"/>
<path d="M60.9617 4.99712C60.7931 5.04205 60.6244 5.08699 60.4558 5.13192C60.2871 5.17685 60.1185 5.22178 59.9498 5.27795C59.7811 5.32289 59.6125 5.37906 59.4438 5.42399C59.2752 5.46892 59.1065 5.52509 58.9379 5.58126L59.4888 3.51432C59.6687 3.45815 59.8374 3.40198 60.0173 3.34582C60.1972 3.28965 60.3658 3.23348 60.5457 3.18855C60.7256 3.13238 60.8943 3.08745 61.0742 3.03128C61.2541 2.97512 61.4227 2.93019 61.6026 2.88525L60.9617 4.99712Z" fill="#0098FF"/>
<path d="M5.58643 110.13C5.64265 110.298 5.69887 110.467 5.75508 110.624C5.8113 110.793 5.86752 110.95 5.93498 111.118C5.9912 111.287 6.05866 111.444 6.11488 111.613C6.18235 111.781 6.23856 111.938 6.30602 112.107L4.96803 113.871C4.90056 113.702 4.84434 113.522 4.77688 113.354C4.70941 113.185 4.6532 113.006 4.59698 112.837C4.54076 112.669 4.4733 112.489 4.41708 112.32C4.36086 112.152 4.30464 111.972 4.23718 111.804L5.58643 110.13Z" fill="#0098FF"/>
<path d="M65.2344 4.04232C65.0657 4.07602 64.8858 4.10972 64.7172 4.13219C64.5485 4.16589 64.3686 4.19958 64.1999 4.23328C64.0313 4.26698 63.8514 4.30069 63.6827 4.33439C63.5141 4.36809 63.3342 4.41302 63.1655 4.44672L63.8964 2.27869C64.0763 2.23375 64.2562 2.20005 64.4361 2.15512C64.616 2.11019 64.7959 2.07649 64.9758 2.04279C65.1557 2.00909 65.3356 1.96416 65.5155 1.93046C65.6954 1.89676 65.8753 1.86305 66.0552 1.81812L65.2344 4.04232Z" fill="#0098FF"/>
<path d="M7.16052 114.196C7.22798 114.354 7.30669 114.522 7.37415 114.679C7.44161 114.837 7.52031 115.005 7.58777 115.162C7.66648 115.32 7.73395 115.488 7.81265 115.646C7.89136 115.803 7.97006 115.96 8.03753 116.129L6.72201 118.083C6.64331 117.915 6.5646 117.746 6.48589 117.578C6.40719 117.409 6.32848 117.241 6.26101 117.072C6.18231 116.904 6.11485 116.735 6.03614 116.567C5.95744 116.398 5.88997 116.23 5.82251 116.061L7.16052 114.196Z" fill="#0098FF"/>
<path d="M69.5745 3.46933C69.3946 3.48057 69.2259 3.50303 69.046 3.51427C68.8661 3.53673 68.6975 3.54797 68.5176 3.57044C68.3377 3.5929 68.169 3.60413 67.9892 3.6266C67.8093 3.64907 67.6406 3.67154 67.4607 3.694L68.3714 1.4361C68.5513 1.41363 68.7312 1.37994 68.9224 1.35747C69.1023 1.335 69.2934 1.31254 69.4733 1.29007C69.6532 1.2676 69.8444 1.24513 70.0243 1.22267C70.2042 1.2002 70.3953 1.17774 70.5752 1.1665L69.5745 3.46933Z" fill="#0098FF"/>
<path d="M9.08319 118.128C9.1619 118.285 9.25185 118.431 9.3418 118.589C9.43175 118.746 9.51045 118.892 9.6004 119.049C9.69035 119.206 9.7803 119.352 9.87025 119.51C9.9602 119.667 10.0502 119.813 10.1401 119.97L8.86956 122.138C8.77961 121.981 8.67841 121.813 8.58846 121.655C8.49852 121.498 8.40857 121.33 8.31862 121.172C8.22867 121.015 8.13872 120.847 8.04877 120.689C7.95882 120.532 7.86887 120.363 7.79016 120.206L9.08319 118.128Z" fill="#0098FF"/>
<path d="M73.982 3.31213C73.8021 3.31213 73.6222 3.31213 73.4423 3.31213C73.2624 3.31213 73.0825 3.31213 72.9026 3.31213C72.7227 3.31213 72.5428 3.32337 72.3742 3.32337C72.1943 3.32337 72.0144 3.3346 71.8457 3.3346L72.9588 0.998065C73.1387 0.986831 73.3299 0.975593 73.5098 0.975593C73.7009 0.96436 73.8808 0.964364 74.072 0.95313C74.2631 0.95313 74.443 0.941895 74.6341 0.941895C74.8253 0.941895 75.0052 0.941895 75.1963 0.941895L73.982 3.31213Z" fill="#0098FF"/>
<path d="M12.6025 123.621C12.6025 123.632 12.6138 123.632 12.6138 123.644C12.6138 123.655 12.625 123.655 12.625 123.666C12.625 123.677 12.6363 123.677 12.6363 123.689C12.6363 123.7 12.6475 123.7 12.6475 123.711L11.4332 126.093C11.4332 126.081 11.4219 126.081 11.4219 126.07C11.4219 126.059 11.4107 126.059 11.4107 126.048C11.4107 126.036 11.3994 126.036 11.3994 126.025C11.3994 126.014 11.3882 126.014 11.3882 126.003C11.2758 125.845 11.1746 125.699 11.0621 125.542C10.9497 125.385 10.8485 125.239 10.7473 125.081C10.6461 124.924 10.5337 124.778 10.4325 124.621C10.3313 124.464 10.2301 124.318 10.1289 124.16L11.3657 121.891C11.4669 122.037 11.5681 122.183 11.6693 122.329C11.7705 122.475 11.8717 122.621 11.9729 122.767C12.0741 122.913 12.1753 123.06 12.2877 123.206C12.3889 123.329 12.4901 123.475 12.6025 123.621Z" fill="#0098FF"/>
<path d="M78.412 3.58171C78.2321 3.55925 78.0522 3.53679 77.8723 3.52555C77.6924 3.50309 77.5125 3.49185 77.3326 3.46938C77.1527 3.45815 76.9728 3.43568 76.7929 3.42445C76.613 3.41322 76.4331 3.40198 76.2532 3.39075L77.5687 0.986816C77.7598 0.99805 77.951 1.00928 78.1309 1.02052C78.322 1.03175 78.5019 1.04298 78.6931 1.05421C78.8842 1.06545 79.0641 1.08791 79.2552 1.09915C79.4464 1.11038 79.6263 1.13285 79.8174 1.15532L78.412 3.58171Z" fill="#0098FF"/>
<path d="M15.5034 127.115L14.3678 129.698C14.2441 129.564 14.1205 129.418 13.9968 129.271C13.8731 129.125 13.7494 128.991 13.6257 128.845C13.502 128.699 13.3784 128.553 13.2659 128.407C13.1422 128.26 13.0298 128.114 12.9061 127.968L14.0755 125.486C14.1879 125.621 14.3116 125.767 14.424 125.901C14.5365 126.036 14.6601 126.171 14.7726 126.306C14.8963 126.441 15.0087 126.575 15.1324 126.71C15.2561 126.856 15.3797 126.98 15.5034 127.115Z" fill="#0098FF"/>
<path d="M82.842 4.34558C82.6621 4.30065 82.4822 4.26695 82.3136 4.22201C82.1337 4.18831 81.9538 4.14338 81.7739 4.10968C81.594 4.07598 81.4141 4.04229 81.2342 4.00859C81.0543 3.97489 80.8744 3.94118 80.6945 3.90748L82.2349 1.44739C82.426 1.48109 82.6171 1.50355 82.797 1.53725C82.9882 1.57095 83.1793 1.60465 83.3592 1.63835C83.5504 1.67205 83.7303 1.70575 83.9214 1.73945C84.1126 1.77315 84.2925 1.81809 84.4836 1.85179L82.842 4.34558Z" fill="#0098FF"/>
<path d="M17.1225 128.766C17.2574 128.89 17.3811 129.013 17.516 129.137C17.6509 129.26 17.7859 129.384 17.9208 129.507C18.0557 129.631 18.1906 129.755 18.3256 129.878C18.4605 130.002 18.5954 130.114 18.7416 130.238L17.7072 133.035C17.561 132.911 17.4261 132.776 17.2799 132.653C17.145 132.529 16.9988 132.394 16.8639 132.26C16.729 132.125 16.5828 132.001 16.4479 131.866C16.3129 131.732 16.178 131.597 16.0431 131.462L17.1225 128.766Z" fill="#0098FF"/>
<path d="M87.2383 5.62617C87.0584 5.55877 86.8898 5.50261 86.7099 5.44644C86.53 5.39028 86.3613 5.32287 86.1814 5.26671C86.0015 5.21054 85.8329 5.15438 85.653 5.09821C85.4731 5.04205 85.3044 4.98588 85.1245 4.94095L86.901 2.44714C87.0922 2.50331 87.2721 2.54824 87.4632 2.60441C87.6544 2.66058 87.8343 2.71674 88.0254 2.77291C88.2165 2.82908 88.3964 2.88524 88.5876 2.95264C88.7787 3.00881 88.9586 3.07621 89.1385 3.13238L87.2383 5.62617Z" fill="#0098FF"/>
<path d="M20.563 131.72C20.7092 131.833 20.8554 131.945 21.0128 132.057C21.159 132.17 21.3164 132.282 21.4625 132.383C21.6087 132.495 21.7661 132.597 21.9123 132.709C22.0697 132.81 22.2159 132.922 22.3733 133.023L21.4625 136.034C21.3051 135.922 21.1477 135.809 20.9903 135.697C20.8329 135.585 20.6755 135.472 20.5181 135.349C20.3606 135.236 20.2032 135.113 20.0571 135C19.8997 134.877 19.7535 134.765 19.5961 134.641L20.563 131.72Z" fill="#0098FF"/>
<path d="M91.5334 7.49088C91.3648 7.40101 91.1961 7.32237 91.0162 7.23251C90.8476 7.15387 90.6677 7.06401 90.499 6.98538C90.3304 6.90675 90.1505 6.82811 89.9818 6.74947C89.8132 6.67084 89.6333 6.59221 89.4646 6.51357L91.4885 4.00854C91.6684 4.08718 91.8595 4.16581 92.0394 4.24444C92.2193 4.32308 92.4105 4.40171 92.5904 4.48034C92.7703 4.55898 92.9614 4.64884 93.1413 4.72748C93.3212 4.81734 93.5011 4.89597 93.681 4.98584L91.5334 7.49088Z" fill="#0098FF"/>
<path d="M24.4083 134.293C24.577 134.394 24.7344 134.484 24.9031 134.574C25.0717 134.664 25.2404 134.765 25.3978 134.855C25.5665 134.944 25.7351 135.034 25.9038 135.124C26.0724 135.214 26.2411 135.304 26.4097 135.382L25.6564 138.595C25.4765 138.505 25.3078 138.404 25.1279 138.303C24.948 138.202 24.7794 138.112 24.5995 138.011C24.4308 137.91 24.2509 137.809 24.0823 137.708C23.9136 137.607 23.745 137.506 23.5651 137.404L24.4083 134.293Z" fill="#0098FF"/>
<path d="M95.6936 9.95104C95.525 9.8387 95.3676 9.72637 95.1989 9.62527C95.0303 9.51293 94.8728 9.41183 94.7042 9.2995C94.5355 9.1984 94.3669 9.08607 94.2095 8.98497C94.0408 8.88387 93.8721 8.78276 93.7035 8.68166L95.986 6.1991C96.1659 6.3002 96.3458 6.4013 96.5257 6.5024C96.7056 6.6035 96.8855 6.71583 97.0541 6.81693C97.234 6.92927 97.4027 7.03037 97.5826 7.1427C97.7625 7.25503 97.9311 7.36736 98.111 7.4797L95.6936 9.95104Z" fill="#0098FF"/>
<path d="M28.6585 136.427C28.8384 136.506 29.0183 136.573 29.1982 136.652C29.3781 136.73 29.558 136.798 29.7491 136.865C29.929 136.933 30.1202 137.011 30.3001 137.079C30.48 137.146 30.6711 137.213 30.8623 137.281L30.2888 140.696C30.0977 140.617 29.9066 140.55 29.7042 140.471C29.513 140.392 29.3219 140.314 29.1307 140.235C28.9396 140.157 28.7484 140.078 28.5573 139.999C28.3662 139.921 28.1863 139.831 27.9951 139.752L28.6585 136.427Z" fill="#0098FF"/>
<path d="M99.6514 13.0402C99.494 12.9054 99.3478 12.7706 99.1904 12.6358C99.033 12.501 98.8756 12.3662 98.7182 12.2314C98.5607 12.0966 98.4033 11.973 98.2459 11.8382C98.0885 11.7147 97.9311 11.5799 97.7737 11.4563L100.326 9.01868C100.495 9.14224 100.663 9.27704 100.832 9.41184C101.001 9.54664 101.169 9.68144 101.338 9.81624C101.507 9.95104 101.675 10.0858 101.844 10.2206C102.013 10.3554 102.181 10.5015 102.339 10.6363L99.6514 13.0402Z" fill="#0098FF"/>
<path d="M33.3022 138.056C33.4933 138.112 33.6957 138.168 33.8869 138.213C34.0892 138.269 34.2804 138.314 34.4828 138.359C34.6852 138.404 34.8763 138.46 35.0787 138.505C35.2811 138.55 35.4835 138.595 35.6859 138.64L35.3261 142.224C35.1124 142.179 34.91 142.123 34.6964 142.066C34.4828 142.01 34.2804 141.965 34.0668 141.909C33.8644 141.853 33.6507 141.797 33.4484 141.741C33.246 141.684 33.0436 141.617 32.83 141.561L33.3022 138.056Z" fill="#0098FF"/>
<path d="M103.328 16.7921C103.182 16.6236 103.047 16.4663 102.901 16.3091C102.755 16.1518 102.609 15.9833 102.462 15.826C102.316 15.6688 102.17 15.5115 102.024 15.3542C101.878 15.197 101.731 15.0509 101.585 14.8937L104.408 12.5459C104.565 12.7032 104.722 12.8604 104.88 13.0177C105.037 13.175 105.195 13.3435 105.352 13.5007C105.509 13.6692 105.667 13.8265 105.813 13.995C105.97 14.1635 106.117 14.332 106.274 14.5005L103.328 16.7921Z" fill="#0098FF"/>
<path d="M38.3169 139.101C38.5305 139.134 38.7329 139.157 38.9466 139.191C39.1602 139.213 39.3738 139.247 39.5875 139.269C39.8011 139.292 40.0147 139.314 40.2283 139.337C40.442 139.359 40.6556 139.382 40.8805 139.393L40.768 143.122C40.5432 143.1 40.3183 143.077 40.0934 143.055C39.8685 143.032 39.6437 142.999 39.4188 142.976C39.1939 142.943 38.969 142.92 38.7554 142.886C38.5305 142.853 38.3169 142.819 38.092 142.785L38.3169 139.101Z" fill="#0098FF"/>
<path d="M106.667 21.2068C106.544 21.0159 106.409 20.8249 106.285 20.6339C106.162 20.4429 106.027 20.2632 105.892 20.0722C105.757 19.8925 105.633 19.7016 105.498 19.5218C105.363 19.3421 105.228 19.1624 105.093 18.9826L108.174 16.7697C108.32 16.9494 108.466 17.1404 108.601 17.3313C108.748 17.5223 108.883 17.7132 109.029 17.9042C109.175 18.0952 109.31 18.2862 109.445 18.4884C109.58 18.6793 109.726 18.8815 109.861 19.0725L106.667 21.2068Z" fill="#0098FF"/>
<path d="M43.7026 139.516C43.9275 139.516 44.1524 139.516 44.3773 139.516C44.6021 139.516 44.827 139.516 45.0519 139.505C45.2768 139.505 45.5016 139.494 45.7377 139.494C45.9626 139.483 46.1987 139.483 46.4236 139.471L46.581 143.324C46.3449 143.336 46.0975 143.336 45.8614 143.336C45.6253 143.336 45.378 143.336 45.1418 143.336C44.9057 143.336 44.6696 143.336 44.4335 143.324C44.1974 143.324 43.9612 143.313 43.7251 143.302L43.7026 139.516Z" fill="#0098FF"/>
<path d="M109.591 26.2843C109.479 26.0708 109.377 25.8462 109.265 25.6327C109.152 25.4193 109.04 25.2059 108.928 24.9924C108.815 24.779 108.703 24.5768 108.59 24.3633C108.478 24.1499 108.354 23.9477 108.242 23.7455L111.581 21.701C111.705 21.9145 111.84 22.1279 111.963 22.3413C112.087 22.5548 112.211 22.7795 112.334 22.9929C112.458 23.2176 112.582 23.431 112.694 23.6556C112.818 23.8803 112.93 24.105 113.054 24.3296L109.591 26.2843Z" fill="#0098FF"/>
<path d="M49.7068 143.145L49.392 139.247C49.6281 139.224 49.8642 139.191 50.1003 139.168C50.3364 139.134 50.5726 139.112 50.8087 139.078C51.0448 139.045 51.2809 139.011 51.5283 138.977C51.7644 138.944 52.0118 138.899 52.2479 138.854L52.7089 142.785C52.4503 142.819 52.2029 142.864 51.9443 142.898C51.6969 142.931 51.4383 142.965 51.191 142.999C50.9436 143.032 50.685 143.055 50.4376 143.089C50.2128 143.089 49.9542 143.122 49.7068 143.145Z" fill="#0098FF"/>
<path d="M110.906 29.16L114.482 27.3402C114.594 27.5873 114.695 27.8232 114.797 28.0704C114.898 28.3175 114.999 28.5646 115.1 28.8118C115.201 29.0589 115.303 29.306 115.404 29.5644C115.505 29.8115 115.595 30.0699 115.696 30.317L112.019 32.002C111.93 31.7549 111.84 31.519 111.75 31.2719C111.66 31.036 111.57 30.7888 111.48 30.5529C111.39 30.317 111.289 30.0811 111.199 29.8452C111.098 29.6206 111.008 29.3847 110.906 29.16Z" fill="#0098FF"/>
<path d="M56.0033 142.167L55.3624 138.213C55.6098 138.157 55.8572 138.101 56.1045 138.033C56.3519 137.977 56.5992 137.91 56.8466 137.843C57.094 137.775 57.3413 137.708 57.5887 137.64C57.8361 137.573 58.0834 137.494 58.3308 137.427L59.1291 141.392C58.8705 141.471 58.6006 141.538 58.342 141.606C58.0834 141.673 57.8136 141.74 57.555 141.808C57.2963 141.875 57.0378 141.931 56.7791 141.999C56.5205 142.044 56.2619 142.111 56.0033 142.167Z" fill="#0098FF"/>
<path d="M113.875 38.3376C113.807 38.068 113.751 37.8096 113.684 37.54C113.616 37.2704 113.549 37.0121 113.481 36.7537C113.414 36.4954 113.346 36.237 113.268 35.9786C113.2 35.7202 113.121 35.4619 113.043 35.2035L116.832 33.6646C116.911 33.9342 117.001 34.2037 117.079 34.4733C117.158 34.7429 117.237 35.0125 117.315 35.2934C117.394 35.563 117.462 35.8438 117.54 36.1246C117.619 36.4055 117.686 36.6863 117.754 36.9671L113.875 38.3376Z" fill="#0098FF"/>
<path d="M62.5246 140.325L61.5352 136.36C61.7825 136.27 62.0411 136.18 62.2885 136.079C62.5358 135.989 62.7944 135.888 63.0418 135.787C63.3004 135.686 63.5478 135.585 63.8064 135.484C64.065 135.382 64.3124 135.27 64.571 135.169L65.7403 139.112C65.4705 139.224 65.2006 139.325 64.9308 139.438C64.6609 139.539 64.3911 139.64 64.1212 139.741C63.8514 139.842 63.5815 139.943 63.3229 140.033C63.0531 140.145 62.7832 140.235 62.5246 140.325Z" fill="#0098FF"/>
<path d="M115.089 45.2349C115.055 44.9429 115.022 44.662 114.977 44.37C114.943 44.0891 114.898 43.7971 114.853 43.5162C114.808 43.2354 114.763 42.9546 114.718 42.6737C114.673 42.3929 114.628 42.1121 114.572 41.8312L118.541 40.618C118.597 40.9101 118.653 41.2022 118.698 41.5055C118.755 41.7975 118.8 42.1008 118.845 42.3929C118.889 42.6962 118.934 42.9883 118.979 43.2916C119.024 43.5949 119.069 43.8982 119.114 44.2015L115.089 45.2349Z" fill="#0098FF"/>
<path d="M69.1921 137.595L67.8317 133.675C68.0903 133.551 68.3376 133.417 68.5962 133.293C68.8548 133.158 69.1022 133.035 69.3608 132.9C69.6194 132.765 69.8668 132.63 70.1254 132.495C70.384 132.361 70.6313 132.215 70.8899 132.08L72.4416 135.944C72.1717 136.09 71.9019 136.236 71.632 136.382C71.3622 136.528 71.0923 136.663 70.8225 136.798C70.5526 136.933 70.2828 137.067 70.0129 137.202C69.7318 137.337 69.462 137.472 69.1921 137.595Z" fill="#0098FF"/>
<path d="M115.606 52.6153C115.595 52.312 115.595 52.0087 115.584 51.6942C115.572 51.3909 115.561 51.0875 115.55 50.7842C115.539 50.4809 115.527 50.1776 115.505 49.8856C115.494 49.5823 115.471 49.2902 115.449 48.9869L119.553 48.1556C119.575 48.4702 119.598 48.7847 119.62 49.0992C119.643 49.4138 119.665 49.7283 119.676 50.0541C119.699 50.3686 119.71 50.6944 119.721 51.0089C119.733 51.3347 119.744 51.6492 119.755 51.975L115.606 52.6153Z" fill="#0098FF"/>
<path d="M75.8934 133.933L74.1394 130.137C74.398 129.979 74.6454 129.811 74.904 129.653C75.1626 129.485 75.4099 129.316 75.6686 129.148C75.9272 128.979 76.1745 128.811 76.4331 128.631C76.6917 128.463 76.9391 128.283 77.1865 128.103L79.1316 131.822C78.8618 132.001 78.5919 132.192 78.3221 132.372C78.0522 132.552 77.7824 132.731 77.5125 132.9C77.2427 133.08 76.9728 133.248 76.703 133.417C76.4331 133.608 76.1633 133.776 75.8934 133.933Z" fill="#0098FF"/>
<path d="M115.348 60.3663C115.37 60.0518 115.393 59.726 115.415 59.4115C115.438 59.0969 115.46 58.7712 115.471 58.4566C115.494 58.1421 115.505 57.8276 115.516 57.513C115.528 57.1985 115.539 56.884 115.55 56.5694L119.744 56.165C119.733 56.4908 119.721 56.8278 119.71 57.1648C119.699 57.5018 119.688 57.8276 119.665 58.1646C119.654 58.5016 119.632 58.8386 119.609 59.1756C119.587 59.5126 119.564 59.8496 119.542 60.1866L115.348 60.3663Z" fill="#0098FF"/>
<path d="M82.5385 129.35L80.391 125.733C80.6384 125.542 80.8857 125.34 81.1331 125.138C81.3804 124.935 81.6278 124.733 81.8752 124.531C82.1225 124.329 82.3699 124.127 82.6172 123.913C82.8646 123.711 83.112 123.498 83.3481 123.284L85.6868 126.789C85.4282 127.014 85.1696 127.227 84.8997 127.452C84.6411 127.665 84.3713 127.879 84.1127 128.092C83.8541 128.305 83.5842 128.519 83.3256 128.721C83.067 128.946 82.8084 129.148 82.5385 129.35Z" fill="#0098FF"/>
<path d="M114.302 68.4206C114.358 68.0948 114.414 67.7578 114.471 67.432C114.527 67.1063 114.583 66.7805 114.628 66.4547C114.684 66.129 114.729 65.8032 114.774 65.4774C114.819 65.1517 114.864 64.8259 114.909 64.5001L119.126 64.5563C119.081 64.9045 119.036 65.2415 118.991 65.5898C118.946 65.938 118.889 66.2862 118.844 66.6232C118.788 66.9715 118.743 67.3197 118.687 67.6679C118.631 68.0162 118.575 68.3644 118.518 68.7126L114.302 68.4206Z" fill="#0098FF"/>
<path d="M88.9812 123.857L86.4401 120.498C86.6762 120.274 86.9123 120.049 87.1484 119.813C87.3845 119.577 87.6207 119.352 87.8568 119.117C88.0929 118.881 88.329 118.645 88.5539 118.409C88.79 118.173 89.0149 117.926 89.251 117.69L91.972 120.914C91.7246 121.172 91.4773 121.419 91.2299 121.678C90.9825 121.925 90.7352 122.172 90.4766 122.419C90.2292 122.666 89.9706 122.913 89.7232 123.149C89.4871 123.385 89.2398 123.621 88.9812 123.857Z" fill="#0098FF"/>
<path d="M112.435 76.6094C112.525 76.2724 112.615 75.9466 112.705 75.6096C112.795 75.2839 112.874 74.9469 112.964 74.6211C113.043 74.2953 113.133 73.9583 113.211 73.6326C113.29 73.3068 113.369 72.9698 113.447 72.644L117.63 73.1945C117.551 73.5427 117.473 73.8909 117.383 74.2392C117.304 74.5874 117.214 74.9356 117.124 75.2951C117.034 75.6433 116.944 76.0028 116.854 76.351C116.764 76.6993 116.674 77.0588 116.573 77.407L112.435 76.6094Z" fill="#0098FF"/>
<path d="M95.0752 117.544L92.1519 114.5C92.3767 114.241 92.5904 113.983 92.8152 113.725C93.0401 113.466 93.2537 113.208 93.4786 112.938C93.6923 112.68 93.9171 112.41 94.1308 112.141C94.3444 111.871 94.558 111.602 94.7829 111.332L97.8749 114.196C97.65 114.477 97.4139 114.769 97.189 115.05C96.9642 115.331 96.7281 115.612 96.4919 115.893C96.2558 116.173 96.0309 116.443 95.7948 116.724C95.5475 116.994 95.3114 117.274 95.0752 117.544Z" fill="#0098FF"/>
<path d="M109.771 84.7987C109.894 84.473 110.018 84.136 110.142 83.8102C110.265 83.4844 110.378 83.1474 110.49 82.8217C110.603 82.4959 110.715 82.1589 110.828 81.8331C110.94 81.5074 111.053 81.1704 111.154 80.8446L115.235 81.9005C115.123 82.2488 115.01 82.597 114.887 82.9452C114.774 83.2935 114.651 83.6417 114.527 83.9899C114.403 84.3382 114.279 84.6864 114.156 85.0346C114.032 85.3829 113.897 85.7311 113.774 86.0793L109.771 84.7987Z" fill="#0098FF"/>
<path d="M100.708 110.467L97.4476 107.805C97.65 107.524 97.8524 107.243 98.0548 106.951C98.2572 106.67 98.4596 106.378 98.6507 106.097C98.8531 105.805 99.0442 105.524 99.2354 105.232C99.4265 104.94 99.6289 104.648 99.8201 104.356L103.238 106.827C103.036 107.142 102.822 107.445 102.62 107.76C102.417 108.063 102.204 108.377 101.99 108.681C101.776 108.984 101.563 109.287 101.349 109.591C101.147 109.872 100.933 110.175 100.708 110.467Z" fill="#0098FF"/>
<path d="M106.341 92.8193C106.499 92.5048 106.645 92.179 106.791 91.8533C106.937 91.5275 107.084 91.213 107.23 90.8872C107.376 90.5614 107.522 90.2469 107.657 89.9211C107.803 89.5954 107.938 89.2808 108.084 88.9551L111.997 90.5053C111.851 90.8423 111.705 91.1905 111.547 91.5275C111.401 91.8645 111.244 92.2127 111.086 92.5497C110.929 92.8867 110.771 93.235 110.614 93.572C110.457 93.909 110.299 94.246 110.131 94.5942L106.341 92.8193Z" fill="#0098FF"/>
<path d="M105.768 102.783L102.204 100.537C102.384 100.233 102.564 99.9301 102.732 99.6268C102.912 99.3235 103.081 99.0202 103.261 98.7057C103.429 98.4024 103.609 98.0878 103.778 97.7845C103.947 97.47 104.115 97.1667 104.284 96.8522L107.983 98.8742C107.803 99.1999 107.623 99.5369 107.443 99.8627C107.263 100.188 107.084 100.514 106.892 100.84C106.712 101.166 106.521 101.492 106.33 101.817C106.15 102.132 105.959 102.458 105.768 102.783Z" fill="#0098FF"/>
</g>
</svg>
