<svg width="368" height="448" viewBox="0 0 368 448" fill="none" xmlns="http://www.w3.org/2000/svg">
<path d="M367.237 20.1852C367.204 19.3876 367.136 18.6013 367.035 17.8599C366.922 17.0623 366.776 16.276 366.596 15.5458C366.394 14.7483 366.147 13.9844 365.854 13.2879C365.584 12.6476 365.281 12.041 364.944 11.4906C364.651 11.0076 364.336 10.5695 363.988 10.1651C363.718 9.8393 363.426 9.54724 363.122 9.27764C362.807 8.9968 362.47 8.73844 362.133 8.51377C361.784 8.27787 361.413 8.07567 361.031 7.90717L346.616 1.36937C346.571 1.3469 346.526 1.3469 346.481 1.33567C346.38 1.29074 346.29 1.25704 346.189 1.2121C344.66 0.650435 343.097 0.515635 341.523 0.830169C340.77 0.976202 340.027 1.18964 339.319 1.448L162.287 67.2079C152.527 70.8363 142.767 74.4535 133.008 78.0818L127.42 80.16C121.91 82.2045 116.412 84.2489 110.903 86.2934L106.72 87.8436C103.201 89.1467 99.6814 90.461 96.1622 91.764L94.8804 92.2358C92.8453 92.9885 90.8214 93.7411 88.7863 94.4937L87.2684 95.0666C85.728 95.6395 84.1988 96.2124 82.6584 96.7853L81.4779 97.2234C80.2298 97.684 78.9818 98.1446 77.7449 98.6051L77.0591 98.8635C76.3732 99.1219 75.6873 99.3915 75.0015 99.6386L74.4843 99.8183C74.0345 99.9756 73.5848 100.133 73.135 100.313C72.8427 100.425 72.4941 100.571 72.1568 100.739C71.8645 100.897 71.5609 101.076 71.2348 101.312C70.8638 101.571 70.504 101.863 70.1329 102.177C69.7282 102.537 69.3234 102.93 68.9074 103.379C68.4689 103.851 68.0304 104.357 67.5919 104.929C67.1983 105.435 66.7935 105.985 66.4 106.558C66.029 107.098 65.6692 107.659 65.3094 108.243C64.9721 108.794 64.6348 109.378 64.3087 109.973C63.9939 110.557 63.679 111.142 63.3867 111.737C63.0944 112.332 62.802 112.928 62.5322 113.534C62.2623 114.141 61.9925 114.747 61.7451 115.365C61.4977 115.983 61.2504 116.601 61.0255 117.219C60.7894 117.837 60.5758 118.466 60.3621 119.095C60.1485 119.724 59.9574 120.364 59.7662 120.993C59.5076 121.881 59.2715 122.779 59.0803 123.543C58.6643 125.161 58.2708 126.778 57.8773 128.396L57.3601 130.542C56.6629 133.372 55.9433 136.192 55.2237 139.011L54.4704 141.955C53.4585 145.931 52.469 149.919 51.4796 153.907L50.6588 157.198C49.6356 161.298 48.6124 165.399 47.5893 169.487L46.8472 172.431C45.5654 177.531 44.2948 182.642 43.0131 187.742L12.5425 309.578L11.1483 315.184C10.2151 318.913 9.28186 322.654 8.34863 326.383L7.4154 330.09C6.54963 333.517 5.68387 336.954 4.82934 340.391L4.17721 343.031C3.59253 345.424 3.00786 347.805 2.40069 350.187L2.23204 350.85C1.87225 352.243 1.5012 353.692 1.18638 355.13C0.983991 356.096 0.792843 357.062 0.646675 358.005C0.534238 358.735 0.433048 359.466 0.343098 360.185C0.253148 360.926 0.196923 361.667 0.151948 362.386C0.106973 363.15 0.0844859 363.892 0.0732422 364.599C0.0732422 365.374 0.0957293 366.116 0.151948 366.823C0.196923 367.475 0.275632 368.093 0.365582 368.677C0.444288 369.194 0.545478 369.699 0.669159 370.16C0.770352 370.542 0.882793 370.924 1.00647 371.261C1.1414 371.654 1.29882 372.013 1.46747 372.35C1.62488 372.665 1.79354 372.957 1.98468 373.226C2.15334 373.462 2.33324 373.687 2.51314 373.878C2.67055 374.035 2.82795 374.193 2.99661 374.316C3.17651 374.462 3.36765 374.586 3.5588 374.687C3.76118 374.799 3.97482 374.889 4.18845 374.956C4.24467 374.979 4.30089 374.979 4.35711 375.001C4.3796 375.013 4.39084 375.024 4.41332 375.035L16.8152 378.304C17.2874 378.427 17.7484 378.439 18.2094 378.439C18.6254 378.45 19.0302 378.461 19.4349 378.472L19.806 378.484C20.5256 378.506 21.2452 378.517 21.9535 378.54L22.6282 378.551C24.0336 378.585 25.4391 378.618 26.8446 378.663L28.2725 378.697C31.061 378.776 33.8719 378.832 36.6716 378.899L39.5837 378.967C45.1831 379.102 50.7712 379.248 56.3706 379.394L62.1836 379.54C72.7752 379.809 83.378 380.068 93.9696 380.326L107.395 380.652C120.426 380.977 133.458 381.303 146.489 381.629L170.821 382.236L171.394 387.145C171.709 389.818 172.012 392.503 172.327 395.176L172.653 398.03C172.957 400.714 173.272 403.399 173.587 406.084L173.778 407.702C173.98 409.432 174.194 411.161 174.385 412.891L174.508 414.026C174.632 415.127 174.745 416.228 174.88 417.329L174.902 417.497C174.981 418.126 175.048 418.71 175.071 419.306C175.082 419.62 175.082 419.935 175.059 420.26C175.037 420.586 175.014 420.901 174.969 421.215C174.924 421.53 174.868 421.844 174.79 422.159C174.722 422.473 174.632 422.788 174.531 423.08C174.43 423.383 174.317 423.687 174.194 423.979C174.07 424.271 173.924 424.563 173.778 424.844C173.631 425.124 173.463 425.394 173.283 425.664C173.103 425.933 172.912 426.18 172.721 426.428C172.518 426.675 172.305 426.911 172.08 427.124C171.855 427.349 171.619 427.562 171.371 427.753C171.124 427.944 170.866 428.135 170.607 428.304C170.337 428.472 170.067 428.629 169.786 428.753C169.505 428.888 169.213 429 168.92 429.101C168.617 429.202 168.324 429.281 168.032 429.337C167.402 429.461 166.739 429.494 166.109 429.517C165.379 429.539 164.659 429.55 163.928 429.562L163.029 429.573C161.915 429.595 160.791 429.629 159.678 429.663L158.902 429.685C156.912 429.741 154.922 429.798 152.943 429.842L150.672 429.899C147.546 429.977 144.409 430.067 141.283 430.168L138.315 430.258C132.884 430.415 127.465 430.561 122.045 430.707L116.356 430.865C110.846 431.011 105.337 431.168 99.8276 431.325L88.8987 431.629C87.1559 431.674 85.177 431.73 83.097 431.842C81.7927 431.909 80.3085 431.999 78.9143 432.112C78.2959 432.157 77.6775 432.213 76.9129 432.303C76.5306 432.348 76.1146 432.404 75.7998 432.471C75.6199 432.505 75.4737 432.538 75.2151 432.606C74.9902 432.662 74.563 432.774 74.3606 433.179C74.3044 433.302 74.2706 433.426 74.2706 433.561L74.1807 440.941C74.1807 441.188 74.2706 441.637 74.934 441.885C75.1027 441.952 75.2376 441.986 75.3838 442.019C75.6199 442.076 75.8897 442.121 76.1483 442.165C76.4969 442.222 76.823 442.267 77.1603 442.3L112.499 446.311C115.524 446.659 118.593 446.771 121.224 446.861C125.07 446.985 128.971 447.052 132.805 447.063C133.289 447.063 133.784 447.063 134.267 447.063C138.663 447.063 143.049 446.985 147.299 446.85L229.513 444.064C229.884 444.053 230.266 444.019 230.648 443.985C231.019 443.94 231.402 443.884 231.773 443.817C232.144 443.749 232.515 443.659 232.875 443.558C233.235 443.457 233.606 443.345 233.954 443.221C234.314 443.098 234.662 442.952 235 442.795C235.348 442.637 235.686 442.48 236.012 442.3C236.338 442.121 236.664 441.93 236.99 441.739C237.305 441.536 237.62 441.334 237.923 441.11C238.227 440.885 238.519 440.66 238.811 440.424C239.104 440.188 239.385 439.941 239.655 439.683C239.925 439.424 240.194 439.166 240.442 438.885C240.779 438.526 241.105 438.144 241.42 437.762C241.802 437.279 242.173 436.773 242.511 436.257C242.915 435.639 243.286 434.987 243.624 434.325C243.961 433.673 244.265 432.988 244.523 432.291C244.782 431.606 245.018 430.898 245.209 430.179C245.4 429.461 245.569 428.742 245.693 428.011C245.816 427.293 245.906 426.551 245.962 425.81C246.019 425.046 246.041 424.304 246.019 423.586C245.985 422.586 245.884 421.597 245.782 420.676C245.648 419.474 245.501 418.283 245.355 417.081L245.187 415.7C244.962 413.869 244.748 412.038 244.546 410.218L244.366 408.611C244.04 405.803 243.702 402.995 243.376 400.186L243.028 397.266C242.69 394.39 242.353 391.503 242.005 388.627L241.454 383.988L260.051 384.449C261.928 384.493 263.795 384.55 265.673 384.595L267.134 384.628C268.619 384.662 270.103 384.696 271.576 384.741L272.43 384.763C273.386 384.786 274.33 384.819 275.286 384.842L275.994 384.853C276.613 384.864 277.242 384.875 277.861 384.898L278.097 384.909C278.423 384.92 278.76 384.932 279.086 384.932C279.188 384.932 279.278 384.932 279.379 384.932C279.772 384.92 280.177 384.887 280.571 384.831C280.953 384.774 281.346 384.707 281.74 384.606C282.111 384.516 282.493 384.404 282.876 384.269C283.235 384.145 283.606 383.999 283.966 383.842C284.315 383.685 284.663 383.516 285.012 383.336C285.349 383.157 285.686 382.966 286.024 382.764C286.451 382.505 286.878 382.213 287.306 381.899C287.8 381.539 288.306 381.135 288.801 380.708C289.363 380.225 289.914 379.697 290.465 379.146C290.982 378.618 291.5 378.057 291.994 377.461C292.478 376.9 292.95 376.304 293.411 375.687C293.849 375.091 294.288 374.473 294.715 373.833C295.12 373.215 295.525 372.575 295.918 371.923C296.301 371.283 296.672 370.62 297.02 369.958C297.369 369.295 297.706 368.621 298.032 367.947C298.347 367.284 298.662 366.588 298.954 365.891C299.246 365.206 299.528 364.509 299.786 363.802C300.056 363.105 300.303 362.386 300.539 361.679C300.776 360.982 301 360.252 301.203 359.533C301.484 358.567 301.731 357.59 301.956 356.635C302.294 355.163 302.586 353.658 302.856 352.209L302.979 351.535C303.463 349.007 303.98 346.446 304.486 343.964L305.003 341.391C305.97 336.595 306.915 331.708 307.825 326.979C308.208 325.013 308.59 323.036 308.972 321.07C310.119 315.195 311.277 309.331 312.447 303.467C313.2 299.671 313.953 295.874 314.707 292.066C317.776 276.463 320.857 260.871 323.926 245.268C328.649 221.296 333.382 197.324 338.094 173.34L342.883 148.975C346.729 129.384 350.574 109.805 354.442 90.2251L356.443 80.1038C358.321 70.6229 360.187 61.1307 362.054 51.6498L363.01 46.7857C363.763 42.9664 364.505 39.1358 365.258 35.3165L366.282 30.1267C366.461 29.2056 366.664 28.1609 366.832 27.1162C366.945 26.3635 367.046 25.5884 367.114 24.8133C367.192 24.027 367.237 23.2519 367.26 22.4993C367.271 21.7129 367.271 20.9378 367.237 20.1852ZM241.757 400.4C242.095 403.208 242.421 406.017 242.747 408.825L242.927 410.431C243.14 412.262 243.354 414.093 243.567 415.924L243.736 417.306C243.882 418.497 244.028 419.688 244.163 420.878C244.265 421.766 244.366 422.721 244.388 423.664C244.411 424.327 244.388 425.012 244.343 425.72C244.287 426.405 244.208 427.102 244.096 427.776C243.983 428.45 243.826 429.124 243.646 429.786C243.466 430.449 243.253 431.112 243.005 431.752C242.758 432.392 242.477 433.033 242.173 433.639C241.858 434.246 241.521 434.853 241.15 435.414C240.835 435.897 240.498 436.358 240.149 436.796C239.868 437.155 239.565 437.504 239.261 437.829C239.025 438.077 238.789 438.324 238.542 438.56C238.294 438.795 238.036 439.02 237.777 439.234C237.518 439.447 237.249 439.66 236.967 439.863C236.698 440.065 236.416 440.256 236.124 440.436C235.832 440.615 235.539 440.784 235.247 440.941C234.944 441.098 234.64 441.244 234.336 441.39C234.033 441.525 233.718 441.649 233.392 441.772C233.077 441.885 232.751 441.986 232.425 442.076C232.099 442.165 231.773 442.244 231.447 442.311C231.121 442.379 230.783 442.424 230.446 442.469C230.109 442.502 229.771 442.536 229.434 442.547L147.377 445.333L147.422 438.402L158.812 438.054C164.704 437.874 170.584 437.695 176.476 437.515L182.413 437.335C187.236 437.189 192.071 437.032 196.895 436.886L199.604 436.807C202.595 436.717 205.586 436.627 208.566 436.526L210.331 436.47C212.658 436.392 214.986 436.324 217.325 436.257L219.011 436.212C220.608 436.167 222.261 436.133 223.891 436.066C224.296 436.055 224.712 436.032 225.117 436.021C226.027 435.987 226.972 435.942 227.905 435.92L228.22 435.908C228.602 435.897 228.984 435.886 229.367 435.875C229.693 435.864 230.075 435.841 230.469 435.774C230.817 435.718 231.188 435.639 231.548 435.527C231.908 435.425 232.256 435.291 232.594 435.145C232.931 434.999 233.257 434.83 233.583 434.639C233.898 434.448 234.201 434.246 234.505 434.021C234.797 433.797 235.078 433.561 235.348 433.302C235.618 433.055 235.866 432.774 236.113 432.494C236.349 432.213 236.574 431.921 236.788 431.617C236.99 431.314 237.192 431 237.372 430.685C237.552 430.37 237.721 430.033 237.867 429.696C238.013 429.359 238.159 429.022 238.272 428.674C238.395 428.326 238.497 427.978 238.587 427.618C238.676 427.259 238.755 426.899 238.811 426.54C238.868 426.18 238.913 425.81 238.946 425.439C238.98 425.068 238.991 424.698 238.991 424.338C238.991 423.967 238.98 423.597 238.946 423.237C238.913 422.833 238.868 422.44 238.811 422.047L238.778 421.788C238.721 421.328 238.665 420.856 238.609 420.395L238.564 419.98C238.44 418.946 238.317 417.913 238.193 416.879L238.047 415.632C237.856 414.003 237.665 412.375 237.473 410.746L237.282 409.117C236.956 406.297 236.619 403.489 236.282 400.67L235.91 397.524C235.562 394.559 235.213 391.582 234.865 388.616L234.224 383.19C236.057 383.235 237.889 383.28 239.733 383.325L240.386 388.852C240.723 391.728 241.06 394.615 241.409 397.49L241.757 400.4ZM88.9325 433.269L99.8614 432.965C105.371 432.808 110.88 432.662 116.378 432.505L122.068 432.348C127.498 432.201 132.918 432.055 138.349 431.898L141.317 431.808C144.443 431.718 147.58 431.629 150.706 431.539L152.977 431.483C154.967 431.426 156.957 431.381 158.947 431.325L159.723 431.303C160.836 431.269 161.949 431.235 163.062 431.213L163.951 431.202C164.681 431.19 165.424 431.179 166.154 431.157C166.851 431.134 167.582 431.101 168.336 430.955C168.695 430.887 169.067 430.786 169.426 430.663C169.786 430.539 170.135 430.404 170.472 430.236C170.809 430.078 171.135 429.899 171.45 429.696C171.765 429.494 172.069 429.281 172.361 429.045C172.653 428.82 172.923 428.562 173.193 428.304C173.452 428.045 173.699 427.764 173.935 427.483C174.171 427.203 174.385 426.899 174.598 426.596C174.801 426.293 174.992 425.978 175.172 425.652C175.341 425.327 175.509 425.001 175.655 424.664C175.802 424.327 175.925 423.99 176.038 423.63C176.15 423.282 176.251 422.934 176.33 422.575C176.409 422.215 176.476 421.856 176.532 421.496C176.589 421.137 176.622 420.777 176.645 420.406C176.667 420.036 176.667 419.665 176.656 419.306C176.634 418.643 176.555 417.991 176.476 417.351L176.454 417.182C176.319 416.093 176.195 414.992 176.083 413.902L175.959 412.768C175.768 411.038 175.565 409.297 175.352 407.567L175.161 405.949C174.846 403.264 174.542 400.58 174.227 397.906L173.901 395.053C173.598 392.379 173.283 389.695 172.968 387.021L172.406 382.191C172.597 382.078 172.721 381.899 172.766 381.674C174.036 381.708 175.307 381.741 176.577 381.764L176.915 381.775C182.345 381.91 187.765 382.045 193.196 382.179L193.915 388.38C194.196 390.829 194.826 393.3 195.77 395.727C196.647 397.985 197.592 399.58 198.829 400.905C200.155 402.321 201.482 403.085 202.786 403.141L205.609 403.287C205.609 403.287 205.609 403.287 205.62 403.287C205.676 403.287 205.721 403.287 205.777 403.287C205.8 403.287 205.822 403.287 205.845 403.287H205.856L206.654 403.276C206.8 403.489 207.048 403.613 207.295 403.613C207.408 403.613 207.52 403.59 207.633 403.534C207.79 403.455 207.947 403.366 208.105 403.276C208.116 403.264 208.138 403.253 208.15 403.242C209.072 402.647 209.87 401.714 210.533 400.422C211.264 399.007 211.714 397.389 211.961 395.322C212.22 393.188 212.209 390.998 211.961 388.83L211.287 383.078C211.422 382.966 211.512 382.809 211.545 382.629C215.233 382.719 218.921 382.809 222.609 382.91L227.309 383.022C229.535 383.078 231.75 383.134 233.977 383.19L234.617 388.65C234.966 391.627 235.315 394.592 235.663 397.558L236.034 400.703C236.372 403.523 236.709 406.331 237.035 409.151L237.226 410.78C237.417 412.408 237.608 414.037 237.799 415.666L237.946 416.913C238.069 417.946 238.193 418.98 238.317 420.002L238.362 420.418C238.418 420.878 238.463 421.35 238.53 421.811L238.564 422.08C238.609 422.462 238.665 422.867 238.699 423.26C238.733 423.619 238.744 423.979 238.744 424.338C238.744 424.698 238.733 425.057 238.699 425.417C238.665 425.776 238.62 426.135 238.564 426.495C238.508 426.854 238.429 427.203 238.339 427.551C238.249 427.899 238.148 428.247 238.024 428.584C237.901 428.921 237.777 429.258 237.62 429.595C237.473 429.932 237.305 430.247 237.136 430.561C236.956 430.876 236.765 431.19 236.563 431.483C236.36 431.786 236.135 432.067 235.899 432.336C235.663 432.606 235.416 432.875 235.157 433.123C234.899 433.37 234.617 433.606 234.336 433.819C234.044 434.033 233.752 434.246 233.448 434.426C233.133 434.605 232.818 434.774 232.492 434.92C232.166 435.066 231.829 435.19 231.48 435.291C231.121 435.392 230.772 435.47 230.435 435.527C230.053 435.583 229.681 435.605 229.355 435.616C228.973 435.639 228.602 435.639 228.22 435.65L227.905 435.661C226.972 435.684 226.027 435.717 225.117 435.762C224.712 435.774 224.296 435.796 223.891 435.807C222.261 435.864 220.608 435.908 219.011 435.953L217.325 435.998C214.997 436.055 212.658 436.133 210.331 436.212L208.566 436.268C205.575 436.369 202.595 436.459 199.604 436.549L196.895 436.627C192.071 436.773 187.236 436.919 182.413 437.077L176.476 437.257C170.584 437.436 164.704 437.616 158.812 437.796L147.299 438.144C142.588 438.29 137.73 438.357 132.862 438.335C129.028 438.324 125.137 438.256 121.314 438.144C118.706 438.065 115.67 437.964 112.668 437.65L77.3514 434.01C77.2052 433.999 77.0703 433.976 76.9354 433.954C76.9354 433.954 76.9354 433.954 76.9241 433.954C76.9804 433.943 77.0478 433.943 77.104 433.931C77.8349 433.842 78.4308 433.797 79.0267 433.752C80.4097 433.651 81.8826 433.549 83.1757 433.482C85.2445 433.37 87.2009 433.314 88.9325 433.269ZM198.593 382.281C198.615 382.46 198.683 382.618 198.806 382.73L199.436 388.144L194.151 388.201L193.443 382.146C195.174 382.202 196.883 382.236 198.593 382.281ZM210.387 395.12C210.162 396.985 209.769 398.434 209.128 399.681C208.678 400.557 208.172 401.22 207.61 401.669C206.767 401.231 205.946 400.501 205.125 399.445C204.147 398.176 203.326 396.648 202.618 394.772C201.831 392.66 201.291 390.447 201.032 388.189L200.425 383.011L209.701 383.247L210.376 389.009C210.623 391.043 210.623 393.098 210.387 395.12ZM199.47 388.403C199.751 390.773 200.313 393.098 201.134 395.311C201.887 397.333 202.786 399.007 203.866 400.4C204.687 401.456 205.519 402.242 206.396 402.793L202.786 402.849C201.55 402.781 200.279 402.062 198.997 400.692C197.783 399.389 196.861 397.816 195.995 395.592C195.073 393.233 194.466 390.829 194.174 388.448L199.47 388.403ZM77.3739 440.784L77.4526 434.28L112.522 437.886L112.454 444.76L77.3739 440.784ZM75.8335 434.134C75.8897 434.122 75.9459 434.111 75.9909 434.1C76.1033 434.122 76.227 434.134 76.3395 434.145L76.4631 434.156C76.5981 434.167 76.7442 434.19 76.8792 434.212C76.9804 434.223 77.0928 434.235 77.194 434.257L77.1153 440.761C76.8679 440.728 76.6318 440.705 76.3732 440.66C76.1596 440.626 75.9347 440.593 75.7435 440.548L75.8335 434.134ZM112.713 444.794L112.78 437.908C115.737 438.211 118.728 438.312 121.303 438.391C125.137 438.503 129.028 438.571 132.862 438.582C133.345 438.582 133.829 438.582 134.312 438.582C138.652 438.582 142.981 438.515 147.175 438.391L147.13 445.322C142.453 445.479 137.64 445.547 132.794 445.535C128.96 445.524 125.081 445.457 121.258 445.333C118.672 445.243 115.67 445.12 112.713 444.794ZM240.532 382.415C240.509 382.415 240.498 382.427 240.475 382.427C240.464 382.427 240.453 382.427 240.43 382.427C240.408 382.427 240.397 382.438 240.374 382.449C240.048 382.505 239.812 382.741 239.745 383.067C235.596 382.966 231.458 382.865 227.309 382.764L222.609 382.651C218.921 382.561 215.233 382.471 211.545 382.37C211.489 381.988 211.186 381.696 210.792 381.685L199.38 381.404C198.975 381.393 198.66 381.674 198.593 382.056C191.363 381.876 184.144 381.696 176.915 381.517L176.577 381.505C175.307 381.472 174.036 381.438 172.766 381.416C172.709 381.045 172.406 380.742 172.012 380.73L146.523 380.09C133.491 379.764 120.471 379.439 107.428 379.113L94.0034 378.787C83.4005 378.529 72.8089 378.27 62.2173 378.001L56.4043 377.855C50.8162 377.709 45.2168 377.563 39.6175 377.428L36.7053 377.36C33.9056 377.293 31.1059 377.226 28.3175 377.158L26.8895 377.124C25.4841 377.091 24.0786 377.046 22.6731 377.012L21.9985 377.001C21.2789 376.99 20.5706 376.967 19.851 376.945L19.4799 376.933C19.0639 376.922 18.6479 376.911 18.1869 376.9C17.8383 376.889 17.501 376.889 17.2199 376.81L8.88833 374.619C9.68664 374.642 10.4849 374.653 11.2608 374.653L12.2615 374.664C14.1616 374.687 16.0956 374.743 17.962 374.799C18.6704 374.822 19.39 374.844 20.0983 374.855C22.9655 374.934 25.8776 374.979 28.6998 375.024L31.2971 375.069C35.8283 375.147 40.4382 375.248 44.8908 375.35L49.2196 375.439C54.9089 375.563 60.5982 375.675 66.2876 375.788L71.6059 375.889C80.331 376.057 89.0561 376.237 97.7925 376.417L107.44 376.619C115.074 376.776 122.697 376.933 130.332 377.079L158.059 377.641C165.075 377.787 172.08 377.922 179.096 378.068L184.954 378.18C191.959 378.326 198.964 378.461 205.968 378.607L211.5 378.72C217.122 378.843 222.744 378.955 228.366 379.068L232.717 379.146C237.159 379.225 241.746 379.315 246.277 379.416L248.74 379.472C251.247 379.528 253.833 379.596 256.363 379.641L257.982 379.663C259.376 379.686 260.804 379.708 262.232 379.742H262.311C262.592 379.753 262.873 379.753 263.165 379.753C263.424 379.753 263.683 379.742 263.93 379.731C264.2 379.708 264.481 379.674 264.773 379.629C265.054 379.585 265.335 379.528 265.605 379.461C265.965 379.371 266.325 379.27 266.696 379.146C267.123 379 267.573 378.821 268 378.618C268.495 378.383 269.001 378.124 269.496 377.821C269.968 377.54 270.44 377.226 270.901 376.877C271.339 376.552 271.789 376.203 272.228 375.833C272.644 375.473 273.06 375.091 273.476 374.698C273.869 374.316 274.263 373.912 274.645 373.485C275.016 373.08 275.387 372.654 275.747 372.215C276.096 371.789 276.444 371.339 276.793 370.89C277.13 370.452 277.456 369.991 277.771 369.519C278.187 368.913 278.592 368.284 278.985 367.632C279.469 366.846 279.93 366.037 280.379 365.195C280.897 364.217 281.403 363.206 281.864 362.173C282.325 361.162 282.752 360.117 283.157 359.072C283.55 358.039 283.921 356.972 284.259 355.893C284.607 354.793 284.911 353.703 285.181 352.658C285.462 351.512 285.709 350.355 285.911 349.378C286.147 348.232 286.372 347.086 286.597 345.941L286.788 344.986C287.339 342.2 287.913 339.358 288.475 336.617C288.722 335.381 288.981 334.146 289.228 332.921C290.195 328.147 291.151 323.283 292.084 318.576C292.444 316.768 292.793 314.97 293.152 313.162C294.31 307.309 295.491 301.457 296.66 295.604C297.234 292.728 297.818 289.853 298.392 286.966L313.155 291.83C312.413 295.615 311.66 299.412 310.906 303.198C309.737 309.062 308.579 314.937 307.432 320.812C307.05 322.778 306.667 324.755 306.285 326.72C305.374 331.438 304.43 336.325 303.463 341.122L302.946 343.694C302.44 346.177 301.922 348.749 301.439 351.277L301.315 351.951C301.045 353.388 300.764 354.871 300.427 356.32C300.213 357.253 299.966 358.207 299.696 359.14C299.494 359.848 299.269 360.544 299.044 361.229C298.819 361.914 298.572 362.611 298.313 363.285C298.055 363.97 297.785 364.644 297.504 365.318C297.223 365.992 296.919 366.666 296.604 367.306C296.289 367.958 295.963 368.621 295.626 369.261C295.277 369.913 294.929 370.553 294.558 371.16C294.187 371.789 293.793 372.406 293.4 373.002C292.995 373.62 292.568 374.215 292.152 374.777C291.713 375.361 291.263 375.934 290.802 376.473C290.33 377.035 289.835 377.574 289.352 378.068C288.835 378.596 288.306 379.09 287.789 379.54C287.328 379.933 286.856 380.315 286.395 380.652C286.001 380.933 285.608 381.202 285.214 381.438C284.911 381.618 284.607 381.798 284.292 381.966C283.977 382.135 283.663 382.281 283.348 382.427C283.022 382.573 282.696 382.696 282.381 382.809C282.055 382.921 281.717 383.022 281.391 383.101C281.054 383.179 280.717 383.247 280.379 383.292C280.042 383.336 279.705 383.37 279.356 383.37C278.963 383.381 278.569 383.37 278.164 383.348L277.917 383.336C277.287 383.314 276.658 383.303 276.017 383.292L275.309 383.28C274.364 383.258 273.42 383.235 272.475 383.202L271.621 383.179C270.136 383.134 268.652 383.101 267.168 383.067L265.706 383.033C263.84 382.988 261.962 382.943 260.096 382.887L240.532 382.415ZM339.87 2.94204C340.5 2.70614 341.152 2.5264 341.826 2.3916C343.108 2.14447 344.39 2.24557 345.638 2.70614C346.245 2.9308 346.807 3.24534 347.291 3.62727C347.437 3.7396 347.617 3.79577 347.786 3.79577C347.876 3.79577 347.966 3.7733 348.044 3.75084L348.674 4.03167C348.786 4.15524 348.899 4.29004 349 4.42484C349.225 4.7169 349.45 5.03144 349.652 5.36844C349.843 5.6942 350.034 6.0312 350.192 6.39067C350.349 6.72767 350.507 7.08714 350.642 7.45784C350.776 7.80607 350.889 8.17677 351.001 8.5587C351.136 9.0305 351.26 9.536 351.361 10.064C351.485 10.6706 351.575 11.3221 351.642 11.9736C351.721 12.715 351.766 13.5014 351.777 14.2877C351.788 15.0403 351.777 15.8154 351.732 16.613C351.687 17.3769 351.62 18.152 351.53 18.9271C351.417 19.8594 351.26 20.8704 351.058 21.9938C350.866 23.0385 350.653 24.0944 350.439 25.1166L350.293 25.8131C349.843 28.0036 349.405 30.239 348.989 32.3958C348.82 33.2608 348.651 34.1145 348.483 34.9683C347.797 38.4394 347.089 41.9554 346.391 45.3591L345.717 48.6954C344.469 54.8737 343.221 61.1644 342.006 67.2529L340.837 73.1167C339.308 80.8115 337.767 88.5064 336.216 96.2012L334.72 103.638C332.258 115.949 329.796 128.261 327.333 140.584L324.961 152.469C322.026 167.173 319.08 181.878 316.146 196.582L312.761 213.511C309.591 229.361 306.42 245.2 303.26 261.05L298.145 286.662L14.1616 309.578L44.5422 188.135C45.824 183.035 47.0945 177.924 48.3763 172.824L49.1184 169.881C50.1416 165.78 51.176 161.68 52.1879 157.58L53.0087 154.289C53.9982 150.301 54.9876 146.324 55.9996 142.348L56.7529 139.405C57.4725 136.574 58.1921 133.754 58.8892 130.923L59.4177 128.778C59.8112 127.16 60.2047 125.554 60.6095 123.948C60.8006 123.195 61.0255 122.319 61.2841 121.442C61.464 120.825 61.6552 120.207 61.8575 119.6C62.0599 118.982 62.2736 118.376 62.4984 117.769C62.7233 117.163 62.9594 116.567 63.2068 115.961C63.4542 115.365 63.7015 114.77 63.9714 114.186C64.2412 113.602 64.5111 113.017 64.8034 112.433C65.0957 111.86 65.3881 111.288 65.7029 110.726C66.0177 110.153 66.3438 109.591 66.6699 109.063C67.0072 108.502 67.367 107.962 67.7155 107.446C68.0866 106.907 68.4689 106.379 68.8399 105.907C69.2559 105.379 69.6607 104.907 70.0767 104.469C70.459 104.053 70.8188 103.705 71.1898 103.379C71.5047 103.098 71.8307 102.851 72.1456 102.627C72.4154 102.436 72.6628 102.29 72.8876 102.166C73.1575 102.02 73.4498 101.908 73.7084 101.807C74.1357 101.638 74.5742 101.481 75.0127 101.335L75.5412 101.144C76.2383 100.897 76.9354 100.627 77.6325 100.358L78.3184 100.099C79.5552 99.6274 80.792 99.178 82.04 98.7175L83.2319 98.2794C84.7723 97.7065 86.3127 97.1336 87.8531 96.5607L89.371 95.9878C91.3948 95.2351 93.4299 94.4825 95.4651 93.7299L96.7468 93.2581C100.266 91.955 103.785 90.6407 107.305 89.3376L111.487 87.7874C116.997 85.743 122.495 83.6985 128.004 81.654L133.593 79.5759C143.352 75.9587 153.112 72.3304 162.871 68.702L339.87 2.94204ZM14.0829 309.972L14.1167 309.837L298.111 286.921C297.537 289.796 296.964 292.661 296.391 295.537C295.221 301.389 294.041 307.242 292.883 313.094C292.523 314.903 292.163 316.7 291.814 318.509C290.881 323.204 289.925 328.068 288.958 332.843C288.711 334.078 288.464 335.314 288.205 336.538C287.643 339.279 287.069 342.11 286.519 344.907L286.327 345.862C286.103 347.008 285.878 348.154 285.642 349.299C285.439 350.277 285.192 351.434 284.911 352.568C284.652 353.613 284.349 354.691 284 355.792C283.663 356.871 283.292 357.927 282.898 358.96C282.505 360.005 282.066 361.038 281.616 362.049C281.155 363.072 280.649 364.083 280.143 365.049C279.705 365.88 279.233 366.689 278.76 367.475C278.367 368.115 277.962 368.744 277.546 369.351C277.231 369.812 276.905 370.272 276.568 370.71C276.231 371.16 275.882 371.598 275.533 372.025C275.174 372.463 274.803 372.889 274.443 373.283C274.06 373.698 273.667 374.103 273.285 374.485C272.88 374.878 272.464 375.26 272.048 375.608C271.621 375.979 271.171 376.327 270.744 376.641C270.283 376.978 269.822 377.293 269.361 377.563C268.877 377.855 268.382 378.124 267.888 378.349C267.46 378.551 267.022 378.72 266.606 378.866C266.246 378.989 265.898 379.09 265.549 379.18C265.279 379.248 265.009 379.304 264.739 379.337C264.458 379.382 264.177 379.416 263.919 379.427C263.39 379.461 262.85 379.45 262.322 379.439H262.243C260.827 379.405 259.387 379.382 257.993 379.36L256.374 379.337C253.844 379.292 251.258 379.236 248.751 379.169L246.288 379.113C241.768 379.012 237.17 378.922 232.729 378.843L228.377 378.764C222.755 378.652 217.133 378.54 211.512 378.416L205.98 378.304C198.975 378.158 191.97 378.012 184.965 377.877L179.107 377.765C172.091 377.619 165.086 377.484 158.07 377.338L130.343 376.776C122.709 376.619 115.085 376.473 107.451 376.316L97.8038 376.113C89.0786 375.934 80.3535 375.754 71.6171 375.585L66.2988 375.484C60.6095 375.372 54.9202 375.26 49.2308 375.136L44.902 375.046C40.4495 374.945 35.8396 374.844 31.3083 374.765L28.711 374.72C25.8888 374.676 22.9767 374.631 20.1096 374.552C19.4012 374.53 18.6816 374.518 17.9733 374.496C16.1068 374.44 14.1729 374.383 12.2727 374.361L11.272 374.35C10.3163 374.339 9.32683 374.339 8.34863 374.305L7.85391 374.282C7.84267 374.282 7.82018 374.282 7.80893 374.282L7.33669 374.159C7.2355 373.844 6.95441 373.597 6.60586 373.597L5.62765 373.575C5.4365 373.575 5.2566 373.575 5.06546 373.552C4.94178 373.53 4.80685 373.507 4.68317 373.462C4.55949 373.417 4.43581 373.372 4.32337 373.305C4.21093 373.238 4.0985 373.17 3.98606 373.08C3.87363 372.991 3.77243 372.889 3.67124 372.788C3.53632 372.654 3.41263 372.496 3.28895 372.317C3.14278 372.114 3.00786 371.89 2.88417 371.631C2.74925 371.35 2.61433 371.058 2.50189 370.721C2.4007 370.418 2.2995 370.092 2.20955 369.755C2.09712 369.34 2.00717 368.879 1.93971 368.407C1.84976 367.868 1.78229 367.284 1.73732 366.677C1.69234 366.015 1.65861 365.307 1.66986 364.577C1.66986 363.903 1.69234 363.184 1.73732 362.465C1.78229 361.78 1.83851 361.072 1.92846 360.353C2.00717 359.657 2.10836 358.949 2.2208 358.241C2.36697 357.32 2.54687 356.376 2.74926 355.444C3.05284 354.04 3.42388 352.602 3.77243 351.22L3.94109 350.558C4.54825 348.165 5.14416 345.772 5.72884 343.379L6.38098 340.74C7.22426 337.302 8.09002 333.876 8.95579 330.45L9.88902 326.743C10.8335 323.013 11.7667 319.273 12.6887 315.543L14.0829 309.972ZM313.177 291.549L298.414 286.685L303.53 261.084C306.701 245.234 309.861 229.395 313.031 213.545L316.416 196.616C319.361 181.912 322.296 167.207 325.231 152.503L327.603 140.618C330.066 128.306 332.517 115.994 334.99 103.671L336.486 96.2349C338.026 88.5401 339.566 80.8452 341.107 73.1504L342.276 67.2866C343.479 61.2093 344.727 54.9187 345.987 48.7403L346.661 45.404C347.358 42.0003 348.067 38.4731 348.753 35.0132C348.921 34.1595 349.09 33.2945 349.259 32.4295C349.675 30.2727 350.113 28.0373 350.563 25.8468L350.709 25.1503C350.923 24.1281 351.136 23.0722 351.327 22.0275C351.53 20.8929 351.687 19.8819 351.8 18.9495C351.89 18.1632 351.957 17.3769 352.002 16.613C352.047 15.8154 352.058 15.0291 352.047 14.2765C352.036 13.4789 351.991 12.6926 351.912 11.9399C351.845 11.2772 351.743 10.6256 351.62 10.0078C351.519 9.47984 351.395 8.9631 351.26 8.48007C351.147 8.09814 351.024 7.7162 350.9 7.35674C350.765 6.98604 350.608 6.61534 350.45 6.2671C350.282 5.90764 350.091 5.5594 349.899 5.2224C349.686 4.87417 349.461 4.5484 349.236 4.25634L360.412 9.3001C360.716 9.4349 361.008 9.6034 361.289 9.78314C361.57 9.96287 361.84 10.1763 362.088 10.401C362.335 10.6256 362.571 10.8728 362.796 11.1424C363.088 11.4794 363.358 11.8613 363.606 12.2657C363.898 12.7487 364.168 13.2767 364.404 13.8496C364.662 14.4787 364.887 15.1639 365.067 15.8941C365.236 16.5681 365.371 17.287 365.472 18.0396C365.562 18.7361 365.629 19.4775 365.663 20.2301C365.697 20.9491 365.697 21.6905 365.674 22.4431C365.652 23.162 365.607 23.9034 365.539 24.6561C365.472 25.3975 365.382 26.1389 365.27 26.8578C365.112 27.8688 364.91 28.891 364.73 29.8009L363.707 34.9907C362.953 38.8101 362.2 42.6294 361.458 46.46L360.502 51.324C358.636 60.8162 356.769 70.2971 354.892 79.7781L352.89 89.8993C349.022 109.479 345.177 129.059 341.332 148.65L336.542 173.015C331.831 196.998 327.097 220.97 322.375 244.942C319.294 260.5 316.236 276.024 313.177 291.549Z" fill="url(#paint0_linear_595_297)"/>
<defs>
<linearGradient id="paint0_linear_595_297" x1="0.0753785" y1="223.894" x2="367.262" y2="223.894" gradientUnits="userSpaceOnUse">
<stop stop-color="#3FA9F5"/>
<stop offset="0.00257802" stop-color="#3FA8F4"/>
<stop offset="0.2212" stop-color="#2C76AB"/>
<stop offset="0.4267" stop-color="#1C4C6E"/>
<stop offset="0.613" stop-color="#102B3F"/>
<stop offset="0.7765" stop-color="#07141C"/>
<stop offset="0.9111" stop-color="#020508"/>
<stop offset="1"/>
</linearGradient>
</defs>
</svg>
