<svg width="350" height="424" viewBox="0 0 350 424" fill="none" xmlns="http://www.w3.org/2000/svg">
<path d="M348.984 18.9771C348.95 18.2132 348.883 17.4718 348.793 16.7641C348.692 16.0003 348.545 15.2701 348.377 14.5736C348.186 13.8098 347.949 13.0908 347.68 12.4281C347.432 11.8215 347.14 11.2486 346.825 10.7206C346.544 10.2713 346.24 9.84439 345.926 9.46246C345.667 9.15916 345.397 8.87832 345.105 8.61996C344.813 8.35036 344.486 8.10322 344.16 7.88979C343.823 7.66512 343.474 7.47416 343.115 7.31689L329.454 1.14979C329.409 1.12732 329.364 1.12732 329.33 1.11609C329.24 1.08239 329.15 1.03745 329.049 1.00375C327.598 0.464553 326.114 0.340986 324.63 0.633053C323.91 0.779086 323.213 0.970054 322.539 1.21719L154.704 63.551C145.45 66.9884 136.208 70.4258 126.954 73.8519L121.658 75.8178C116.441 77.7499 111.213 79.6933 105.996 81.6366L102.038 83.1082C98.6985 84.3439 95.3704 85.5908 92.031 86.8264L90.8167 87.2758C88.894 87.9947 86.9713 88.7024 85.0374 89.4213L83.5982 89.9605C82.1365 90.4997 80.6861 91.0502 79.2244 91.5894L78.1 92.005C76.9194 92.4431 75.7389 92.87 74.5583 93.3193L73.9061 93.5664C73.254 93.8136 72.6018 94.0607 71.9497 94.2966L71.455 94.4763C71.0277 94.6224 70.6005 94.7796 70.1845 94.9481C69.9034 95.0605 69.5773 95.184 69.2625 95.3525C68.9814 95.4986 68.7003 95.6783 68.3855 95.8917C68.0369 96.1389 67.6883 96.4085 67.351 96.7118C66.9687 97.0488 66.5865 97.4195 66.1817 97.8463C65.7657 98.2957 65.3497 98.7787 64.9336 99.3067C64.5513 99.7897 64.1803 100.306 63.8093 100.846C63.4607 101.351 63.1122 101.89 62.7748 102.441C62.4488 102.969 62.1339 103.519 61.8191 104.081C61.5155 104.631 61.2232 105.193 60.9421 105.755C60.661 106.316 60.3912 106.889 60.1326 107.462C59.874 108.035 59.6266 108.608 59.3905 109.192C59.1544 109.776 58.9182 110.36 58.7046 110.956C58.491 111.551 58.2773 112.135 58.075 112.731C57.8726 113.326 57.6927 113.932 57.5128 114.539C57.2654 115.382 57.0405 116.235 56.8606 116.954C56.4671 118.482 56.0961 120.021 55.725 121.549L55.2303 123.582C54.5782 126.267 53.8923 128.94 53.2064 131.614L52.4981 134.411C51.5424 138.185 50.5979 141.96 49.6646 145.745L48.8888 148.857C47.9219 152.744 46.9437 156.63 45.9767 160.517L45.2796 163.303C44.0653 168.145 42.8622 172.986 41.6479 177.816L12.7515 293.318L11.4247 298.631C10.5365 302.169 9.65946 305.708 8.77121 309.246L7.88295 312.763C7.06216 316.02 6.24137 319.267 5.43182 322.524L4.81342 325.029C4.26248 327.298 3.70029 329.556 3.12686 331.814L2.96945 332.432C2.63214 333.758 2.27233 335.128 1.97999 336.487C1.78885 337.397 1.60895 338.318 1.46278 339.217C1.35035 339.913 1.2604 340.61 1.18169 341.284C1.10298 341.992 1.03553 342.688 1.00179 343.362C0.956819 344.081 0.934326 344.789 0.934326 345.463C0.934326 346.193 0.956813 346.901 1.01303 347.575C1.05801 348.192 1.12547 348.777 1.21542 349.338C1.29413 349.833 1.39532 350.304 1.50776 350.742C1.59771 351.113 1.71014 351.461 1.82258 351.787C1.95751 352.158 2.09243 352.495 2.26109 352.821C2.40725 353.124 2.57591 353.393 2.74457 353.652C2.90198 353.877 3.07064 354.09 3.25054 354.27C3.39671 354.427 3.55412 354.562 3.71153 354.685C3.88018 354.82 4.06009 354.944 4.23998 355.034C4.43113 355.135 4.63351 355.225 4.8359 355.292C4.89212 355.314 4.94834 355.314 4.99331 355.326C5.0158 355.337 5.02705 355.348 5.04953 355.348L16.8105 358.448C17.249 358.561 17.6987 358.572 18.126 358.583C18.5195 358.595 18.9018 358.606 19.2953 358.617L19.6551 358.628C20.3298 358.651 21.0156 358.662 21.7015 358.673L22.3424 358.684C23.6804 358.718 25.0072 358.752 26.3339 358.785L27.6944 358.819C30.3479 358.887 33.0014 358.954 35.655 359.01L38.4209 359.078C43.728 359.201 49.035 359.347 54.3308 359.482L59.8402 359.628C69.8809 359.886 79.9328 360.133 89.9734 360.381L102.701 360.695C115.058 360.998 127.404 361.313 139.761 361.628L162.822 362.212L163.361 366.874C163.654 369.412 163.946 371.951 164.238 374.49L164.553 377.197C164.845 379.736 165.138 382.286 165.43 384.824L165.61 386.363C165.801 388.003 166.004 389.643 166.183 391.284L166.307 392.362C166.42 393.407 166.532 394.451 166.667 395.496L166.689 395.653C166.768 396.249 166.836 396.81 166.847 397.372C166.858 397.664 166.858 397.967 166.836 398.282C166.813 398.585 166.791 398.888 166.746 399.192C166.701 399.495 166.644 399.787 166.577 400.09C166.509 400.383 166.431 400.686 166.33 400.967C166.24 401.259 166.127 401.54 166.015 401.82C165.891 402.101 165.767 402.371 165.621 402.64C165.475 402.91 165.318 403.168 165.16 403.416C164.992 403.663 164.812 403.91 164.621 404.146C164.429 404.382 164.227 404.606 164.013 404.808C163.8 405.022 163.575 405.224 163.35 405.404C163.114 405.595 162.878 405.763 162.63 405.921C162.383 406.078 162.113 406.224 161.855 406.347C161.585 406.471 161.315 406.583 161.034 406.684C160.753 406.774 160.46 406.853 160.191 406.909C159.595 407.021 158.965 407.055 158.369 407.078C157.683 407.1 156.986 407.111 156.3 407.123L155.457 407.134C154.4 407.156 153.343 407.19 152.275 407.224L151.544 407.246C149.655 407.302 147.777 407.347 145.888 407.403L143.741 407.46C140.773 407.538 137.804 407.628 134.836 407.707L132.025 407.785C126.887 407.931 121.737 408.077 116.599 408.212L111.202 408.358C105.984 408.504 100.756 408.65 95.5391 408.796L85.1723 409.088C83.5195 409.133 81.6531 409.189 79.6742 409.291C78.4374 409.358 77.0319 409.448 75.7051 409.549C75.1205 409.594 74.5358 409.639 73.8049 409.729C73.4451 409.774 73.0404 409.83 72.7593 409.886C72.5906 409.92 72.4444 409.953 72.1971 410.009C71.9834 410.066 71.5787 410.167 71.3875 410.56C71.3313 410.672 71.3088 410.796 71.3088 410.919L71.2189 417.907C71.2189 418.142 71.3088 418.569 71.9272 418.794C72.0959 418.85 72.2196 418.884 72.3545 418.918C72.5794 418.974 72.838 419.019 73.0853 419.052C73.4227 419.109 73.7262 419.142 74.0523 419.176L107.559 422.984C110.426 423.31 113.327 423.422 115.823 423.501C119.466 423.613 123.165 423.68 126.808 423.692C127.269 423.692 127.73 423.692 128.191 423.692C132.362 423.692 136.511 423.624 140.536 423.49L218.478 420.85C218.838 420.838 219.198 420.816 219.546 420.771C219.906 420.726 220.254 420.67 220.603 420.603C220.952 420.535 221.3 420.456 221.649 420.355C221.997 420.266 222.335 420.153 222.672 420.03C223.009 419.906 223.335 419.771 223.661 419.625C223.987 419.479 224.313 419.322 224.617 419.153C224.932 418.985 225.235 418.805 225.539 418.614C225.843 418.423 226.135 418.221 226.427 418.019C226.72 417.805 226.989 417.592 227.271 417.367C227.54 417.143 227.81 416.907 228.069 416.66C228.327 416.413 228.575 416.165 228.822 415.907C229.137 415.57 229.452 415.211 229.744 414.84C230.104 414.391 230.453 413.907 230.779 413.413C231.161 412.829 231.521 412.211 231.836 411.582C232.15 410.964 232.443 410.313 232.69 409.661C232.937 409.01 233.162 408.336 233.342 407.662C233.522 406.988 233.68 406.291 233.792 405.606C233.904 404.921 233.994 404.224 234.051 403.517C234.107 402.798 234.118 402.09 234.107 401.405C234.084 400.461 233.983 399.518 233.882 398.641C233.758 397.507 233.612 396.372 233.477 395.238L233.32 393.935C233.106 392.205 232.904 390.464 232.713 388.734L232.533 387.217C232.229 384.555 231.903 381.892 231.588 379.23L231.262 376.456C230.936 373.726 230.621 370.996 230.295 368.266L229.778 363.874L247.408 364.312C249.185 364.357 250.961 364.402 252.738 364.447L254.132 364.481C255.537 364.514 256.943 364.548 258.348 364.582L259.158 364.604C260.057 364.627 260.957 364.661 261.856 364.672L262.531 364.683C263.116 364.694 263.711 364.705 264.296 364.728L264.521 364.739C264.836 364.75 265.151 364.762 265.466 364.762C265.555 364.762 265.645 364.762 265.747 364.762C266.118 364.75 266.5 364.717 266.882 364.672C267.242 364.627 267.624 364.548 267.995 364.458C268.355 364.368 268.715 364.267 269.075 364.144C269.423 364.02 269.772 363.885 270.109 363.739C270.435 363.593 270.773 363.436 271.11 363.256C271.436 363.088 271.751 362.897 272.066 362.706C272.47 362.459 272.875 362.178 273.28 361.886C273.752 361.538 274.236 361.156 274.697 360.751C275.225 360.291 275.754 359.797 276.271 359.269C276.765 358.774 277.249 358.235 277.721 357.673C278.171 357.134 278.621 356.573 279.059 355.988C279.475 355.427 279.891 354.843 280.296 354.236C280.678 353.652 281.061 353.045 281.432 352.427C281.791 351.821 282.14 351.192 282.477 350.563C282.815 349.934 283.129 349.293 283.433 348.653C283.737 348.024 284.029 347.361 284.31 346.71C284.58 346.058 284.85 345.395 285.097 344.733C285.344 344.07 285.592 343.396 285.805 342.722C286.03 342.059 286.233 341.374 286.435 340.689C286.694 339.779 286.941 338.846 287.155 337.936C287.481 336.543 287.751 335.117 288.009 333.735L288.133 333.095C288.594 330.702 289.077 328.276 289.561 325.917L290.056 323.479C290.966 318.93 291.866 314.301 292.732 309.819C293.091 307.955 293.451 306.09 293.822 304.214C294.902 298.642 296.015 293.082 297.117 287.521C297.836 283.915 298.545 280.321 299.253 276.715C302.165 261.92 305.077 247.137 307.989 232.354C312.464 209.629 316.951 186.904 321.414 164.168L325.957 141.061C329.6 122.492 333.254 103.924 336.919 85.3661L338.82 75.7728C340.596 66.7862 342.373 57.7883 344.138 48.7904L345.037 44.1847C345.746 40.5563 346.454 36.9392 347.174 33.3221L348.141 28.4019C348.309 27.5257 348.512 26.5371 348.658 25.5486C348.77 24.8297 348.86 24.0995 348.928 23.3693C348.995 22.6167 349.04 21.8865 349.063 21.1788C349.029 20.4374 349.018 19.696 348.984 18.9771ZM230.037 379.421C230.351 382.083 230.666 384.746 230.981 387.408L231.161 388.925C231.363 390.666 231.566 392.396 231.768 394.137L231.925 395.44C232.06 396.563 232.207 397.698 232.33 398.832C232.42 399.675 232.521 400.573 232.544 401.472C232.566 402.101 232.544 402.753 232.499 403.427C232.454 404.078 232.375 404.73 232.263 405.37C232.15 406.01 232.015 406.651 231.836 407.28C231.667 407.909 231.453 408.538 231.228 409.133C230.992 409.74 230.722 410.346 230.43 410.919C230.138 411.504 229.812 412.065 229.452 412.604C229.16 413.054 228.833 413.503 228.507 413.919C228.238 414.256 227.956 414.581 227.664 414.896C227.439 415.132 227.214 415.357 226.978 415.581C226.742 415.806 226.506 416.019 226.259 416.222C226.011 416.424 225.753 416.626 225.494 416.817C225.235 417.008 224.966 417.188 224.696 417.356C224.426 417.525 224.145 417.693 223.864 417.839C223.583 417.985 223.29 418.131 222.998 418.266C222.706 418.401 222.413 418.513 222.11 418.625C221.806 418.738 221.503 418.828 221.199 418.918C220.895 419.007 220.581 419.075 220.266 419.142C219.951 419.198 219.636 419.255 219.321 419.288C219.006 419.322 218.68 419.344 218.366 419.356L140.581 421.995L140.626 415.424L151.432 415.098C157.009 414.93 162.597 414.761 168.174 414.581L173.807 414.402C178.383 414.256 182.959 414.121 187.535 413.975L190.099 413.896C192.932 413.806 195.766 413.728 198.599 413.638L200.274 413.582C202.478 413.514 204.693 413.436 206.897 413.379L208.494 413.335C210.011 413.301 211.574 413.256 213.126 413.2C213.508 413.189 213.902 413.166 214.284 413.155C215.15 413.121 216.049 413.087 216.926 413.065L217.23 413.054C217.59 413.042 217.95 413.042 218.309 413.02C218.613 413.009 218.984 412.986 219.355 412.93C219.692 412.885 220.03 412.807 220.378 412.694C220.715 412.593 221.042 412.47 221.368 412.335C221.682 412.2 221.997 412.032 222.301 411.852C222.593 411.672 222.897 411.481 223.167 411.268C223.436 411.054 223.706 410.83 223.965 410.582C224.212 410.346 224.46 410.088 224.685 409.819C224.909 409.56 225.123 409.279 225.325 408.987C225.528 408.706 225.708 408.403 225.876 408.1C226.045 407.797 226.202 407.482 226.349 407.167C226.495 406.853 226.618 406.527 226.731 406.19C226.843 405.864 226.945 405.527 227.034 405.19C227.124 404.853 227.192 404.505 227.248 404.168C227.304 403.831 227.349 403.483 227.383 403.135C227.417 402.786 227.428 402.438 227.428 402.09C227.428 401.742 227.417 401.394 227.383 401.045C227.349 400.663 227.304 400.281 227.259 399.922L227.226 399.675C227.169 399.237 227.124 398.799 227.068 398.361L227.023 397.967C226.911 396.99 226.787 396.013 226.675 395.035L226.528 393.856C226.337 392.317 226.169 390.767 225.989 389.228L225.809 387.678C225.494 385.004 225.179 382.342 224.864 379.668L224.516 376.691C224.179 373.872 223.852 371.064 223.515 368.244L222.908 363.099C224.651 363.144 226.382 363.189 228.125 363.234L228.743 368.48C229.07 371.21 229.384 373.939 229.71 376.669L230.037 379.421ZM85.1723 410.571L95.5391 410.279C100.756 410.133 105.984 409.987 111.202 409.841L116.599 409.695C121.737 409.56 126.887 409.414 132.025 409.268L134.836 409.189C137.804 409.1 140.773 409.021 143.73 408.942L145.877 408.886C147.766 408.841 149.644 408.785 151.533 408.729L152.264 408.706C153.321 408.673 154.377 408.639 155.423 408.617L156.266 408.605C156.964 408.594 157.661 408.583 158.358 408.56C159.01 408.538 159.718 408.504 160.427 408.369C160.775 408.302 161.124 408.212 161.461 408.089C161.798 407.976 162.124 407.841 162.45 407.684C162.765 407.538 163.08 407.358 163.384 407.167C163.676 406.977 163.968 406.774 164.249 406.55C164.519 406.336 164.789 406.1 165.037 405.842C165.284 405.595 165.52 405.336 165.745 405.067C165.97 404.797 166.172 404.516 166.375 404.224C166.566 403.932 166.746 403.629 166.914 403.326C167.083 403.022 167.229 402.708 167.364 402.382C167.499 402.068 167.623 401.742 167.735 401.405C167.836 401.079 167.937 400.742 168.016 400.405C168.095 400.068 168.162 399.72 168.207 399.383C168.252 399.046 168.286 398.698 168.308 398.349C168.331 398.001 168.331 397.642 168.32 397.305C168.297 396.676 168.219 396.058 168.151 395.451L168.129 395.294C168.005 394.26 167.892 393.227 167.769 392.182L167.645 391.104C167.465 389.464 167.263 387.812 167.072 386.172L166.892 384.633C166.588 382.095 166.296 379.545 166.015 377.006L165.7 374.299C165.408 371.76 165.115 369.221 164.823 366.683L164.294 362.111C164.474 361.998 164.598 361.83 164.643 361.616C165.846 361.65 167.049 361.672 168.252 361.706L168.567 361.717C173.717 361.841 178.855 361.976 184.005 362.099L184.691 367.986C184.96 370.3 185.556 372.647 186.445 374.95C187.277 377.085 188.176 378.601 189.345 379.859C190.605 381.207 191.864 381.915 193.101 381.982L195.777 382.117C195.777 382.117 195.777 382.117 195.788 382.117C195.833 382.117 195.889 382.117 195.934 382.117C195.957 382.117 195.979 382.117 196.002 382.117H196.013L196.766 382.106C196.912 382.308 197.137 382.432 197.373 382.432C197.486 382.432 197.587 382.409 197.7 382.364C197.857 382.297 198.003 382.207 198.149 382.117C198.161 382.106 198.172 382.095 198.194 382.083C199.071 381.522 199.825 380.634 200.454 379.41C201.14 378.073 201.567 376.534 201.804 374.58C202.04 372.558 202.04 370.479 201.804 368.424L201.163 362.976C201.286 362.863 201.376 362.717 201.41 362.549C204.907 362.639 208.404 362.728 211.889 362.807L216.353 362.919C218.455 362.976 220.569 363.02 222.672 363.077L223.279 368.255C223.605 371.075 223.942 373.883 224.28 376.703L224.628 379.679C224.943 382.342 225.258 385.015 225.573 387.678L225.753 389.217C225.933 390.767 226.112 392.306 226.292 393.856L226.439 395.035C226.562 396.013 226.675 396.99 226.787 397.967L226.832 398.361C226.877 398.799 226.933 399.237 226.989 399.686L227.023 399.933C227.068 400.304 227.113 400.675 227.147 401.057C227.169 401.394 227.192 401.742 227.192 402.079C227.192 402.416 227.181 402.764 227.147 403.101C227.113 403.438 227.079 403.786 227.023 404.123C226.967 404.46 226.9 404.797 226.81 405.123C226.731 405.449 226.63 405.786 226.517 406.1C226.405 406.426 226.281 406.741 226.135 407.055C225.989 407.37 225.843 407.673 225.674 407.976C225.505 408.28 225.325 408.572 225.134 408.841C224.943 409.122 224.729 409.392 224.505 409.65C224.28 409.908 224.044 410.167 223.796 410.391C223.549 410.627 223.29 410.852 223.02 411.054C222.751 411.256 222.458 411.459 222.177 411.627C221.885 411.807 221.581 411.964 221.266 412.099C220.952 412.234 220.637 412.357 220.311 412.447C219.973 412.548 219.636 412.627 219.321 412.672C218.961 412.728 218.602 412.75 218.298 412.762C217.938 412.773 217.578 412.784 217.219 412.795L216.915 412.807C216.038 412.829 215.139 412.863 214.273 412.896C213.891 412.908 213.497 412.93 213.115 412.941C211.574 412.998 210 413.043 208.494 413.076L206.897 413.121C204.693 413.177 202.478 413.256 200.274 413.323L198.599 413.379C195.766 413.469 192.932 413.559 190.099 413.638L187.535 413.717C182.959 413.851 178.383 413.997 173.807 414.143L168.174 414.323C162.597 414.492 157.009 414.671 151.432 414.84L140.514 415.177C136.05 415.312 131.44 415.379 126.819 415.357C123.187 415.345 119.499 415.289 115.868 415.177C113.394 415.109 110.516 415.008 107.671 414.716L74.1872 411.268C74.0523 411.256 73.9174 411.234 73.7937 411.223C73.7937 411.223 73.7937 411.223 73.7824 411.223C73.8387 411.211 73.8949 411.211 73.9511 411.2C74.637 411.11 75.2104 411.065 75.7726 411.02C77.0881 410.919 78.4823 410.83 79.7079 410.762C81.6643 410.672 83.5195 410.616 85.1723 410.571ZM189.121 362.245C189.143 362.414 189.211 362.56 189.323 362.672L189.919 367.806L184.915 367.862L184.252 362.122C185.871 362.155 187.502 362.2 189.121 362.245ZM200.297 374.411C200.083 376.186 199.712 377.556 199.105 378.736C198.678 379.567 198.194 380.196 197.666 380.623C196.868 380.207 196.092 379.522 195.316 378.511C194.383 377.309 193.607 375.86 192.943 374.085C192.201 372.086 191.695 369.985 191.437 367.84L190.863 362.931L199.656 363.155L200.297 368.615C200.522 370.547 200.533 372.501 200.297 374.411ZM189.953 368.042C190.222 370.288 190.751 372.49 191.538 374.591C192.258 376.512 193.101 378.084 194.135 379.41C194.911 380.41 195.698 381.162 196.541 381.679L193.123 381.735C191.954 381.679 190.74 380.983 189.537 379.691C188.39 378.455 187.513 376.972 186.692 374.86C185.815 372.625 185.242 370.345 184.972 368.087L189.953 368.042ZM74.2097 417.693L74.2884 411.526L107.536 414.952L107.48 421.467L74.2097 417.693ZM72.748 411.391C72.8042 411.38 72.8492 411.369 72.9054 411.358C73.0179 411.38 73.1303 411.391 73.2428 411.402L73.3552 411.414C73.4901 411.425 73.6138 411.447 73.7487 411.459C73.8499 411.47 73.9511 411.481 74.041 411.492L73.9623 417.659C73.7262 417.637 73.5014 417.603 73.254 417.558C73.0516 417.525 72.838 417.491 72.6581 417.446L72.748 411.391ZM107.705 421.501L107.761 414.975C110.561 415.255 113.394 415.357 115.845 415.424C119.477 415.525 123.165 415.592 126.808 415.604C127.269 415.604 127.73 415.604 128.18 415.604C132.295 415.604 136.399 415.548 140.379 415.424L140.334 421.995C135.904 422.142 131.339 422.209 126.752 422.198C123.12 422.186 119.443 422.119 115.812 422.007C113.36 421.928 110.504 421.816 107.705 421.501ZM228.878 362.358C228.856 362.358 228.845 362.369 228.822 362.369C228.811 362.369 228.8 362.369 228.777 362.369C228.755 362.369 228.743 362.38 228.721 362.391C228.406 362.436 228.181 362.672 228.125 362.976C224.201 362.874 220.266 362.773 216.342 362.683L211.878 362.571C208.381 362.481 204.884 362.403 201.399 362.313C201.354 361.953 201.061 361.672 200.69 361.661L189.874 361.392C189.492 361.38 189.199 361.65 189.132 362.009C182.284 361.841 175.426 361.672 168.578 361.493L168.264 361.482C167.06 361.448 165.857 361.425 164.654 361.392C164.598 361.032 164.317 360.751 163.946 360.74L139.783 360.133C127.438 359.819 115.081 359.516 102.724 359.212L89.9959 358.898C79.944 358.651 69.9034 358.404 59.8627 358.145L54.3533 357.999C49.0462 357.864 43.7504 357.73 38.4434 357.595L35.6774 357.527C33.0239 357.46 30.3704 357.404 27.7281 357.336L26.3676 357.303C25.0409 357.269 23.7029 357.235 22.3649 357.202L21.724 357.19C21.0494 357.179 20.3635 357.157 19.6889 357.145L19.3291 357.134C18.9355 357.123 18.542 357.112 18.1035 357.1C17.7662 357.089 17.4514 357.089 17.1815 357.022L9.28842 354.944C10.0417 354.966 10.7951 354.977 11.5372 354.977L12.4816 354.989C14.2806 355.011 16.1134 355.056 17.8899 355.112C18.5645 355.135 19.2391 355.146 19.9137 355.168C22.6347 355.236 25.3894 355.281 28.0654 355.326L30.5278 355.371C34.8229 355.449 39.1855 355.539 43.4131 355.629L47.5171 355.719C52.9141 355.831 58.3111 355.943 63.6968 356.045L68.7453 356.146C77.0206 356.303 85.296 356.483 93.5602 356.651L102.701 356.842C109.931 356.988 117.161 357.134 124.402 357.28L150.69 357.808C157.335 357.943 163.991 358.078 170.636 358.213L176.19 358.325C182.824 358.46 189.469 358.595 196.114 358.729L201.365 358.842C206.695 358.954 212.024 359.066 217.354 359.167L221.48 359.246C225.685 359.325 230.037 359.403 234.332 359.504L236.67 359.561C239.043 359.617 241.494 359.684 243.9 359.718L245.44 359.74C246.756 359.763 248.116 359.774 249.466 359.808H249.533C249.803 359.819 250.073 359.819 250.343 359.819C250.59 359.819 250.826 359.808 251.074 359.797C251.332 359.774 251.602 359.752 251.872 359.707C252.13 359.662 252.4 359.617 252.659 359.549C252.996 359.471 253.345 359.37 253.693 359.246C254.098 359.1 254.525 358.932 254.93 358.741C255.402 358.527 255.875 358.269 256.347 357.988C256.785 357.718 257.235 357.426 257.674 357.1C258.09 356.797 258.517 356.46 258.933 356.101C259.326 355.764 259.72 355.404 260.114 355.022C260.485 354.663 260.856 354.27 261.227 353.877C261.575 353.495 261.935 353.09 262.272 352.675C262.61 352.27 262.936 351.843 263.262 351.416C263.577 351.001 263.891 350.563 264.195 350.113C264.589 349.54 264.982 348.934 265.353 348.327C265.803 347.586 266.253 346.811 266.669 346.013C267.163 345.092 267.636 344.126 268.074 343.149C268.513 342.183 268.917 341.194 269.3 340.206C269.671 339.228 270.019 338.217 270.345 337.195C270.671 336.15 270.964 335.117 271.211 334.128C271.481 333.039 271.717 331.949 271.908 331.017C272.133 329.927 272.347 328.849 272.56 327.759L272.74 326.849C273.257 324.209 273.808 321.513 274.337 318.918C274.573 317.75 274.809 316.582 275.045 315.414C275.956 310.887 276.867 306.281 277.755 301.821C278.092 300.114 278.43 298.395 278.767 296.688C279.869 291.138 280.982 285.589 282.095 280.051C282.646 277.321 283.186 274.592 283.737 271.862L297.735 276.468C297.027 280.062 296.318 283.657 295.599 287.24C294.497 292.801 293.395 298.373 292.304 303.933C291.944 305.798 291.585 307.674 291.214 309.539C290.348 314.021 289.448 318.649 288.538 323.187L288.043 325.625C287.571 327.972 287.076 330.41 286.615 332.814L286.491 333.454C286.233 334.814 285.963 336.229 285.648 337.588C285.446 338.476 285.21 339.374 284.951 340.262C284.76 340.936 284.546 341.599 284.332 342.239C284.119 342.89 283.883 343.542 283.635 344.193C283.388 344.845 283.129 345.485 282.871 346.114C282.601 346.755 282.309 347.395 282.028 348.001C281.735 348.619 281.42 349.248 281.094 349.855C280.768 350.473 280.431 351.079 280.082 351.664C279.723 352.259 279.363 352.854 278.98 353.416C278.598 354 278.193 354.562 277.8 355.101C277.384 355.663 276.957 356.202 276.518 356.707C276.068 357.235 275.607 357.752 275.135 358.224C274.652 358.718 274.146 359.19 273.651 359.628C273.212 360.01 272.774 360.358 272.324 360.684C271.953 360.954 271.582 361.201 271.211 361.437C270.93 361.616 270.638 361.774 270.345 361.931C270.053 362.088 269.749 362.234 269.446 362.369C269.142 362.504 268.827 362.627 268.524 362.728C268.209 362.841 267.894 362.931 267.579 363.009C267.253 363.088 266.938 363.144 266.624 363.189C266.309 363.234 265.983 363.256 265.657 363.268C265.286 363.279 264.903 363.268 264.532 363.245L264.296 363.234C263.7 363.211 263.093 363.2 262.497 363.189L261.834 363.178C260.934 363.166 260.046 363.133 259.147 363.11L258.337 363.088C256.932 363.043 255.526 363.02 254.109 362.987L252.715 362.953C250.939 362.908 249.173 362.863 247.397 362.818L228.878 362.358ZM323.056 2.63259C323.652 2.40792 324.27 2.23942 324.911 2.11585C326.125 1.87995 327.34 1.98105 328.52 2.41915C329.094 2.63259 329.622 2.92465 330.083 3.29535C330.218 3.40769 330.387 3.46385 330.555 3.46385C330.634 3.46385 330.724 3.44139 330.803 3.41892L331.399 3.68852C331.5 3.81209 331.612 3.93565 331.714 4.05922C331.927 4.34005 332.141 4.64335 332.332 4.95789C332.512 5.26119 332.692 5.58695 332.849 5.92395C332.995 6.24972 333.142 6.58672 333.276 6.93496C333.4 7.27196 333.513 7.62019 333.614 7.97966C333.749 8.42899 333.861 8.91202 333.951 9.40629C334.064 9.97919 334.153 10.597 334.221 11.2149C334.3 11.9226 334.345 12.664 334.356 13.4166C334.367 14.1243 334.356 14.8657 334.311 15.6183C334.266 16.3373 334.21 17.0787 334.12 17.8201C334.019 18.7075 333.872 19.6623 333.67 20.7295C333.49 21.718 333.276 22.7178 333.085 23.6839L332.95 24.3354C332.523 26.4136 332.107 28.5254 331.714 30.5811C331.556 31.4012 331.399 32.21 331.241 33.03C330.6 36.3214 329.915 39.6577 329.262 42.8816L328.622 46.0494C327.43 51.9132 326.249 57.8669 325.102 63.6408L324 69.2013C322.55 76.4918 321.088 83.7934 319.627 91.0839L318.21 98.1272C315.871 109.799 313.544 121.47 311.205 133.141L308.956 144.409C306.168 158.349 303.379 172.29 300.591 186.219L297.386 202.26C294.384 217.279 291.382 232.309 288.38 247.328L283.523 271.604L14.3144 293.329L43.1096 178.198C44.3239 173.357 45.527 168.515 46.7413 163.685L47.4384 160.899C48.4166 157.012 49.3836 153.126 50.3505 149.239L51.1263 146.127C52.0708 142.353 53.004 138.578 53.9597 134.804L54.6681 132.007C55.354 129.333 56.0286 126.649 56.692 123.964L57.1867 121.931C57.5578 120.403 57.9288 118.875 58.3223 117.347C58.5022 116.64 58.7159 115.797 58.9632 114.977C59.1319 114.393 59.3118 113.809 59.5141 113.225C59.7053 112.641 59.9077 112.068 60.1213 111.495C60.3349 110.922 60.5598 110.349 60.7847 109.787C61.0208 109.226 61.2569 108.664 61.5155 108.102C61.7629 107.541 62.0328 106.99 62.3026 106.451C62.5725 105.901 62.8535 105.361 63.1571 104.833C63.4607 104.294 63.7643 103.755 64.0791 103.25C64.4052 102.722 64.7312 102.205 65.0686 101.722C65.4171 101.205 65.7881 100.711 66.1367 100.262C66.5302 99.756 66.9125 99.3179 67.3061 98.891C67.6659 98.4979 68.0144 98.1609 68.363 97.8576C68.6666 97.588 68.9701 97.3521 69.2737 97.1386C69.5323 96.9589 69.7572 96.8129 69.9821 96.7005C70.2407 96.5657 70.5218 96.4534 70.7579 96.3635C71.1627 96.2063 71.5787 96.0602 71.9947 95.9142L72.4894 95.7345C73.1528 95.4986 73.8162 95.2402 74.4683 94.9931L75.1092 94.7459C76.2786 94.2966 77.4592 93.8697 78.6397 93.4316L79.7641 93.016C81.2258 92.4768 82.6875 91.9376 84.1492 91.3872L85.5884 90.848C87.511 90.129 89.4337 89.4213 91.3564 88.7024L92.5707 88.2531C95.9101 87.0174 99.2382 85.7705 102.578 84.5348L106.535 83.0633C111.753 81.1199 116.97 79.1878 122.198 77.2444L127.494 75.2786C136.747 71.8412 145.99 68.4038 155.243 64.9776L323.056 2.63259ZM14.2019 293.688L14.2357 293.565L283.455 271.839C282.916 274.558 282.365 277.276 281.825 280.006C280.712 285.555 279.599 291.105 278.497 296.643C278.16 298.35 277.822 300.069 277.485 301.776C276.608 306.236 275.697 310.842 274.775 315.369C274.539 316.537 274.303 317.705 274.067 318.873C273.539 321.468 272.988 324.164 272.47 326.804L272.29 327.714C272.077 328.804 271.863 329.882 271.638 330.972C271.447 331.904 271.211 332.994 270.952 334.072C270.705 335.061 270.413 336.083 270.087 337.128C269.761 338.15 269.412 339.161 269.041 340.127C268.67 341.115 268.254 342.104 267.827 343.059C267.388 344.036 266.916 344.991 266.421 345.912C266.005 346.698 265.555 347.474 265.106 348.204C264.735 348.81 264.352 349.406 263.959 349.979C263.655 350.417 263.352 350.855 263.037 351.27C262.722 351.697 262.385 352.113 262.059 352.517C261.721 352.933 261.373 353.337 261.024 353.719C260.664 354.112 260.293 354.494 259.922 354.854C259.54 355.236 259.147 355.595 258.753 355.921C258.348 356.269 257.921 356.606 257.516 356.91C257.078 357.224 256.639 357.527 256.201 357.786C255.74 358.067 255.267 358.314 254.806 358.527C254.402 358.718 253.986 358.887 253.592 359.021C253.255 359.134 252.918 359.235 252.58 359.313C252.322 359.37 252.063 359.426 251.804 359.471C251.535 359.516 251.276 359.549 251.029 359.561C250.534 359.594 250.017 359.583 249.522 359.572H249.454C248.105 359.538 246.745 359.516 245.429 359.504L243.889 359.482C241.483 359.448 239.032 359.381 236.659 359.325L234.32 359.269C230.025 359.167 225.674 359.089 221.469 359.01L217.342 358.932C212.013 358.83 206.683 358.718 201.354 358.606L196.103 358.493C189.458 358.359 182.824 358.224 176.179 358.089L170.625 357.977C163.98 357.842 157.335 357.707 150.678 357.572L124.39 357.044C117.161 356.898 109.931 356.752 102.69 356.606L93.5489 356.415C85.2735 356.247 76.9982 356.078 68.7228 355.91L63.6743 355.809C58.2773 355.708 52.8803 355.595 47.4946 355.483L43.3906 355.393C39.163 355.303 34.8004 355.202 30.5053 355.135L28.043 355.09C25.3669 355.045 22.6122 355 19.8913 354.932C19.2166 354.91 18.542 354.899 17.8674 354.876C16.0909 354.831 14.2581 354.775 12.4591 354.753L11.5147 354.742C10.6039 354.73 9.67071 354.73 8.74872 354.697L8.27649 354.674C8.26524 354.674 8.254 354.674 8.23151 354.674L7.78176 354.551C7.69181 354.247 7.42196 354.023 7.08465 354.011L6.16266 353.989C5.98276 353.989 5.80286 353.989 5.6342 353.966C5.51052 353.955 5.39809 353.921 5.27441 353.877C5.15072 353.832 5.03829 353.787 4.92585 353.73C4.81342 353.674 4.71222 353.596 4.59978 353.517C4.49859 353.438 4.3974 353.337 4.29621 353.247C4.17253 353.113 4.04885 352.967 3.93641 352.809C3.80148 352.618 3.6778 352.405 3.55412 352.169C3.41919 351.899 3.30676 351.619 3.19432 351.315C3.09312 351.034 3.00317 350.72 2.91322 350.394C2.81203 350.001 2.72209 349.563 2.65462 349.125C2.57592 348.608 2.50845 348.058 2.46347 347.485C2.4185 346.856 2.39601 346.182 2.39601 345.496C2.39601 344.856 2.4185 344.182 2.46347 343.486C2.50845 342.834 2.56467 342.16 2.64338 341.475C2.72208 340.823 2.81203 340.149 2.91322 339.475C3.04815 338.599 3.21681 337.712 3.40795 336.824C3.70029 335.488 4.04884 334.14 4.38615 332.825L4.54356 332.196C5.12824 329.927 5.67918 327.658 6.23012 325.4L6.84853 322.895C7.64683 319.637 8.46762 316.391 9.28842 313.144L10.1767 309.628C11.0649 306.09 11.9532 302.551 12.8302 299.013L14.2019 293.688ZM297.746 276.232L283.748 271.626L288.594 247.362C291.596 232.343 294.598 217.313 297.6 202.294L300.805 186.253C303.593 172.312 306.381 158.372 309.17 144.442L311.419 133.175C313.746 121.504 316.085 109.832 318.423 98.1609L319.84 91.1176C321.302 83.8271 322.764 76.5255 324.214 69.235L325.316 63.6745C326.463 57.9118 327.643 51.9469 328.835 46.0831L329.476 42.9266C330.128 39.7026 330.814 36.3551 331.455 33.0749C331.612 32.2549 331.77 31.4461 331.927 30.6261C332.321 28.5816 332.737 26.4697 333.164 24.3916L333.299 23.74C333.501 22.774 333.704 21.763 333.884 20.7744C334.075 19.696 334.232 18.7412 334.333 17.8538C334.423 17.1124 334.491 16.371 334.525 15.6408C334.569 14.8769 334.581 14.1355 334.569 13.4166C334.558 12.6527 334.513 11.9113 334.435 11.1924C334.367 10.5633 334.277 9.94549 334.165 9.36136C334.064 8.85586 333.951 8.37282 333.816 7.91225C333.715 7.55279 333.591 7.19332 333.468 6.85632C333.333 6.49686 333.186 6.14862 333.04 5.82285C332.883 5.48585 332.703 5.14885 332.512 4.83432C332.309 4.50855 332.096 4.19402 331.882 3.91319L342.474 8.69859C342.766 8.83339 343.047 8.97942 343.306 9.15915C343.564 9.32766 343.823 9.52986 344.07 9.74329C344.307 9.95672 344.531 10.1926 344.745 10.4398C345.015 10.7655 345.273 11.125 345.51 11.5069C345.791 11.9563 346.038 12.4618 346.263 13.001C346.51 13.5963 346.724 14.2479 346.893 14.9443C347.05 15.5846 347.185 16.2699 347.275 16.9776C347.365 17.6403 347.421 18.3368 347.455 19.0557C347.489 19.7297 347.488 20.4374 347.466 21.1451C347.444 21.8191 347.399 22.5268 347.331 23.2458C347.264 23.9422 347.174 24.6499 347.073 25.3352C346.926 26.29 346.735 27.2673 346.567 28.121L345.6 33.0412C344.88 36.6584 344.172 40.2867 343.463 43.9151L342.564 48.5208C340.798 57.5187 339.022 66.5053 337.245 75.5032L335.345 85.0965C331.68 103.654 328.037 122.223 324.383 140.791L319.84 163.887C315.365 186.623 310.89 209.348 306.415 232.073C303.537 246.789 300.636 261.516 297.746 276.232Z" fill="url(#paint0_linear_595_296)"/>
<defs>
<linearGradient id="paint0_linear_595_296" x1="0.929154" y1="212.092" x2="349.015" y2="212.092" gradientUnits="userSpaceOnUse">
<stop stop-color="#ED1E79"/>
<stop offset="0.2061" stop-color="#AA1657"/>
<stop offset="0.4134" stop-color="#6E0E38"/>
<stop offset="0.604" stop-color="#3F0820"/>
<stop offset="0.7713" stop-color="#1C040F"/>
<stop offset="0.909" stop-color="#080104"/>
<stop offset="1"/>
</linearGradient>
</defs>
</svg>
