<svg width="86" height="107" viewBox="0 0 86 107" fill="none" xmlns="http://www.w3.org/2000/svg">
<g opacity="0.3">
<path d="M9.18737 36.056C12.2232 30.1136 15.8661 24.789 19.8802 20.1833C23.9504 15.5215 28.4591 11.5674 33.1702 8.46697C37.9938 5.29917 43.076 3.0188 48.1581 1.82807C53.3977 0.603636 58.6823 0.547466 63.697 1.92917C68.9028 3.36703 73.3328 6.2203 76.8409 10.2194C80.4839 14.3645 83.1149 19.7228 84.5878 25.9348C86.1057 32.3266 86.3756 39.5608 85.2737 47.2107C84.1493 54.9842 81.6082 63.0722 77.583 70.9468C73.5577 78.8214 68.4868 85.6175 62.8425 91.0882C57.2881 96.4689 51.2614 100.49 45.1898 103.007C39.2868 105.456 33.4064 106.467 27.9082 105.95C22.6011 105.456 17.6989 103.546 13.4712 100.165C9.41225 96.9183 6.3652 92.6159 4.27386 87.6508C2.24999 82.8429 1.12561 77.3947 0.867008 71.632C0.608402 66.0041 1.18184 60.028 2.56481 54.0069C3.95904 48.0645 6.15156 41.9985 9.18737 36.056ZM76.6722 70.4862C80.6075 62.7914 83.0811 54.9056 84.1943 47.3118C85.2849 39.8417 85.0263 32.7647 83.5646 26.5077C82.1367 20.4192 79.5731 15.1733 76.0313 11.1068C72.602 7.17513 68.2844 4.3668 63.191 2.94017C58.2887 1.5697 53.1166 1.6034 47.9782 2.79413C42.9973 3.93993 38.0051 6.17537 33.2714 9.26453C28.639 12.2975 24.209 16.173 20.2175 20.745C16.2709 25.2608 12.6954 30.4955 9.70458 36.3256C6.72499 42.1557 4.57745 48.1207 3.2282 53.962C1.86771 59.882 1.31676 65.7458 1.57537 71.2613C1.84522 76.9117 2.95835 82.2475 4.94849 86.9543C7.00609 91.8071 10.0082 96.0196 13.9884 99.1762C18.1261 102.456 22.9497 104.31 28.1443 104.782C33.5188 105.265 39.2756 104.265 45.0549 101.85C50.9916 99.3671 56.872 95.4242 62.2915 90.167C67.8009 84.82 72.7482 78.1811 76.6722 70.4862Z" fill="#0098FF"/>
</g>
</svg>
